M48
;DRILL file {KiCad (5.0.2)-1} date 4/28/2019 2:16:48 PM
;FORMAT={-:-/ absolute / inch / decimal}
FMAT,2
INCH,TZ
T1C0.0157
T2C0.0236
T3C0.0315
T4C0.0319
T5C0.0330
T6C0.0394
T7C0.0394
T8C0.0512
T9C0.0551
T10C0.0591
T11C0.0906
T12C0.1260
%
G90
G05
T1
X6.9Y-2.99
X6.978Y-4.222
X6.978Y-4.264
X6.982Y-4.062
X6.984Y-4.136
X7.082Y-2.596
X7.1Y-2.16
X7.192Y-3.842
X7.2067Y-4.2923
X7.2389Y-4.3148
X7.262Y-4.74
X7.288Y-4.58
X7.316Y-4.864
X7.32Y-2.2
X7.372Y-4.484
X7.46Y-2.822
X7.482Y-4.4
X7.5525Y-4.562
X7.5901Y-4.3698
X7.5919Y-4.3304
X7.65Y-2.75
X7.652Y-4.298
X7.7Y-2.75
X7.7Y-2.8
X7.708Y-4.886
X7.716Y-4.638
X7.75Y-3.95
X7.75Y-4.
X7.8Y-3.95
X7.8Y-4.
X7.85Y-3.95
X7.85Y-4.
X7.86Y-3.52
X7.86Y-4.552
X7.86Y-4.688
X7.9182Y-3.0422
X7.94Y-2.98
X7.94Y-4.6923
X8.022Y-3.874
X8.0629Y-3.9359
X8.088Y-4.588
X8.0915Y-4.0087
X8.098Y-4.438
X8.098Y-4.884
X8.192Y-4.694
X8.2164Y-4.572
X8.2223Y-4.516
X8.232Y-4.45
X8.24Y-1.92
X8.256Y-4.618
X8.3212Y-4.1952
X8.348Y-4.4991
X8.392Y-3.306
X8.4075Y-3.156
X8.422Y-4.548
X8.436Y-3.088
X8.478Y-4.898
X8.5078Y-3.3018
X8.574Y-2.732
X8.642Y-3.442
X8.646Y-4.198
X8.648Y-2.8166
X8.65Y-3.25
X8.668Y-4.284
X8.688Y-2.438
X8.6995Y-4.6589
X8.724Y-3.856
X8.7363Y-4.632
X8.7552Y-4.7109
X8.7566Y-4.6666
X8.77Y-4.344
X8.7739Y-4.561
X8.7817Y-4.74
X8.8Y-4.98
X8.8001Y-4.5905
X8.804Y-2.748
X8.8099Y-4.7675
X8.8137Y-4.2266
X8.8806Y-3.878
X8.882Y-3.6485
X8.886Y-3.724
X8.926Y-3.6625
X8.926Y-4.894
X8.946Y-3.29
X8.948Y-3.554
X8.96Y-3.92
X8.99Y-2.22
X8.9929Y-4.2026
X8.998Y-3.7728
X8.9999Y-4.1638
X9.0073Y-3.698
X9.008Y-3.592
X9.012Y-4.582
X9.028Y-3.972
X9.05Y-4.2
X9.05Y-4.35
X9.0541Y-3.788
X9.058Y-3.9997
X9.0745Y-3.861
X9.0757Y-3.7012
X9.0759Y-3.7405
X9.0794Y-3.8219
X9.084Y-4.0293
X9.0851Y-4.1821
X9.098Y-3.78
X9.1073Y-4.061
X9.1096Y-4.6497
X9.115Y-2.685
X9.1245Y-4.1827
X9.1433Y-4.0769
X9.1638Y-4.1818
X9.1711Y-4.1048
X9.1811Y-4.1429
X9.186Y-4.426
X9.208Y-4.178
X9.212Y-4.636
X9.216Y-4.514
X9.26Y-4.52
X9.27Y-3.662
X9.294Y-3.478
X9.3Y-2.942
X9.31Y-3.17
X9.332Y-4.896
X9.34Y-4.42
X9.35Y-4.15
X9.35Y-4.35
X9.38Y-2.94
X9.38Y-4.52
X9.39Y-4.69
X9.4Y-3.4
X9.404Y-3.184
X9.46Y-4.3
X9.462Y-4.68
X9.5Y-4.25
X9.5237Y-3.6714
X9.54Y-4.28
X9.566Y-4.71
X9.6Y-4.98
X9.614Y-3.842
X9.628Y-4.602
X9.698Y-3.456
X9.728Y-3.374
X9.728Y-4.892
X9.808Y-3.636
X9.832Y-3.748
X9.86Y-3.836
X9.88Y-4.32
X10.0246Y-4.9795
X10.05Y-2.5
X10.05Y-2.6
X10.05Y-2.7
X10.0531Y-5.0067
X10.072Y-5.4
X10.0724Y-5.3546
X10.078Y-5.314
X10.08Y-5.12
X10.0817Y-5.0806
X10.104Y-3.93
X10.1102Y-5.0413
X10.15Y-2.5
X10.15Y-2.6
X10.15Y-2.7
X10.16Y-3.64
X10.18Y-3.12
X10.18Y-3.16
X10.18Y-3.2
X10.18Y-3.24
X10.18Y-3.28
X10.2323Y-2.7
X10.25Y-2.5
X10.25Y-2.6
X10.3Y-3.24
X10.3Y-3.28
X10.34Y-3.24
X10.34Y-3.28
X10.35Y-2.6
X10.35Y-2.7
X10.368Y-2.5
X10.4Y-2.925
X10.4Y-2.975
X10.4Y-3.025
X10.4Y-3.075
X10.45Y-2.925
X10.45Y-2.975
X10.45Y-3.025
X10.45Y-3.075
T3
X10.27Y-3.656
X10.27Y-3.756
X10.27Y-3.856
X10.27Y-3.956
X10.27Y-4.056
X10.27Y-4.156
X10.27Y-4.256
X10.27Y-4.356
X10.27Y-4.456
X10.27Y-4.556
X10.57Y-3.656
X10.57Y-3.756
X10.57Y-3.856
X10.57Y-3.956
X10.57Y-4.056
X10.57Y-4.156
X10.57Y-4.256
X10.57Y-4.356
X10.57Y-4.456
X10.57Y-4.556
X7.0175Y-2.8875
X7.0175Y-2.9875
X7.0175Y-3.0875
X7.3175Y-2.8875
X7.3175Y-2.9875
X7.3175Y-3.0875
X7.61Y-2.88
X7.61Y-2.98
X7.61Y-3.08
X7.61Y-3.18
X7.61Y-3.28
X7.61Y-3.38
X7.61Y-3.48
X7.61Y-3.58
X7.61Y-3.68
X7.61Y-3.78
X7.61Y-3.88
X7.61Y-3.98
X8.21Y-2.88
X8.21Y-2.98
X8.21Y-3.08
X8.21Y-3.18
X8.21Y-3.28
X8.21Y-3.38
X8.21Y-3.48
X8.21Y-3.58
X8.21Y-3.68
X8.21Y-3.78
X8.21Y-3.88
X8.21Y-3.98
X9.205Y-2.88
X9.205Y-2.98
X9.205Y-3.08
X9.205Y-3.18
X9.205Y-3.28
X9.205Y-3.38
X9.205Y-3.48
X9.205Y-3.58
X9.505Y-2.88
X9.505Y-2.98
X9.505Y-3.08
X9.505Y-3.18
X9.505Y-3.28
X9.505Y-3.38
X9.505Y-3.48
X9.505Y-3.58
T4
X8.195Y-2.3238
X8.195Y-2.4025
X8.295Y-2.3238
X8.295Y-2.4025
T5
X8.595Y-2.3245
X8.695Y-2.2245
X8.795Y-2.3245
T6
X8.645Y-1.8775
X8.645Y-1.9775
X8.645Y-2.0775
X8.745Y-1.8775
X8.745Y-1.9775
X8.745Y-2.0775
X9.3328Y-5.0622
X9.3328Y-5.3181
X9.51Y-5.0622
X9.51Y-5.3181
X6.9328Y-5.0622
X6.9328Y-5.3181
X7.11Y-5.0622
X7.11Y-5.3181
X8.9328Y-5.0622
X8.9328Y-5.3181
X9.11Y-5.0622
X9.11Y-5.3181
X9.7328Y-5.0622
X9.7328Y-5.3181
X9.91Y-5.0622
X9.91Y-5.3181
X8.5328Y-5.0622
X8.5328Y-5.3181
X8.71Y-5.0622
X8.71Y-5.3181
X7.7328Y-5.0622
X7.7328Y-5.3181
X7.91Y-5.0622
X7.91Y-5.3181
X8.1328Y-5.0622
X8.1328Y-5.3181
X8.31Y-5.0622
X8.31Y-5.3181
X7.3328Y-5.0622
X7.3328Y-5.3181
X7.51Y-5.0622
X7.51Y-5.3181
X9.758Y-4.534
X9.758Y-4.7112
X10.0139Y-4.534
X10.0139Y-4.7112
X10.209Y-4.9461
X10.209Y-5.517
X10.3074Y-5.517
X10.4059Y-4.9461
X10.4059Y-5.517
X7.654Y-1.986
T7
X7.2446Y-2.6073
X7.3446Y-2.6073
X7.4446Y-2.6073
X7.5446Y-2.6073
X7.6446Y-2.6073
X7.7446Y-2.6073
X7.8446Y-2.6073
X7.9446Y-2.6073
X8.0446Y-2.6073
X8.1446Y-2.6073
X8.2446Y-2.6073
X8.3446Y-2.6073
X8.4446Y-2.6073
X8.5446Y-2.6073
X8.6446Y-2.6073
X8.7446Y-2.6073
T8
X9.6654Y-3.1102
X9.8622Y-3.1102
X9.6654Y-2.5787
X9.8622Y-2.5787
T9
X6.9197Y-2.3281
X7.0181Y-1.9344
X7.0181Y-2.4265
X7.215Y-2.3281
X7.4119Y-1.9344
X7.4119Y-2.4265
X7.5103Y-2.3281
T11
X8.0088Y-2.2175
X8.4812Y-2.2175
T12
X6.9493Y-2.6073
X6.9493Y-4.7727
X10.6107Y-2.6073
X10.6107Y-4.7727
T2
X9.386Y-1.9739G85X9.386Y-1.9975
G05
X9.386Y-2.092G85X9.386Y-2.1156
G05
X9.386Y-2.2495G85X9.386Y-2.2731
G05
X9.5632Y-2.3085G85X9.5632Y-2.3321
G05
X9.6025Y-1.9739G85X9.6025Y-1.9975
G05
T6
X10.345Y-2.2125G85X10.345Y-2.2913
G05
X10.5694Y-2.1338G85X10.4906Y-2.1338
G05
X10.5694Y-2.37G85X10.4906Y-2.37
G05
T10
X10.087Y-5.2473G85X10.087Y-5.1961
G05
X10.5279Y-5.2473G85X10.5279Y-5.1961
G05
T0
M30
