%TF.GenerationSoftware,KiCad,Pcbnew,(5.0.2)-1*%
%TF.CreationDate,2019-05-15T16:35:15-07:00*%
%TF.ProjectId,YM2612_MIDI_SMD,594d3236-3132-45f4-9d49-44495f534d44,rev?*%
%TF.SameCoordinates,Original*%
%TF.FileFunction,Paste,Top*%
%TF.FilePolarity,Positive*%
%FSLAX46Y46*%
G04 Gerber Fmt 4.6, Leading zero omitted, Abs format (unit mm)*
G04 Created by KiCad (PCBNEW (5.0.2)-1) date 5/15/2019 4:35:15 PM*
%MOMM*%
%LPD*%
G01*
G04 APERTURE LIST*
%ADD10C,0.150000*%
%ADD11R,2.000000X1.780000*%
%ADD12R,2.200000X1.400000*%
%ADD13R,1.400000X1.800000*%
%ADD14R,1.400000X1.600000*%
%ADD15R,1.400000X0.700000*%
%ADD16C,1.000000*%
%ADD17C,0.100000*%
%ADD18R,1.000000X1.250000*%
%ADD19R,3.500000X1.600000*%
%ADD20R,2.500000X1.800000*%
%ADD21R,5.250000X4.550000*%
%ADD22R,1.100000X4.600000*%
%ADD23R,3.300000X0.950000*%
%ADD24R,0.950000X3.300000*%
%ADD25R,4.000000X2.500000*%
%ADD26R,2.500000X4.000000*%
%ADD27C,2.000000*%
%ADD28R,0.900000X1.200000*%
%ADD29R,1.200000X1.200000*%
%ADD30R,0.700000X1.300000*%
%ADD31R,1.300000X0.700000*%
%ADD32C,0.750000*%
%ADD33R,1.250000X1.000000*%
%ADD34R,1.600000X1.000000*%
%ADD35R,0.750000X0.800000*%
%ADD36R,1.000000X1.600000*%
%ADD37R,0.800000X0.750000*%
%ADD38C,0.700000*%
%ADD39C,0.550000*%
%ADD40R,1.550000X0.600000*%
%ADD41R,2.000000X1.500000*%
%ADD42R,2.000000X3.800000*%
%ADD43R,1.500000X0.600000*%
G04 APERTURE END LIST*
D10*
X273000000Y-142000000D02*
X273000000Y-48000000D01*
X176000000Y-145000000D02*
X270000000Y-145000000D01*
X173000000Y-48000000D02*
X173000000Y-142000000D01*
X270000000Y-45000000D02*
X176000000Y-45000000D01*
X270000000Y-45000000D02*
G75*
G02X273000000Y-48000000I0J-3000000D01*
G01*
X273000000Y-142000000D02*
G75*
G02X270000000Y-145000000I-3000000J0D01*
G01*
X176000000Y-145000000D02*
G75*
G02X173000000Y-142000000I0J3000000D01*
G01*
X173000000Y-48000000D02*
G75*
G02X176000000Y-45000000I3000000J0D01*
G01*
D11*
X178054000Y-73152000D03*
X185674000Y-78232000D03*
X178054000Y-75692000D03*
X185674000Y-75692000D03*
X178054000Y-78232000D03*
X185674000Y-73152000D03*
D12*
X177851000Y-96317000D03*
X177851000Y-112014000D03*
D13*
X187452000Y-111125000D03*
D14*
X187350000Y-96317000D03*
D15*
X187960000Y-97626000D03*
X187960000Y-98726000D03*
X187960000Y-99826000D03*
X187960000Y-100926000D03*
X187960000Y-102026000D03*
X187960000Y-103126000D03*
X187960000Y-104226000D03*
X187960000Y-105326000D03*
X187960000Y-106426000D03*
D16*
X218139293Y-116886707D03*
D17*
G36*
X218050905Y-116091212D02*
X218934788Y-116975095D01*
X218227681Y-117682202D01*
X217343798Y-116798319D01*
X218050905Y-116091212D01*
X218050905Y-116091212D01*
G37*
D16*
X219553507Y-115472493D03*
D17*
G36*
X219465119Y-114676998D02*
X220349002Y-115560881D01*
X219641895Y-116267988D01*
X218758012Y-115384105D01*
X219465119Y-114676998D01*
X219465119Y-114676998D01*
G37*
D18*
X208600800Y-70764400D03*
X210600800Y-70764400D03*
D19*
X264536201Y-87541801D03*
X269936201Y-87541801D03*
X269936201Y-80691801D03*
X264536201Y-80691801D03*
D20*
X260775200Y-85242400D03*
X256775200Y-85242400D03*
D21*
X261550200Y-69255600D03*
X256000200Y-64405600D03*
X256000200Y-69255600D03*
X261550200Y-64405600D03*
D22*
X262175200Y-75980600D03*
X260475200Y-75980600D03*
X258775200Y-75980600D03*
X257075200Y-75980600D03*
X255375200Y-75980600D03*
D23*
X214122000Y-76252800D03*
X214122000Y-73202800D03*
D24*
X257200400Y-80822800D03*
X260250400Y-80822800D03*
D25*
X218504000Y-75882500D03*
X226504000Y-75882500D03*
D26*
X231521000Y-60198500D03*
X231521000Y-68198500D03*
X231521000Y-55498500D03*
X231521000Y-47498500D03*
X255651000Y-47308000D03*
X255651000Y-55308000D03*
D19*
X246982000Y-90170000D03*
X252382000Y-90170000D03*
X246800000Y-105000000D03*
X252200000Y-105000000D03*
D27*
X235427966Y-119318889D03*
D17*
G36*
X234544083Y-121616986D02*
X233129869Y-120202772D01*
X236311849Y-117020792D01*
X237726063Y-118435006D01*
X234544083Y-121616986D01*
X234544083Y-121616986D01*
G37*
D27*
X241438374Y-113308481D03*
D17*
G36*
X240554491Y-115606578D02*
X239140277Y-114192364D01*
X242322257Y-111010384D01*
X243736471Y-112424598D01*
X240554491Y-115606578D01*
X240554491Y-115606578D01*
G37*
D28*
X180532000Y-70421500D03*
X183832000Y-70421500D03*
D29*
X250154000Y-58801000D03*
X252354000Y-58801000D03*
D30*
X187772000Y-124460000D03*
X189672000Y-124460000D03*
X199832000Y-124460000D03*
X197932000Y-124460000D03*
X208092000Y-124460000D03*
X209992000Y-124460000D03*
X220152000Y-124460000D03*
X218252000Y-124460000D03*
X228346000Y-124460000D03*
X230246000Y-124460000D03*
X240472000Y-124460000D03*
X238572000Y-124460000D03*
X248732000Y-124460000D03*
X250632000Y-124460000D03*
D31*
X231648000Y-78872000D03*
X231648000Y-80772000D03*
D30*
X177612000Y-124460000D03*
X179512000Y-124460000D03*
D16*
X216839110Y-115139145D03*
D17*
G36*
X216626978Y-114219906D02*
X217758349Y-115351277D01*
X217051242Y-116058384D01*
X215919871Y-114927013D01*
X216626978Y-114219906D01*
X216626978Y-114219906D01*
G37*
D16*
X218960430Y-113017825D03*
D17*
G36*
X218748298Y-112098586D02*
X219879669Y-113229957D01*
X219172562Y-113937064D01*
X218041191Y-112805693D01*
X218748298Y-112098586D01*
X218748298Y-112098586D01*
G37*
D16*
X231274463Y-115454178D03*
D17*
G36*
X230478968Y-115542566D02*
X231362851Y-114658683D01*
X232069958Y-115365790D01*
X231186075Y-116249673D01*
X230478968Y-115542566D01*
X230478968Y-115542566D01*
G37*
D16*
X232688677Y-116868392D03*
D17*
G36*
X231893182Y-116956780D02*
X232777065Y-116072897D01*
X233484172Y-116780004D01*
X232600289Y-117663887D01*
X231893182Y-116956780D01*
X231893182Y-116956780D01*
G37*
D16*
X221331507Y-96312707D03*
D17*
G36*
X222127002Y-96224319D02*
X221243119Y-97108202D01*
X220536012Y-96401095D01*
X221419895Y-95517212D01*
X222127002Y-96224319D01*
X222127002Y-96224319D01*
G37*
D16*
X219917293Y-94898493D03*
D17*
G36*
X220712788Y-94810105D02*
X219828905Y-95693988D01*
X219121798Y-94986881D01*
X220005681Y-94102998D01*
X220712788Y-94810105D01*
X220712788Y-94810105D01*
G37*
D32*
X243789500Y-115783355D03*
D17*
G36*
X243807178Y-115235347D02*
X244337508Y-115765677D01*
X243771822Y-116331363D01*
X243241492Y-115801033D01*
X243807178Y-115235347D01*
X243807178Y-115235347D01*
G37*
D32*
X242728840Y-116844015D03*
D17*
G36*
X242746518Y-116296007D02*
X243276848Y-116826337D01*
X242711162Y-117392023D01*
X242180832Y-116861693D01*
X242746518Y-116296007D01*
X242746518Y-116296007D01*
G37*
D32*
X238963500Y-120609355D03*
D17*
G36*
X238945822Y-121157363D02*
X238415492Y-120627033D01*
X238981178Y-120061347D01*
X239511508Y-120591677D01*
X238945822Y-121157363D01*
X238945822Y-121157363D01*
G37*
D32*
X237902840Y-121670015D03*
D17*
G36*
X237885162Y-122218023D02*
X237354832Y-121687693D01*
X237920518Y-121122007D01*
X238450848Y-121652337D01*
X237885162Y-122218023D01*
X237885162Y-122218023D01*
G37*
D33*
X211328000Y-83582000D03*
X211328000Y-85582000D03*
X188468000Y-73485500D03*
X188468000Y-75485500D03*
X241554000Y-68612000D03*
X241554000Y-70612000D03*
X211074000Y-73676000D03*
X211074000Y-75676000D03*
D34*
X258500000Y-108590400D03*
X258500000Y-105590400D03*
X258500000Y-95090400D03*
X258500000Y-98090400D03*
X258500000Y-103090400D03*
X258500000Y-100090400D03*
X258500000Y-113590400D03*
X258500000Y-110590400D03*
D33*
X270764000Y-95672400D03*
X270764000Y-97672400D03*
X270764000Y-110912400D03*
X270764000Y-112912400D03*
D35*
X229870000Y-88253000D03*
X229870000Y-86753000D03*
D33*
X245500000Y-73500000D03*
X245500000Y-71500000D03*
X244602000Y-86293200D03*
X244602000Y-84293200D03*
D36*
X214781000Y-86233000D03*
X217781000Y-86233000D03*
X217781000Y-83947000D03*
X214781000Y-83947000D03*
D34*
X227838000Y-85114000D03*
X227838000Y-88114000D03*
D37*
X218682000Y-91948000D03*
X217182000Y-91948000D03*
X218682000Y-90551000D03*
X217182000Y-90551000D03*
X223254000Y-91948000D03*
X221754000Y-91948000D03*
X223254000Y-90551000D03*
X221754000Y-90551000D03*
D33*
X211328000Y-78248000D03*
X211328000Y-80248000D03*
D18*
X262721600Y-123748800D03*
X260721600Y-123748800D03*
D36*
X190016000Y-115824000D03*
X193016000Y-115824000D03*
X190016000Y-118364000D03*
X193016000Y-118364000D03*
D33*
X195834000Y-110474000D03*
X195834000Y-108474000D03*
D18*
X176546000Y-114300000D03*
X178546000Y-114300000D03*
D29*
X179535000Y-126421000D03*
X177335000Y-126421000D03*
X187495000Y-126421000D03*
X189695000Y-126421000D03*
X199855000Y-126421000D03*
X197655000Y-126421000D03*
X207815000Y-126421000D03*
X210015000Y-126421000D03*
X220175000Y-126421000D03*
X217975000Y-126421000D03*
X228135000Y-126421000D03*
X230335000Y-126421000D03*
X240495000Y-126421000D03*
X238295000Y-126421000D03*
X248455000Y-126421000D03*
X250655000Y-126421000D03*
D38*
X233161321Y-96439534D03*
D17*
G36*
X233373453Y-97146641D02*
X232454214Y-96227402D01*
X232949189Y-95732427D01*
X233868428Y-96651666D01*
X233373453Y-97146641D01*
X233373453Y-97146641D01*
G37*
D38*
X231817819Y-97783036D03*
D17*
G36*
X232029951Y-98490143D02*
X231110712Y-97570904D01*
X231605687Y-97075929D01*
X232524926Y-97995168D01*
X232029951Y-98490143D01*
X232029951Y-98490143D01*
G37*
D38*
X217362521Y-111628734D03*
D17*
G36*
X217150389Y-110921627D02*
X218069628Y-111840866D01*
X217574653Y-112335841D01*
X216655414Y-111416602D01*
X217150389Y-110921627D01*
X217150389Y-110921627D01*
G37*
D38*
X216019019Y-112972236D03*
D17*
G36*
X215806887Y-112265129D02*
X216726126Y-113184368D01*
X216231151Y-113679343D01*
X215311912Y-112760104D01*
X215806887Y-112265129D01*
X215806887Y-112265129D01*
G37*
D38*
X214749019Y-111702236D03*
D17*
G36*
X214536887Y-110995129D02*
X215456126Y-111914368D01*
X214961151Y-112409343D01*
X214041912Y-111490104D01*
X214536887Y-110995129D01*
X214536887Y-110995129D01*
G37*
D38*
X216092521Y-110358734D03*
D17*
G36*
X215880389Y-109651627D02*
X216799628Y-110570866D01*
X216304653Y-111065841D01*
X215385414Y-110146602D01*
X215880389Y-109651627D01*
X215880389Y-109651627D01*
G37*
D31*
X176022000Y-71376500D03*
X176022000Y-73276500D03*
X188468000Y-77091500D03*
X188468000Y-78991500D03*
X211328000Y-90104000D03*
X211328000Y-88204000D03*
X211328000Y-93406000D03*
X211328000Y-91506000D03*
X231648000Y-88326000D03*
X231648000Y-86426000D03*
D30*
X215224400Y-80213200D03*
X213324400Y-80213200D03*
X213324400Y-78435200D03*
X215224400Y-78435200D03*
X220157000Y-83947000D03*
X222057000Y-83947000D03*
X222057000Y-85725000D03*
X220157000Y-85725000D03*
X225486000Y-85852000D03*
X223586000Y-85852000D03*
X225486000Y-83820000D03*
X223586000Y-83820000D03*
X216982000Y-88900000D03*
X218882000Y-88900000D03*
X221554000Y-88900000D03*
X223454000Y-88900000D03*
D31*
X242570000Y-96200000D03*
X242570000Y-94300000D03*
X256286000Y-97470000D03*
X256286000Y-95570000D03*
X244602000Y-94300000D03*
X244602000Y-96200000D03*
X254254000Y-97470000D03*
X254254000Y-95570000D03*
D30*
X256014000Y-58801000D03*
X254114000Y-58801000D03*
D38*
X230039819Y-116759534D03*
D17*
G36*
X230746926Y-116547402D02*
X229827687Y-117466641D01*
X229332712Y-116971666D01*
X230251951Y-116052427D01*
X230746926Y-116547402D01*
X230746926Y-116547402D01*
G37*
D38*
X231383321Y-118103036D03*
D17*
G36*
X232090428Y-117890904D02*
X231171189Y-118810143D01*
X230676214Y-118315168D01*
X231595453Y-117395929D01*
X232090428Y-117890904D01*
X232090428Y-117890904D01*
G37*
D30*
X221864000Y-69342000D03*
X219964000Y-69342000D03*
D39*
X216452207Y-105053203D03*
D17*
G36*
X217176991Y-105389079D02*
X216788083Y-105777987D01*
X215727423Y-104717327D01*
X216116331Y-104328419D01*
X217176991Y-105389079D01*
X217176991Y-105389079D01*
G37*
D39*
X217017893Y-104487518D03*
D17*
G36*
X217742677Y-104823394D02*
X217353769Y-105212302D01*
X216293109Y-104151642D01*
X216682017Y-103762734D01*
X217742677Y-104823394D01*
X217742677Y-104823394D01*
G37*
D39*
X217583578Y-103921833D03*
D17*
G36*
X218308362Y-104257709D02*
X217919454Y-104646617D01*
X216858794Y-103585957D01*
X217247702Y-103197049D01*
X218308362Y-104257709D01*
X218308362Y-104257709D01*
G37*
D39*
X218149263Y-103356147D03*
D17*
G36*
X218874047Y-103692023D02*
X218485139Y-104080931D01*
X217424479Y-103020271D01*
X217813387Y-102631363D01*
X218874047Y-103692023D01*
X218874047Y-103692023D01*
G37*
D39*
X218714949Y-102790462D03*
D17*
G36*
X219439733Y-103126338D02*
X219050825Y-103515246D01*
X217990165Y-102454586D01*
X218379073Y-102065678D01*
X219439733Y-103126338D01*
X219439733Y-103126338D01*
G37*
D39*
X219280634Y-102224776D03*
D17*
G36*
X220005418Y-102560652D02*
X219616510Y-102949560D01*
X218555850Y-101888900D01*
X218944758Y-101499992D01*
X220005418Y-102560652D01*
X220005418Y-102560652D01*
G37*
D39*
X219846320Y-101659091D03*
D17*
G36*
X220571104Y-101994967D02*
X220182196Y-102383875D01*
X219121536Y-101323215D01*
X219510444Y-100934307D01*
X220571104Y-101994967D01*
X220571104Y-101994967D01*
G37*
D39*
X220412005Y-101093405D03*
D17*
G36*
X221136789Y-101429281D02*
X220747881Y-101818189D01*
X219687221Y-100757529D01*
X220076129Y-100368621D01*
X221136789Y-101429281D01*
X221136789Y-101429281D01*
G37*
D39*
X220977690Y-100527720D03*
D17*
G36*
X221702474Y-100863596D02*
X221313566Y-101252504D01*
X220252906Y-100191844D01*
X220641814Y-99802936D01*
X221702474Y-100863596D01*
X221702474Y-100863596D01*
G37*
D39*
X221543376Y-99962035D03*
D17*
G36*
X222268160Y-100297911D02*
X221879252Y-100686819D01*
X220818592Y-99626159D01*
X221207500Y-99237251D01*
X222268160Y-100297911D01*
X222268160Y-100297911D01*
G37*
D39*
X222109061Y-99396349D03*
D17*
G36*
X222833845Y-99732225D02*
X222444937Y-100121133D01*
X221384277Y-99060473D01*
X221773185Y-98671565D01*
X222833845Y-99732225D01*
X222833845Y-99732225D01*
G37*
D39*
X222674747Y-98830664D03*
D17*
G36*
X223399531Y-99166540D02*
X223010623Y-99555448D01*
X221949963Y-98494788D01*
X222338871Y-98105880D01*
X223399531Y-99166540D01*
X223399531Y-99166540D01*
G37*
D39*
X223240432Y-98264978D03*
D17*
G36*
X223965216Y-98600854D02*
X223576308Y-98989762D01*
X222515648Y-97929102D01*
X222904556Y-97540194D01*
X223965216Y-98600854D01*
X223965216Y-98600854D01*
G37*
D39*
X223806118Y-97699293D03*
D17*
G36*
X224530902Y-98035169D02*
X224141994Y-98424077D01*
X223081334Y-97363417D01*
X223470242Y-96974509D01*
X224530902Y-98035169D01*
X224530902Y-98035169D01*
G37*
D39*
X224371803Y-97133608D03*
D17*
G36*
X225096587Y-97469484D02*
X224707679Y-97858392D01*
X223647019Y-96797732D01*
X224035927Y-96408824D01*
X225096587Y-97469484D01*
X225096587Y-97469484D01*
G37*
D39*
X224937488Y-96567922D03*
D17*
G36*
X225662272Y-96903798D02*
X225273364Y-97292706D01*
X224212704Y-96232046D01*
X224601612Y-95843138D01*
X225662272Y-96903798D01*
X225662272Y-96903798D01*
G37*
D39*
X227341652Y-96567922D03*
D17*
G36*
X227005776Y-97292706D02*
X226616868Y-96903798D01*
X227677528Y-95843138D01*
X228066436Y-96232046D01*
X227005776Y-97292706D01*
X227005776Y-97292706D01*
G37*
D39*
X227907337Y-97133608D03*
D17*
G36*
X227571461Y-97858392D02*
X227182553Y-97469484D01*
X228243213Y-96408824D01*
X228632121Y-96797732D01*
X227571461Y-97858392D01*
X227571461Y-97858392D01*
G37*
D39*
X228473022Y-97699293D03*
D17*
G36*
X228137146Y-98424077D02*
X227748238Y-98035169D01*
X228808898Y-96974509D01*
X229197806Y-97363417D01*
X228137146Y-98424077D01*
X228137146Y-98424077D01*
G37*
D39*
X229038708Y-98264978D03*
D17*
G36*
X228702832Y-98989762D02*
X228313924Y-98600854D01*
X229374584Y-97540194D01*
X229763492Y-97929102D01*
X228702832Y-98989762D01*
X228702832Y-98989762D01*
G37*
D39*
X229604393Y-98830664D03*
D17*
G36*
X229268517Y-99555448D02*
X228879609Y-99166540D01*
X229940269Y-98105880D01*
X230329177Y-98494788D01*
X229268517Y-99555448D01*
X229268517Y-99555448D01*
G37*
D39*
X230170079Y-99396349D03*
D17*
G36*
X229834203Y-100121133D02*
X229445295Y-99732225D01*
X230505955Y-98671565D01*
X230894863Y-99060473D01*
X229834203Y-100121133D01*
X229834203Y-100121133D01*
G37*
D39*
X230735764Y-99962035D03*
D17*
G36*
X230399888Y-100686819D02*
X230010980Y-100297911D01*
X231071640Y-99237251D01*
X231460548Y-99626159D01*
X230399888Y-100686819D01*
X230399888Y-100686819D01*
G37*
D39*
X231301450Y-100527720D03*
D17*
G36*
X230965574Y-101252504D02*
X230576666Y-100863596D01*
X231637326Y-99802936D01*
X232026234Y-100191844D01*
X230965574Y-101252504D01*
X230965574Y-101252504D01*
G37*
D39*
X231867135Y-101093405D03*
D17*
G36*
X231531259Y-101818189D02*
X231142351Y-101429281D01*
X232203011Y-100368621D01*
X232591919Y-100757529D01*
X231531259Y-101818189D01*
X231531259Y-101818189D01*
G37*
D39*
X232432820Y-101659091D03*
D17*
G36*
X232096944Y-102383875D02*
X231708036Y-101994967D01*
X232768696Y-100934307D01*
X233157604Y-101323215D01*
X232096944Y-102383875D01*
X232096944Y-102383875D01*
G37*
D39*
X232998506Y-102224776D03*
D17*
G36*
X232662630Y-102949560D02*
X232273722Y-102560652D01*
X233334382Y-101499992D01*
X233723290Y-101888900D01*
X232662630Y-102949560D01*
X232662630Y-102949560D01*
G37*
D39*
X233564191Y-102790462D03*
D17*
G36*
X233228315Y-103515246D02*
X232839407Y-103126338D01*
X233900067Y-102065678D01*
X234288975Y-102454586D01*
X233228315Y-103515246D01*
X233228315Y-103515246D01*
G37*
D39*
X234129877Y-103356147D03*
D17*
G36*
X233794001Y-104080931D02*
X233405093Y-103692023D01*
X234465753Y-102631363D01*
X234854661Y-103020271D01*
X233794001Y-104080931D01*
X233794001Y-104080931D01*
G37*
D39*
X234695562Y-103921833D03*
D17*
G36*
X234359686Y-104646617D02*
X233970778Y-104257709D01*
X235031438Y-103197049D01*
X235420346Y-103585957D01*
X234359686Y-104646617D01*
X234359686Y-104646617D01*
G37*
D39*
X235261247Y-104487518D03*
D17*
G36*
X234925371Y-105212302D02*
X234536463Y-104823394D01*
X235597123Y-103762734D01*
X235986031Y-104151642D01*
X234925371Y-105212302D01*
X234925371Y-105212302D01*
G37*
D39*
X235826933Y-105053203D03*
D17*
G36*
X235491057Y-105777987D02*
X235102149Y-105389079D01*
X236162809Y-104328419D01*
X236551717Y-104717327D01*
X235491057Y-105777987D01*
X235491057Y-105777987D01*
G37*
D39*
X235826933Y-107457367D03*
D17*
G36*
X236551717Y-107793243D02*
X236162809Y-108182151D01*
X235102149Y-107121491D01*
X235491057Y-106732583D01*
X236551717Y-107793243D01*
X236551717Y-107793243D01*
G37*
D39*
X235261247Y-108023052D03*
D17*
G36*
X235986031Y-108358928D02*
X235597123Y-108747836D01*
X234536463Y-107687176D01*
X234925371Y-107298268D01*
X235986031Y-108358928D01*
X235986031Y-108358928D01*
G37*
D39*
X234695562Y-108588737D03*
D17*
G36*
X235420346Y-108924613D02*
X235031438Y-109313521D01*
X233970778Y-108252861D01*
X234359686Y-107863953D01*
X235420346Y-108924613D01*
X235420346Y-108924613D01*
G37*
D39*
X234129877Y-109154423D03*
D17*
G36*
X234854661Y-109490299D02*
X234465753Y-109879207D01*
X233405093Y-108818547D01*
X233794001Y-108429639D01*
X234854661Y-109490299D01*
X234854661Y-109490299D01*
G37*
D39*
X233564191Y-109720108D03*
D17*
G36*
X234288975Y-110055984D02*
X233900067Y-110444892D01*
X232839407Y-109384232D01*
X233228315Y-108995324D01*
X234288975Y-110055984D01*
X234288975Y-110055984D01*
G37*
D39*
X232998506Y-110285794D03*
D17*
G36*
X233723290Y-110621670D02*
X233334382Y-111010578D01*
X232273722Y-109949918D01*
X232662630Y-109561010D01*
X233723290Y-110621670D01*
X233723290Y-110621670D01*
G37*
D39*
X232432820Y-110851479D03*
D17*
G36*
X233157604Y-111187355D02*
X232768696Y-111576263D01*
X231708036Y-110515603D01*
X232096944Y-110126695D01*
X233157604Y-111187355D01*
X233157604Y-111187355D01*
G37*
D39*
X231867135Y-111417165D03*
D17*
G36*
X232591919Y-111753041D02*
X232203011Y-112141949D01*
X231142351Y-111081289D01*
X231531259Y-110692381D01*
X232591919Y-111753041D01*
X232591919Y-111753041D01*
G37*
D39*
X231301450Y-111982850D03*
D17*
G36*
X232026234Y-112318726D02*
X231637326Y-112707634D01*
X230576666Y-111646974D01*
X230965574Y-111258066D01*
X232026234Y-112318726D01*
X232026234Y-112318726D01*
G37*
D39*
X230735764Y-112548535D03*
D17*
G36*
X231460548Y-112884411D02*
X231071640Y-113273319D01*
X230010980Y-112212659D01*
X230399888Y-111823751D01*
X231460548Y-112884411D01*
X231460548Y-112884411D01*
G37*
D39*
X230170079Y-113114221D03*
D17*
G36*
X230894863Y-113450097D02*
X230505955Y-113839005D01*
X229445295Y-112778345D01*
X229834203Y-112389437D01*
X230894863Y-113450097D01*
X230894863Y-113450097D01*
G37*
D39*
X229604393Y-113679906D03*
D17*
G36*
X230329177Y-114015782D02*
X229940269Y-114404690D01*
X228879609Y-113344030D01*
X229268517Y-112955122D01*
X230329177Y-114015782D01*
X230329177Y-114015782D01*
G37*
D39*
X229038708Y-114245592D03*
D17*
G36*
X229763492Y-114581468D02*
X229374584Y-114970376D01*
X228313924Y-113909716D01*
X228702832Y-113520808D01*
X229763492Y-114581468D01*
X229763492Y-114581468D01*
G37*
D39*
X228473022Y-114811277D03*
D17*
G36*
X229197806Y-115147153D02*
X228808898Y-115536061D01*
X227748238Y-114475401D01*
X228137146Y-114086493D01*
X229197806Y-115147153D01*
X229197806Y-115147153D01*
G37*
D39*
X227907337Y-115376962D03*
D17*
G36*
X228632121Y-115712838D02*
X228243213Y-116101746D01*
X227182553Y-115041086D01*
X227571461Y-114652178D01*
X228632121Y-115712838D01*
X228632121Y-115712838D01*
G37*
D39*
X227341652Y-115942648D03*
D17*
G36*
X228066436Y-116278524D02*
X227677528Y-116667432D01*
X226616868Y-115606772D01*
X227005776Y-115217864D01*
X228066436Y-116278524D01*
X228066436Y-116278524D01*
G37*
D39*
X224937488Y-115942648D03*
D17*
G36*
X224601612Y-116667432D02*
X224212704Y-116278524D01*
X225273364Y-115217864D01*
X225662272Y-115606772D01*
X224601612Y-116667432D01*
X224601612Y-116667432D01*
G37*
D39*
X224371803Y-115376962D03*
D17*
G36*
X224035927Y-116101746D02*
X223647019Y-115712838D01*
X224707679Y-114652178D01*
X225096587Y-115041086D01*
X224035927Y-116101746D01*
X224035927Y-116101746D01*
G37*
D39*
X223806118Y-114811277D03*
D17*
G36*
X223470242Y-115536061D02*
X223081334Y-115147153D01*
X224141994Y-114086493D01*
X224530902Y-114475401D01*
X223470242Y-115536061D01*
X223470242Y-115536061D01*
G37*
D39*
X223240432Y-114245592D03*
D17*
G36*
X222904556Y-114970376D02*
X222515648Y-114581468D01*
X223576308Y-113520808D01*
X223965216Y-113909716D01*
X222904556Y-114970376D01*
X222904556Y-114970376D01*
G37*
D39*
X222674747Y-113679906D03*
D17*
G36*
X222338871Y-114404690D02*
X221949963Y-114015782D01*
X223010623Y-112955122D01*
X223399531Y-113344030D01*
X222338871Y-114404690D01*
X222338871Y-114404690D01*
G37*
D39*
X222109061Y-113114221D03*
D17*
G36*
X221773185Y-113839005D02*
X221384277Y-113450097D01*
X222444937Y-112389437D01*
X222833845Y-112778345D01*
X221773185Y-113839005D01*
X221773185Y-113839005D01*
G37*
D39*
X221543376Y-112548535D03*
D17*
G36*
X221207500Y-113273319D02*
X220818592Y-112884411D01*
X221879252Y-111823751D01*
X222268160Y-112212659D01*
X221207500Y-113273319D01*
X221207500Y-113273319D01*
G37*
D39*
X220977690Y-111982850D03*
D17*
G36*
X220641814Y-112707634D02*
X220252906Y-112318726D01*
X221313566Y-111258066D01*
X221702474Y-111646974D01*
X220641814Y-112707634D01*
X220641814Y-112707634D01*
G37*
D39*
X220412005Y-111417165D03*
D17*
G36*
X220076129Y-112141949D02*
X219687221Y-111753041D01*
X220747881Y-110692381D01*
X221136789Y-111081289D01*
X220076129Y-112141949D01*
X220076129Y-112141949D01*
G37*
D39*
X219846320Y-110851479D03*
D17*
G36*
X219510444Y-111576263D02*
X219121536Y-111187355D01*
X220182196Y-110126695D01*
X220571104Y-110515603D01*
X219510444Y-111576263D01*
X219510444Y-111576263D01*
G37*
D39*
X219280634Y-110285794D03*
D17*
G36*
X218944758Y-111010578D02*
X218555850Y-110621670D01*
X219616510Y-109561010D01*
X220005418Y-109949918D01*
X218944758Y-111010578D01*
X218944758Y-111010578D01*
G37*
D39*
X218714949Y-109720108D03*
D17*
G36*
X218379073Y-110444892D02*
X217990165Y-110055984D01*
X219050825Y-108995324D01*
X219439733Y-109384232D01*
X218379073Y-110444892D01*
X218379073Y-110444892D01*
G37*
D39*
X218149263Y-109154423D03*
D17*
G36*
X217813387Y-109879207D02*
X217424479Y-109490299D01*
X218485139Y-108429639D01*
X218874047Y-108818547D01*
X217813387Y-109879207D01*
X217813387Y-109879207D01*
G37*
D39*
X217583578Y-108588737D03*
D17*
G36*
X217247702Y-109313521D02*
X216858794Y-108924613D01*
X217919454Y-107863953D01*
X218308362Y-108252861D01*
X217247702Y-109313521D01*
X217247702Y-109313521D01*
G37*
D39*
X217017893Y-108023052D03*
D17*
G36*
X216682017Y-108747836D02*
X216293109Y-108358928D01*
X217353769Y-107298268D01*
X217742677Y-107687176D01*
X216682017Y-108747836D01*
X216682017Y-108747836D01*
G37*
D39*
X216452207Y-107457367D03*
D17*
G36*
X216116331Y-108182151D02*
X215727423Y-107793243D01*
X216788083Y-106732583D01*
X217176991Y-107121491D01*
X216116331Y-108182151D01*
X216116331Y-108182151D01*
G37*
D40*
X252128000Y-94488000D03*
X252128000Y-95758000D03*
X252128000Y-97028000D03*
X252128000Y-98298000D03*
X246728000Y-98298000D03*
X246728000Y-97028000D03*
X246728000Y-95758000D03*
X246728000Y-94488000D03*
D41*
X187554000Y-120664000D03*
X187554000Y-116064000D03*
X187554000Y-118364000D03*
D42*
X181254000Y-118364000D03*
D43*
X203360000Y-110363000D03*
X203360000Y-111633000D03*
X203360000Y-112903000D03*
X203360000Y-114173000D03*
X203360000Y-115443000D03*
X203360000Y-116713000D03*
X203360000Y-117983000D03*
X203360000Y-119253000D03*
X197960000Y-119253000D03*
X197960000Y-117983000D03*
X197960000Y-116713000D03*
X197960000Y-115443000D03*
X197960000Y-114173000D03*
X197960000Y-112903000D03*
X197960000Y-111633000D03*
X197960000Y-110363000D03*
M02*
