%TF.GenerationSoftware,KiCad,Pcbnew,(5.0.2)-1*%
%TF.CreationDate,2019-06-30T17:25:10-07:00*%
%TF.ProjectId,YM2612_MIDI_SMD,594d3236-3132-45f4-9d49-44495f534d44,rev?*%
%TF.SameCoordinates,Original*%
%TF.FileFunction,Paste,Top*%
%TF.FilePolarity,Positive*%
%FSLAX46Y46*%
G04 Gerber Fmt 4.6, Leading zero omitted, Abs format (unit mm)*
G04 Created by KiCad (PCBNEW (5.0.2)-1) date 6/30/2019 5:25:10 PM*
%MOMM*%
%LPD*%
G01*
G04 APERTURE LIST*
%ADD10C,0.150000*%
%ADD11C,1.000000*%
%ADD12C,0.100000*%
%ADD13C,0.750000*%
%ADD14R,1.250000X1.000000*%
%ADD15R,1.000000X1.250000*%
%ADD16R,1.000000X1.600000*%
%ADD17R,1.600000X1.000000*%
%ADD18R,1.600000X3.500000*%
%ADD19R,0.900000X1.200000*%
%ADD20R,2.500000X1.800000*%
%ADD21R,1.200000X1.200000*%
%ADD22R,1.400000X2.200000*%
%ADD23R,1.800000X1.400000*%
%ADD24R,1.600000X1.400000*%
%ADD25R,0.700000X1.400000*%
%ADD26R,3.300000X0.950000*%
%ADD27R,1.300000X0.700000*%
%ADD28C,0.700000*%
%ADD29R,0.700000X1.300000*%
%ADD30R,2.000000X1.780000*%
%ADD31C,0.550000*%
%ADD32R,1.060000X0.650000*%
%ADD33R,1.500000X2.000000*%
%ADD34R,3.800000X2.000000*%
%ADD35R,0.600000X1.500000*%
%ADD36R,1.550000X0.600000*%
%ADD37R,2.000000X3.800000*%
%ADD38R,2.000000X1.500000*%
%ADD39C,2.000000*%
G04 APERTURE END LIST*
D10*
X270000000Y-45000000D02*
X176000000Y-45000000D01*
X273000000Y-142000000D02*
X273000000Y-48000000D01*
X176000000Y-145000000D02*
X270000000Y-145000000D01*
X173000000Y-48000000D02*
X173000000Y-142000000D01*
X270000000Y-45000000D02*
G75*
G02X273000000Y-48000000I0J-3000000D01*
G01*
X273000000Y-142000000D02*
G75*
G02X270000000Y-145000000I-3000000J0D01*
G01*
X176000000Y-145000000D02*
G75*
G02X173000000Y-142000000I0J3000000D01*
G01*
X173000000Y-48000000D02*
G75*
G02X176000000Y-45000000I3000000J0D01*
G01*
D11*
X206302893Y-108766893D03*
D12*
G36*
X207098388Y-108678505D02*
X206214505Y-109562388D01*
X205507398Y-108855281D01*
X206391281Y-107971398D01*
X207098388Y-108678505D01*
X207098388Y-108678505D01*
G37*
D11*
X207717107Y-110181107D03*
D12*
G36*
X208512602Y-110092719D02*
X207628719Y-110976602D01*
X206921612Y-110269495D01*
X207805495Y-109385612D01*
X208512602Y-110092719D01*
X208512602Y-110092719D01*
G37*
D11*
X207844107Y-96211107D03*
D12*
G36*
X208639602Y-96122719D02*
X207755719Y-97006602D01*
X207048612Y-96299495D01*
X207932495Y-95415612D01*
X208639602Y-96122719D01*
X208639602Y-96122719D01*
G37*
D11*
X206429893Y-94796893D03*
D12*
G36*
X207225388Y-94708505D02*
X206341505Y-95592388D01*
X205634398Y-94885281D01*
X206518281Y-94001398D01*
X207225388Y-94708505D01*
X207225388Y-94708505D01*
G37*
D11*
X219401107Y-93925107D03*
D12*
G36*
X220196602Y-93836719D02*
X219312719Y-94720602D01*
X218605612Y-94013495D01*
X219489495Y-93129612D01*
X220196602Y-93836719D01*
X220196602Y-93836719D01*
G37*
D11*
X217986893Y-92510893D03*
D12*
G36*
X218782388Y-92422505D02*
X217898505Y-93306388D01*
X217191398Y-92599281D01*
X218075281Y-91715398D01*
X218782388Y-92422505D01*
X218782388Y-92422505D01*
G37*
D13*
X207032330Y-119656330D03*
D12*
G36*
X207580338Y-119674008D02*
X207050008Y-120204338D01*
X206484322Y-119638652D01*
X207014652Y-119108322D01*
X207580338Y-119674008D01*
X207580338Y-119674008D01*
G37*
D13*
X205971670Y-118595670D03*
D12*
G36*
X206519678Y-118613348D02*
X205989348Y-119143678D01*
X205423662Y-118577992D01*
X205953992Y-118047662D01*
X206519678Y-118613348D01*
X206519678Y-118613348D01*
G37*
D13*
X202460330Y-115084330D03*
D12*
G36*
X201912322Y-115066652D02*
X202442652Y-114536322D01*
X203008338Y-115102008D01*
X202478008Y-115632338D01*
X201912322Y-115066652D01*
X201912322Y-115066652D01*
G37*
D13*
X201399670Y-114023670D03*
D12*
G36*
X200851662Y-114005992D02*
X201381992Y-113475662D01*
X201947678Y-114041348D01*
X201417348Y-114571678D01*
X200851662Y-114005992D01*
X200851662Y-114005992D01*
G37*
D11*
X209340660Y-94786660D03*
D12*
G36*
X210259899Y-94574528D02*
X209128528Y-95705899D01*
X208421421Y-94998792D01*
X209552792Y-93867421D01*
X210259899Y-94574528D01*
X210259899Y-94574528D01*
G37*
D11*
X207219340Y-92665340D03*
D12*
G36*
X208138579Y-92453208D02*
X207007208Y-93584579D01*
X206300101Y-92877472D01*
X207431472Y-91746101D01*
X208138579Y-92453208D01*
X208138579Y-92453208D01*
G37*
D14*
X187198000Y-72787000D03*
X187198000Y-74787000D03*
D15*
X260112000Y-122936000D03*
X262112000Y-122936000D03*
D16*
X206732000Y-73660000D03*
X203732000Y-73660000D03*
D14*
X238252000Y-90948000D03*
X238252000Y-92948000D03*
D15*
X266970000Y-106680000D03*
X268970000Y-106680000D03*
X243840000Y-65024000D03*
X241840000Y-65024000D03*
D16*
X213844000Y-81534000D03*
X210844000Y-81534000D03*
D15*
X260588000Y-69850000D03*
X258588000Y-69850000D03*
D16*
X248896000Y-64516000D03*
X245896000Y-64516000D03*
D17*
X224637600Y-82246600D03*
X224637600Y-79246600D03*
X222275400Y-82246600D03*
X222275400Y-79246600D03*
D18*
X268986000Y-71214000D03*
X268986000Y-76614000D03*
D17*
X261112000Y-77748000D03*
X261112000Y-80748000D03*
D14*
X262890000Y-99044000D03*
X262890000Y-97044000D03*
X261112000Y-97044000D03*
X261112000Y-99044000D03*
D17*
X259080000Y-80748000D03*
X259080000Y-77748000D03*
X201422000Y-79526000D03*
X201422000Y-82526000D03*
D15*
X263287000Y-89154000D03*
X265287000Y-89154000D03*
X268716000Y-89154000D03*
X266716000Y-89154000D03*
D14*
X226314000Y-66310000D03*
X226314000Y-68310000D03*
X271780000Y-80026000D03*
X271780000Y-82026000D03*
D15*
X239284000Y-62484000D03*
X241284000Y-62484000D03*
D18*
X268147800Y-52433200D03*
X268147800Y-47033200D03*
X268147800Y-56482000D03*
X268147800Y-61882000D03*
D16*
X245896000Y-60960000D03*
X248896000Y-60960000D03*
D17*
X199136000Y-82526000D03*
X199136000Y-79526000D03*
D19*
X182752000Y-69469000D03*
X179452000Y-69469000D03*
D20*
X209582000Y-78486000D03*
X213582000Y-78486000D03*
D21*
X179916000Y-125984000D03*
X177716000Y-125984000D03*
X190076000Y-125984000D03*
X187876000Y-125984000D03*
X198206000Y-125984000D03*
X200406000Y-125984000D03*
X210226000Y-125984000D03*
X208026000Y-125984000D03*
X218356000Y-125984000D03*
X220556000Y-125984000D03*
X230716000Y-125984000D03*
X228516000Y-125984000D03*
X238846000Y-125984000D03*
X241046000Y-125984000D03*
X248836000Y-125984000D03*
X251036000Y-125984000D03*
D22*
X242889600Y-49738600D03*
X227139600Y-49936600D03*
D23*
X228140600Y-59037600D03*
D24*
X242688600Y-59037600D03*
D25*
X241438600Y-59537600D03*
X240338600Y-59537600D03*
X239238600Y-59537600D03*
X238138600Y-59537600D03*
X237038600Y-59537600D03*
X235938600Y-59537600D03*
X234838600Y-59537600D03*
X233738600Y-59537600D03*
X232638600Y-59537600D03*
D26*
X213626700Y-76085700D03*
X213626700Y-73035700D03*
D27*
X217551000Y-50988000D03*
X217551000Y-49088000D03*
X174879000Y-73401000D03*
X174879000Y-71501000D03*
D28*
X226404249Y-111977249D03*
D12*
G36*
X225697142Y-112189381D02*
X226616381Y-111270142D01*
X227111356Y-111765117D01*
X226192117Y-112684356D01*
X225697142Y-112189381D01*
X225697142Y-112189381D01*
G37*
D28*
X227747751Y-113320751D03*
D12*
G36*
X227040644Y-113532883D02*
X227959883Y-112613644D01*
X228454858Y-113108619D01*
X227535619Y-114027858D01*
X227040644Y-113532883D01*
X227040644Y-113532883D01*
G37*
D28*
X210983751Y-93381751D03*
D12*
G36*
X211690858Y-93169619D02*
X210771619Y-94088858D01*
X210276644Y-93593883D01*
X211195883Y-92674644D01*
X211690858Y-93169619D01*
X211690858Y-93169619D01*
G37*
D28*
X209640249Y-92038249D03*
D12*
G36*
X210347356Y-91826117D02*
X209428117Y-92745356D01*
X208933142Y-92250381D01*
X209852381Y-91331142D01*
X210347356Y-91826117D01*
X210347356Y-91826117D01*
G37*
D28*
X211037249Y-90641249D03*
D12*
G36*
X211744356Y-90429117D02*
X210825117Y-91348356D01*
X210330142Y-90853381D01*
X211249381Y-89934142D01*
X211744356Y-90429117D01*
X211744356Y-90429117D01*
G37*
D28*
X212380751Y-91984751D03*
D12*
G36*
X213087858Y-91772619D02*
X212168619Y-92691858D01*
X211673644Y-92196883D01*
X212592883Y-91277644D01*
X213087858Y-91772619D01*
X213087858Y-91772619D01*
G37*
D27*
X217170000Y-60772000D03*
X217170000Y-62672000D03*
X187198000Y-78293000D03*
X187198000Y-76393000D03*
X206692500Y-77518300D03*
X206692500Y-75618300D03*
D28*
X200315751Y-107532249D03*
D12*
G36*
X200527883Y-108239356D02*
X199608644Y-107320117D01*
X200103619Y-106825142D01*
X201022858Y-107744381D01*
X200527883Y-108239356D01*
X200527883Y-108239356D01*
G37*
D28*
X198972249Y-108875751D03*
D12*
G36*
X199184381Y-109582858D02*
X198265142Y-108663619D01*
X198760117Y-108168644D01*
X199679356Y-109087883D01*
X199184381Y-109582858D01*
X199184381Y-109582858D01*
G37*
D29*
X177866000Y-124206000D03*
X179766000Y-124206000D03*
X189926000Y-124206000D03*
X188026000Y-124206000D03*
X198440000Y-124206000D03*
X200340000Y-124206000D03*
X210246000Y-124206000D03*
X208346000Y-124206000D03*
X218506000Y-124206000D03*
X220406000Y-124206000D03*
X230566000Y-124206000D03*
X228666000Y-124206000D03*
X239080000Y-124206000D03*
X240980000Y-124206000D03*
X250886000Y-124206000D03*
X248986000Y-124206000D03*
D27*
X264441728Y-76195722D03*
X264441728Y-74295722D03*
X262663728Y-76195722D03*
X262663728Y-74295722D03*
X260858000Y-76134000D03*
X260858000Y-74234000D03*
X258826000Y-105222000D03*
X258826000Y-107122000D03*
X259080000Y-74234000D03*
X259080000Y-76134000D03*
X260731000Y-85156000D03*
X260731000Y-87056000D03*
X262890000Y-93792000D03*
X262890000Y-95692000D03*
X261112000Y-95692000D03*
X261112000Y-93792000D03*
X258699000Y-87056000D03*
X258699000Y-85156000D03*
D29*
X265237000Y-87376000D03*
X263337000Y-87376000D03*
X266766000Y-87376000D03*
X268666000Y-87376000D03*
D27*
X216496900Y-77797700D03*
X216496900Y-75897700D03*
X216471500Y-72671900D03*
X216471500Y-74571900D03*
D30*
X184835800Y-72390000D03*
X177215800Y-77470000D03*
X184835800Y-74930000D03*
X177215800Y-74930000D03*
X184835800Y-77470000D03*
X177215800Y-72390000D03*
D31*
X215459918Y-95722637D03*
D12*
G36*
X214735134Y-95386761D02*
X215124042Y-94997853D01*
X216184702Y-96058513D01*
X215795794Y-96447421D01*
X214735134Y-95386761D01*
X214735134Y-95386761D01*
G37*
D31*
X214894233Y-96288323D03*
D12*
G36*
X214169449Y-95952447D02*
X214558357Y-95563539D01*
X215619017Y-96624199D01*
X215230109Y-97013107D01*
X214169449Y-95952447D01*
X214169449Y-95952447D01*
G37*
D31*
X214328548Y-96854008D03*
D12*
G36*
X213603764Y-96518132D02*
X213992672Y-96129224D01*
X215053332Y-97189884D01*
X214664424Y-97578792D01*
X213603764Y-96518132D01*
X213603764Y-96518132D01*
G37*
D31*
X213762862Y-97419693D03*
D12*
G36*
X213038078Y-97083817D02*
X213426986Y-96694909D01*
X214487646Y-97755569D01*
X214098738Y-98144477D01*
X213038078Y-97083817D01*
X213038078Y-97083817D01*
G37*
D31*
X213197177Y-97985379D03*
D12*
G36*
X212472393Y-97649503D02*
X212861301Y-97260595D01*
X213921961Y-98321255D01*
X213533053Y-98710163D01*
X212472393Y-97649503D01*
X212472393Y-97649503D01*
G37*
D31*
X212631491Y-98551064D03*
D12*
G36*
X211906707Y-98215188D02*
X212295615Y-97826280D01*
X213356275Y-98886940D01*
X212967367Y-99275848D01*
X211906707Y-98215188D01*
X211906707Y-98215188D01*
G37*
D31*
X212065806Y-99116750D03*
D12*
G36*
X211341022Y-98780874D02*
X211729930Y-98391966D01*
X212790590Y-99452626D01*
X212401682Y-99841534D01*
X211341022Y-98780874D01*
X211341022Y-98780874D01*
G37*
D31*
X211500120Y-99682435D03*
D12*
G36*
X210775336Y-99346559D02*
X211164244Y-98957651D01*
X212224904Y-100018311D01*
X211835996Y-100407219D01*
X210775336Y-99346559D01*
X210775336Y-99346559D01*
G37*
D31*
X210934435Y-100248120D03*
D12*
G36*
X210209651Y-99912244D02*
X210598559Y-99523336D01*
X211659219Y-100583996D01*
X211270311Y-100972904D01*
X210209651Y-99912244D01*
X210209651Y-99912244D01*
G37*
D31*
X210368750Y-100813806D03*
D12*
G36*
X209643966Y-100477930D02*
X210032874Y-100089022D01*
X211093534Y-101149682D01*
X210704626Y-101538590D01*
X209643966Y-100477930D01*
X209643966Y-100477930D01*
G37*
D31*
X209803064Y-101379491D03*
D12*
G36*
X209078280Y-101043615D02*
X209467188Y-100654707D01*
X210527848Y-101715367D01*
X210138940Y-102104275D01*
X209078280Y-101043615D01*
X209078280Y-101043615D01*
G37*
D31*
X209237379Y-101945177D03*
D12*
G36*
X208512595Y-101609301D02*
X208901503Y-101220393D01*
X209962163Y-102281053D01*
X209573255Y-102669961D01*
X208512595Y-101609301D01*
X208512595Y-101609301D01*
G37*
D31*
X208671693Y-102510862D03*
D12*
G36*
X207946909Y-102174986D02*
X208335817Y-101786078D01*
X209396477Y-102846738D01*
X209007569Y-103235646D01*
X207946909Y-102174986D01*
X207946909Y-102174986D01*
G37*
D31*
X208106008Y-103076548D03*
D12*
G36*
X207381224Y-102740672D02*
X207770132Y-102351764D01*
X208830792Y-103412424D01*
X208441884Y-103801332D01*
X207381224Y-102740672D01*
X207381224Y-102740672D01*
G37*
D31*
X207540323Y-103642233D03*
D12*
G36*
X206815539Y-103306357D02*
X207204447Y-102917449D01*
X208265107Y-103978109D01*
X207876199Y-104367017D01*
X206815539Y-103306357D01*
X206815539Y-103306357D01*
G37*
D31*
X206974637Y-104207918D03*
D12*
G36*
X206249853Y-103872042D02*
X206638761Y-103483134D01*
X207699421Y-104543794D01*
X207310513Y-104932702D01*
X206249853Y-103872042D01*
X206249853Y-103872042D01*
G37*
D31*
X206974637Y-106612082D03*
D12*
G36*
X206638761Y-107336866D02*
X206249853Y-106947958D01*
X207310513Y-105887298D01*
X207699421Y-106276206D01*
X206638761Y-107336866D01*
X206638761Y-107336866D01*
G37*
D31*
X207540323Y-107177767D03*
D12*
G36*
X207204447Y-107902551D02*
X206815539Y-107513643D01*
X207876199Y-106452983D01*
X208265107Y-106841891D01*
X207204447Y-107902551D01*
X207204447Y-107902551D01*
G37*
D31*
X208106008Y-107743452D03*
D12*
G36*
X207770132Y-108468236D02*
X207381224Y-108079328D01*
X208441884Y-107018668D01*
X208830792Y-107407576D01*
X207770132Y-108468236D01*
X207770132Y-108468236D01*
G37*
D31*
X208671693Y-108309138D03*
D12*
G36*
X208335817Y-109033922D02*
X207946909Y-108645014D01*
X209007569Y-107584354D01*
X209396477Y-107973262D01*
X208335817Y-109033922D01*
X208335817Y-109033922D01*
G37*
D31*
X209237379Y-108874823D03*
D12*
G36*
X208901503Y-109599607D02*
X208512595Y-109210699D01*
X209573255Y-108150039D01*
X209962163Y-108538947D01*
X208901503Y-109599607D01*
X208901503Y-109599607D01*
G37*
D31*
X209803064Y-109440509D03*
D12*
G36*
X209467188Y-110165293D02*
X209078280Y-109776385D01*
X210138940Y-108715725D01*
X210527848Y-109104633D01*
X209467188Y-110165293D01*
X209467188Y-110165293D01*
G37*
D31*
X210368750Y-110006194D03*
D12*
G36*
X210032874Y-110730978D02*
X209643966Y-110342070D01*
X210704626Y-109281410D01*
X211093534Y-109670318D01*
X210032874Y-110730978D01*
X210032874Y-110730978D01*
G37*
D31*
X210934435Y-110571880D03*
D12*
G36*
X210598559Y-111296664D02*
X210209651Y-110907756D01*
X211270311Y-109847096D01*
X211659219Y-110236004D01*
X210598559Y-111296664D01*
X210598559Y-111296664D01*
G37*
D31*
X211500120Y-111137565D03*
D12*
G36*
X211164244Y-111862349D02*
X210775336Y-111473441D01*
X211835996Y-110412781D01*
X212224904Y-110801689D01*
X211164244Y-111862349D01*
X211164244Y-111862349D01*
G37*
D31*
X212065806Y-111703250D03*
D12*
G36*
X211729930Y-112428034D02*
X211341022Y-112039126D01*
X212401682Y-110978466D01*
X212790590Y-111367374D01*
X211729930Y-112428034D01*
X211729930Y-112428034D01*
G37*
D31*
X212631491Y-112268936D03*
D12*
G36*
X212295615Y-112993720D02*
X211906707Y-112604812D01*
X212967367Y-111544152D01*
X213356275Y-111933060D01*
X212295615Y-112993720D01*
X212295615Y-112993720D01*
G37*
D31*
X213197177Y-112834621D03*
D12*
G36*
X212861301Y-113559405D02*
X212472393Y-113170497D01*
X213533053Y-112109837D01*
X213921961Y-112498745D01*
X212861301Y-113559405D01*
X212861301Y-113559405D01*
G37*
D31*
X213762862Y-113400307D03*
D12*
G36*
X213426986Y-114125091D02*
X213038078Y-113736183D01*
X214098738Y-112675523D01*
X214487646Y-113064431D01*
X213426986Y-114125091D01*
X213426986Y-114125091D01*
G37*
D31*
X214328548Y-113965992D03*
D12*
G36*
X213992672Y-114690776D02*
X213603764Y-114301868D01*
X214664424Y-113241208D01*
X215053332Y-113630116D01*
X213992672Y-114690776D01*
X213992672Y-114690776D01*
G37*
D31*
X214894233Y-114531677D03*
D12*
G36*
X214558357Y-115256461D02*
X214169449Y-114867553D01*
X215230109Y-113806893D01*
X215619017Y-114195801D01*
X214558357Y-115256461D01*
X214558357Y-115256461D01*
G37*
D31*
X215459918Y-115097363D03*
D12*
G36*
X215124042Y-115822147D02*
X214735134Y-115433239D01*
X215795794Y-114372579D01*
X216184702Y-114761487D01*
X215124042Y-115822147D01*
X215124042Y-115822147D01*
G37*
D31*
X217864082Y-115097363D03*
D12*
G36*
X217139298Y-114761487D02*
X217528206Y-114372579D01*
X218588866Y-115433239D01*
X218199958Y-115822147D01*
X217139298Y-114761487D01*
X217139298Y-114761487D01*
G37*
D31*
X218429767Y-114531677D03*
D12*
G36*
X217704983Y-114195801D02*
X218093891Y-113806893D01*
X219154551Y-114867553D01*
X218765643Y-115256461D01*
X217704983Y-114195801D01*
X217704983Y-114195801D01*
G37*
D31*
X218995452Y-113965992D03*
D12*
G36*
X218270668Y-113630116D02*
X218659576Y-113241208D01*
X219720236Y-114301868D01*
X219331328Y-114690776D01*
X218270668Y-113630116D01*
X218270668Y-113630116D01*
G37*
D31*
X219561138Y-113400307D03*
D12*
G36*
X218836354Y-113064431D02*
X219225262Y-112675523D01*
X220285922Y-113736183D01*
X219897014Y-114125091D01*
X218836354Y-113064431D01*
X218836354Y-113064431D01*
G37*
D31*
X220126823Y-112834621D03*
D12*
G36*
X219402039Y-112498745D02*
X219790947Y-112109837D01*
X220851607Y-113170497D01*
X220462699Y-113559405D01*
X219402039Y-112498745D01*
X219402039Y-112498745D01*
G37*
D31*
X220692509Y-112268936D03*
D12*
G36*
X219967725Y-111933060D02*
X220356633Y-111544152D01*
X221417293Y-112604812D01*
X221028385Y-112993720D01*
X219967725Y-111933060D01*
X219967725Y-111933060D01*
G37*
D31*
X221258194Y-111703250D03*
D12*
G36*
X220533410Y-111367374D02*
X220922318Y-110978466D01*
X221982978Y-112039126D01*
X221594070Y-112428034D01*
X220533410Y-111367374D01*
X220533410Y-111367374D01*
G37*
D31*
X221823880Y-111137565D03*
D12*
G36*
X221099096Y-110801689D02*
X221488004Y-110412781D01*
X222548664Y-111473441D01*
X222159756Y-111862349D01*
X221099096Y-110801689D01*
X221099096Y-110801689D01*
G37*
D31*
X222389565Y-110571880D03*
D12*
G36*
X221664781Y-110236004D02*
X222053689Y-109847096D01*
X223114349Y-110907756D01*
X222725441Y-111296664D01*
X221664781Y-110236004D01*
X221664781Y-110236004D01*
G37*
D31*
X222955250Y-110006194D03*
D12*
G36*
X222230466Y-109670318D02*
X222619374Y-109281410D01*
X223680034Y-110342070D01*
X223291126Y-110730978D01*
X222230466Y-109670318D01*
X222230466Y-109670318D01*
G37*
D31*
X223520936Y-109440509D03*
D12*
G36*
X222796152Y-109104633D02*
X223185060Y-108715725D01*
X224245720Y-109776385D01*
X223856812Y-110165293D01*
X222796152Y-109104633D01*
X222796152Y-109104633D01*
G37*
D31*
X224086621Y-108874823D03*
D12*
G36*
X223361837Y-108538947D02*
X223750745Y-108150039D01*
X224811405Y-109210699D01*
X224422497Y-109599607D01*
X223361837Y-108538947D01*
X223361837Y-108538947D01*
G37*
D31*
X224652307Y-108309138D03*
D12*
G36*
X223927523Y-107973262D02*
X224316431Y-107584354D01*
X225377091Y-108645014D01*
X224988183Y-109033922D01*
X223927523Y-107973262D01*
X223927523Y-107973262D01*
G37*
D31*
X225217992Y-107743452D03*
D12*
G36*
X224493208Y-107407576D02*
X224882116Y-107018668D01*
X225942776Y-108079328D01*
X225553868Y-108468236D01*
X224493208Y-107407576D01*
X224493208Y-107407576D01*
G37*
D31*
X225783677Y-107177767D03*
D12*
G36*
X225058893Y-106841891D02*
X225447801Y-106452983D01*
X226508461Y-107513643D01*
X226119553Y-107902551D01*
X225058893Y-106841891D01*
X225058893Y-106841891D01*
G37*
D31*
X226349363Y-106612082D03*
D12*
G36*
X225624579Y-106276206D02*
X226013487Y-105887298D01*
X227074147Y-106947958D01*
X226685239Y-107336866D01*
X225624579Y-106276206D01*
X225624579Y-106276206D01*
G37*
D31*
X226349363Y-104207918D03*
D12*
G36*
X226013487Y-104932702D02*
X225624579Y-104543794D01*
X226685239Y-103483134D01*
X227074147Y-103872042D01*
X226013487Y-104932702D01*
X226013487Y-104932702D01*
G37*
D31*
X225783677Y-103642233D03*
D12*
G36*
X225447801Y-104367017D02*
X225058893Y-103978109D01*
X226119553Y-102917449D01*
X226508461Y-103306357D01*
X225447801Y-104367017D01*
X225447801Y-104367017D01*
G37*
D31*
X225217992Y-103076548D03*
D12*
G36*
X224882116Y-103801332D02*
X224493208Y-103412424D01*
X225553868Y-102351764D01*
X225942776Y-102740672D01*
X224882116Y-103801332D01*
X224882116Y-103801332D01*
G37*
D31*
X224652307Y-102510862D03*
D12*
G36*
X224316431Y-103235646D02*
X223927523Y-102846738D01*
X224988183Y-101786078D01*
X225377091Y-102174986D01*
X224316431Y-103235646D01*
X224316431Y-103235646D01*
G37*
D31*
X224086621Y-101945177D03*
D12*
G36*
X223750745Y-102669961D02*
X223361837Y-102281053D01*
X224422497Y-101220393D01*
X224811405Y-101609301D01*
X223750745Y-102669961D01*
X223750745Y-102669961D01*
G37*
D31*
X223520936Y-101379491D03*
D12*
G36*
X223185060Y-102104275D02*
X222796152Y-101715367D01*
X223856812Y-100654707D01*
X224245720Y-101043615D01*
X223185060Y-102104275D01*
X223185060Y-102104275D01*
G37*
D31*
X222955250Y-100813806D03*
D12*
G36*
X222619374Y-101538590D02*
X222230466Y-101149682D01*
X223291126Y-100089022D01*
X223680034Y-100477930D01*
X222619374Y-101538590D01*
X222619374Y-101538590D01*
G37*
D31*
X222389565Y-100248120D03*
D12*
G36*
X222053689Y-100972904D02*
X221664781Y-100583996D01*
X222725441Y-99523336D01*
X223114349Y-99912244D01*
X222053689Y-100972904D01*
X222053689Y-100972904D01*
G37*
D31*
X221823880Y-99682435D03*
D12*
G36*
X221488004Y-100407219D02*
X221099096Y-100018311D01*
X222159756Y-98957651D01*
X222548664Y-99346559D01*
X221488004Y-100407219D01*
X221488004Y-100407219D01*
G37*
D31*
X221258194Y-99116750D03*
D12*
G36*
X220922318Y-99841534D02*
X220533410Y-99452626D01*
X221594070Y-98391966D01*
X221982978Y-98780874D01*
X220922318Y-99841534D01*
X220922318Y-99841534D01*
G37*
D31*
X220692509Y-98551064D03*
D12*
G36*
X220356633Y-99275848D02*
X219967725Y-98886940D01*
X221028385Y-97826280D01*
X221417293Y-98215188D01*
X220356633Y-99275848D01*
X220356633Y-99275848D01*
G37*
D31*
X220126823Y-97985379D03*
D12*
G36*
X219790947Y-98710163D02*
X219402039Y-98321255D01*
X220462699Y-97260595D01*
X220851607Y-97649503D01*
X219790947Y-98710163D01*
X219790947Y-98710163D01*
G37*
D31*
X219561138Y-97419693D03*
D12*
G36*
X219225262Y-98144477D02*
X218836354Y-97755569D01*
X219897014Y-96694909D01*
X220285922Y-97083817D01*
X219225262Y-98144477D01*
X219225262Y-98144477D01*
G37*
D31*
X218995452Y-96854008D03*
D12*
G36*
X218659576Y-97578792D02*
X218270668Y-97189884D01*
X219331328Y-96129224D01*
X219720236Y-96518132D01*
X218659576Y-97578792D01*
X218659576Y-97578792D01*
G37*
D31*
X218429767Y-96288323D03*
D12*
G36*
X218093891Y-97013107D02*
X217704983Y-96624199D01*
X218765643Y-95563539D01*
X219154551Y-95952447D01*
X218093891Y-97013107D01*
X218093891Y-97013107D01*
G37*
D31*
X217864082Y-95722637D03*
D12*
G36*
X217528206Y-96447421D02*
X217139298Y-96058513D01*
X218199958Y-94997853D01*
X218588866Y-95386761D01*
X217528206Y-96447421D01*
X217528206Y-96447421D01*
G37*
D32*
X208462700Y-74460100D03*
X208462700Y-75410100D03*
X208462700Y-73510100D03*
X210662700Y-73510100D03*
X210662700Y-74460100D03*
X210662700Y-75410100D03*
D33*
X220000800Y-77064000D03*
X224600800Y-77064000D03*
X222300800Y-77064000D03*
D34*
X222300800Y-70764000D03*
D35*
X228168200Y-62882800D03*
X229438200Y-62882800D03*
X230708200Y-62882800D03*
X231978200Y-62882800D03*
X233248200Y-62882800D03*
X234518200Y-62882800D03*
X235788200Y-62882800D03*
X237058200Y-62882800D03*
X237058200Y-68282800D03*
X235788200Y-68282800D03*
X234518200Y-68282800D03*
X233248200Y-68282800D03*
X231978200Y-68282800D03*
X230708200Y-68282800D03*
X229438200Y-68282800D03*
X228168200Y-68282800D03*
D36*
X268892000Y-80137000D03*
X268892000Y-81407000D03*
X268892000Y-82677000D03*
X268892000Y-83947000D03*
X263492000Y-83947000D03*
X263492000Y-82677000D03*
X263492000Y-81407000D03*
X263492000Y-80137000D03*
D37*
X257277000Y-62204600D03*
D38*
X250977000Y-62204600D03*
X250977000Y-64504600D03*
X250977000Y-59904600D03*
D33*
X196836000Y-77318000D03*
X201436000Y-77318000D03*
X199136000Y-77318000D03*
D34*
X199136000Y-71018000D03*
D39*
X209761204Y-117559204D03*
D12*
G36*
X207463107Y-116675321D02*
X208877321Y-115261107D01*
X212059301Y-118443087D01*
X210645087Y-119857301D01*
X207463107Y-116675321D01*
X207463107Y-116675321D01*
G37*
D39*
X203750796Y-111548796D03*
D12*
G36*
X201452699Y-110664913D02*
X202866913Y-109250699D01*
X206048893Y-112432679D01*
X204634679Y-113846893D01*
X201452699Y-110664913D01*
X201452699Y-110664913D01*
G37*
M02*
