M48
;DRILL file {KiCad (5.0.2)-1} date 6/30/2019 5:25:15 PM
;FORMAT={-:-/ absolute / inch / decimal}
FMAT,2
INCH,TZ
T1C0.0157
T2C0.0236
T3C0.0315
T4C0.0319
T5C0.0330
T6C0.0394
T7C0.0394
T8C0.0551
T9C0.0591
T10C0.0906
T11C0.1260
%
G90
G05
T1
X7.05Y-2.95
X7.05Y-3.
X7.05Y-3.05
X7.1Y-2.95
X7.1Y-3.
X7.1Y-3.05
X7.15Y-2.95
X7.15Y-3.
X7.15Y-3.05
X7.2Y-2.95
X7.2Y-3.
X7.2Y-3.05
X7.24Y-2.745
X7.261Y-2.021
X7.364Y-2.021
X7.39Y-5.13
X7.4Y-2.745
X7.435Y-2.745
X7.47Y-2.745
X7.5Y-2.85
X7.5Y-2.9
X7.5Y-2.95
X7.5Y-3.
X7.5Y-3.05
X7.535Y-4.87
X7.595Y-3.9
X7.595Y-3.94
X7.6Y-2.9
X7.6Y-2.95
X7.6Y-3.
X7.6Y-3.05
X7.63Y-3.92
X7.65Y-4.35
X7.67Y-2.88
X7.7Y-2.92
X7.782Y-3.047
X7.8Y-2.9
X7.8Y-2.95
X7.8Y-3.2
X7.8377Y-5.1123
X7.895Y-2.715
X7.93Y-3.785
X7.94Y-3.825
X7.94Y-4.88
X7.9416Y-4.2884
X7.943Y-4.6684
X8.Y-2.76
X8.015Y-3.865
X8.02Y-3.245
X8.02Y-4.24
X8.0304Y-3.9904
X8.045Y-3.15
X8.045Y-4.12
X8.09Y-4.23
X8.1Y-1.9
X8.1Y-2.
X8.1Y-2.755
X8.115Y-3.215
X8.145Y-4.005
X8.15Y-1.85
X8.15Y-1.95
X8.15Y-4.43
X8.18Y-3.015
X8.18Y-3.47
X8.195Y-3.965
X8.2Y-1.9
X8.2Y-2.
X8.22Y-4.19
X8.225Y-4.715
X8.2369Y-4.1275
X8.24Y-5.14
X8.245Y-3.93
X8.25Y-1.85
X8.25Y-1.95
X8.25Y-4.22
X8.2636Y-4.0633
X8.2938Y-2.9315
X8.295Y-2.755
X8.3Y-1.9
X8.3Y-2.
X8.3Y-4.035
X8.325Y-3.44
X8.3317Y-4.5003
X8.335Y-4.725
X8.35Y-1.85
X8.35Y-1.95
X8.35Y-4.26
X8.38Y-3.69
X8.38Y-4.1
X8.4Y-1.9
X8.4Y-2.
X8.4Y-2.755
X8.4Y-4.79
X8.4018Y-4.6968
X8.41Y-3.66
X8.42Y-3.93
X8.445Y-3.535
X8.46Y-3.585
X8.46Y-4.925
X8.4689Y-4.7405
X8.47Y-4.11
X8.495Y-2.755
X8.495Y-3.61
X8.52Y-3.94
X8.52Y-4.19
X8.52Y-4.39
X8.53Y-3.63
X8.53Y-4.26
X8.535Y-4.345
X8.5706Y-3.7096
X8.5713Y-4.8485
X8.5749Y-4.7127
X8.58Y-3.6422
X8.6Y-2.9
X8.6Y-2.95
X8.6Y-4.07
X8.605Y-3.175
X8.63Y-5.13
X8.6319Y-4.5519
X8.65Y-2.9
X8.65Y-2.95
X8.662Y-3.036
X8.6752Y-3.7552
X8.6774Y-4.89
X8.68Y-3.315
X8.7Y-2.9
X8.7Y-2.95
X8.72Y-4.595
X8.73Y-2.215
X8.735Y-3.7554
X8.7734Y-3.747
X8.785Y-3.3129
X8.795Y-3.425
X8.8126Y-3.7509
X8.8163Y-3.346
X8.83Y-4.38
X8.84Y-4.43
X8.8402Y-3.3773
X8.85Y-3.475
X8.852Y-3.7501
X8.86Y-2.025
X8.86Y-4.515
X8.875Y-3.97
X8.8791Y-3.4213
X8.9Y-3.76
X8.9133Y-3.3884
X8.9136Y-4.4614
X8.915Y-3.125
X8.93Y-4.855
X8.9437Y-4.1533
X8.9498Y-3.7598
X8.964Y-4.187
X8.965Y-2.415
X8.977Y-4.2308
X8.98Y-4.4
X9.Y-2.9
X9.Y-3.75
X9.Y-4.06
X9.0068Y-4.2565
X9.01Y-4.3
X9.0218Y-4.0272
X9.0344Y-3.9899
X9.04Y-5.13
X9.0409Y-2.5765
X9.05Y-3.35
X9.05Y-3.75
X9.07Y-3.9644
X9.08Y-2.545
X9.105Y-2.775
X9.14Y-2.405
X9.14Y-4.84
X9.1424Y-4.4673
X9.1495Y-2.7897
X9.1711Y-4.4403
X9.1833Y-2.81
X9.19Y-3.785
X9.19Y-4.84
X9.1958Y-4.4096
X9.2Y-2.5466
X9.2Y-3.6
X9.2023Y-2.344
X9.2118Y-2.8428
X9.2295Y-4.3892
X9.2404Y-2.8755
X9.2456Y-2.344
X9.2492Y-4.3552
X9.25Y-2.5713
X9.26Y-4.67
X9.2752Y-4.0748
X9.2883Y-4.35
X9.2889Y-2.344
X9.3079Y-4.3067
X9.335Y-2.685
X9.34Y-2.475
X9.35Y-3.25
X9.36Y-4.12
X9.3602Y-4.3044
X9.375Y-2.345
X9.39Y-5.12
X9.395Y-3.71
X9.42Y-2.295
X9.4206Y-2.4551
X9.44Y-4.664
X9.485Y-4.89
X9.49Y-4.96
X9.5Y-2.46
X9.505Y-2.345
X9.52Y-2.56
X9.5689Y-5.09
X9.57Y-2.415
X9.57Y-4.25
X9.61Y-4.46
X9.6133Y-2.4714
X9.64Y-2.355
X9.68Y-2.4534
X9.68Y-2.54
X9.7Y-2.85
X9.7Y-2.9
X9.71Y-4.38
X9.71Y-4.47
X9.71Y-4.6
X9.75Y-2.85
X9.75Y-2.9
X9.755Y-3.65
X9.8Y-2.2
X9.8Y-2.25
X9.8Y-2.3
X9.8Y-2.85
X9.8Y-2.9
X9.85Y-2.2
X9.85Y-2.25
X9.85Y-2.3
X9.85Y-2.85
X9.85Y-2.9
X9.85Y-3.655
X9.881Y-2.358
X9.8833Y-4.96
X9.9Y-2.2
X9.9Y-2.25
X9.9Y-2.3
X9.9Y-4.62
X9.905Y-3.7
X9.92Y-4.17
X9.94Y-3.93
X10.05Y-4.82
X10.15Y-2.92
X10.185Y-3.805
X10.185Y-3.84
X10.185Y-3.875
X10.185Y-3.91
X10.185Y-3.91
X10.185Y-3.91
X10.185Y-3.945
X10.185Y-3.98
X10.21Y-3.125
X10.215Y-2.515
X10.215Y-2.555
X10.22Y-3.805
X10.22Y-3.84
X10.22Y-3.875
X10.22Y-3.91
X10.22Y-3.945
X10.22Y-3.98
X10.24Y-2.28
X10.24Y-2.315
X10.24Y-3.275
X10.24Y-3.52
X10.255Y-2.515
X10.255Y-2.555
X10.275Y-2.28
X10.275Y-2.315
X10.275Y-4.415
X10.295Y-2.515
X10.295Y-2.555
X10.31Y-2.28
X10.31Y-2.315
X10.31Y-3.56
X10.34Y-2.925
X10.345Y-2.28
X10.345Y-2.315
X10.3737Y-3.155
X10.3737Y-3.255
X10.38Y-2.28
X10.38Y-2.315
X10.415Y-3.605
X10.42Y-3.805
X10.42Y-3.84
X10.42Y-3.875
X10.42Y-3.91
X10.42Y-3.91
X10.42Y-3.91
X10.42Y-3.945
X10.42Y-3.98
X10.43Y-3.365
X10.45Y-3.325
X10.455Y-3.29
X10.455Y-3.805
X10.455Y-3.84
X10.455Y-3.875
X10.455Y-3.91
X10.455Y-3.945
X10.455Y-3.98
X10.465Y-3.365
X10.47Y-2.085
X10.51Y-2.965
X10.535Y-3.295
X10.55Y-3.355
X10.5863Y-3.205
X10.645Y-1.95
X10.7Y-3.23
X10.7Y-3.42
X10.7Y-3.46
X10.7Y-3.5
X10.7Y-3.535
X10.7143Y-3.084
X10.72Y-3.03
T3
X9.49Y-2.665
X9.49Y-2.765
X9.49Y-2.865
X9.49Y-2.965
X9.49Y-3.065
X9.49Y-3.165
X9.49Y-3.265
X9.49Y-3.365
X9.49Y-3.465
X9.49Y-3.565
X9.49Y-3.665
X9.49Y-3.765
X10.09Y-2.665
X10.09Y-2.765
X10.09Y-2.865
X10.09Y-2.965
X10.09Y-3.065
X10.09Y-3.165
X10.09Y-3.265
X10.09Y-3.365
X10.09Y-3.465
X10.09Y-3.565
X10.09Y-3.665
X10.09Y-3.765
X9.791Y-4.022
X9.791Y-4.122
X9.791Y-4.222
X9.791Y-4.322
X9.791Y-4.422
X9.791Y-4.522
X9.791Y-4.622
X9.791Y-4.722
X10.091Y-4.022
X10.091Y-4.122
X10.091Y-4.222
X10.091Y-4.322
X10.091Y-4.422
X10.091Y-4.522
X10.091Y-4.622
X10.091Y-4.722
T4
X8.202Y-2.2863
X8.202Y-2.365
X8.302Y-2.2863
X8.302Y-2.365
T5
X8.64Y-2.331
X8.74Y-2.431
X8.84Y-2.331
T6
X8.55Y-5.0441
X8.55Y-5.3
X8.7272Y-5.0441
X8.7272Y-5.3
X10.185Y-4.9591
X10.185Y-5.53
X10.2834Y-5.53
X10.3819Y-4.9591
X10.3819Y-5.53
X9.75Y-5.0441
X9.75Y-5.3
X9.9272Y-5.0441
X9.9272Y-5.3
X8.15Y-5.0441
X8.15Y-5.3
X8.3272Y-5.0441
X8.3272Y-5.3
X7.75Y-5.0441
X7.75Y-5.3
X7.9272Y-5.0441
X7.9272Y-5.3
X7.35Y-5.0441
X7.35Y-5.3
X7.5272Y-5.0441
X7.5272Y-5.3
X6.885Y-2.235
X6.95Y-5.0441
X6.95Y-5.3
X7.1272Y-5.0441
X7.1272Y-5.3
X9.35Y-5.0441
X9.35Y-5.3
X9.5272Y-5.0441
X9.5272Y-5.3
X7.25Y-4.55
X7.25Y-4.7272
X7.5059Y-4.55
X7.5059Y-4.7272
X8.95Y-5.0441
X8.95Y-5.3
X9.1272Y-5.0441
X9.1272Y-5.3
X8.67Y-1.876
X8.67Y-1.976
X8.67Y-2.076
X8.77Y-1.876
X8.77Y-1.976
X8.77Y-2.076
T7
X7.2446Y-2.5973
X7.3446Y-2.5973
X7.4446Y-2.5973
X7.5446Y-2.5973
X7.6446Y-2.5973
X7.7446Y-2.5973
X7.8446Y-2.5973
X7.9446Y-2.5973
X8.0446Y-2.5973
X8.1446Y-2.5973
X8.2446Y-2.5973
X8.3446Y-2.5973
X8.4446Y-2.5973
X8.5446Y-2.5973
X8.6446Y-2.5973
X8.7446Y-2.5973
T8
X7.0187Y-2.2661
X7.1171Y-1.8724
X7.1171Y-2.3645
X7.314Y-2.2661
X7.5109Y-1.8724
X7.5109Y-2.3645
X7.6093Y-2.2661
T10
X8.0158Y-2.18
X8.4882Y-2.18
T11
X6.9493Y-2.5973
X6.9493Y-4.7627
X10.6107Y-2.5973
X10.6107Y-4.7627
T2
X9.9691Y-2.0941G85X9.9691Y-2.1099
G05
X10.0676Y-2.0941G85X10.0676Y-2.1099
G05
X10.1581Y-1.9051G85X10.1739Y-1.9051
G05
X10.2644Y-2.0941G85X10.2644Y-2.1099
G05
X10.3629Y-2.0941G85X10.3629Y-2.1099
G05
T9
X10.063Y-5.2603G85X10.063Y-5.2091
G05
X10.5039Y-5.2603G85X10.5039Y-5.2091
G05
T0
M30
