%TF.GenerationSoftware,KiCad,Pcbnew,(5.0.2)-1*%
%TF.CreationDate,2019-07-09T23:07:38-07:00*%
%TF.ProjectId,YM2612_MIDI_SMD,594d3236-3132-45f4-9d49-44495f534d44,rev?*%
%TF.SameCoordinates,Original*%
%TF.FileFunction,Legend,Top*%
%TF.FilePolarity,Positive*%
%FSLAX46Y46*%
G04 Gerber Fmt 4.6, Leading zero omitted, Abs format (unit mm)*
G04 Created by KiCad (PCBNEW (5.0.2)-1) date 7/9/2019 11:07:38 PM*
%MOMM*%
%LPD*%
G01*
G04 APERTURE LIST*
%ADD10C,0.300000*%
%ADD11C,0.150000*%
%ADD12C,0.010000*%
%ADD13C,0.127000*%
%ADD14C,0.304800*%
%ADD15C,0.120000*%
%ADD16C,0.152400*%
%ADD17C,0.050000*%
G04 APERTURE END LIST*
D10*
X249106428Y-74986428D02*
X248035000Y-74986428D01*
X247820714Y-74915000D01*
X247677857Y-74772142D01*
X247606428Y-74557857D01*
X247606428Y-74415000D01*
X247606428Y-76415000D02*
X247606428Y-75700714D01*
X249106428Y-75700714D01*
X247749285Y-77772142D02*
X247677857Y-77700714D01*
X247606428Y-77486428D01*
X247606428Y-77343571D01*
X247677857Y-77129285D01*
X247820714Y-76986428D01*
X247963571Y-76915000D01*
X248249285Y-76843571D01*
X248463571Y-76843571D01*
X248749285Y-76915000D01*
X248892142Y-76986428D01*
X249035000Y-77129285D01*
X249106428Y-77343571D01*
X249106428Y-77486428D01*
X249035000Y-77700714D01*
X248963571Y-77772142D01*
X249106428Y-78843571D02*
X248035000Y-78843571D01*
X247820714Y-78772142D01*
X247677857Y-78629285D01*
X247606428Y-78415000D01*
X247606428Y-78272142D01*
X247606428Y-80272142D02*
X247606428Y-79557857D01*
X249106428Y-79557857D01*
X247749285Y-81629285D02*
X247677857Y-81557857D01*
X247606428Y-81343571D01*
X247606428Y-81200714D01*
X247677857Y-80986428D01*
X247820714Y-80843571D01*
X247963571Y-80772142D01*
X248249285Y-80700714D01*
X248463571Y-80700714D01*
X248749285Y-80772142D01*
X248892142Y-80843571D01*
X249035000Y-80986428D01*
X249106428Y-81200714D01*
X249106428Y-81343571D01*
X249035000Y-81557857D01*
X248963571Y-81629285D01*
X249106428Y-82700714D02*
X248035000Y-82700714D01*
X247820714Y-82629285D01*
X247677857Y-82486428D01*
X247606428Y-82272142D01*
X247606428Y-82129285D01*
X247606428Y-84129285D02*
X247606428Y-83415000D01*
X249106428Y-83415000D01*
X247749285Y-85486428D02*
X247677857Y-85415000D01*
X247606428Y-85200714D01*
X247606428Y-85057857D01*
X247677857Y-84843571D01*
X247820714Y-84700714D01*
X247963571Y-84629285D01*
X248249285Y-84557857D01*
X248463571Y-84557857D01*
X248749285Y-84629285D01*
X248892142Y-84700714D01*
X249035000Y-84843571D01*
X249106428Y-85057857D01*
X249106428Y-85200714D01*
X249035000Y-85415000D01*
X248963571Y-85486428D01*
X249106428Y-86557857D02*
X248035000Y-86557857D01*
X247820714Y-86486428D01*
X247677857Y-86343571D01*
X247606428Y-86129285D01*
X247606428Y-85986428D01*
X247606428Y-87986428D02*
X247606428Y-87272142D01*
X249106428Y-87272142D01*
X247749285Y-89343571D02*
X247677857Y-89272142D01*
X247606428Y-89057857D01*
X247606428Y-88915000D01*
X247677857Y-88700714D01*
X247820714Y-88557857D01*
X247963571Y-88486428D01*
X248249285Y-88415000D01*
X248463571Y-88415000D01*
X248749285Y-88486428D01*
X248892142Y-88557857D01*
X249035000Y-88700714D01*
X249106428Y-88915000D01*
X249106428Y-89057857D01*
X249035000Y-89272142D01*
X248963571Y-89343571D01*
X253714285Y-61408571D02*
X253000000Y-61408571D01*
X252928571Y-62122857D01*
X253000000Y-62051428D01*
X253142857Y-61980000D01*
X253500000Y-61980000D01*
X253642857Y-62051428D01*
X253714285Y-62122857D01*
X253785714Y-62265714D01*
X253785714Y-62622857D01*
X253714285Y-62765714D01*
X253642857Y-62837142D01*
X253500000Y-62908571D01*
X253142857Y-62908571D01*
X253000000Y-62837142D01*
X252928571Y-62765714D01*
X254214285Y-61408571D02*
X254714285Y-62908571D01*
X255214285Y-61408571D01*
X220035714Y-73092571D02*
X220964285Y-73092571D01*
X220464285Y-73664000D01*
X220678571Y-73664000D01*
X220821428Y-73735428D01*
X220892857Y-73806857D01*
X220964285Y-73949714D01*
X220964285Y-74306857D01*
X220892857Y-74449714D01*
X220821428Y-74521142D01*
X220678571Y-74592571D01*
X220250000Y-74592571D01*
X220107142Y-74521142D01*
X220035714Y-74449714D01*
X221607142Y-74449714D02*
X221678571Y-74521142D01*
X221607142Y-74592571D01*
X221535714Y-74521142D01*
X221607142Y-74449714D01*
X221607142Y-74592571D01*
X222178571Y-73092571D02*
X223107142Y-73092571D01*
X222607142Y-73664000D01*
X222821428Y-73664000D01*
X222964285Y-73735428D01*
X223035714Y-73806857D01*
X223107142Y-73949714D01*
X223107142Y-74306857D01*
X223035714Y-74449714D01*
X222964285Y-74521142D01*
X222821428Y-74592571D01*
X222392857Y-74592571D01*
X222250000Y-74521142D01*
X222178571Y-74449714D01*
X223535714Y-73092571D02*
X224035714Y-74592571D01*
X224535714Y-73092571D01*
X198850285Y-73600571D02*
X198136000Y-73600571D01*
X198064571Y-74314857D01*
X198136000Y-74243428D01*
X198278857Y-74172000D01*
X198636000Y-74172000D01*
X198778857Y-74243428D01*
X198850285Y-74314857D01*
X198921714Y-74457714D01*
X198921714Y-74814857D01*
X198850285Y-74957714D01*
X198778857Y-75029142D01*
X198636000Y-75100571D01*
X198278857Y-75100571D01*
X198136000Y-75029142D01*
X198064571Y-74957714D01*
X199350285Y-73600571D02*
X199850285Y-75100571D01*
X200350285Y-73600571D01*
X217932000Y-46168571D02*
X217932000Y-46525714D01*
X217574857Y-46382857D02*
X217932000Y-46525714D01*
X218289142Y-46382857D01*
X217717714Y-46811428D02*
X217932000Y-46525714D01*
X218146285Y-46811428D01*
X193147428Y-120820571D02*
X192647428Y-120106285D01*
X192290285Y-120820571D02*
X192290285Y-119320571D01*
X192861714Y-119320571D01*
X193004571Y-119392000D01*
X193076000Y-119463428D01*
X193147428Y-119606285D01*
X193147428Y-119820571D01*
X193076000Y-119963428D01*
X193004571Y-120034857D01*
X192861714Y-120106285D01*
X192290285Y-120106285D01*
X193790285Y-120034857D02*
X194290285Y-120034857D01*
X194504571Y-120820571D02*
X193790285Y-120820571D01*
X193790285Y-119320571D01*
X194504571Y-119320571D01*
X195076000Y-120749142D02*
X195290285Y-120820571D01*
X195647428Y-120820571D01*
X195790285Y-120749142D01*
X195861714Y-120677714D01*
X195933142Y-120534857D01*
X195933142Y-120392000D01*
X195861714Y-120249142D01*
X195790285Y-120177714D01*
X195647428Y-120106285D01*
X195361714Y-120034857D01*
X195218857Y-119963428D01*
X195147428Y-119892000D01*
X195076000Y-119749142D01*
X195076000Y-119606285D01*
X195147428Y-119463428D01*
X195218857Y-119392000D01*
X195361714Y-119320571D01*
X195718857Y-119320571D01*
X195933142Y-119392000D01*
X196576000Y-120034857D02*
X197076000Y-120034857D01*
X197290285Y-120820571D02*
X196576000Y-120820571D01*
X196576000Y-119320571D01*
X197290285Y-119320571D01*
X197718857Y-119320571D02*
X198576000Y-119320571D01*
X198147428Y-120820571D02*
X198147428Y-119320571D01*
X179324000Y-71822571D02*
X179324000Y-72179714D01*
X178966857Y-72036857D02*
X179324000Y-72179714D01*
X179681142Y-72036857D01*
X179109714Y-72465428D02*
X179324000Y-72179714D01*
X179538285Y-72465428D01*
X243078000Y-67250571D02*
X243078000Y-67607714D01*
X242720857Y-67464857D02*
X243078000Y-67607714D01*
X243435142Y-67464857D01*
X242863714Y-67893428D02*
X243078000Y-67607714D01*
X243292285Y-67893428D01*
X216662000Y-96333571D02*
X216662000Y-96690714D01*
X216304857Y-96547857D02*
X216662000Y-96690714D01*
X217019142Y-96547857D01*
X216447714Y-96976428D02*
X216662000Y-96690714D01*
X216876285Y-96976428D01*
X254508000Y-119320571D02*
X254508000Y-119677714D01*
X254150857Y-119534857D02*
X254508000Y-119677714D01*
X254865142Y-119534857D01*
X254293714Y-119963428D02*
X254508000Y-119677714D01*
X254722285Y-119963428D01*
X183007000Y-92523571D02*
X183007000Y-92880714D01*
X182649857Y-92737857D02*
X183007000Y-92880714D01*
X183364142Y-92737857D01*
X182792714Y-93166428D02*
X183007000Y-92880714D01*
X183221285Y-93166428D01*
D11*
X270000000Y-45000000D02*
X176000000Y-45000000D01*
D10*
X264807142Y-142688571D02*
X265307142Y-144188571D01*
X265807142Y-142688571D01*
X267021428Y-142688571D02*
X266307142Y-142688571D01*
X266235714Y-143402857D01*
X266307142Y-143331428D01*
X266450000Y-143260000D01*
X266807142Y-143260000D01*
X266950000Y-143331428D01*
X267021428Y-143402857D01*
X267092857Y-143545714D01*
X267092857Y-143902857D01*
X267021428Y-144045714D01*
X266950000Y-144117142D01*
X266807142Y-144188571D01*
X266450000Y-144188571D01*
X266307142Y-144117142D01*
X266235714Y-144045714D01*
X267735714Y-144188571D02*
X267735714Y-142688571D01*
X267735714Y-143260000D02*
X267878571Y-143188571D01*
X268164285Y-143188571D01*
X268307142Y-143260000D01*
X268378571Y-143331428D01*
X268450000Y-143474285D01*
X268450000Y-143902857D01*
X268378571Y-144045714D01*
X268307142Y-144117142D01*
X268164285Y-144188571D01*
X267878571Y-144188571D01*
X267735714Y-144117142D01*
D11*
X273000000Y-142000000D02*
X273000000Y-48000000D01*
X176000000Y-145000000D02*
X270000000Y-145000000D01*
X173000000Y-48000000D02*
X173000000Y-142000000D01*
X270000000Y-45000000D02*
G75*
G02X273000000Y-48000000I0J-3000000D01*
G01*
X273000000Y-142000000D02*
G75*
G02X270000000Y-145000000I-3000000J0D01*
G01*
X176000000Y-145000000D02*
G75*
G02X173000000Y-142000000I0J3000000D01*
G01*
X173000000Y-48000000D02*
G75*
G02X176000000Y-45000000I3000000J0D01*
G01*
D10*
X180952857Y-143188571D02*
X181238571Y-144188571D01*
X181524285Y-143474285D01*
X181810000Y-144188571D01*
X182095714Y-143188571D01*
X182524285Y-143188571D02*
X182810000Y-144188571D01*
X183095714Y-143474285D01*
X183381428Y-144188571D01*
X183667142Y-143188571D01*
X184095714Y-143188571D02*
X184381428Y-144188571D01*
X184667142Y-143474285D01*
X184952857Y-144188571D01*
X185238571Y-143188571D01*
X185810000Y-144045714D02*
X185881428Y-144117142D01*
X185810000Y-144188571D01*
X185738571Y-144117142D01*
X185810000Y-144045714D01*
X185810000Y-144188571D01*
X186452857Y-143760000D02*
X187167142Y-143760000D01*
X186310000Y-144188571D02*
X186810000Y-142688571D01*
X187310000Y-144188571D01*
X187810000Y-144188571D02*
X187810000Y-143188571D01*
X187810000Y-142688571D02*
X187738571Y-142760000D01*
X187810000Y-142831428D01*
X187881428Y-142760000D01*
X187810000Y-142688571D01*
X187810000Y-142831428D01*
X189167142Y-144188571D02*
X189167142Y-142688571D01*
X189167142Y-144117142D02*
X189024285Y-144188571D01*
X188738571Y-144188571D01*
X188595714Y-144117142D01*
X188524285Y-144045714D01*
X188452857Y-143902857D01*
X188452857Y-143474285D01*
X188524285Y-143331428D01*
X188595714Y-143260000D01*
X188738571Y-143188571D01*
X189024285Y-143188571D01*
X189167142Y-143260000D01*
X190524285Y-144188571D02*
X190524285Y-143402857D01*
X190452857Y-143260000D01*
X190310000Y-143188571D01*
X190024285Y-143188571D01*
X189881428Y-143260000D01*
X190524285Y-144117142D02*
X190381428Y-144188571D01*
X190024285Y-144188571D01*
X189881428Y-144117142D01*
X189810000Y-143974285D01*
X189810000Y-143831428D01*
X189881428Y-143688571D01*
X190024285Y-143617142D01*
X190381428Y-143617142D01*
X190524285Y-143545714D01*
X191238571Y-143188571D02*
X191238571Y-144188571D01*
X191238571Y-143331428D02*
X191310000Y-143260000D01*
X191452857Y-143188571D01*
X191667142Y-143188571D01*
X191810000Y-143260000D01*
X191881428Y-143402857D01*
X191881428Y-144188571D01*
X193310000Y-144188571D02*
X192595714Y-144188571D01*
X192595714Y-142688571D01*
X194452857Y-144188571D02*
X194452857Y-143402857D01*
X194381428Y-143260000D01*
X194238571Y-143188571D01*
X193952857Y-143188571D01*
X193810000Y-143260000D01*
X194452857Y-144117142D02*
X194310000Y-144188571D01*
X193952857Y-144188571D01*
X193810000Y-144117142D01*
X193738571Y-143974285D01*
X193738571Y-143831428D01*
X193810000Y-143688571D01*
X193952857Y-143617142D01*
X194310000Y-143617142D01*
X194452857Y-143545714D01*
X195024285Y-143188571D02*
X195310000Y-144188571D01*
X195595714Y-143474285D01*
X195881428Y-144188571D01*
X196167142Y-143188571D01*
X196738571Y-144188571D02*
X196738571Y-143188571D01*
X196738571Y-143474285D02*
X196810000Y-143331428D01*
X196881428Y-143260000D01*
X197024285Y-143188571D01*
X197167142Y-143188571D01*
X198238571Y-144117142D02*
X198095714Y-144188571D01*
X197810000Y-144188571D01*
X197667142Y-144117142D01*
X197595714Y-143974285D01*
X197595714Y-143402857D01*
X197667142Y-143260000D01*
X197810000Y-143188571D01*
X198095714Y-143188571D01*
X198238571Y-143260000D01*
X198310000Y-143402857D01*
X198310000Y-143545714D01*
X197595714Y-143688571D01*
X198952857Y-143188571D02*
X198952857Y-144188571D01*
X198952857Y-143331428D02*
X199024285Y-143260000D01*
X199167142Y-143188571D01*
X199381428Y-143188571D01*
X199524285Y-143260000D01*
X199595714Y-143402857D01*
X199595714Y-144188571D01*
X200952857Y-144117142D02*
X200810000Y-144188571D01*
X200524285Y-144188571D01*
X200381428Y-144117142D01*
X200310000Y-144045714D01*
X200238571Y-143902857D01*
X200238571Y-143474285D01*
X200310000Y-143331428D01*
X200381428Y-143260000D01*
X200524285Y-143188571D01*
X200810000Y-143188571D01*
X200952857Y-143260000D01*
X202167142Y-144117142D02*
X202024285Y-144188571D01*
X201738571Y-144188571D01*
X201595714Y-144117142D01*
X201524285Y-143974285D01*
X201524285Y-143402857D01*
X201595714Y-143260000D01*
X201738571Y-143188571D01*
X202024285Y-143188571D01*
X202167142Y-143260000D01*
X202238571Y-143402857D01*
X202238571Y-143545714D01*
X201524285Y-143688571D01*
X202881428Y-144045714D02*
X202952857Y-144117142D01*
X202881428Y-144188571D01*
X202810000Y-144117142D01*
X202881428Y-144045714D01*
X202881428Y-144188571D01*
X204238571Y-144117142D02*
X204095714Y-144188571D01*
X203810000Y-144188571D01*
X203667142Y-144117142D01*
X203595714Y-144045714D01*
X203524285Y-143902857D01*
X203524285Y-143474285D01*
X203595714Y-143331428D01*
X203667142Y-143260000D01*
X203810000Y-143188571D01*
X204095714Y-143188571D01*
X204238571Y-143260000D01*
X205095714Y-144188571D02*
X204952857Y-144117142D01*
X204881428Y-144045714D01*
X204810000Y-143902857D01*
X204810000Y-143474285D01*
X204881428Y-143331428D01*
X204952857Y-143260000D01*
X205095714Y-143188571D01*
X205310000Y-143188571D01*
X205452857Y-143260000D01*
X205524285Y-143331428D01*
X205595714Y-143474285D01*
X205595714Y-143902857D01*
X205524285Y-144045714D01*
X205452857Y-144117142D01*
X205310000Y-144188571D01*
X205095714Y-144188571D01*
X206238571Y-144188571D02*
X206238571Y-143188571D01*
X206238571Y-143331428D02*
X206310000Y-143260000D01*
X206452857Y-143188571D01*
X206667142Y-143188571D01*
X206810000Y-143260000D01*
X206881428Y-143402857D01*
X206881428Y-144188571D01*
X206881428Y-143402857D02*
X206952857Y-143260000D01*
X207095714Y-143188571D01*
X207310000Y-143188571D01*
X207452857Y-143260000D01*
X207524285Y-143402857D01*
X207524285Y-144188571D01*
X223057428Y-141707071D02*
X223057428Y-140207071D01*
X223557428Y-141278500D01*
X224057428Y-140207071D01*
X224057428Y-141707071D01*
X224771714Y-140921357D02*
X225271714Y-140921357D01*
X225486000Y-141707071D02*
X224771714Y-141707071D01*
X224771714Y-140207071D01*
X225486000Y-140207071D01*
X226914571Y-140278500D02*
X226771714Y-140207071D01*
X226557428Y-140207071D01*
X226343142Y-140278500D01*
X226200285Y-140421357D01*
X226128857Y-140564214D01*
X226057428Y-140849928D01*
X226057428Y-141064214D01*
X226128857Y-141349928D01*
X226200285Y-141492785D01*
X226343142Y-141635642D01*
X226557428Y-141707071D01*
X226700285Y-141707071D01*
X226914571Y-141635642D01*
X226986000Y-141564214D01*
X226986000Y-141064214D01*
X226700285Y-141064214D01*
X227557428Y-141278500D02*
X228271714Y-141278500D01*
X227414571Y-141707071D02*
X227914571Y-140207071D01*
X228414571Y-141707071D01*
X230057428Y-141707071D02*
X230057428Y-140207071D01*
X230557428Y-141278500D01*
X231057428Y-140207071D01*
X231057428Y-141707071D01*
X231771714Y-141707071D02*
X231771714Y-140207071D01*
X232486000Y-141707071D02*
X232486000Y-140207071D01*
X232843142Y-140207071D01*
X233057428Y-140278500D01*
X233200285Y-140421357D01*
X233271714Y-140564214D01*
X233343142Y-140849928D01*
X233343142Y-141064214D01*
X233271714Y-141349928D01*
X233200285Y-141492785D01*
X233057428Y-141635642D01*
X232843142Y-141707071D01*
X232486000Y-141707071D01*
X233986000Y-141707071D02*
X233986000Y-140207071D01*
X235771714Y-141635642D02*
X235986000Y-141707071D01*
X236343142Y-141707071D01*
X236486000Y-141635642D01*
X236557428Y-141564214D01*
X236628857Y-141421357D01*
X236628857Y-141278500D01*
X236557428Y-141135642D01*
X236486000Y-141064214D01*
X236343142Y-140992785D01*
X236057428Y-140921357D01*
X235914571Y-140849928D01*
X235843142Y-140778500D01*
X235771714Y-140635642D01*
X235771714Y-140492785D01*
X235843142Y-140349928D01*
X235914571Y-140278500D01*
X236057428Y-140207071D01*
X236414571Y-140207071D01*
X236628857Y-140278500D01*
X237843142Y-141635642D02*
X237700285Y-141707071D01*
X237414571Y-141707071D01*
X237271714Y-141635642D01*
X237200285Y-141492785D01*
X237200285Y-140921357D01*
X237271714Y-140778500D01*
X237414571Y-140707071D01*
X237700285Y-140707071D01*
X237843142Y-140778500D01*
X237914571Y-140921357D01*
X237914571Y-141064214D01*
X237200285Y-141207071D01*
X239200285Y-140707071D02*
X239200285Y-141921357D01*
X239128857Y-142064214D01*
X239057428Y-142135642D01*
X238914571Y-142207071D01*
X238700285Y-142207071D01*
X238557428Y-142135642D01*
X239200285Y-141635642D02*
X239057428Y-141707071D01*
X238771714Y-141707071D01*
X238628857Y-141635642D01*
X238557428Y-141564214D01*
X238486000Y-141421357D01*
X238486000Y-140992785D01*
X238557428Y-140849928D01*
X238628857Y-140778500D01*
X238771714Y-140707071D01*
X239057428Y-140707071D01*
X239200285Y-140778500D01*
X240557428Y-141707071D02*
X240557428Y-140921357D01*
X240486000Y-140778500D01*
X240343142Y-140707071D01*
X240057428Y-140707071D01*
X239914571Y-140778500D01*
X240557428Y-141635642D02*
X240414571Y-141707071D01*
X240057428Y-141707071D01*
X239914571Y-141635642D01*
X239843142Y-141492785D01*
X239843142Y-141349928D01*
X239914571Y-141207071D01*
X240057428Y-141135642D01*
X240414571Y-141135642D01*
X240557428Y-141064214D01*
X243200285Y-140278500D02*
X243057428Y-140207071D01*
X242843142Y-140207071D01*
X242628857Y-140278500D01*
X242486000Y-140421357D01*
X242414571Y-140564214D01*
X242343142Y-140849928D01*
X242343142Y-141064214D01*
X242414571Y-141349928D01*
X242486000Y-141492785D01*
X242628857Y-141635642D01*
X242843142Y-141707071D01*
X242986000Y-141707071D01*
X243200285Y-141635642D01*
X243271714Y-141564214D01*
X243271714Y-141064214D01*
X242986000Y-141064214D01*
X244486000Y-141635642D02*
X244343142Y-141707071D01*
X244057428Y-141707071D01*
X243914571Y-141635642D01*
X243843142Y-141492785D01*
X243843142Y-140921357D01*
X243914571Y-140778500D01*
X244057428Y-140707071D01*
X244343142Y-140707071D01*
X244486000Y-140778500D01*
X244557428Y-140921357D01*
X244557428Y-141064214D01*
X243843142Y-141207071D01*
X245200285Y-140707071D02*
X245200285Y-141707071D01*
X245200285Y-140849928D02*
X245271714Y-140778500D01*
X245414571Y-140707071D01*
X245628857Y-140707071D01*
X245771714Y-140778500D01*
X245843142Y-140921357D01*
X245843142Y-141707071D01*
X247128857Y-141635642D02*
X246986000Y-141707071D01*
X246700285Y-141707071D01*
X246557428Y-141635642D01*
X246486000Y-141492785D01*
X246486000Y-140921357D01*
X246557428Y-140778500D01*
X246700285Y-140707071D01*
X246986000Y-140707071D01*
X247128857Y-140778500D01*
X247200285Y-140921357D01*
X247200285Y-141064214D01*
X246486000Y-141207071D01*
X247771714Y-141635642D02*
X247914571Y-141707071D01*
X248200285Y-141707071D01*
X248343142Y-141635642D01*
X248414571Y-141492785D01*
X248414571Y-141421357D01*
X248343142Y-141278500D01*
X248200285Y-141207071D01*
X247986000Y-141207071D01*
X247843142Y-141135642D01*
X247771714Y-140992785D01*
X247771714Y-140921357D01*
X247843142Y-140778500D01*
X247986000Y-140707071D01*
X248200285Y-140707071D01*
X248343142Y-140778500D01*
X249057428Y-141707071D02*
X249057428Y-140707071D01*
X249057428Y-140207071D02*
X248986000Y-140278500D01*
X249057428Y-140349928D01*
X249128857Y-140278500D01*
X249057428Y-140207071D01*
X249057428Y-140349928D01*
X249700285Y-141635642D02*
X249843142Y-141707071D01*
X250128857Y-141707071D01*
X250271714Y-141635642D01*
X250343142Y-141492785D01*
X250343142Y-141421357D01*
X250271714Y-141278500D01*
X250128857Y-141207071D01*
X249914571Y-141207071D01*
X249771714Y-141135642D01*
X249700285Y-140992785D01*
X249700285Y-140921357D01*
X249771714Y-140778500D01*
X249914571Y-140707071D01*
X250128857Y-140707071D01*
X250271714Y-140778500D01*
X229628857Y-143471357D02*
X229128857Y-143471357D01*
X229128857Y-144257071D02*
X229128857Y-142757071D01*
X229843142Y-142757071D01*
X230414571Y-144257071D02*
X230414571Y-142757071D01*
X230914571Y-143828500D01*
X231414571Y-142757071D01*
X231414571Y-144257071D01*
X233200285Y-144185642D02*
X233414571Y-144257071D01*
X233771714Y-144257071D01*
X233914571Y-144185642D01*
X233986000Y-144114214D01*
X234057428Y-143971357D01*
X234057428Y-143828500D01*
X233986000Y-143685642D01*
X233914571Y-143614214D01*
X233771714Y-143542785D01*
X233486000Y-143471357D01*
X233343142Y-143399928D01*
X233271714Y-143328500D01*
X233200285Y-143185642D01*
X233200285Y-143042785D01*
X233271714Y-142899928D01*
X233343142Y-142828500D01*
X233486000Y-142757071D01*
X233843142Y-142757071D01*
X234057428Y-142828500D01*
X234557428Y-143257071D02*
X234914571Y-144257071D01*
X235271714Y-143257071D02*
X234914571Y-144257071D01*
X234771714Y-144614214D01*
X234700285Y-144685642D01*
X234557428Y-144757071D01*
X235843142Y-143257071D02*
X235843142Y-144257071D01*
X235843142Y-143399928D02*
X235914571Y-143328500D01*
X236057428Y-143257071D01*
X236271714Y-143257071D01*
X236414571Y-143328500D01*
X236486000Y-143471357D01*
X236486000Y-144257071D01*
X236986000Y-143257071D02*
X237557428Y-143257071D01*
X237200285Y-142757071D02*
X237200285Y-144042785D01*
X237271714Y-144185642D01*
X237414571Y-144257071D01*
X237557428Y-144257071D01*
X238057428Y-144257071D02*
X238057428Y-142757071D01*
X238700285Y-144257071D02*
X238700285Y-143471357D01*
X238628857Y-143328500D01*
X238486000Y-143257071D01*
X238271714Y-143257071D01*
X238128857Y-143328500D01*
X238057428Y-143399928D01*
X239986000Y-144185642D02*
X239843142Y-144257071D01*
X239557428Y-144257071D01*
X239414571Y-144185642D01*
X239343142Y-144042785D01*
X239343142Y-143471357D01*
X239414571Y-143328500D01*
X239557428Y-143257071D01*
X239843142Y-143257071D01*
X239986000Y-143328500D01*
X240057428Y-143471357D01*
X240057428Y-143614214D01*
X239343142Y-143757071D01*
X240628857Y-144185642D02*
X240771714Y-144257071D01*
X241057428Y-144257071D01*
X241200285Y-144185642D01*
X241271714Y-144042785D01*
X241271714Y-143971357D01*
X241200285Y-143828500D01*
X241057428Y-143757071D01*
X240843142Y-143757071D01*
X240700285Y-143685642D01*
X240628857Y-143542785D01*
X240628857Y-143471357D01*
X240700285Y-143328500D01*
X240843142Y-143257071D01*
X241057428Y-143257071D01*
X241200285Y-143328500D01*
X241914571Y-144257071D02*
X241914571Y-143257071D01*
X241914571Y-142757071D02*
X241843142Y-142828500D01*
X241914571Y-142899928D01*
X241986000Y-142828500D01*
X241914571Y-142757071D01*
X241914571Y-142899928D01*
X242486000Y-143257071D02*
X243271714Y-143257071D01*
X242486000Y-144257071D01*
X243271714Y-144257071D01*
X244414571Y-144185642D02*
X244271714Y-144257071D01*
X243986000Y-144257071D01*
X243843142Y-144185642D01*
X243771714Y-144042785D01*
X243771714Y-143471357D01*
X243843142Y-143328500D01*
X243986000Y-143257071D01*
X244271714Y-143257071D01*
X244414571Y-143328500D01*
X244486000Y-143471357D01*
X244486000Y-143614214D01*
X243771714Y-143757071D01*
X245128857Y-144257071D02*
X245128857Y-143257071D01*
X245128857Y-143542785D02*
X245200285Y-143399928D01*
X245271714Y-143328500D01*
X245414571Y-143257071D01*
X245557428Y-143257071D01*
X210598071Y-142894928D02*
X210669500Y-142823500D01*
X210812357Y-142752071D01*
X211169500Y-142752071D01*
X211312357Y-142823500D01*
X211383785Y-142894928D01*
X211455214Y-143037785D01*
X211455214Y-143180642D01*
X211383785Y-143394928D01*
X210526642Y-144252071D01*
X211455214Y-144252071D01*
X212383785Y-142752071D02*
X212526642Y-142752071D01*
X212669500Y-142823500D01*
X212740928Y-142894928D01*
X212812357Y-143037785D01*
X212883785Y-143323500D01*
X212883785Y-143680642D01*
X212812357Y-143966357D01*
X212740928Y-144109214D01*
X212669500Y-144180642D01*
X212526642Y-144252071D01*
X212383785Y-144252071D01*
X212240928Y-144180642D01*
X212169500Y-144109214D01*
X212098071Y-143966357D01*
X212026642Y-143680642D01*
X212026642Y-143323500D01*
X212098071Y-143037785D01*
X212169500Y-142894928D01*
X212240928Y-142823500D01*
X212383785Y-142752071D01*
X214312357Y-144252071D02*
X213455214Y-144252071D01*
X213883785Y-144252071D02*
X213883785Y-142752071D01*
X213740928Y-142966357D01*
X213598071Y-143109214D01*
X213455214Y-143180642D01*
X215026642Y-144252071D02*
X215312357Y-144252071D01*
X215455214Y-144180642D01*
X215526642Y-144109214D01*
X215669500Y-143894928D01*
X215740928Y-143609214D01*
X215740928Y-143037785D01*
X215669500Y-142894928D01*
X215598071Y-142823500D01*
X215455214Y-142752071D01*
X215169500Y-142752071D01*
X215026642Y-142823500D01*
X214955214Y-142894928D01*
X214883785Y-143037785D01*
X214883785Y-143394928D01*
X214955214Y-143537785D01*
X215026642Y-143609214D01*
X215169500Y-143680642D01*
X215455214Y-143680642D01*
X215598071Y-143609214D01*
X215669500Y-143537785D01*
X215740928Y-143394928D01*
X248809000Y-136533142D02*
X250809000Y-136533142D01*
X249523285Y-139533142D01*
X240220428Y-136533142D02*
X239649000Y-136533142D01*
X239363285Y-136676000D01*
X239220428Y-136818857D01*
X238934714Y-137247428D01*
X238791857Y-137818857D01*
X238791857Y-138961714D01*
X238934714Y-139247428D01*
X239077571Y-139390285D01*
X239363285Y-139533142D01*
X239934714Y-139533142D01*
X240220428Y-139390285D01*
X240363285Y-139247428D01*
X240506142Y-138961714D01*
X240506142Y-138247428D01*
X240363285Y-137961714D01*
X240220428Y-137818857D01*
X239934714Y-137676000D01*
X239363285Y-137676000D01*
X239077571Y-137818857D01*
X238934714Y-137961714D01*
X238791857Y-138247428D01*
X230203285Y-136533142D02*
X228774714Y-136533142D01*
X228631857Y-137961714D01*
X228774714Y-137818857D01*
X229060428Y-137676000D01*
X229774714Y-137676000D01*
X230060428Y-137818857D01*
X230203285Y-137961714D01*
X230346142Y-138247428D01*
X230346142Y-138961714D01*
X230203285Y-139247428D01*
X230060428Y-139390285D01*
X229774714Y-139533142D01*
X229060428Y-139533142D01*
X228774714Y-139390285D01*
X228631857Y-139247428D01*
X219900428Y-137533142D02*
X219900428Y-139533142D01*
X219186142Y-136390285D02*
X218471857Y-138533142D01*
X220329000Y-138533142D01*
X208169000Y-136533142D02*
X210026142Y-136533142D01*
X209026142Y-137676000D01*
X209454714Y-137676000D01*
X209740428Y-137818857D01*
X209883285Y-137961714D01*
X210026142Y-138247428D01*
X210026142Y-138961714D01*
X209883285Y-139247428D01*
X209740428Y-139390285D01*
X209454714Y-139533142D01*
X208597571Y-139533142D01*
X208311857Y-139390285D01*
X208169000Y-139247428D01*
X198151857Y-136818857D02*
X198294714Y-136676000D01*
X198580428Y-136533142D01*
X199294714Y-136533142D01*
X199580428Y-136676000D01*
X199723285Y-136818857D01*
X199866142Y-137104571D01*
X199866142Y-137390285D01*
X199723285Y-137818857D01*
X198009000Y-139533142D01*
X199866142Y-139533142D01*
X189706142Y-139533142D02*
X187991857Y-139533142D01*
X188849000Y-139533142D02*
X188849000Y-136533142D01*
X188563285Y-136961714D01*
X188277571Y-137247428D01*
X187991857Y-137390285D01*
X176887428Y-139533142D02*
X175458857Y-139533142D01*
X175458857Y-136533142D01*
X178887428Y-137961714D02*
X177887428Y-137961714D01*
X177887428Y-139533142D02*
X177887428Y-136533142D01*
X179316000Y-136533142D01*
X181030285Y-136533142D02*
X181601714Y-136533142D01*
X181887428Y-136676000D01*
X182173142Y-136961714D01*
X182316000Y-137533142D01*
X182316000Y-138533142D01*
X182173142Y-139104571D01*
X181887428Y-139390285D01*
X181601714Y-139533142D01*
X181030285Y-139533142D01*
X180744571Y-139390285D01*
X180458857Y-139104571D01*
X180316000Y-138533142D01*
X180316000Y-137533142D01*
X180458857Y-136961714D01*
X180744571Y-136676000D01*
X181030285Y-136533142D01*
D12*
G36*
X177255969Y-99983047D02*
X177533890Y-99919308D01*
X177809187Y-99887706D01*
X178105407Y-99884554D01*
X178194291Y-99888217D01*
X178640376Y-99941187D01*
X179093187Y-100053625D01*
X179547303Y-100222669D01*
X179997307Y-100445457D01*
X180437777Y-100719130D01*
X180863297Y-101040825D01*
X181268447Y-101407682D01*
X181472867Y-101619233D01*
X181575215Y-101727951D01*
X181662270Y-101816285D01*
X181725093Y-101875454D01*
X181754746Y-101896677D01*
X181755181Y-101896590D01*
X181766530Y-101863721D01*
X181765533Y-101799906D01*
X181764249Y-101712518D01*
X181771642Y-101576493D01*
X181786161Y-101405863D01*
X181806250Y-101214662D01*
X181830356Y-101016923D01*
X181856925Y-100826678D01*
X181884401Y-100657960D01*
X181902225Y-100565477D01*
X182044470Y-100019383D01*
X182232522Y-99516486D01*
X182466132Y-99057175D01*
X182745055Y-98641839D01*
X183069044Y-98270869D01*
X183437852Y-97944655D01*
X183664095Y-97781518D01*
X183867922Y-97663484D01*
X184113666Y-97549813D01*
X184379850Y-97448528D01*
X184644998Y-97367653D01*
X184887630Y-97315212D01*
X184928119Y-97309296D01*
X185366105Y-97282645D01*
X185810233Y-97316908D01*
X186255343Y-97410521D01*
X186696277Y-97561908D01*
X187127876Y-97769503D01*
X187544983Y-98031736D01*
X187713400Y-98156851D01*
X188034186Y-98435829D01*
X188353072Y-98769562D01*
X188663375Y-99149483D01*
X188958411Y-99567026D01*
X189231497Y-100013627D01*
X189386898Y-100301441D01*
X189472387Y-100481022D01*
X189565886Y-100699523D01*
X189662822Y-100944057D01*
X189758617Y-101201730D01*
X189848702Y-101459655D01*
X189928500Y-101704941D01*
X189993437Y-101924699D01*
X190038940Y-102106039D01*
X190053041Y-102178677D01*
X190117478Y-102727147D01*
X190124497Y-103258388D01*
X190073424Y-103783668D01*
X189963586Y-104314256D01*
X189914995Y-104490161D01*
X189859759Y-104652309D01*
X189777998Y-104856983D01*
X189675539Y-105092067D01*
X189558206Y-105345442D01*
X189431826Y-105604993D01*
X189302223Y-105858604D01*
X189175224Y-106094158D01*
X189056654Y-106299538D01*
X189004785Y-106383312D01*
X188914057Y-106523884D01*
X188795716Y-106704501D01*
X188657977Y-106912782D01*
X188509053Y-107136341D01*
X188357158Y-107362799D01*
X188237546Y-107539910D01*
X188017062Y-107867874D01*
X187828089Y-108155678D01*
X187664349Y-108414196D01*
X187519563Y-108654298D01*
X187387454Y-108886858D01*
X187261741Y-109122744D01*
X187136144Y-109372831D01*
X187004388Y-109647991D01*
X186938344Y-109789511D01*
X186736174Y-110244308D01*
X186551530Y-110697267D01*
X186386526Y-111141441D01*
X186243277Y-111569881D01*
X186123901Y-111975638D01*
X186030513Y-112351762D01*
X185965229Y-112691307D01*
X185930164Y-112987322D01*
X185924608Y-113118553D01*
X185922407Y-113327643D01*
X185789694Y-113178103D01*
X185565241Y-112950137D01*
X185287973Y-112709910D01*
X184966098Y-112462713D01*
X184607825Y-112213839D01*
X184221362Y-111968582D01*
X183814920Y-111732237D01*
X183396706Y-111510093D01*
X182974930Y-111307446D01*
X182707210Y-111190551D01*
X182515620Y-111111189D01*
X182338585Y-111040096D01*
X182168674Y-110974923D01*
X181998458Y-110913321D01*
X181820508Y-110852939D01*
X181627392Y-110791427D01*
X181411681Y-110726437D01*
X181165946Y-110655617D01*
X180882755Y-110576618D01*
X180554680Y-110487090D01*
X180174289Y-110384682D01*
X180075621Y-110358257D01*
X179632120Y-110235497D01*
X179240174Y-110117820D01*
X178888471Y-110001354D01*
X178565701Y-109882230D01*
X178260551Y-109756575D01*
X178073833Y-109673038D01*
X177557368Y-109411636D01*
X177096152Y-109127220D01*
X176684566Y-108814863D01*
X176316990Y-108469638D01*
X175987803Y-108086620D01*
X175691384Y-107660881D01*
X175592659Y-107497995D01*
X175512854Y-107345957D01*
X175421312Y-107145805D01*
X175322957Y-106910696D01*
X175222711Y-106653793D01*
X175125500Y-106388256D01*
X175036246Y-106127245D01*
X174959874Y-105883918D01*
X174901309Y-105671437D01*
X174887259Y-105612665D01*
X174809197Y-105201838D01*
X177048690Y-104386729D01*
X178873025Y-109399050D01*
X180394623Y-108845234D01*
X179753933Y-107084954D01*
X181215860Y-106552857D01*
X180781495Y-105359447D01*
X179319568Y-105891545D01*
X179004653Y-105026323D01*
X180615756Y-104439929D01*
X180181390Y-103246520D01*
X180897436Y-102985900D01*
X182721771Y-107998221D01*
X184073144Y-107506361D01*
X183426139Y-105790615D01*
X183305065Y-105470361D01*
X183188285Y-105163023D01*
X183078128Y-104874633D01*
X182976927Y-104611218D01*
X182887012Y-104378811D01*
X182810712Y-104183442D01*
X182750358Y-104031139D01*
X182708281Y-103927935D01*
X182690634Y-103887461D01*
X182642004Y-103779008D01*
X182623738Y-103724607D01*
X182634794Y-103723116D01*
X182674131Y-103773400D01*
X182740709Y-103874314D01*
X182833486Y-104024723D01*
X182866986Y-104080522D01*
X182927799Y-104178278D01*
X183020316Y-104321508D01*
X183140053Y-104503510D01*
X183282525Y-104717577D01*
X183443246Y-104957006D01*
X183617734Y-105215092D01*
X183801502Y-105485133D01*
X183990066Y-105760423D01*
X184014802Y-105796398D01*
X184194598Y-106057901D01*
X184363217Y-106303403D01*
X184517283Y-106527975D01*
X184653423Y-106726685D01*
X184768261Y-106894600D01*
X184858424Y-107026791D01*
X184920535Y-107118326D01*
X184951220Y-107164272D01*
X184953925Y-107168704D01*
X184983931Y-107162546D01*
X185065282Y-107137189D01*
X185189756Y-107095429D01*
X185349131Y-107040066D01*
X185535184Y-106973895D01*
X185674310Y-106923584D01*
X186389206Y-106663384D01*
X186378590Y-106540544D01*
X186368293Y-106431770D01*
X186351733Y-106269671D01*
X186329814Y-106062276D01*
X186303436Y-105817612D01*
X186273505Y-105543708D01*
X186240922Y-105248593D01*
X186206590Y-104940297D01*
X186171411Y-104626847D01*
X186136290Y-104316271D01*
X186102128Y-104016598D01*
X186069827Y-103735859D01*
X186040292Y-103482079D01*
X186014425Y-103263290D01*
X185993128Y-103087518D01*
X185977304Y-102962792D01*
X185971677Y-102921738D01*
X185912816Y-102512783D01*
X187279657Y-106339286D01*
X188778325Y-105793815D01*
X186953990Y-100781495D01*
X185842648Y-101186057D01*
X184731307Y-101590619D01*
X184907751Y-103089010D01*
X184945226Y-103403183D01*
X184982527Y-103708329D01*
X185018626Y-103996528D01*
X185052490Y-104259855D01*
X185083088Y-104490383D01*
X185109388Y-104680191D01*
X185130359Y-104821353D01*
X185142889Y-104895432D01*
X185166147Y-105026158D01*
X185181602Y-105130628D01*
X185187426Y-105195258D01*
X185185195Y-105209463D01*
X185164040Y-105186186D01*
X185121311Y-105118845D01*
X185064604Y-105019773D01*
X185036477Y-104967986D01*
X184991992Y-104892141D01*
X184914882Y-104769137D01*
X184808561Y-104604094D01*
X184676447Y-104402133D01*
X184521954Y-104168375D01*
X184348497Y-103907943D01*
X184159492Y-103625957D01*
X183958355Y-103327539D01*
X183748501Y-103017809D01*
X183533344Y-102701890D01*
X183316302Y-102384902D01*
X183232345Y-102262766D01*
X183162614Y-102161443D01*
X180897436Y-102985900D01*
X180181390Y-103246520D01*
X177048690Y-104386729D01*
X174809197Y-105201838D01*
X174769734Y-104994156D01*
X174703063Y-104396595D01*
X174686757Y-103822561D01*
X174720323Y-103274637D01*
X174803270Y-102755404D01*
X174935106Y-102267443D01*
X175115342Y-101813335D01*
X175343484Y-101395662D01*
X175619043Y-101017006D01*
X175800157Y-100816527D01*
X176021724Y-100605431D01*
X176238890Y-100434744D01*
X176469899Y-100292838D01*
X176733000Y-100168087D01*
X176951879Y-100082605D01*
X177255969Y-99983047D01*
X177255969Y-99983047D01*
G37*
X177255969Y-99983047D02*
X177533890Y-99919308D01*
X177809187Y-99887706D01*
X178105407Y-99884554D01*
X178194291Y-99888217D01*
X178640376Y-99941187D01*
X179093187Y-100053625D01*
X179547303Y-100222669D01*
X179997307Y-100445457D01*
X180437777Y-100719130D01*
X180863297Y-101040825D01*
X181268447Y-101407682D01*
X181472867Y-101619233D01*
X181575215Y-101727951D01*
X181662270Y-101816285D01*
X181725093Y-101875454D01*
X181754746Y-101896677D01*
X181755181Y-101896590D01*
X181766530Y-101863721D01*
X181765533Y-101799906D01*
X181764249Y-101712518D01*
X181771642Y-101576493D01*
X181786161Y-101405863D01*
X181806250Y-101214662D01*
X181830356Y-101016923D01*
X181856925Y-100826678D01*
X181884401Y-100657960D01*
X181902225Y-100565477D01*
X182044470Y-100019383D01*
X182232522Y-99516486D01*
X182466132Y-99057175D01*
X182745055Y-98641839D01*
X183069044Y-98270869D01*
X183437852Y-97944655D01*
X183664095Y-97781518D01*
X183867922Y-97663484D01*
X184113666Y-97549813D01*
X184379850Y-97448528D01*
X184644998Y-97367653D01*
X184887630Y-97315212D01*
X184928119Y-97309296D01*
X185366105Y-97282645D01*
X185810233Y-97316908D01*
X186255343Y-97410521D01*
X186696277Y-97561908D01*
X187127876Y-97769503D01*
X187544983Y-98031736D01*
X187713400Y-98156851D01*
X188034186Y-98435829D01*
X188353072Y-98769562D01*
X188663375Y-99149483D01*
X188958411Y-99567026D01*
X189231497Y-100013627D01*
X189386898Y-100301441D01*
X189472387Y-100481022D01*
X189565886Y-100699523D01*
X189662822Y-100944057D01*
X189758617Y-101201730D01*
X189848702Y-101459655D01*
X189928500Y-101704941D01*
X189993437Y-101924699D01*
X190038940Y-102106039D01*
X190053041Y-102178677D01*
X190117478Y-102727147D01*
X190124497Y-103258388D01*
X190073424Y-103783668D01*
X189963586Y-104314256D01*
X189914995Y-104490161D01*
X189859759Y-104652309D01*
X189777998Y-104856983D01*
X189675539Y-105092067D01*
X189558206Y-105345442D01*
X189431826Y-105604993D01*
X189302223Y-105858604D01*
X189175224Y-106094158D01*
X189056654Y-106299538D01*
X189004785Y-106383312D01*
X188914057Y-106523884D01*
X188795716Y-106704501D01*
X188657977Y-106912782D01*
X188509053Y-107136341D01*
X188357158Y-107362799D01*
X188237546Y-107539910D01*
X188017062Y-107867874D01*
X187828089Y-108155678D01*
X187664349Y-108414196D01*
X187519563Y-108654298D01*
X187387454Y-108886858D01*
X187261741Y-109122744D01*
X187136144Y-109372831D01*
X187004388Y-109647991D01*
X186938344Y-109789511D01*
X186736174Y-110244308D01*
X186551530Y-110697267D01*
X186386526Y-111141441D01*
X186243277Y-111569881D01*
X186123901Y-111975638D01*
X186030513Y-112351762D01*
X185965229Y-112691307D01*
X185930164Y-112987322D01*
X185924608Y-113118553D01*
X185922407Y-113327643D01*
X185789694Y-113178103D01*
X185565241Y-112950137D01*
X185287973Y-112709910D01*
X184966098Y-112462713D01*
X184607825Y-112213839D01*
X184221362Y-111968582D01*
X183814920Y-111732237D01*
X183396706Y-111510093D01*
X182974930Y-111307446D01*
X182707210Y-111190551D01*
X182515620Y-111111189D01*
X182338585Y-111040096D01*
X182168674Y-110974923D01*
X181998458Y-110913321D01*
X181820508Y-110852939D01*
X181627392Y-110791427D01*
X181411681Y-110726437D01*
X181165946Y-110655617D01*
X180882755Y-110576618D01*
X180554680Y-110487090D01*
X180174289Y-110384682D01*
X180075621Y-110358257D01*
X179632120Y-110235497D01*
X179240174Y-110117820D01*
X178888471Y-110001354D01*
X178565701Y-109882230D01*
X178260551Y-109756575D01*
X178073833Y-109673038D01*
X177557368Y-109411636D01*
X177096152Y-109127220D01*
X176684566Y-108814863D01*
X176316990Y-108469638D01*
X175987803Y-108086620D01*
X175691384Y-107660881D01*
X175592659Y-107497995D01*
X175512854Y-107345957D01*
X175421312Y-107145805D01*
X175322957Y-106910696D01*
X175222711Y-106653793D01*
X175125500Y-106388256D01*
X175036246Y-106127245D01*
X174959874Y-105883918D01*
X174901309Y-105671437D01*
X174887259Y-105612665D01*
X174809197Y-105201838D01*
X177048690Y-104386729D01*
X178873025Y-109399050D01*
X180394623Y-108845234D01*
X179753933Y-107084954D01*
X181215860Y-106552857D01*
X180781495Y-105359447D01*
X179319568Y-105891545D01*
X179004653Y-105026323D01*
X180615756Y-104439929D01*
X180181390Y-103246520D01*
X180897436Y-102985900D01*
X182721771Y-107998221D01*
X184073144Y-107506361D01*
X183426139Y-105790615D01*
X183305065Y-105470361D01*
X183188285Y-105163023D01*
X183078128Y-104874633D01*
X182976927Y-104611218D01*
X182887012Y-104378811D01*
X182810712Y-104183442D01*
X182750358Y-104031139D01*
X182708281Y-103927935D01*
X182690634Y-103887461D01*
X182642004Y-103779008D01*
X182623738Y-103724607D01*
X182634794Y-103723116D01*
X182674131Y-103773400D01*
X182740709Y-103874314D01*
X182833486Y-104024723D01*
X182866986Y-104080522D01*
X182927799Y-104178278D01*
X183020316Y-104321508D01*
X183140053Y-104503510D01*
X183282525Y-104717577D01*
X183443246Y-104957006D01*
X183617734Y-105215092D01*
X183801502Y-105485133D01*
X183990066Y-105760423D01*
X184014802Y-105796398D01*
X184194598Y-106057901D01*
X184363217Y-106303403D01*
X184517283Y-106527975D01*
X184653423Y-106726685D01*
X184768261Y-106894600D01*
X184858424Y-107026791D01*
X184920535Y-107118326D01*
X184951220Y-107164272D01*
X184953925Y-107168704D01*
X184983931Y-107162546D01*
X185065282Y-107137189D01*
X185189756Y-107095429D01*
X185349131Y-107040066D01*
X185535184Y-106973895D01*
X185674310Y-106923584D01*
X186389206Y-106663384D01*
X186378590Y-106540544D01*
X186368293Y-106431770D01*
X186351733Y-106269671D01*
X186329814Y-106062276D01*
X186303436Y-105817612D01*
X186273505Y-105543708D01*
X186240922Y-105248593D01*
X186206590Y-104940297D01*
X186171411Y-104626847D01*
X186136290Y-104316271D01*
X186102128Y-104016598D01*
X186069827Y-103735859D01*
X186040292Y-103482079D01*
X186014425Y-103263290D01*
X185993128Y-103087518D01*
X185977304Y-102962792D01*
X185971677Y-102921738D01*
X185912816Y-102512783D01*
X187279657Y-106339286D01*
X188778325Y-105793815D01*
X186953990Y-100781495D01*
X185842648Y-101186057D01*
X184731307Y-101590619D01*
X184907751Y-103089010D01*
X184945226Y-103403183D01*
X184982527Y-103708329D01*
X185018626Y-103996528D01*
X185052490Y-104259855D01*
X185083088Y-104490383D01*
X185109388Y-104680191D01*
X185130359Y-104821353D01*
X185142889Y-104895432D01*
X185166147Y-105026158D01*
X185181602Y-105130628D01*
X185187426Y-105195258D01*
X185185195Y-105209463D01*
X185164040Y-105186186D01*
X185121311Y-105118845D01*
X185064604Y-105019773D01*
X185036477Y-104967986D01*
X184991992Y-104892141D01*
X184914882Y-104769137D01*
X184808561Y-104604094D01*
X184676447Y-104402133D01*
X184521954Y-104168375D01*
X184348497Y-103907943D01*
X184159492Y-103625957D01*
X183958355Y-103327539D01*
X183748501Y-103017809D01*
X183533344Y-102701890D01*
X183316302Y-102384902D01*
X183232345Y-102262766D01*
X183162614Y-102161443D01*
X180897436Y-102985900D01*
X180181390Y-103246520D01*
X177048690Y-104386729D01*
X174809197Y-105201838D01*
X174769734Y-104994156D01*
X174703063Y-104396595D01*
X174686757Y-103822561D01*
X174720323Y-103274637D01*
X174803270Y-102755404D01*
X174935106Y-102267443D01*
X175115342Y-101813335D01*
X175343484Y-101395662D01*
X175619043Y-101017006D01*
X175800157Y-100816527D01*
X176021724Y-100605431D01*
X176238890Y-100434744D01*
X176469899Y-100292838D01*
X176733000Y-100168087D01*
X176951879Y-100082605D01*
X177255969Y-99983047D01*
G36*
X199180450Y-50763796D02*
X199248197Y-50769726D01*
X199349460Y-50777389D01*
X199467040Y-50785514D01*
X199523350Y-50789150D01*
X199646277Y-50800327D01*
X199729480Y-50815234D01*
X199770117Y-50832718D01*
X199765346Y-50851631D01*
X199720200Y-50868840D01*
X199694890Y-50880502D01*
X199679662Y-50906387D01*
X199672007Y-50957309D01*
X199669422Y-51044082D01*
X199669247Y-51088712D01*
X199666871Y-51223649D01*
X199660804Y-51375317D01*
X199652783Y-51504850D01*
X199636470Y-51714400D01*
X201041000Y-51714400D01*
X201041000Y-52273200D01*
X200418700Y-52273200D01*
X200196149Y-52274265D01*
X200022072Y-52277445D01*
X199897040Y-52282715D01*
X199821626Y-52290052D01*
X199796400Y-52299419D01*
X199805048Y-52333833D01*
X199828084Y-52402679D01*
X199861148Y-52493172D01*
X199874040Y-52526966D01*
X199958724Y-52712260D01*
X200070297Y-52907034D01*
X200195993Y-53090711D01*
X200308433Y-53227133D01*
X200409388Y-53321117D01*
X200542163Y-53422916D01*
X200691147Y-53522158D01*
X200840728Y-53608470D01*
X200975294Y-53671477D01*
X200979783Y-53673226D01*
X201134467Y-53732997D01*
X201012540Y-53879507D01*
X200940453Y-53970904D01*
X200871746Y-54065938D01*
X200824434Y-54138943D01*
X200791622Y-54192954D01*
X200762750Y-54224646D01*
X200727608Y-54233985D01*
X200675986Y-54220935D01*
X200597677Y-54185460D01*
X200502836Y-54137815D01*
X200276087Y-54005881D01*
X200071072Y-53847611D01*
X199905850Y-53687735D01*
X199794692Y-53559261D01*
X199684598Y-53411895D01*
X199584916Y-53259735D01*
X199504992Y-53116879D01*
X199460601Y-53016150D01*
X199431908Y-52952817D01*
X199407058Y-52939589D01*
X199381512Y-52976464D01*
X199366199Y-53016150D01*
X199278264Y-53207109D01*
X199148550Y-53404145D01*
X198984270Y-53599906D01*
X198792638Y-53787040D01*
X198580869Y-53958197D01*
X198356175Y-54106023D01*
X198229042Y-54175048D01*
X198071384Y-54254028D01*
X197988796Y-54133564D01*
X197921986Y-54043652D01*
X197842179Y-53946505D01*
X197798389Y-53897433D01*
X197690570Y-53781766D01*
X197886235Y-53685234D01*
X198176992Y-53517079D01*
X198425903Y-53320132D01*
X198633005Y-53094351D01*
X198798334Y-52839694D01*
X198921927Y-52556119D01*
X198956862Y-52444650D01*
X199005414Y-52273200D01*
X197764400Y-52273200D01*
X197764400Y-51714400D01*
X199053450Y-51714400D01*
X199069325Y-51635025D01*
X199074834Y-51582433D01*
X199079514Y-51490015D01*
X199083000Y-51368742D01*
X199084931Y-51229586D01*
X199085200Y-51154841D01*
X199085200Y-50754033D01*
X199180450Y-50763796D01*
X199180450Y-50763796D01*
G37*
X199180450Y-50763796D02*
X199248197Y-50769726D01*
X199349460Y-50777389D01*
X199467040Y-50785514D01*
X199523350Y-50789150D01*
X199646277Y-50800327D01*
X199729480Y-50815234D01*
X199770117Y-50832718D01*
X199765346Y-50851631D01*
X199720200Y-50868840D01*
X199694890Y-50880502D01*
X199679662Y-50906387D01*
X199672007Y-50957309D01*
X199669422Y-51044082D01*
X199669247Y-51088712D01*
X199666871Y-51223649D01*
X199660804Y-51375317D01*
X199652783Y-51504850D01*
X199636470Y-51714400D01*
X201041000Y-51714400D01*
X201041000Y-52273200D01*
X200418700Y-52273200D01*
X200196149Y-52274265D01*
X200022072Y-52277445D01*
X199897040Y-52282715D01*
X199821626Y-52290052D01*
X199796400Y-52299419D01*
X199805048Y-52333833D01*
X199828084Y-52402679D01*
X199861148Y-52493172D01*
X199874040Y-52526966D01*
X199958724Y-52712260D01*
X200070297Y-52907034D01*
X200195993Y-53090711D01*
X200308433Y-53227133D01*
X200409388Y-53321117D01*
X200542163Y-53422916D01*
X200691147Y-53522158D01*
X200840728Y-53608470D01*
X200975294Y-53671477D01*
X200979783Y-53673226D01*
X201134467Y-53732997D01*
X201012540Y-53879507D01*
X200940453Y-53970904D01*
X200871746Y-54065938D01*
X200824434Y-54138943D01*
X200791622Y-54192954D01*
X200762750Y-54224646D01*
X200727608Y-54233985D01*
X200675986Y-54220935D01*
X200597677Y-54185460D01*
X200502836Y-54137815D01*
X200276087Y-54005881D01*
X200071072Y-53847611D01*
X199905850Y-53687735D01*
X199794692Y-53559261D01*
X199684598Y-53411895D01*
X199584916Y-53259735D01*
X199504992Y-53116879D01*
X199460601Y-53016150D01*
X199431908Y-52952817D01*
X199407058Y-52939589D01*
X199381512Y-52976464D01*
X199366199Y-53016150D01*
X199278264Y-53207109D01*
X199148550Y-53404145D01*
X198984270Y-53599906D01*
X198792638Y-53787040D01*
X198580869Y-53958197D01*
X198356175Y-54106023D01*
X198229042Y-54175048D01*
X198071384Y-54254028D01*
X197988796Y-54133564D01*
X197921986Y-54043652D01*
X197842179Y-53946505D01*
X197798389Y-53897433D01*
X197690570Y-53781766D01*
X197886235Y-53685234D01*
X198176992Y-53517079D01*
X198425903Y-53320132D01*
X198633005Y-53094351D01*
X198798334Y-52839694D01*
X198921927Y-52556119D01*
X198956862Y-52444650D01*
X199005414Y-52273200D01*
X197764400Y-52273200D01*
X197764400Y-51714400D01*
X199053450Y-51714400D01*
X199069325Y-51635025D01*
X199074834Y-51582433D01*
X199079514Y-51490015D01*
X199083000Y-51368742D01*
X199084931Y-51229586D01*
X199085200Y-51154841D01*
X199085200Y-50754033D01*
X199180450Y-50763796D01*
G36*
X200901300Y-55445624D02*
X201003365Y-55504510D01*
X201066974Y-55544554D01*
X201097916Y-55571868D01*
X201101980Y-55592568D01*
X201084956Y-55612767D01*
X201070588Y-55624400D01*
X201036210Y-55659743D01*
X200979890Y-55726707D01*
X200909410Y-55815717D01*
X200832551Y-55917198D01*
X200831884Y-55918100D01*
X200743879Y-56034506D01*
X200651325Y-56152949D01*
X200566441Y-56257989D01*
X200512172Y-56322101D01*
X200445777Y-56399967D01*
X200406562Y-56456557D01*
X200387390Y-56508053D01*
X200381128Y-56570641D01*
X200380600Y-56620551D01*
X200380600Y-56769000D01*
X201142600Y-56769000D01*
X201142600Y-57277000D01*
X200385039Y-57277000D01*
X200376222Y-57804050D01*
X200372207Y-57997745D01*
X200366513Y-58147928D01*
X200357724Y-58261885D01*
X200344427Y-58346904D01*
X200325208Y-58410272D01*
X200298653Y-58459275D01*
X200263349Y-58501201D01*
X200235889Y-58527341D01*
X200145060Y-58582889D01*
X200011642Y-58626672D01*
X199842921Y-58656587D01*
X199759168Y-58664832D01*
X199551228Y-58680815D01*
X199469374Y-58455157D01*
X199431791Y-58350982D01*
X199399672Y-58260917D01*
X199377817Y-58198469D01*
X199372319Y-58182075D01*
X199368194Y-58158883D01*
X199380652Y-58146274D01*
X199419082Y-58142772D01*
X199492870Y-58146904D01*
X199559964Y-58152606D01*
X199658482Y-58160585D01*
X199731429Y-58160393D01*
X199782645Y-58145729D01*
X199815973Y-58110296D01*
X199835253Y-58047793D01*
X199844327Y-57951922D01*
X199847035Y-57816384D01*
X199847200Y-57681585D01*
X199847200Y-57277000D01*
X199110600Y-57277000D01*
X199110600Y-56769000D01*
X199847200Y-56769000D01*
X199847200Y-56238818D01*
X199929606Y-56230859D01*
X199975297Y-56220740D01*
X200016683Y-56194376D01*
X200063456Y-56142958D01*
X200125307Y-56057677D01*
X200133963Y-56045100D01*
X200255913Y-55867300D01*
X199746756Y-55860424D01*
X199237600Y-55853548D01*
X199237600Y-55375441D01*
X200748900Y-55358623D01*
X200901300Y-55445624D01*
X200901300Y-55445624D01*
G37*
X200901300Y-55445624D02*
X201003365Y-55504510D01*
X201066974Y-55544554D01*
X201097916Y-55571868D01*
X201101980Y-55592568D01*
X201084956Y-55612767D01*
X201070588Y-55624400D01*
X201036210Y-55659743D01*
X200979890Y-55726707D01*
X200909410Y-55815717D01*
X200832551Y-55917198D01*
X200831884Y-55918100D01*
X200743879Y-56034506D01*
X200651325Y-56152949D01*
X200566441Y-56257989D01*
X200512172Y-56322101D01*
X200445777Y-56399967D01*
X200406562Y-56456557D01*
X200387390Y-56508053D01*
X200381128Y-56570641D01*
X200380600Y-56620551D01*
X200380600Y-56769000D01*
X201142600Y-56769000D01*
X201142600Y-57277000D01*
X200385039Y-57277000D01*
X200376222Y-57804050D01*
X200372207Y-57997745D01*
X200366513Y-58147928D01*
X200357724Y-58261885D01*
X200344427Y-58346904D01*
X200325208Y-58410272D01*
X200298653Y-58459275D01*
X200263349Y-58501201D01*
X200235889Y-58527341D01*
X200145060Y-58582889D01*
X200011642Y-58626672D01*
X199842921Y-58656587D01*
X199759168Y-58664832D01*
X199551228Y-58680815D01*
X199469374Y-58455157D01*
X199431791Y-58350982D01*
X199399672Y-58260917D01*
X199377817Y-58198469D01*
X199372319Y-58182075D01*
X199368194Y-58158883D01*
X199380652Y-58146274D01*
X199419082Y-58142772D01*
X199492870Y-58146904D01*
X199559964Y-58152606D01*
X199658482Y-58160585D01*
X199731429Y-58160393D01*
X199782645Y-58145729D01*
X199815973Y-58110296D01*
X199835253Y-58047793D01*
X199844327Y-57951922D01*
X199847035Y-57816384D01*
X199847200Y-57681585D01*
X199847200Y-57277000D01*
X199110600Y-57277000D01*
X199110600Y-56769000D01*
X199847200Y-56769000D01*
X199847200Y-56238818D01*
X199929606Y-56230859D01*
X199975297Y-56220740D01*
X200016683Y-56194376D01*
X200063456Y-56142958D01*
X200125307Y-56057677D01*
X200133963Y-56045100D01*
X200255913Y-55867300D01*
X199746756Y-55860424D01*
X199237600Y-55853548D01*
X199237600Y-55375441D01*
X200748900Y-55358623D01*
X200901300Y-55445624D01*
G36*
X198247152Y-55186060D02*
X198339321Y-55194834D01*
X198443278Y-55206643D01*
X198546210Y-55219947D01*
X198635307Y-55233208D01*
X198697758Y-55244886D01*
X198720263Y-55252357D01*
X198715578Y-55272902D01*
X198684666Y-55286906D01*
X198639719Y-55317488D01*
X198614471Y-55386237D01*
X198613069Y-55393848D01*
X198599387Y-55467827D01*
X198579918Y-55568146D01*
X198561643Y-55659410D01*
X198543990Y-55749334D01*
X198531346Y-55819872D01*
X198526401Y-55856003D01*
X198526400Y-55856260D01*
X198549778Y-55867331D01*
X198611865Y-55875647D01*
X198700586Y-55879784D01*
X198727662Y-55880000D01*
X198845703Y-55884038D01*
X198963788Y-55894640D01*
X199056865Y-55909537D01*
X199058871Y-55909995D01*
X199134338Y-55929618D01*
X199171036Y-55949017D01*
X199180142Y-55977245D01*
X199176440Y-56005245D01*
X199168225Y-56062614D01*
X199158295Y-56151947D01*
X199148714Y-56254549D01*
X199148172Y-56261000D01*
X199120257Y-56521944D01*
X199080781Y-56785672D01*
X199032318Y-57038692D01*
X198977444Y-57267512D01*
X198920499Y-57453667D01*
X198880812Y-57566153D01*
X199046870Y-57716027D01*
X199145246Y-57805813D01*
X199208139Y-57872245D01*
X199237105Y-57926733D01*
X199233699Y-57980689D01*
X199199477Y-58045526D01*
X199135995Y-58132655D01*
X199108574Y-58168660D01*
X198952157Y-58374139D01*
X198803975Y-58212919D01*
X198655794Y-58051700D01*
X198585318Y-58140600D01*
X198502454Y-58238754D01*
X198407274Y-58341381D01*
X198307382Y-58441406D01*
X198210381Y-58531753D01*
X198123876Y-58605348D01*
X198055471Y-58655117D01*
X198012768Y-58673985D01*
X198012022Y-58674000D01*
X197991927Y-58654834D01*
X197955376Y-58606411D01*
X197936467Y-58578750D01*
X197881572Y-58501660D01*
X197813756Y-58413646D01*
X197780691Y-58373145D01*
X197688197Y-58262790D01*
X197783448Y-58199220D01*
X197943240Y-58072244D01*
X198096119Y-57912863D01*
X198163154Y-57828169D01*
X198212149Y-57759717D01*
X198233550Y-57719182D01*
X198230712Y-57694193D01*
X198206987Y-57672381D01*
X198205653Y-57671401D01*
X198166274Y-57649685D01*
X198142946Y-57664241D01*
X198137325Y-57673509D01*
X198119546Y-57687597D01*
X198085370Y-57683676D01*
X198026133Y-57658969D01*
X197933177Y-57610702D01*
X197921425Y-57604327D01*
X197831652Y-57554835D01*
X197759423Y-57513773D01*
X197716087Y-57487645D01*
X197709406Y-57482850D01*
X197707371Y-57452808D01*
X197716768Y-57386327D01*
X197735648Y-57295975D01*
X197743317Y-57264300D01*
X197768847Y-57158114D01*
X197782498Y-57098737D01*
X198272400Y-57098737D01*
X198291640Y-57123057D01*
X198337623Y-57159855D01*
X198392740Y-57196838D01*
X198439383Y-57221709D01*
X198454334Y-57225772D01*
X198466595Y-57202833D01*
X198486981Y-57140302D01*
X198512496Y-57048155D01*
X198536181Y-56953150D01*
X198565364Y-56823449D01*
X198591460Y-56694641D01*
X198610881Y-56585088D01*
X198618093Y-56534050D01*
X198634994Y-56388000D01*
X198531608Y-56388000D01*
X198457363Y-56394963D01*
X198420867Y-56418769D01*
X198414711Y-56432450D01*
X198403612Y-56476095D01*
X198385598Y-56554431D01*
X198363174Y-56655731D01*
X198338846Y-56768264D01*
X198315117Y-56880302D01*
X198294494Y-56980116D01*
X198279482Y-57055976D01*
X198272586Y-57096155D01*
X198272400Y-57098737D01*
X197782498Y-57098737D01*
X197800556Y-57020200D01*
X197834365Y-56868583D01*
X197865501Y-56724550D01*
X197936880Y-56388000D01*
X197688200Y-56388000D01*
X197688200Y-55880000D01*
X198034389Y-55880000D01*
X198087564Y-55535197D01*
X198107487Y-55409420D01*
X198125313Y-55303199D01*
X198139401Y-55225847D01*
X198148114Y-55186675D01*
X198149419Y-55183773D01*
X198179581Y-55181860D01*
X198247152Y-55186060D01*
X198247152Y-55186060D01*
G37*
X198247152Y-55186060D02*
X198339321Y-55194834D01*
X198443278Y-55206643D01*
X198546210Y-55219947D01*
X198635307Y-55233208D01*
X198697758Y-55244886D01*
X198720263Y-55252357D01*
X198715578Y-55272902D01*
X198684666Y-55286906D01*
X198639719Y-55317488D01*
X198614471Y-55386237D01*
X198613069Y-55393848D01*
X198599387Y-55467827D01*
X198579918Y-55568146D01*
X198561643Y-55659410D01*
X198543990Y-55749334D01*
X198531346Y-55819872D01*
X198526401Y-55856003D01*
X198526400Y-55856260D01*
X198549778Y-55867331D01*
X198611865Y-55875647D01*
X198700586Y-55879784D01*
X198727662Y-55880000D01*
X198845703Y-55884038D01*
X198963788Y-55894640D01*
X199056865Y-55909537D01*
X199058871Y-55909995D01*
X199134338Y-55929618D01*
X199171036Y-55949017D01*
X199180142Y-55977245D01*
X199176440Y-56005245D01*
X199168225Y-56062614D01*
X199158295Y-56151947D01*
X199148714Y-56254549D01*
X199148172Y-56261000D01*
X199120257Y-56521944D01*
X199080781Y-56785672D01*
X199032318Y-57038692D01*
X198977444Y-57267512D01*
X198920499Y-57453667D01*
X198880812Y-57566153D01*
X199046870Y-57716027D01*
X199145246Y-57805813D01*
X199208139Y-57872245D01*
X199237105Y-57926733D01*
X199233699Y-57980689D01*
X199199477Y-58045526D01*
X199135995Y-58132655D01*
X199108574Y-58168660D01*
X198952157Y-58374139D01*
X198803975Y-58212919D01*
X198655794Y-58051700D01*
X198585318Y-58140600D01*
X198502454Y-58238754D01*
X198407274Y-58341381D01*
X198307382Y-58441406D01*
X198210381Y-58531753D01*
X198123876Y-58605348D01*
X198055471Y-58655117D01*
X198012768Y-58673985D01*
X198012022Y-58674000D01*
X197991927Y-58654834D01*
X197955376Y-58606411D01*
X197936467Y-58578750D01*
X197881572Y-58501660D01*
X197813756Y-58413646D01*
X197780691Y-58373145D01*
X197688197Y-58262790D01*
X197783448Y-58199220D01*
X197943240Y-58072244D01*
X198096119Y-57912863D01*
X198163154Y-57828169D01*
X198212149Y-57759717D01*
X198233550Y-57719182D01*
X198230712Y-57694193D01*
X198206987Y-57672381D01*
X198205653Y-57671401D01*
X198166274Y-57649685D01*
X198142946Y-57664241D01*
X198137325Y-57673509D01*
X198119546Y-57687597D01*
X198085370Y-57683676D01*
X198026133Y-57658969D01*
X197933177Y-57610702D01*
X197921425Y-57604327D01*
X197831652Y-57554835D01*
X197759423Y-57513773D01*
X197716087Y-57487645D01*
X197709406Y-57482850D01*
X197707371Y-57452808D01*
X197716768Y-57386327D01*
X197735648Y-57295975D01*
X197743317Y-57264300D01*
X197768847Y-57158114D01*
X197782498Y-57098737D01*
X198272400Y-57098737D01*
X198291640Y-57123057D01*
X198337623Y-57159855D01*
X198392740Y-57196838D01*
X198439383Y-57221709D01*
X198454334Y-57225772D01*
X198466595Y-57202833D01*
X198486981Y-57140302D01*
X198512496Y-57048155D01*
X198536181Y-56953150D01*
X198565364Y-56823449D01*
X198591460Y-56694641D01*
X198610881Y-56585088D01*
X198618093Y-56534050D01*
X198634994Y-56388000D01*
X198531608Y-56388000D01*
X198457363Y-56394963D01*
X198420867Y-56418769D01*
X198414711Y-56432450D01*
X198403612Y-56476095D01*
X198385598Y-56554431D01*
X198363174Y-56655731D01*
X198338846Y-56768264D01*
X198315117Y-56880302D01*
X198294494Y-56980116D01*
X198279482Y-57055976D01*
X198272586Y-57096155D01*
X198272400Y-57098737D01*
X197782498Y-57098737D01*
X197800556Y-57020200D01*
X197834365Y-56868583D01*
X197865501Y-56724550D01*
X197936880Y-56388000D01*
X197688200Y-56388000D01*
X197688200Y-55880000D01*
X198034389Y-55880000D01*
X198087564Y-55535197D01*
X198107487Y-55409420D01*
X198125313Y-55303199D01*
X198139401Y-55225847D01*
X198148114Y-55186675D01*
X198149419Y-55183773D01*
X198179581Y-55181860D01*
X198247152Y-55186060D01*
G36*
X199479654Y-59666218D02*
X199584224Y-59671754D01*
X199645537Y-59682230D01*
X199667322Y-59698668D01*
X199653309Y-59722088D01*
X199621403Y-59744943D01*
X199594843Y-59769083D01*
X199582748Y-59807539D01*
X199582458Y-59874338D01*
X199586457Y-59929308D01*
X199595798Y-60013620D01*
X199606838Y-60076182D01*
X199615403Y-60100304D01*
X199647691Y-60104974D01*
X199719283Y-60100874D01*
X199819740Y-60089522D01*
X199938620Y-60072437D01*
X200065482Y-60051137D01*
X200189883Y-60027140D01*
X200301382Y-60001965D01*
X200314714Y-59998601D01*
X200407060Y-59974440D01*
X200466333Y-59964220D01*
X200502040Y-59975227D01*
X200523690Y-60014745D01*
X200540789Y-60090057D01*
X200558400Y-60185300D01*
X200575851Y-60274035D01*
X200591239Y-60346659D01*
X200599242Y-60379888D01*
X200596288Y-60404804D01*
X200565515Y-60425582D01*
X200498222Y-60446604D01*
X200438743Y-60460700D01*
X200325820Y-60483411D01*
X200190276Y-60506977D01*
X200059974Y-60526577D01*
X200050400Y-60527857D01*
X199910127Y-60546585D01*
X199813476Y-60562808D01*
X199753852Y-60581719D01*
X199724663Y-60608509D01*
X199719317Y-60648372D01*
X199731220Y-60706500D01*
X199747777Y-60766200D01*
X199775072Y-60864500D01*
X199931786Y-60847114D01*
X200071869Y-60827029D01*
X200238240Y-60796274D01*
X200411575Y-60758998D01*
X200572550Y-60719348D01*
X200698832Y-60682469D01*
X200773559Y-60658319D01*
X200824314Y-60642876D01*
X200838567Y-60639561D01*
X200843429Y-60664012D01*
X200855869Y-60727315D01*
X200873725Y-60818469D01*
X200885659Y-60879488D01*
X200931984Y-61116476D01*
X200871354Y-61139528D01*
X200805485Y-61158996D01*
X200702670Y-61183037D01*
X200576260Y-61209092D01*
X200439606Y-61234599D01*
X200306058Y-61257000D01*
X200188967Y-61273734D01*
X200145650Y-61278687D01*
X200059871Y-61290094D01*
X199998381Y-61303397D01*
X199974213Y-61315759D01*
X199974200Y-61316010D01*
X199992934Y-61346232D01*
X200042199Y-61397568D01*
X200111585Y-61461054D01*
X200190680Y-61527730D01*
X200269077Y-61588631D01*
X200336364Y-61634795D01*
X200360216Y-61648359D01*
X200418723Y-61682795D01*
X200450227Y-61710450D01*
X200452111Y-61717871D01*
X200430953Y-61753720D01*
X200389627Y-61814959D01*
X200336001Y-61890824D01*
X200277937Y-61970553D01*
X200223300Y-62043383D01*
X200179956Y-62098549D01*
X200155768Y-62125290D01*
X200153687Y-62126282D01*
X200124900Y-62114890D01*
X200064613Y-62087421D01*
X199999600Y-62056432D01*
X199922807Y-62022707D01*
X199851704Y-62002296D01*
X199768836Y-61992041D01*
X199656747Y-61988789D01*
X199624907Y-61988700D01*
X199389915Y-61988700D01*
X199335441Y-61823600D01*
X199306154Y-61735356D01*
X199282278Y-61664347D01*
X199269265Y-61626750D01*
X199278324Y-61606717D01*
X199328140Y-61596776D01*
X199387282Y-61595000D01*
X199460636Y-61592663D01*
X199507662Y-61586676D01*
X199517000Y-61581755D01*
X199504158Y-61554654D01*
X199471465Y-61500474D01*
X199448494Y-61464991D01*
X199379988Y-61361471D01*
X198853551Y-61379803D01*
X198680291Y-61384605D01*
X198510677Y-61387083D01*
X198356273Y-61387231D01*
X198228644Y-61385045D01*
X198139353Y-61380521D01*
X198134657Y-61380100D01*
X197942200Y-61362065D01*
X197942200Y-60903647D01*
X198224155Y-60922066D01*
X198362350Y-60927792D01*
X198530014Y-60929753D01*
X198705954Y-60927941D01*
X198868515Y-60922369D01*
X199230920Y-60904252D01*
X199148472Y-60626520D01*
X198674430Y-60621810D01*
X198524510Y-60619677D01*
X198392749Y-60616580D01*
X198287299Y-60612811D01*
X198216309Y-60608660D01*
X198187930Y-60604420D01*
X198187909Y-60604400D01*
X198183774Y-60574977D01*
X198183442Y-60507328D01*
X198186843Y-60413876D01*
X198189219Y-60372272D01*
X198203008Y-60152844D01*
X198616292Y-60156372D01*
X198755904Y-60156815D01*
X198876927Y-60155779D01*
X198970589Y-60153452D01*
X199028119Y-60150024D01*
X199042087Y-60147200D01*
X199045302Y-60117294D01*
X199041009Y-60052438D01*
X199032269Y-59982100D01*
X199017916Y-59883528D01*
X199004767Y-59792233D01*
X198998367Y-59747150D01*
X198986793Y-59664600D01*
X199328096Y-59664600D01*
X199479654Y-59666218D01*
X199479654Y-59666218D01*
G37*
X199479654Y-59666218D02*
X199584224Y-59671754D01*
X199645537Y-59682230D01*
X199667322Y-59698668D01*
X199653309Y-59722088D01*
X199621403Y-59744943D01*
X199594843Y-59769083D01*
X199582748Y-59807539D01*
X199582458Y-59874338D01*
X199586457Y-59929308D01*
X199595798Y-60013620D01*
X199606838Y-60076182D01*
X199615403Y-60100304D01*
X199647691Y-60104974D01*
X199719283Y-60100874D01*
X199819740Y-60089522D01*
X199938620Y-60072437D01*
X200065482Y-60051137D01*
X200189883Y-60027140D01*
X200301382Y-60001965D01*
X200314714Y-59998601D01*
X200407060Y-59974440D01*
X200466333Y-59964220D01*
X200502040Y-59975227D01*
X200523690Y-60014745D01*
X200540789Y-60090057D01*
X200558400Y-60185300D01*
X200575851Y-60274035D01*
X200591239Y-60346659D01*
X200599242Y-60379888D01*
X200596288Y-60404804D01*
X200565515Y-60425582D01*
X200498222Y-60446604D01*
X200438743Y-60460700D01*
X200325820Y-60483411D01*
X200190276Y-60506977D01*
X200059974Y-60526577D01*
X200050400Y-60527857D01*
X199910127Y-60546585D01*
X199813476Y-60562808D01*
X199753852Y-60581719D01*
X199724663Y-60608509D01*
X199719317Y-60648372D01*
X199731220Y-60706500D01*
X199747777Y-60766200D01*
X199775072Y-60864500D01*
X199931786Y-60847114D01*
X200071869Y-60827029D01*
X200238240Y-60796274D01*
X200411575Y-60758998D01*
X200572550Y-60719348D01*
X200698832Y-60682469D01*
X200773559Y-60658319D01*
X200824314Y-60642876D01*
X200838567Y-60639561D01*
X200843429Y-60664012D01*
X200855869Y-60727315D01*
X200873725Y-60818469D01*
X200885659Y-60879488D01*
X200931984Y-61116476D01*
X200871354Y-61139528D01*
X200805485Y-61158996D01*
X200702670Y-61183037D01*
X200576260Y-61209092D01*
X200439606Y-61234599D01*
X200306058Y-61257000D01*
X200188967Y-61273734D01*
X200145650Y-61278687D01*
X200059871Y-61290094D01*
X199998381Y-61303397D01*
X199974213Y-61315759D01*
X199974200Y-61316010D01*
X199992934Y-61346232D01*
X200042199Y-61397568D01*
X200111585Y-61461054D01*
X200190680Y-61527730D01*
X200269077Y-61588631D01*
X200336364Y-61634795D01*
X200360216Y-61648359D01*
X200418723Y-61682795D01*
X200450227Y-61710450D01*
X200452111Y-61717871D01*
X200430953Y-61753720D01*
X200389627Y-61814959D01*
X200336001Y-61890824D01*
X200277937Y-61970553D01*
X200223300Y-62043383D01*
X200179956Y-62098549D01*
X200155768Y-62125290D01*
X200153687Y-62126282D01*
X200124900Y-62114890D01*
X200064613Y-62087421D01*
X199999600Y-62056432D01*
X199922807Y-62022707D01*
X199851704Y-62002296D01*
X199768836Y-61992041D01*
X199656747Y-61988789D01*
X199624907Y-61988700D01*
X199389915Y-61988700D01*
X199335441Y-61823600D01*
X199306154Y-61735356D01*
X199282278Y-61664347D01*
X199269265Y-61626750D01*
X199278324Y-61606717D01*
X199328140Y-61596776D01*
X199387282Y-61595000D01*
X199460636Y-61592663D01*
X199507662Y-61586676D01*
X199517000Y-61581755D01*
X199504158Y-61554654D01*
X199471465Y-61500474D01*
X199448494Y-61464991D01*
X199379988Y-61361471D01*
X198853551Y-61379803D01*
X198680291Y-61384605D01*
X198510677Y-61387083D01*
X198356273Y-61387231D01*
X198228644Y-61385045D01*
X198139353Y-61380521D01*
X198134657Y-61380100D01*
X197942200Y-61362065D01*
X197942200Y-60903647D01*
X198224155Y-60922066D01*
X198362350Y-60927792D01*
X198530014Y-60929753D01*
X198705954Y-60927941D01*
X198868515Y-60922369D01*
X199230920Y-60904252D01*
X199148472Y-60626520D01*
X198674430Y-60621810D01*
X198524510Y-60619677D01*
X198392749Y-60616580D01*
X198287299Y-60612811D01*
X198216309Y-60608660D01*
X198187930Y-60604420D01*
X198187909Y-60604400D01*
X198183774Y-60574977D01*
X198183442Y-60507328D01*
X198186843Y-60413876D01*
X198189219Y-60372272D01*
X198203008Y-60152844D01*
X198616292Y-60156372D01*
X198755904Y-60156815D01*
X198876927Y-60155779D01*
X198970589Y-60153452D01*
X199028119Y-60150024D01*
X199042087Y-60147200D01*
X199045302Y-60117294D01*
X199041009Y-60052438D01*
X199032269Y-59982100D01*
X199017916Y-59883528D01*
X199004767Y-59792233D01*
X198998367Y-59747150D01*
X198986793Y-59664600D01*
X199328096Y-59664600D01*
X199479654Y-59666218D01*
G36*
X198702063Y-61738038D02*
X198760811Y-61781011D01*
X198836380Y-61843206D01*
X198876819Y-61878676D01*
X199051825Y-62035353D01*
X198969864Y-62107316D01*
X198896239Y-62193024D01*
X198871969Y-62274804D01*
X198896675Y-62348905D01*
X198969980Y-62411576D01*
X199002248Y-62427978D01*
X199044055Y-62443468D01*
X199096360Y-62454824D01*
X199167018Y-62462604D01*
X199263887Y-62467367D01*
X199394823Y-62469673D01*
X199567683Y-62470080D01*
X199593200Y-62470023D01*
X199754958Y-62468671D01*
X199906643Y-62465679D01*
X200038077Y-62461379D01*
X200139081Y-62456105D01*
X200199478Y-62450189D01*
X200199529Y-62450181D01*
X200310559Y-62431614D01*
X200292177Y-62680057D01*
X200283183Y-62787079D01*
X200273878Y-62873735D01*
X200265617Y-62928436D01*
X200261632Y-62941200D01*
X200233570Y-62945301D01*
X200163526Y-62948934D01*
X200060317Y-62952035D01*
X199932759Y-62954537D01*
X199789669Y-62956376D01*
X199639862Y-62957488D01*
X199492157Y-62957807D01*
X199355368Y-62957269D01*
X199238312Y-62955809D01*
X199149807Y-62953362D01*
X199098668Y-62949863D01*
X199097900Y-62949755D01*
X198962313Y-62921322D01*
X198811707Y-62876084D01*
X198673567Y-62822724D01*
X198629084Y-62801628D01*
X198483347Y-62703184D01*
X198378218Y-62580609D01*
X198316042Y-62440000D01*
X198299167Y-62287455D01*
X198329937Y-62129070D01*
X198350478Y-62077600D01*
X198391060Y-62006802D01*
X198450109Y-61926200D01*
X198517856Y-61846654D01*
X198584531Y-61779027D01*
X198640366Y-61734180D01*
X198670302Y-61722000D01*
X198702063Y-61738038D01*
X198702063Y-61738038D01*
G37*
X198702063Y-61738038D02*
X198760811Y-61781011D01*
X198836380Y-61843206D01*
X198876819Y-61878676D01*
X199051825Y-62035353D01*
X198969864Y-62107316D01*
X198896239Y-62193024D01*
X198871969Y-62274804D01*
X198896675Y-62348905D01*
X198969980Y-62411576D01*
X199002248Y-62427978D01*
X199044055Y-62443468D01*
X199096360Y-62454824D01*
X199167018Y-62462604D01*
X199263887Y-62467367D01*
X199394823Y-62469673D01*
X199567683Y-62470080D01*
X199593200Y-62470023D01*
X199754958Y-62468671D01*
X199906643Y-62465679D01*
X200038077Y-62461379D01*
X200139081Y-62456105D01*
X200199478Y-62450189D01*
X200199529Y-62450181D01*
X200310559Y-62431614D01*
X200292177Y-62680057D01*
X200283183Y-62787079D01*
X200273878Y-62873735D01*
X200265617Y-62928436D01*
X200261632Y-62941200D01*
X200233570Y-62945301D01*
X200163526Y-62948934D01*
X200060317Y-62952035D01*
X199932759Y-62954537D01*
X199789669Y-62956376D01*
X199639862Y-62957488D01*
X199492157Y-62957807D01*
X199355368Y-62957269D01*
X199238312Y-62955809D01*
X199149807Y-62953362D01*
X199098668Y-62949863D01*
X199097900Y-62949755D01*
X198962313Y-62921322D01*
X198811707Y-62876084D01*
X198673567Y-62822724D01*
X198629084Y-62801628D01*
X198483347Y-62703184D01*
X198378218Y-62580609D01*
X198316042Y-62440000D01*
X198299167Y-62287455D01*
X198329937Y-62129070D01*
X198350478Y-62077600D01*
X198391060Y-62006802D01*
X198450109Y-61926200D01*
X198517856Y-61846654D01*
X198584531Y-61779027D01*
X198640366Y-61734180D01*
X198670302Y-61722000D01*
X198702063Y-61738038D01*
D13*
X261216400Y-41890300D02*
X255216400Y-41890300D01*
X262716400Y-43890300D02*
X261216400Y-43890300D01*
X261216400Y-43890300D02*
X255216400Y-43890300D01*
X255216400Y-43890300D02*
X253716400Y-43890300D01*
X264216400Y-56890300D02*
X252216400Y-56890300D01*
X262716400Y-44690300D02*
X264216400Y-44690300D01*
X264216400Y-44690300D02*
X264216400Y-56890300D01*
X252216400Y-56890300D02*
X252216400Y-44690300D01*
X252216400Y-44690300D02*
X253716400Y-44690300D01*
X261216400Y-41890300D02*
X261216400Y-43890300D01*
X255216400Y-41890300D02*
X255216400Y-43890300D01*
X262716400Y-43890300D02*
X262716400Y-44690300D01*
X253716400Y-44690300D02*
X253716400Y-43890300D01*
D14*
X265174400Y-48500300D02*
G75*
G03X265174400Y-48500300I-100000J0D01*
G01*
D15*
X207325406Y-93973487D02*
X208032513Y-94680594D01*
X209234594Y-93478513D02*
X208527487Y-92771406D01*
X185506000Y-91019200D02*
X185506000Y-89219200D01*
X182286000Y-89219200D02*
X182286000Y-91669200D01*
X187864000Y-88173000D02*
X188564000Y-88173000D01*
X188564000Y-89373000D02*
X187864000Y-89373000D01*
D16*
X225425000Y-55549800D02*
X218567000Y-55549800D01*
X218567000Y-55549800D02*
X218567000Y-58736876D01*
X218567000Y-62788800D02*
X225425000Y-62788800D01*
X225425000Y-62788800D02*
X225425000Y-60133686D01*
X225425000Y-58281114D02*
X225425000Y-55549800D01*
X218567000Y-59677924D02*
X218567000Y-62788800D01*
X224683000Y-56004200D02*
G75*
G03X224683000Y-56004200I-127000J0D01*
G01*
D15*
X207964594Y-109226513D02*
X207257487Y-108519406D01*
X206055406Y-109721487D02*
X206762513Y-110428594D01*
X206182406Y-95751487D02*
X206889513Y-96458594D01*
X208091594Y-95256513D02*
X207384487Y-94549406D01*
X217739406Y-93465487D02*
X218446513Y-94172594D01*
X219648594Y-92970513D02*
X218941487Y-92263406D01*
X206325223Y-119797751D02*
X205830249Y-119302777D01*
X206678777Y-118454249D02*
X207173751Y-118949223D01*
X201753223Y-115225751D02*
X201258249Y-114730777D01*
X202106777Y-113882249D02*
X202601751Y-114377223D01*
X188048000Y-74287000D02*
X188048000Y-73287000D01*
X186348000Y-73287000D02*
X186348000Y-74287000D01*
X261612000Y-122086000D02*
X260612000Y-122086000D01*
X260612000Y-123786000D02*
X261612000Y-123786000D01*
X179828000Y-87519000D02*
X179828000Y-89519000D01*
X181868000Y-89519000D02*
X181868000Y-87519000D01*
X239102000Y-92448000D02*
X239102000Y-91448000D01*
X237402000Y-91448000D02*
X237402000Y-92448000D01*
X268470000Y-105830000D02*
X267470000Y-105830000D01*
X267470000Y-107530000D02*
X268470000Y-107530000D01*
X242340000Y-65874000D02*
X243340000Y-65874000D01*
X243340000Y-64174000D02*
X242340000Y-64174000D01*
X259088000Y-70700000D02*
X260088000Y-70700000D01*
X260088000Y-69000000D02*
X259088000Y-69000000D01*
X246396000Y-65536000D02*
X248396000Y-65536000D01*
X248396000Y-63496000D02*
X246396000Y-63496000D01*
X223617600Y-79746600D02*
X223617600Y-81746600D01*
X225657600Y-81746600D02*
X225657600Y-79746600D01*
X221255400Y-79746600D02*
X221255400Y-81746600D01*
X223295400Y-81746600D02*
X223295400Y-79746600D01*
X265686000Y-76454000D02*
X265686000Y-70614000D01*
X266446000Y-77214000D02*
X265686000Y-76454000D01*
X272286000Y-76454000D02*
X271526000Y-77214000D01*
X272286000Y-70614000D02*
X272286000Y-76454000D01*
X266446000Y-77214000D02*
X267866000Y-77214000D01*
X265686000Y-70614000D02*
X267866000Y-70614000D01*
X272286000Y-70614000D02*
X270106000Y-70614000D01*
X271526000Y-77214000D02*
X270106000Y-77214000D01*
X262132000Y-80248000D02*
X262132000Y-78248000D01*
X260092000Y-78248000D02*
X260092000Y-80248000D01*
X262040000Y-97544000D02*
X262040000Y-98544000D01*
X263740000Y-98544000D02*
X263740000Y-97544000D01*
X261962000Y-98544000D02*
X261962000Y-97544000D01*
X260262000Y-97544000D02*
X260262000Y-98544000D01*
X258060000Y-78248000D02*
X258060000Y-80248000D01*
X260100000Y-80248000D02*
X260100000Y-78248000D01*
X202442000Y-82026000D02*
X202442000Y-80026000D01*
X200402000Y-80026000D02*
X200402000Y-82026000D01*
X264787000Y-88304000D02*
X263787000Y-88304000D01*
X263787000Y-90004000D02*
X264787000Y-90004000D01*
X267216000Y-90004000D02*
X268216000Y-90004000D01*
X268216000Y-88304000D02*
X267216000Y-88304000D01*
X227164000Y-67810000D02*
X227164000Y-66810000D01*
X225464000Y-66810000D02*
X225464000Y-67810000D01*
X272630000Y-81526000D02*
X272630000Y-80526000D01*
X270930000Y-80526000D02*
X270930000Y-81526000D01*
X240784000Y-61634000D02*
X239784000Y-61634000D01*
X239784000Y-63334000D02*
X240784000Y-63334000D01*
X270687800Y-53033200D02*
X269267800Y-53033200D01*
X271447800Y-46433200D02*
X269267800Y-46433200D01*
X264847800Y-46433200D02*
X267027800Y-46433200D01*
X265607800Y-53033200D02*
X267027800Y-53033200D01*
X271447800Y-46433200D02*
X271447800Y-52273200D01*
X271447800Y-52273200D02*
X270687800Y-53033200D01*
X265607800Y-53033200D02*
X264847800Y-52273200D01*
X264847800Y-52273200D02*
X264847800Y-46433200D01*
X264847800Y-61722000D02*
X264847800Y-55882000D01*
X265607800Y-62482000D02*
X264847800Y-61722000D01*
X271447800Y-61722000D02*
X270687800Y-62482000D01*
X271447800Y-55882000D02*
X271447800Y-61722000D01*
X265607800Y-62482000D02*
X267027800Y-62482000D01*
X264847800Y-55882000D02*
X267027800Y-55882000D01*
X271447800Y-55882000D02*
X269267800Y-55882000D01*
X270687800Y-62482000D02*
X269267800Y-62482000D01*
X248396000Y-59940000D02*
X246396000Y-59940000D01*
X246396000Y-61980000D02*
X248396000Y-61980000D01*
X198116000Y-80026000D02*
X198116000Y-82026000D01*
X200156000Y-82026000D02*
X200156000Y-80026000D01*
X178852000Y-68469000D02*
X182752000Y-68469000D01*
X178852000Y-70469000D02*
X182752000Y-70469000D01*
X178852000Y-68469000D02*
X178852000Y-70469000D01*
X179071000Y-98269000D02*
X179071000Y-92869000D01*
X182371000Y-98269000D02*
X182371000Y-92869000D01*
X179071000Y-98269000D02*
X182371000Y-98269000D01*
X177016000Y-125284000D02*
X177016000Y-126684000D01*
X177016000Y-126684000D02*
X179816000Y-126684000D01*
X177016000Y-125284000D02*
X179816000Y-125284000D01*
X187176000Y-125284000D02*
X187176000Y-126684000D01*
X187176000Y-126684000D02*
X189976000Y-126684000D01*
X187176000Y-125284000D02*
X189976000Y-125284000D01*
X197506000Y-125284000D02*
X200306000Y-125284000D01*
X197506000Y-126684000D02*
X200306000Y-126684000D01*
X197506000Y-125284000D02*
X197506000Y-126684000D01*
X207326000Y-125284000D02*
X207326000Y-126684000D01*
X207326000Y-126684000D02*
X210126000Y-126684000D01*
X207326000Y-125284000D02*
X210126000Y-125284000D01*
X217656000Y-125284000D02*
X220456000Y-125284000D01*
X217656000Y-126684000D02*
X220456000Y-126684000D01*
X217656000Y-125284000D02*
X217656000Y-126684000D01*
X227816000Y-125284000D02*
X227816000Y-126684000D01*
X227816000Y-126684000D02*
X230616000Y-126684000D01*
X227816000Y-125284000D02*
X230616000Y-125284000D01*
X238146000Y-125284000D02*
X240946000Y-125284000D01*
X238146000Y-126684000D02*
X240946000Y-126684000D01*
X238146000Y-125284000D02*
X238146000Y-126684000D01*
X248136000Y-125284000D02*
X250936000Y-125284000D01*
X248136000Y-126684000D02*
X250936000Y-126684000D01*
X248136000Y-125284000D02*
X248136000Y-126684000D01*
D14*
X194774820Y-45808900D02*
X175275240Y-45808900D01*
X176776380Y-45559980D02*
X194774820Y-45559980D01*
X196275960Y-45308520D02*
X176776380Y-45308520D01*
X194774820Y-63558420D02*
X194774820Y-46558200D01*
X194774820Y-63558420D02*
X194274440Y-64058800D01*
X194274440Y-64058800D02*
X191775080Y-64058800D01*
X191775080Y-64058800D02*
X191274700Y-63558420D01*
X191274700Y-63558420D02*
X191274700Y-61559440D01*
X191274700Y-61559440D02*
X187774580Y-61559440D01*
X176776380Y-63558420D02*
X176776380Y-46558200D01*
X176776380Y-63558420D02*
X177276760Y-64058800D01*
X177276760Y-64058800D02*
X179275740Y-64058800D01*
X179275740Y-64058800D02*
X179776120Y-64058800D01*
X179776120Y-64058800D02*
X180276500Y-63558420D01*
X180276500Y-63558420D02*
X180276500Y-61559440D01*
X180276500Y-61559440D02*
X183776620Y-61559440D01*
X187276740Y-64058800D02*
X187774580Y-63558420D01*
X187774580Y-63558420D02*
X187774580Y-61559440D01*
X187276740Y-64058800D02*
X184274460Y-64058800D01*
X184274460Y-64058800D02*
X183776620Y-63558420D01*
X183776620Y-63558420D02*
X183776620Y-61559440D01*
X175275240Y-45559980D02*
X176776380Y-45559980D01*
X176776380Y-45559980D02*
X176776380Y-45059600D01*
X176776380Y-45059600D02*
X196275960Y-45059600D01*
X196275960Y-45559980D02*
X194774820Y-45559980D01*
X194774820Y-45559980D02*
X194774820Y-46060360D01*
X194774820Y-46060360D02*
X175275240Y-46060360D01*
X176776380Y-46558200D02*
X177276760Y-46558200D01*
X194774820Y-46558200D02*
X194274440Y-46558200D01*
X177276760Y-46060360D02*
X177276760Y-46558200D01*
X194274440Y-46558200D02*
X194274440Y-46060360D01*
X196275960Y-45059600D02*
X196275960Y-45559980D01*
X175275240Y-46060360D02*
X175275240Y-45559980D01*
D15*
X173549000Y-55439000D02*
X174879000Y-55439000D01*
X173549000Y-56769000D02*
X173549000Y-55439000D01*
X173549000Y-58039000D02*
X176209000Y-58039000D01*
X176209000Y-58039000D02*
X176209000Y-58099000D01*
X173549000Y-58039000D02*
X173549000Y-58099000D01*
X173549000Y-58099000D02*
X176209000Y-58099000D01*
X215700800Y-62101000D02*
X203500800Y-62101000D01*
X203500800Y-45081000D02*
X215700800Y-45081000D01*
X203500800Y-62101000D02*
X203500800Y-57021000D01*
X203500800Y-53721000D02*
X203500800Y-45081000D01*
X215700800Y-62101000D02*
X215700800Y-57021000D01*
X215700800Y-53721000D02*
X215700800Y-45081000D01*
X218888000Y-46320400D02*
X220218000Y-46320400D01*
X218888000Y-47650400D02*
X218888000Y-46320400D01*
X221488000Y-46320400D02*
X224088000Y-46320400D01*
X221488000Y-48920400D02*
X221488000Y-46320400D01*
X218888000Y-48920400D02*
X221488000Y-48920400D01*
X224088000Y-46320400D02*
X224088000Y-54060400D01*
X218888000Y-48920400D02*
X218888000Y-54060400D01*
X218888000Y-54060400D02*
X224088000Y-54060400D01*
D11*
X227838600Y-45080000D02*
X227838600Y-48737600D01*
X242316600Y-45037600D02*
X227838600Y-45037600D01*
X242338600Y-48837600D02*
X242338600Y-45078400D01*
X175238000Y-88702000D02*
X175238000Y-92702000D01*
X178838000Y-92702000D02*
X178838000Y-88702000D01*
D15*
X218431000Y-49438000D02*
X218431000Y-50638000D01*
X216671000Y-50638000D02*
X216671000Y-49438000D01*
X175759000Y-71851000D02*
X175759000Y-73051000D01*
X173999000Y-73051000D02*
X173999000Y-71851000D01*
X226878010Y-113695518D02*
X226029482Y-112846990D01*
X227273990Y-111602482D02*
X228122518Y-112451010D01*
X210509990Y-91663482D02*
X211358518Y-92512010D01*
X210114010Y-93756518D02*
X209265482Y-92907990D01*
X211511010Y-92359518D02*
X210662482Y-91510990D01*
X211906990Y-90266482D02*
X212755518Y-91115010D01*
X216290000Y-62322000D02*
X216290000Y-61122000D01*
X218050000Y-61122000D02*
X218050000Y-62322000D01*
X188078000Y-76743000D02*
X188078000Y-77943000D01*
X186318000Y-77943000D02*
X186318000Y-76743000D01*
X183296000Y-85988000D02*
X184496000Y-85988000D01*
X184496000Y-87748000D02*
X183296000Y-87748000D01*
X198597482Y-108006010D02*
X199446010Y-107157482D01*
X200690518Y-108401990D02*
X199841990Y-109250518D01*
X179416000Y-125086000D02*
X178216000Y-125086000D01*
X178216000Y-123326000D02*
X179416000Y-123326000D01*
X188376000Y-123326000D02*
X189576000Y-123326000D01*
X189576000Y-125086000D02*
X188376000Y-125086000D01*
X199990000Y-125086000D02*
X198790000Y-125086000D01*
X198790000Y-123326000D02*
X199990000Y-123326000D01*
X208696000Y-123326000D02*
X209896000Y-123326000D01*
X209896000Y-125086000D02*
X208696000Y-125086000D01*
X220056000Y-125086000D02*
X218856000Y-125086000D01*
X218856000Y-123326000D02*
X220056000Y-123326000D01*
X229016000Y-123326000D02*
X230216000Y-123326000D01*
X230216000Y-125086000D02*
X229016000Y-125086000D01*
X240630000Y-125086000D02*
X239430000Y-125086000D01*
X239430000Y-123326000D02*
X240630000Y-123326000D01*
X249336000Y-123326000D02*
X250536000Y-123326000D01*
X250536000Y-125086000D02*
X249336000Y-125086000D01*
X265321728Y-74645722D02*
X265321728Y-75845722D01*
X263561728Y-75845722D02*
X263561728Y-74645722D01*
X263543728Y-74645722D02*
X263543728Y-75845722D01*
X261783728Y-75845722D02*
X261783728Y-74645722D01*
X261738000Y-74584000D02*
X261738000Y-75784000D01*
X259978000Y-75784000D02*
X259978000Y-74584000D01*
X257946000Y-106772000D02*
X257946000Y-105572000D01*
X259706000Y-105572000D02*
X259706000Y-106772000D01*
X258200000Y-75784000D02*
X258200000Y-74584000D01*
X259960000Y-74584000D02*
X259960000Y-75784000D01*
X259851000Y-86706000D02*
X259851000Y-85506000D01*
X261611000Y-85506000D02*
X261611000Y-86706000D01*
X262010000Y-95342000D02*
X262010000Y-94142000D01*
X263770000Y-94142000D02*
X263770000Y-95342000D01*
X261992000Y-94142000D02*
X261992000Y-95342000D01*
X260232000Y-95342000D02*
X260232000Y-94142000D01*
X259579000Y-85506000D02*
X259579000Y-86706000D01*
X257819000Y-86706000D02*
X257819000Y-85506000D01*
X263687000Y-86496000D02*
X264887000Y-86496000D01*
X264887000Y-88256000D02*
X263687000Y-88256000D01*
X268316000Y-88256000D02*
X267116000Y-88256000D01*
X267116000Y-86496000D02*
X268316000Y-86496000D01*
X187798000Y-87748000D02*
X186598000Y-87748000D01*
X186598000Y-85988000D02*
X187798000Y-85988000D01*
X188814000Y-91431000D02*
X187614000Y-91431000D01*
X187614000Y-89671000D02*
X188814000Y-89671000D01*
X261199000Y-133462000D02*
X261199000Y-132462000D01*
X260699000Y-132962000D02*
X261699000Y-132962000D01*
X264699000Y-126862000D02*
X267099000Y-126862000D01*
X259899000Y-126862000D02*
X262499000Y-126862000D01*
X255299000Y-126862000D02*
X257699000Y-126862000D01*
X257099000Y-140162000D02*
X257399000Y-140462000D01*
X257099000Y-140762000D02*
X257099000Y-140162000D01*
X257399000Y-140462000D02*
X257099000Y-140762000D01*
X255299000Y-139062000D02*
X267099000Y-139062000D01*
X255299000Y-134962000D02*
X255299000Y-139062000D01*
X267099000Y-134962000D02*
X267099000Y-139062000D01*
X267099000Y-126862000D02*
X267099000Y-130962000D01*
X255299000Y-130962000D02*
X255299000Y-126862000D01*
X264199000Y-132962000D02*
G75*
G03X264199000Y-132962000I-3000000J0D01*
G01*
X177440000Y-128250000D02*
X180120000Y-128250000D01*
X180120000Y-134490000D02*
X177440000Y-134490000D01*
X175660000Y-134340000D02*
X175660000Y-128400000D01*
X181900000Y-134340000D02*
X181900000Y-128400000D01*
X180194214Y-131370000D02*
G75*
G03X180194214Y-131370000I-1414214J0D01*
G01*
X218080000Y-128250000D02*
X220760000Y-128250000D01*
X220760000Y-134490000D02*
X218080000Y-134490000D01*
X216300000Y-134340000D02*
X216300000Y-128400000D01*
X222540000Y-134340000D02*
X222540000Y-128400000D01*
X220834214Y-131370000D02*
G75*
G03X220834214Y-131370000I-1414214J0D01*
G01*
X190354214Y-131370000D02*
G75*
G03X190354214Y-131370000I-1414214J0D01*
G01*
X192060000Y-134340000D02*
X192060000Y-128400000D01*
X185820000Y-134340000D02*
X185820000Y-128400000D01*
X190280000Y-134490000D02*
X187600000Y-134490000D01*
X187600000Y-128250000D02*
X190280000Y-128250000D01*
X228240000Y-128250000D02*
X230920000Y-128250000D01*
X230920000Y-134490000D02*
X228240000Y-134490000D01*
X226460000Y-134340000D02*
X226460000Y-128400000D01*
X232700000Y-134340000D02*
X232700000Y-128400000D01*
X230994214Y-131370000D02*
G75*
G03X230994214Y-131370000I-1414214J0D01*
G01*
X197760000Y-128250000D02*
X200440000Y-128250000D01*
X200440000Y-134490000D02*
X197760000Y-134490000D01*
X195980000Y-134340000D02*
X195980000Y-128400000D01*
X202220000Y-134340000D02*
X202220000Y-128400000D01*
X200514214Y-131370000D02*
G75*
G03X200514214Y-131370000I-1414214J0D01*
G01*
X241154214Y-131370000D02*
G75*
G03X241154214Y-131370000I-1414214J0D01*
G01*
X242860000Y-134340000D02*
X242860000Y-128400000D01*
X236620000Y-134340000D02*
X236620000Y-128400000D01*
X241080000Y-134490000D02*
X238400000Y-134490000D01*
X238400000Y-128250000D02*
X241080000Y-128250000D01*
X188814214Y-117820000D02*
G75*
G03X188814214Y-117820000I-1414214J0D01*
G01*
X184430000Y-120940000D02*
X190370000Y-120940000D01*
X184430000Y-114700000D02*
X190370000Y-114700000D01*
X184280000Y-119160000D02*
X184280000Y-116480000D01*
X190520000Y-116480000D02*
X190520000Y-119160000D01*
X210674214Y-131370000D02*
G75*
G03X210674214Y-131370000I-1414214J0D01*
G01*
X212380000Y-134340000D02*
X212380000Y-128400000D01*
X206140000Y-134340000D02*
X206140000Y-128400000D01*
X210600000Y-134490000D02*
X207920000Y-134490000D01*
X207920000Y-128250000D02*
X210600000Y-128250000D01*
X248560000Y-128250000D02*
X251240000Y-128250000D01*
X251240000Y-134490000D02*
X248560000Y-134490000D01*
X246780000Y-134340000D02*
X246780000Y-128400000D01*
X253020000Y-134340000D02*
X253020000Y-128400000D01*
X251314214Y-131370000D02*
G75*
G03X251314214Y-131370000I-1414214J0D01*
G01*
X183475800Y-71060000D02*
X182025800Y-71060000D01*
X183475800Y-78800000D02*
X183475800Y-71060000D01*
X178575800Y-78800000D02*
X183475800Y-78800000D01*
X178575800Y-71060000D02*
X178575800Y-78800000D01*
X180025800Y-71060000D02*
X178575800Y-71060000D01*
X182025800Y-71060000D02*
G75*
G02X180025800Y-71060000I-1000000J0D01*
G01*
D11*
X216662000Y-95263018D02*
X216255414Y-95669604D01*
X226808982Y-105410000D02*
X226331685Y-105887297D01*
X216662000Y-115556982D02*
X217139297Y-115079685D01*
X206515018Y-105410000D02*
X206992315Y-104932703D01*
X216662000Y-95263018D02*
X217139297Y-95740315D01*
X206515018Y-105410000D02*
X206992315Y-105887297D01*
X216662000Y-115556982D02*
X216184703Y-115079685D01*
X226808982Y-105410000D02*
X226331685Y-104932703D01*
X216255414Y-95669604D02*
X215353852Y-94768043D01*
D15*
X255126000Y-66361000D02*
X249666000Y-66361000D01*
X255126000Y-96961000D02*
X255126000Y-66361000D01*
X242206000Y-96961000D02*
X255126000Y-96961000D01*
X242206000Y-66361000D02*
X242206000Y-96961000D01*
X247666000Y-66361000D02*
X242206000Y-66361000D01*
X249666000Y-66361000D02*
G75*
G02X247666000Y-66361000I-1000000J0D01*
G01*
X251501400Y-121268800D02*
G75*
G02X253501400Y-121268800I1000000J0D01*
G01*
X253501400Y-121268800D02*
X255151400Y-121268800D01*
X255151400Y-121268800D02*
X255151400Y-100828800D01*
X255151400Y-100828800D02*
X249851400Y-100828800D01*
X249851400Y-100828800D02*
X249851400Y-121268800D01*
X249851400Y-121268800D02*
X251501400Y-121268800D01*
X218890800Y-78014000D02*
X218890800Y-72004000D01*
X225710800Y-75764000D02*
X225710800Y-72004000D01*
X218890800Y-72004000D02*
X220150800Y-72004000D01*
X225710800Y-72004000D02*
X224450800Y-72004000D01*
D11*
X227563200Y-67657800D02*
X227563200Y-69032800D01*
X237688200Y-67657800D02*
X237688200Y-63507800D01*
X227538200Y-67657800D02*
X227538200Y-63507800D01*
X237688200Y-67657800D02*
X237583200Y-67657800D01*
X237688200Y-63507800D02*
X237583200Y-63507800D01*
X227538200Y-63507800D02*
X227643200Y-63507800D01*
X227538200Y-67657800D02*
X227563200Y-67657800D01*
X264117000Y-79517000D02*
X262717000Y-79517000D01*
X264117000Y-84617000D02*
X268267000Y-84617000D01*
X264117000Y-79467000D02*
X268267000Y-79467000D01*
X264117000Y-84617000D02*
X264117000Y-84472000D01*
X268267000Y-84617000D02*
X268267000Y-84472000D01*
X268267000Y-79467000D02*
X268267000Y-79612000D01*
X264117000Y-79467000D02*
X264117000Y-79517000D01*
D15*
X256037000Y-65614600D02*
X256037000Y-64354600D01*
X256037000Y-58794600D02*
X256037000Y-60054600D01*
X252277000Y-65614600D02*
X256037000Y-65614600D01*
X250027000Y-58794600D02*
X256037000Y-58794600D01*
X195726000Y-78268000D02*
X195726000Y-72258000D01*
X202546000Y-76018000D02*
X202546000Y-72258000D01*
X195726000Y-72258000D02*
X196986000Y-72258000D01*
X202546000Y-72258000D02*
X201286000Y-72258000D01*
X200215262Y-111619507D02*
X209124808Y-120529052D01*
X203821507Y-108013262D02*
X200215262Y-111619507D01*
X212731052Y-116922808D02*
X203821507Y-108013262D01*
X185678000Y-95615000D02*
X185678000Y-93615000D01*
X183638000Y-93615000D02*
X183638000Y-95615000D01*
D17*
X261857070Y-57508907D02*
X261857070Y-58225950D01*
X261809267Y-58369358D01*
X261713661Y-58464964D01*
X261570252Y-58512767D01*
X261474647Y-58512767D01*
X262765324Y-57508907D02*
X262574112Y-57508907D01*
X262478507Y-57556710D01*
X262430704Y-57604512D01*
X262335098Y-57747921D01*
X262287295Y-57939132D01*
X262287295Y-58321555D01*
X262335098Y-58417161D01*
X262382901Y-58464964D01*
X262478507Y-58512767D01*
X262669718Y-58512767D01*
X262765324Y-58464964D01*
X262813127Y-58417161D01*
X262860930Y-58321555D01*
X262860930Y-58082541D01*
X262813127Y-57986935D01*
X262765324Y-57939132D01*
X262669718Y-57891330D01*
X262478507Y-57891330D01*
X262382901Y-57939132D01*
X262335098Y-57986935D01*
X262287295Y-58082541D01*
D11*
X206004611Y-91828687D02*
X205937268Y-91828687D01*
X205802581Y-91761343D01*
X205735237Y-91694000D01*
X205667894Y-91559312D01*
X205667894Y-91424625D01*
X205701565Y-91323610D01*
X205802581Y-91155251D01*
X205903596Y-91054236D01*
X206071955Y-90953221D01*
X206172970Y-90919549D01*
X206307657Y-90919549D01*
X206442344Y-90986893D01*
X206509688Y-91054236D01*
X206577031Y-91188923D01*
X206577031Y-91256267D01*
X207250466Y-91795015D02*
X207115779Y-91660328D01*
X207014764Y-91626656D01*
X206947420Y-91626656D01*
X206779062Y-91660328D01*
X206610703Y-91761343D01*
X206341329Y-92030717D01*
X206307657Y-92131732D01*
X206307657Y-92199076D01*
X206341329Y-92300091D01*
X206476016Y-92434778D01*
X206577031Y-92468450D01*
X206644375Y-92468450D01*
X206745390Y-92434778D01*
X206913749Y-92266419D01*
X206947420Y-92165404D01*
X206947420Y-92098061D01*
X206913749Y-91997045D01*
X206779062Y-91862358D01*
X206678046Y-91828687D01*
X206610703Y-91828687D01*
X206509688Y-91862358D01*
X185634380Y-90881104D02*
X186443904Y-90881104D01*
X186539142Y-90833485D01*
X186586761Y-90785866D01*
X186634380Y-90690628D01*
X186634380Y-90500152D01*
X186586761Y-90404914D01*
X186539142Y-90357295D01*
X186443904Y-90309676D01*
X185634380Y-90309676D01*
X185634380Y-89357295D02*
X185634380Y-89833485D01*
X186110571Y-89881104D01*
X186062952Y-89833485D01*
X186015333Y-89738247D01*
X186015333Y-89500152D01*
X186062952Y-89404914D01*
X186110571Y-89357295D01*
X186205809Y-89309676D01*
X186443904Y-89309676D01*
X186539142Y-89357295D01*
X186586761Y-89404914D01*
X186634380Y-89500152D01*
X186634380Y-89738247D01*
X186586761Y-89833485D01*
X186539142Y-89881104D01*
X190492142Y-89257142D02*
X190444523Y-89304761D01*
X190301666Y-89352380D01*
X190206428Y-89352380D01*
X190063571Y-89304761D01*
X189968333Y-89209523D01*
X189920714Y-89114285D01*
X189873095Y-88923809D01*
X189873095Y-88780952D01*
X189920714Y-88590476D01*
X189968333Y-88495238D01*
X190063571Y-88400000D01*
X190206428Y-88352380D01*
X190301666Y-88352380D01*
X190444523Y-88400000D01*
X190492142Y-88447619D01*
X191444523Y-89352380D02*
X190873095Y-89352380D01*
X191158809Y-89352380D02*
X191158809Y-88352380D01*
X191063571Y-88495238D01*
X190968333Y-88590476D01*
X190873095Y-88638095D01*
X191777857Y-88352380D02*
X192396904Y-88352380D01*
X192063571Y-88733333D01*
X192206428Y-88733333D01*
X192301666Y-88780952D01*
X192349285Y-88828571D01*
X192396904Y-88923809D01*
X192396904Y-89161904D01*
X192349285Y-89257142D01*
X192301666Y-89304761D01*
X192206428Y-89352380D01*
X191920714Y-89352380D01*
X191825476Y-89304761D01*
X191777857Y-89257142D01*
X226302961Y-61615580D02*
X225969628Y-61139390D01*
X225731533Y-61615580D02*
X225731533Y-60615580D01*
X226112485Y-60615580D01*
X226207723Y-60663200D01*
X226255342Y-60710819D01*
X226302961Y-60806057D01*
X226302961Y-60948914D01*
X226255342Y-61044152D01*
X226207723Y-61091771D01*
X226112485Y-61139390D01*
X225731533Y-61139390D01*
X226588676Y-60615580D02*
X226922009Y-61615580D01*
X227255342Y-60615580D01*
X228112485Y-61615580D02*
X227541057Y-61615580D01*
X227826771Y-61615580D02*
X227826771Y-60615580D01*
X227731533Y-60758438D01*
X227636295Y-60853676D01*
X227541057Y-60901295D01*
X220519809Y-55341780D02*
X220186476Y-54865590D01*
X219948380Y-55341780D02*
X219948380Y-54341780D01*
X220329333Y-54341780D01*
X220424571Y-54389400D01*
X220472190Y-54437019D01*
X220519809Y-54532257D01*
X220519809Y-54675114D01*
X220472190Y-54770352D01*
X220424571Y-54817971D01*
X220329333Y-54865590D01*
X219948380Y-54865590D01*
X220710285Y-55437019D02*
X221472190Y-55437019D01*
X221710285Y-55341780D02*
X221710285Y-54341780D01*
X222091238Y-54341780D01*
X222186476Y-54389400D01*
X222234095Y-54437019D01*
X222281714Y-54532257D01*
X222281714Y-54675114D01*
X222234095Y-54770352D01*
X222186476Y-54817971D01*
X222091238Y-54865590D01*
X221710285Y-54865590D01*
X222900761Y-54341780D02*
X223091238Y-54341780D01*
X223186476Y-54389400D01*
X223281714Y-54484638D01*
X223329333Y-54675114D01*
X223329333Y-55008447D01*
X223281714Y-55198923D01*
X223186476Y-55294161D01*
X223091238Y-55341780D01*
X222900761Y-55341780D01*
X222805523Y-55294161D01*
X222710285Y-55198923D01*
X222662666Y-55008447D01*
X222662666Y-54675114D01*
X222710285Y-54484638D01*
X222805523Y-54389400D01*
X222900761Y-54341780D01*
X223615047Y-54341780D02*
X224186476Y-54341780D01*
X223900761Y-55341780D02*
X223900761Y-54341780D01*
X219456000Y-58583580D02*
X219456000Y-58821676D01*
X219217904Y-58726438D02*
X219456000Y-58821676D01*
X219694095Y-58726438D01*
X219313142Y-59012152D02*
X219456000Y-58821676D01*
X219598857Y-59012152D01*
X204861610Y-107576687D02*
X204794267Y-107576687D01*
X204659580Y-107509343D01*
X204592236Y-107442000D01*
X204524893Y-107307312D01*
X204524893Y-107172625D01*
X204558564Y-107071610D01*
X204659580Y-106903251D01*
X204760595Y-106802236D01*
X204928954Y-106701221D01*
X205029969Y-106667549D01*
X205164656Y-106667549D01*
X205299343Y-106734893D01*
X205366687Y-106802236D01*
X205434030Y-106936923D01*
X205434030Y-107004267D01*
X205467702Y-108317465D02*
X205063641Y-107913404D01*
X205265671Y-108115435D02*
X205972778Y-107408328D01*
X205804419Y-107442000D01*
X205669732Y-107442000D01*
X205568717Y-107408328D01*
X204480610Y-93352687D02*
X204413267Y-93352687D01*
X204278580Y-93285343D01*
X204211236Y-93218000D01*
X204143893Y-93083312D01*
X204143893Y-92948625D01*
X204177564Y-92847610D01*
X204278580Y-92679251D01*
X204379595Y-92578236D01*
X204547954Y-92477221D01*
X204648969Y-92443549D01*
X204783656Y-92443549D01*
X204918343Y-92510893D01*
X204985687Y-92578236D01*
X205053030Y-92712923D01*
X205053030Y-92780267D01*
X205322404Y-93049641D02*
X205389748Y-93049641D01*
X205490763Y-93083312D01*
X205659122Y-93251671D01*
X205692793Y-93352687D01*
X205692793Y-93420030D01*
X205659122Y-93521045D01*
X205591778Y-93588389D01*
X205457091Y-93655732D01*
X204648969Y-93655732D01*
X205086702Y-94093465D01*
X217262950Y-94413347D02*
X217195607Y-94413347D01*
X217060920Y-94346003D01*
X216993576Y-94278660D01*
X216926233Y-94143972D01*
X216926233Y-94009285D01*
X216959904Y-93908270D01*
X217060920Y-93739911D01*
X217161935Y-93638896D01*
X217330294Y-93537881D01*
X217431309Y-93504209D01*
X217565996Y-93504209D01*
X217700683Y-93571553D01*
X217768027Y-93638896D01*
X217835370Y-93773583D01*
X217835370Y-93840927D01*
X218138416Y-94009285D02*
X218576149Y-94447018D01*
X218071072Y-94480690D01*
X218172088Y-94581705D01*
X218205759Y-94682721D01*
X218205759Y-94750064D01*
X218172088Y-94851079D01*
X218003729Y-95019438D01*
X217902714Y-95053110D01*
X217835370Y-95053110D01*
X217734355Y-95019438D01*
X217532324Y-94817408D01*
X217498652Y-94716392D01*
X217498652Y-94649049D01*
X205070950Y-120321347D02*
X205003607Y-120321347D01*
X204868920Y-120254003D01*
X204801576Y-120186660D01*
X204734233Y-120051972D01*
X204734233Y-119917285D01*
X204767904Y-119816270D01*
X204868920Y-119647911D01*
X204969935Y-119546896D01*
X205138294Y-119445881D01*
X205239309Y-119412209D01*
X205373996Y-119412209D01*
X205508683Y-119479553D01*
X205576027Y-119546896D01*
X205643370Y-119681583D01*
X205643370Y-119748927D01*
X206081103Y-120523377D02*
X205609698Y-120994782D01*
X206182118Y-120085644D02*
X205508683Y-120422362D01*
X205946416Y-120860095D01*
X200289610Y-115704687D02*
X200222267Y-115704687D01*
X200087580Y-115637343D01*
X200020236Y-115570000D01*
X199952893Y-115435312D01*
X199952893Y-115300625D01*
X199986564Y-115199610D01*
X200087580Y-115031251D01*
X200188595Y-114930236D01*
X200356954Y-114829221D01*
X200457969Y-114795549D01*
X200592656Y-114795549D01*
X200727343Y-114862893D01*
X200794687Y-114930236D01*
X200862030Y-115064923D01*
X200862030Y-115132267D01*
X201569137Y-115704687D02*
X201232419Y-115367969D01*
X200862030Y-115671015D01*
X200929374Y-115671015D01*
X201030389Y-115704687D01*
X201198748Y-115873045D01*
X201232419Y-115974061D01*
X201232419Y-116041404D01*
X201198748Y-116142419D01*
X201030389Y-116310778D01*
X200929374Y-116344450D01*
X200862030Y-116344450D01*
X200761015Y-116310778D01*
X200592656Y-116142419D01*
X200558984Y-116041404D01*
X200558984Y-115974061D01*
X189055142Y-73953666D02*
X189102761Y-74001285D01*
X189150380Y-74144142D01*
X189150380Y-74239380D01*
X189102761Y-74382238D01*
X189007523Y-74477476D01*
X188912285Y-74525095D01*
X188721809Y-74572714D01*
X188578952Y-74572714D01*
X188388476Y-74525095D01*
X188293238Y-74477476D01*
X188198000Y-74382238D01*
X188150380Y-74239380D01*
X188150380Y-74144142D01*
X188198000Y-74001285D01*
X188245619Y-73953666D01*
X188150380Y-73620333D02*
X188150380Y-72953666D01*
X189150380Y-73382238D01*
X260945333Y-124793142D02*
X260897714Y-124840761D01*
X260754857Y-124888380D01*
X260659619Y-124888380D01*
X260516761Y-124840761D01*
X260421523Y-124745523D01*
X260373904Y-124650285D01*
X260326285Y-124459809D01*
X260326285Y-124316952D01*
X260373904Y-124126476D01*
X260421523Y-124031238D01*
X260516761Y-123936000D01*
X260659619Y-123888380D01*
X260754857Y-123888380D01*
X260897714Y-123936000D01*
X260945333Y-123983619D01*
X261516761Y-124316952D02*
X261421523Y-124269333D01*
X261373904Y-124221714D01*
X261326285Y-124126476D01*
X261326285Y-124078857D01*
X261373904Y-123983619D01*
X261421523Y-123936000D01*
X261516761Y-123888380D01*
X261707238Y-123888380D01*
X261802476Y-123936000D01*
X261850095Y-123983619D01*
X261897714Y-124078857D01*
X261897714Y-124126476D01*
X261850095Y-124221714D01*
X261802476Y-124269333D01*
X261707238Y-124316952D01*
X261516761Y-124316952D01*
X261421523Y-124364571D01*
X261373904Y-124412190D01*
X261326285Y-124507428D01*
X261326285Y-124697904D01*
X261373904Y-124793142D01*
X261421523Y-124840761D01*
X261516761Y-124888380D01*
X261707238Y-124888380D01*
X261802476Y-124840761D01*
X261850095Y-124793142D01*
X261897714Y-124697904D01*
X261897714Y-124507428D01*
X261850095Y-124412190D01*
X261802476Y-124364571D01*
X261707238Y-124316952D01*
X181205142Y-85383666D02*
X181252761Y-85431285D01*
X181300380Y-85574142D01*
X181300380Y-85669380D01*
X181252761Y-85812238D01*
X181157523Y-85907476D01*
X181062285Y-85955095D01*
X180871809Y-86002714D01*
X180728952Y-86002714D01*
X180538476Y-85955095D01*
X180443238Y-85907476D01*
X180348000Y-85812238D01*
X180300380Y-85669380D01*
X180300380Y-85574142D01*
X180348000Y-85431285D01*
X180395619Y-85383666D01*
X181300380Y-84907476D02*
X181300380Y-84717000D01*
X181252761Y-84621761D01*
X181205142Y-84574142D01*
X181062285Y-84478904D01*
X180871809Y-84431285D01*
X180490857Y-84431285D01*
X180395619Y-84478904D01*
X180348000Y-84526523D01*
X180300380Y-84621761D01*
X180300380Y-84812238D01*
X180348000Y-84907476D01*
X180395619Y-84955095D01*
X180490857Y-85002714D01*
X180728952Y-85002714D01*
X180824190Y-84955095D01*
X180871809Y-84907476D01*
X180919428Y-84812238D01*
X180919428Y-84621761D01*
X180871809Y-84526523D01*
X180824190Y-84478904D01*
X180728952Y-84431285D01*
X237109142Y-92590857D02*
X237156761Y-92638476D01*
X237204380Y-92781333D01*
X237204380Y-92876571D01*
X237156761Y-93019428D01*
X237061523Y-93114666D01*
X236966285Y-93162285D01*
X236775809Y-93209904D01*
X236632952Y-93209904D01*
X236442476Y-93162285D01*
X236347238Y-93114666D01*
X236252000Y-93019428D01*
X236204380Y-92876571D01*
X236204380Y-92781333D01*
X236252000Y-92638476D01*
X236299619Y-92590857D01*
X237204380Y-91638476D02*
X237204380Y-92209904D01*
X237204380Y-91924190D02*
X236204380Y-91924190D01*
X236347238Y-92019428D01*
X236442476Y-92114666D01*
X236490095Y-92209904D01*
X236204380Y-91019428D02*
X236204380Y-90924190D01*
X236252000Y-90828952D01*
X236299619Y-90781333D01*
X236394857Y-90733714D01*
X236585333Y-90686095D01*
X236823428Y-90686095D01*
X237013904Y-90733714D01*
X237109142Y-90781333D01*
X237156761Y-90828952D01*
X237204380Y-90924190D01*
X237204380Y-91019428D01*
X237156761Y-91114666D01*
X237109142Y-91162285D01*
X237013904Y-91209904D01*
X236823428Y-91257523D01*
X236585333Y-91257523D01*
X236394857Y-91209904D01*
X236299619Y-91162285D01*
X236252000Y-91114666D01*
X236204380Y-91019428D01*
X267327142Y-108537142D02*
X267279523Y-108584761D01*
X267136666Y-108632380D01*
X267041428Y-108632380D01*
X266898571Y-108584761D01*
X266803333Y-108489523D01*
X266755714Y-108394285D01*
X266708095Y-108203809D01*
X266708095Y-108060952D01*
X266755714Y-107870476D01*
X266803333Y-107775238D01*
X266898571Y-107680000D01*
X267041428Y-107632380D01*
X267136666Y-107632380D01*
X267279523Y-107680000D01*
X267327142Y-107727619D01*
X268279523Y-108632380D02*
X267708095Y-108632380D01*
X267993809Y-108632380D02*
X267993809Y-107632380D01*
X267898571Y-107775238D01*
X267803333Y-107870476D01*
X267708095Y-107918095D01*
X269231904Y-108632380D02*
X268660476Y-108632380D01*
X268946190Y-108632380D02*
X268946190Y-107632380D01*
X268850952Y-107775238D01*
X268755714Y-107870476D01*
X268660476Y-107918095D01*
X238879142Y-65381142D02*
X238831523Y-65428761D01*
X238688666Y-65476380D01*
X238593428Y-65476380D01*
X238450571Y-65428761D01*
X238355333Y-65333523D01*
X238307714Y-65238285D01*
X238260095Y-65047809D01*
X238260095Y-64904952D01*
X238307714Y-64714476D01*
X238355333Y-64619238D01*
X238450571Y-64524000D01*
X238593428Y-64476380D01*
X238688666Y-64476380D01*
X238831523Y-64524000D01*
X238879142Y-64571619D01*
X239831523Y-65476380D02*
X239260095Y-65476380D01*
X239545809Y-65476380D02*
X239545809Y-64476380D01*
X239450571Y-64619238D01*
X239355333Y-64714476D01*
X239260095Y-64762095D01*
X240212476Y-64571619D02*
X240260095Y-64524000D01*
X240355333Y-64476380D01*
X240593428Y-64476380D01*
X240688666Y-64524000D01*
X240736285Y-64571619D01*
X240783904Y-64666857D01*
X240783904Y-64762095D01*
X240736285Y-64904952D01*
X240164857Y-65476380D01*
X240783904Y-65476380D01*
X261993142Y-70207142D02*
X261945523Y-70254761D01*
X261802666Y-70302380D01*
X261707428Y-70302380D01*
X261564571Y-70254761D01*
X261469333Y-70159523D01*
X261421714Y-70064285D01*
X261374095Y-69873809D01*
X261374095Y-69730952D01*
X261421714Y-69540476D01*
X261469333Y-69445238D01*
X261564571Y-69350000D01*
X261707428Y-69302380D01*
X261802666Y-69302380D01*
X261945523Y-69350000D01*
X261993142Y-69397619D01*
X262945523Y-70302380D02*
X262374095Y-70302380D01*
X262659809Y-70302380D02*
X262659809Y-69302380D01*
X262564571Y-69445238D01*
X262469333Y-69540476D01*
X262374095Y-69588095D01*
X263802666Y-69635714D02*
X263802666Y-70302380D01*
X263564571Y-69254761D02*
X263326476Y-69969047D01*
X263945523Y-69969047D01*
X242943142Y-63603142D02*
X242895523Y-63650761D01*
X242752666Y-63698380D01*
X242657428Y-63698380D01*
X242514571Y-63650761D01*
X242419333Y-63555523D01*
X242371714Y-63460285D01*
X242324095Y-63269809D01*
X242324095Y-63126952D01*
X242371714Y-62936476D01*
X242419333Y-62841238D01*
X242514571Y-62746000D01*
X242657428Y-62698380D01*
X242752666Y-62698380D01*
X242895523Y-62746000D01*
X242943142Y-62793619D01*
X243895523Y-63698380D02*
X243324095Y-63698380D01*
X243609809Y-63698380D02*
X243609809Y-62698380D01*
X243514571Y-62841238D01*
X243419333Y-62936476D01*
X243324095Y-62984095D01*
X244800285Y-62698380D02*
X244324095Y-62698380D01*
X244276476Y-63174571D01*
X244324095Y-63126952D01*
X244419333Y-63079333D01*
X244657428Y-63079333D01*
X244752666Y-63126952D01*
X244800285Y-63174571D01*
X244847904Y-63269809D01*
X244847904Y-63507904D01*
X244800285Y-63603142D01*
X244752666Y-63650761D01*
X244657428Y-63698380D01*
X244419333Y-63698380D01*
X244324095Y-63650761D01*
X244276476Y-63603142D01*
X226798142Y-81389457D02*
X226845761Y-81437076D01*
X226893380Y-81579933D01*
X226893380Y-81675171D01*
X226845761Y-81818028D01*
X226750523Y-81913266D01*
X226655285Y-81960885D01*
X226464809Y-82008504D01*
X226321952Y-82008504D01*
X226131476Y-81960885D01*
X226036238Y-81913266D01*
X225941000Y-81818028D01*
X225893380Y-81675171D01*
X225893380Y-81579933D01*
X225941000Y-81437076D01*
X225988619Y-81389457D01*
X226893380Y-80437076D02*
X226893380Y-81008504D01*
X226893380Y-80722790D02*
X225893380Y-80722790D01*
X226036238Y-80818028D01*
X226131476Y-80913266D01*
X226179095Y-81008504D01*
X225893380Y-79579933D02*
X225893380Y-79770409D01*
X225941000Y-79865647D01*
X225988619Y-79913266D01*
X226131476Y-80008504D01*
X226321952Y-80056123D01*
X226702904Y-80056123D01*
X226798142Y-80008504D01*
X226845761Y-79960885D01*
X226893380Y-79865647D01*
X226893380Y-79675171D01*
X226845761Y-79579933D01*
X226798142Y-79532314D01*
X226702904Y-79484695D01*
X226464809Y-79484695D01*
X226369571Y-79532314D01*
X226321952Y-79579933D01*
X226274333Y-79675171D01*
X226274333Y-79865647D01*
X226321952Y-79960885D01*
X226369571Y-80008504D01*
X226464809Y-80056123D01*
X220829142Y-81389457D02*
X220876761Y-81437076D01*
X220924380Y-81579933D01*
X220924380Y-81675171D01*
X220876761Y-81818028D01*
X220781523Y-81913266D01*
X220686285Y-81960885D01*
X220495809Y-82008504D01*
X220352952Y-82008504D01*
X220162476Y-81960885D01*
X220067238Y-81913266D01*
X219972000Y-81818028D01*
X219924380Y-81675171D01*
X219924380Y-81579933D01*
X219972000Y-81437076D01*
X220019619Y-81389457D01*
X220924380Y-80437076D02*
X220924380Y-81008504D01*
X220924380Y-80722790D02*
X219924380Y-80722790D01*
X220067238Y-80818028D01*
X220162476Y-80913266D01*
X220210095Y-81008504D01*
X219924380Y-80103742D02*
X219924380Y-79437076D01*
X220924380Y-79865647D01*
X266549142Y-69730857D02*
X266596761Y-69778476D01*
X266644380Y-69921333D01*
X266644380Y-70016571D01*
X266596761Y-70159428D01*
X266501523Y-70254666D01*
X266406285Y-70302285D01*
X266215809Y-70349904D01*
X266072952Y-70349904D01*
X265882476Y-70302285D01*
X265787238Y-70254666D01*
X265692000Y-70159428D01*
X265644380Y-70016571D01*
X265644380Y-69921333D01*
X265692000Y-69778476D01*
X265739619Y-69730857D01*
X266644380Y-68778476D02*
X266644380Y-69349904D01*
X266644380Y-69064190D02*
X265644380Y-69064190D01*
X265787238Y-69159428D01*
X265882476Y-69254666D01*
X265930095Y-69349904D01*
X266072952Y-68207047D02*
X266025333Y-68302285D01*
X265977714Y-68349904D01*
X265882476Y-68397523D01*
X265834857Y-68397523D01*
X265739619Y-68349904D01*
X265692000Y-68302285D01*
X265644380Y-68207047D01*
X265644380Y-68016571D01*
X265692000Y-67921333D01*
X265739619Y-67873714D01*
X265834857Y-67826095D01*
X265882476Y-67826095D01*
X265977714Y-67873714D01*
X266025333Y-67921333D01*
X266072952Y-68016571D01*
X266072952Y-68207047D01*
X266120571Y-68302285D01*
X266168190Y-68349904D01*
X266263428Y-68397523D01*
X266453904Y-68397523D01*
X266549142Y-68349904D01*
X266596761Y-68302285D01*
X266644380Y-68207047D01*
X266644380Y-68016571D01*
X266596761Y-67921333D01*
X266549142Y-67873714D01*
X266453904Y-67826095D01*
X266263428Y-67826095D01*
X266168190Y-67873714D01*
X266120571Y-67921333D01*
X266072952Y-68016571D01*
X271967428Y-78574952D02*
X271967428Y-77813047D01*
X272348380Y-78194000D02*
X271586476Y-78194000D01*
X261469142Y-83700857D02*
X261516761Y-83748476D01*
X261564380Y-83891333D01*
X261564380Y-83986571D01*
X261516761Y-84129428D01*
X261421523Y-84224666D01*
X261326285Y-84272285D01*
X261135809Y-84319904D01*
X260992952Y-84319904D01*
X260802476Y-84272285D01*
X260707238Y-84224666D01*
X260612000Y-84129428D01*
X260564380Y-83986571D01*
X260564380Y-83891333D01*
X260612000Y-83748476D01*
X260659619Y-83700857D01*
X261564380Y-82748476D02*
X261564380Y-83319904D01*
X261564380Y-83034190D02*
X260564380Y-83034190D01*
X260707238Y-83129428D01*
X260802476Y-83224666D01*
X260850095Y-83319904D01*
X261564380Y-82272285D02*
X261564380Y-82081809D01*
X261516761Y-81986571D01*
X261469142Y-81938952D01*
X261326285Y-81843714D01*
X261135809Y-81796095D01*
X260754857Y-81796095D01*
X260659619Y-81843714D01*
X260612000Y-81891333D01*
X260564380Y-81986571D01*
X260564380Y-82177047D01*
X260612000Y-82272285D01*
X260659619Y-82319904D01*
X260754857Y-82367523D01*
X260992952Y-82367523D01*
X261088190Y-82319904D01*
X261135809Y-82272285D01*
X261183428Y-82177047D01*
X261183428Y-81986571D01*
X261135809Y-81891333D01*
X261088190Y-81843714D01*
X260992952Y-81796095D01*
X263247142Y-101988857D02*
X263294761Y-102036476D01*
X263342380Y-102179333D01*
X263342380Y-102274571D01*
X263294761Y-102417428D01*
X263199523Y-102512666D01*
X263104285Y-102560285D01*
X262913809Y-102607904D01*
X262770952Y-102607904D01*
X262580476Y-102560285D01*
X262485238Y-102512666D01*
X262390000Y-102417428D01*
X262342380Y-102274571D01*
X262342380Y-102179333D01*
X262390000Y-102036476D01*
X262437619Y-101988857D01*
X262437619Y-101607904D02*
X262390000Y-101560285D01*
X262342380Y-101465047D01*
X262342380Y-101226952D01*
X262390000Y-101131714D01*
X262437619Y-101084095D01*
X262532857Y-101036476D01*
X262628095Y-101036476D01*
X262770952Y-101084095D01*
X263342380Y-101655523D01*
X263342380Y-101036476D01*
X262342380Y-100417428D02*
X262342380Y-100322190D01*
X262390000Y-100226952D01*
X262437619Y-100179333D01*
X262532857Y-100131714D01*
X262723333Y-100084095D01*
X262961428Y-100084095D01*
X263151904Y-100131714D01*
X263247142Y-100179333D01*
X263294761Y-100226952D01*
X263342380Y-100322190D01*
X263342380Y-100417428D01*
X263294761Y-100512666D01*
X263247142Y-100560285D01*
X263151904Y-100607904D01*
X262961428Y-100655523D01*
X262723333Y-100655523D01*
X262532857Y-100607904D01*
X262437619Y-100560285D01*
X262390000Y-100512666D01*
X262342380Y-100417428D01*
X261469142Y-101988857D02*
X261516761Y-102036476D01*
X261564380Y-102179333D01*
X261564380Y-102274571D01*
X261516761Y-102417428D01*
X261421523Y-102512666D01*
X261326285Y-102560285D01*
X261135809Y-102607904D01*
X260992952Y-102607904D01*
X260802476Y-102560285D01*
X260707238Y-102512666D01*
X260612000Y-102417428D01*
X260564380Y-102274571D01*
X260564380Y-102179333D01*
X260612000Y-102036476D01*
X260659619Y-101988857D01*
X260659619Y-101607904D02*
X260612000Y-101560285D01*
X260564380Y-101465047D01*
X260564380Y-101226952D01*
X260612000Y-101131714D01*
X260659619Y-101084095D01*
X260754857Y-101036476D01*
X260850095Y-101036476D01*
X260992952Y-101084095D01*
X261564380Y-101655523D01*
X261564380Y-101036476D01*
X261564380Y-100084095D02*
X261564380Y-100655523D01*
X261564380Y-100369809D02*
X260564380Y-100369809D01*
X260707238Y-100465047D01*
X260802476Y-100560285D01*
X260850095Y-100655523D01*
X259437142Y-83700857D02*
X259484761Y-83748476D01*
X259532380Y-83891333D01*
X259532380Y-83986571D01*
X259484761Y-84129428D01*
X259389523Y-84224666D01*
X259294285Y-84272285D01*
X259103809Y-84319904D01*
X258960952Y-84319904D01*
X258770476Y-84272285D01*
X258675238Y-84224666D01*
X258580000Y-84129428D01*
X258532380Y-83986571D01*
X258532380Y-83891333D01*
X258580000Y-83748476D01*
X258627619Y-83700857D01*
X258627619Y-83319904D02*
X258580000Y-83272285D01*
X258532380Y-83177047D01*
X258532380Y-82938952D01*
X258580000Y-82843714D01*
X258627619Y-82796095D01*
X258722857Y-82748476D01*
X258818095Y-82748476D01*
X258960952Y-82796095D01*
X259532380Y-83367523D01*
X259532380Y-82748476D01*
X258627619Y-82367523D02*
X258580000Y-82319904D01*
X258532380Y-82224666D01*
X258532380Y-81986571D01*
X258580000Y-81891333D01*
X258627619Y-81843714D01*
X258722857Y-81796095D01*
X258818095Y-81796095D01*
X258960952Y-81843714D01*
X259532380Y-82415142D01*
X259532380Y-81796095D01*
X201779142Y-85478857D02*
X201826761Y-85526476D01*
X201874380Y-85669333D01*
X201874380Y-85764571D01*
X201826761Y-85907428D01*
X201731523Y-86002666D01*
X201636285Y-86050285D01*
X201445809Y-86097904D01*
X201302952Y-86097904D01*
X201112476Y-86050285D01*
X201017238Y-86002666D01*
X200922000Y-85907428D01*
X200874380Y-85764571D01*
X200874380Y-85669333D01*
X200922000Y-85526476D01*
X200969619Y-85478857D01*
X200969619Y-85097904D02*
X200922000Y-85050285D01*
X200874380Y-84955047D01*
X200874380Y-84716952D01*
X200922000Y-84621714D01*
X200969619Y-84574095D01*
X201064857Y-84526476D01*
X201160095Y-84526476D01*
X201302952Y-84574095D01*
X201874380Y-85145523D01*
X201874380Y-84526476D01*
X200874380Y-84193142D02*
X200874380Y-83574095D01*
X201255333Y-83907428D01*
X201255333Y-83764571D01*
X201302952Y-83669333D01*
X201350571Y-83621714D01*
X201445809Y-83574095D01*
X201683904Y-83574095D01*
X201779142Y-83621714D01*
X201826761Y-83669333D01*
X201874380Y-83764571D01*
X201874380Y-84050285D01*
X201826761Y-84145523D01*
X201779142Y-84193142D01*
X264279142Y-91162142D02*
X264231523Y-91209761D01*
X264088666Y-91257380D01*
X263993428Y-91257380D01*
X263850571Y-91209761D01*
X263755333Y-91114523D01*
X263707714Y-91019285D01*
X263660095Y-90828809D01*
X263660095Y-90685952D01*
X263707714Y-90495476D01*
X263755333Y-90400238D01*
X263850571Y-90305000D01*
X263993428Y-90257380D01*
X264088666Y-90257380D01*
X264231523Y-90305000D01*
X264279142Y-90352619D01*
X264660095Y-90352619D02*
X264707714Y-90305000D01*
X264802952Y-90257380D01*
X265041047Y-90257380D01*
X265136285Y-90305000D01*
X265183904Y-90352619D01*
X265231523Y-90447857D01*
X265231523Y-90543095D01*
X265183904Y-90685952D01*
X264612476Y-91257380D01*
X265231523Y-91257380D01*
X266088666Y-90590714D02*
X266088666Y-91257380D01*
X265850571Y-90209761D02*
X265612476Y-90924047D01*
X266231523Y-90924047D01*
X267581142Y-91162142D02*
X267533523Y-91209761D01*
X267390666Y-91257380D01*
X267295428Y-91257380D01*
X267152571Y-91209761D01*
X267057333Y-91114523D01*
X267009714Y-91019285D01*
X266962095Y-90828809D01*
X266962095Y-90685952D01*
X267009714Y-90495476D01*
X267057333Y-90400238D01*
X267152571Y-90305000D01*
X267295428Y-90257380D01*
X267390666Y-90257380D01*
X267533523Y-90305000D01*
X267581142Y-90352619D01*
X267962095Y-90352619D02*
X268009714Y-90305000D01*
X268104952Y-90257380D01*
X268343047Y-90257380D01*
X268438285Y-90305000D01*
X268485904Y-90352619D01*
X268533523Y-90447857D01*
X268533523Y-90543095D01*
X268485904Y-90685952D01*
X267914476Y-91257380D01*
X268533523Y-91257380D01*
X269438285Y-90257380D02*
X268962095Y-90257380D01*
X268914476Y-90733571D01*
X268962095Y-90685952D01*
X269057333Y-90638333D01*
X269295428Y-90638333D01*
X269390666Y-90685952D01*
X269438285Y-90733571D01*
X269485904Y-90828809D01*
X269485904Y-91066904D01*
X269438285Y-91162142D01*
X269390666Y-91209761D01*
X269295428Y-91257380D01*
X269057333Y-91257380D01*
X268962095Y-91209761D01*
X268914476Y-91162142D01*
X225171142Y-67952857D02*
X225218761Y-68000476D01*
X225266380Y-68143333D01*
X225266380Y-68238571D01*
X225218761Y-68381428D01*
X225123523Y-68476666D01*
X225028285Y-68524285D01*
X224837809Y-68571904D01*
X224694952Y-68571904D01*
X224504476Y-68524285D01*
X224409238Y-68476666D01*
X224314000Y-68381428D01*
X224266380Y-68238571D01*
X224266380Y-68143333D01*
X224314000Y-68000476D01*
X224361619Y-67952857D01*
X224361619Y-67571904D02*
X224314000Y-67524285D01*
X224266380Y-67429047D01*
X224266380Y-67190952D01*
X224314000Y-67095714D01*
X224361619Y-67048095D01*
X224456857Y-67000476D01*
X224552095Y-67000476D01*
X224694952Y-67048095D01*
X225266380Y-67619523D01*
X225266380Y-67000476D01*
X224266380Y-66143333D02*
X224266380Y-66333809D01*
X224314000Y-66429047D01*
X224361619Y-66476666D01*
X224504476Y-66571904D01*
X224694952Y-66619523D01*
X225075904Y-66619523D01*
X225171142Y-66571904D01*
X225218761Y-66524285D01*
X225266380Y-66429047D01*
X225266380Y-66238571D01*
X225218761Y-66143333D01*
X225171142Y-66095714D01*
X225075904Y-66048095D01*
X224837809Y-66048095D01*
X224742571Y-66095714D01*
X224694952Y-66143333D01*
X224647333Y-66238571D01*
X224647333Y-66429047D01*
X224694952Y-66524285D01*
X224742571Y-66571904D01*
X224837809Y-66619523D01*
X272264142Y-84970857D02*
X272311761Y-85018476D01*
X272359380Y-85161333D01*
X272359380Y-85256571D01*
X272311761Y-85399428D01*
X272216523Y-85494666D01*
X272121285Y-85542285D01*
X271930809Y-85589904D01*
X271787952Y-85589904D01*
X271597476Y-85542285D01*
X271502238Y-85494666D01*
X271407000Y-85399428D01*
X271359380Y-85256571D01*
X271359380Y-85161333D01*
X271407000Y-85018476D01*
X271454619Y-84970857D01*
X271454619Y-84589904D02*
X271407000Y-84542285D01*
X271359380Y-84447047D01*
X271359380Y-84208952D01*
X271407000Y-84113714D01*
X271454619Y-84066095D01*
X271549857Y-84018476D01*
X271645095Y-84018476D01*
X271787952Y-84066095D01*
X272359380Y-84637523D01*
X272359380Y-84018476D01*
X271359380Y-83685142D02*
X271359380Y-83018476D01*
X272359380Y-83447047D01*
X239641142Y-61341142D02*
X239593523Y-61388761D01*
X239450666Y-61436380D01*
X239355428Y-61436380D01*
X239212571Y-61388761D01*
X239117333Y-61293523D01*
X239069714Y-61198285D01*
X239022095Y-61007809D01*
X239022095Y-60864952D01*
X239069714Y-60674476D01*
X239117333Y-60579238D01*
X239212571Y-60484000D01*
X239355428Y-60436380D01*
X239450666Y-60436380D01*
X239593523Y-60484000D01*
X239641142Y-60531619D01*
X240022095Y-60531619D02*
X240069714Y-60484000D01*
X240164952Y-60436380D01*
X240403047Y-60436380D01*
X240498285Y-60484000D01*
X240545904Y-60531619D01*
X240593523Y-60626857D01*
X240593523Y-60722095D01*
X240545904Y-60864952D01*
X239974476Y-61436380D01*
X240593523Y-61436380D01*
X241164952Y-60864952D02*
X241069714Y-60817333D01*
X241022095Y-60769714D01*
X240974476Y-60674476D01*
X240974476Y-60626857D01*
X241022095Y-60531619D01*
X241069714Y-60484000D01*
X241164952Y-60436380D01*
X241355428Y-60436380D01*
X241450666Y-60484000D01*
X241498285Y-60531619D01*
X241545904Y-60626857D01*
X241545904Y-60674476D01*
X241498285Y-60769714D01*
X241450666Y-60817333D01*
X241355428Y-60864952D01*
X241164952Y-60864952D01*
X241069714Y-60912571D01*
X241022095Y-60960190D01*
X240974476Y-61055428D01*
X240974476Y-61245904D01*
X241022095Y-61341142D01*
X241069714Y-61388761D01*
X241164952Y-61436380D01*
X241355428Y-61436380D01*
X241450666Y-61388761D01*
X241498285Y-61341142D01*
X241545904Y-61245904D01*
X241545904Y-61055428D01*
X241498285Y-60960190D01*
X241450666Y-60912571D01*
X241355428Y-60864952D01*
X272670542Y-50376057D02*
X272718161Y-50423676D01*
X272765780Y-50566533D01*
X272765780Y-50661771D01*
X272718161Y-50804628D01*
X272622923Y-50899866D01*
X272527685Y-50947485D01*
X272337209Y-50995104D01*
X272194352Y-50995104D01*
X272003876Y-50947485D01*
X271908638Y-50899866D01*
X271813400Y-50804628D01*
X271765780Y-50661771D01*
X271765780Y-50566533D01*
X271813400Y-50423676D01*
X271861019Y-50376057D01*
X271861019Y-49995104D02*
X271813400Y-49947485D01*
X271765780Y-49852247D01*
X271765780Y-49614152D01*
X271813400Y-49518914D01*
X271861019Y-49471295D01*
X271956257Y-49423676D01*
X272051495Y-49423676D01*
X272194352Y-49471295D01*
X272765780Y-50042723D01*
X272765780Y-49423676D01*
X272765780Y-48947485D02*
X272765780Y-48757009D01*
X272718161Y-48661771D01*
X272670542Y-48614152D01*
X272527685Y-48518914D01*
X272337209Y-48471295D01*
X271956257Y-48471295D01*
X271861019Y-48518914D01*
X271813400Y-48566533D01*
X271765780Y-48661771D01*
X271765780Y-48852247D01*
X271813400Y-48947485D01*
X271861019Y-48995104D01*
X271956257Y-49042723D01*
X272194352Y-49042723D01*
X272289590Y-48995104D01*
X272337209Y-48947485D01*
X272384828Y-48852247D01*
X272384828Y-48661771D01*
X272337209Y-48566533D01*
X272289590Y-48518914D01*
X272194352Y-48471295D01*
X271129228Y-54394152D02*
X271129228Y-53632247D01*
X271510180Y-54013200D02*
X270748276Y-54013200D01*
X272695942Y-59824857D02*
X272743561Y-59872476D01*
X272791180Y-60015333D01*
X272791180Y-60110571D01*
X272743561Y-60253428D01*
X272648323Y-60348666D01*
X272553085Y-60396285D01*
X272362609Y-60443904D01*
X272219752Y-60443904D01*
X272029276Y-60396285D01*
X271934038Y-60348666D01*
X271838800Y-60253428D01*
X271791180Y-60110571D01*
X271791180Y-60015333D01*
X271838800Y-59872476D01*
X271886419Y-59824857D01*
X271791180Y-59491523D02*
X271791180Y-58872476D01*
X272172133Y-59205809D01*
X272172133Y-59062952D01*
X272219752Y-58967714D01*
X272267371Y-58920095D01*
X272362609Y-58872476D01*
X272600704Y-58872476D01*
X272695942Y-58920095D01*
X272743561Y-58967714D01*
X272791180Y-59062952D01*
X272791180Y-59348666D01*
X272743561Y-59443904D01*
X272695942Y-59491523D01*
X271791180Y-58253428D02*
X271791180Y-58158190D01*
X271838800Y-58062952D01*
X271886419Y-58015333D01*
X271981657Y-57967714D01*
X272172133Y-57920095D01*
X272410228Y-57920095D01*
X272600704Y-57967714D01*
X272695942Y-58015333D01*
X272743561Y-58062952D01*
X272791180Y-58158190D01*
X272791180Y-58253428D01*
X272743561Y-58348666D01*
X272695942Y-58396285D01*
X272600704Y-58443904D01*
X272410228Y-58491523D01*
X272172133Y-58491523D01*
X271981657Y-58443904D01*
X271886419Y-58396285D01*
X271838800Y-58348666D01*
X271791180Y-58253428D01*
X271129228Y-63842952D02*
X271129228Y-63081047D01*
X271510180Y-63462000D02*
X270748276Y-63462000D01*
X242943142Y-60809142D02*
X242895523Y-60856761D01*
X242752666Y-60904380D01*
X242657428Y-60904380D01*
X242514571Y-60856761D01*
X242419333Y-60761523D01*
X242371714Y-60666285D01*
X242324095Y-60475809D01*
X242324095Y-60332952D01*
X242371714Y-60142476D01*
X242419333Y-60047238D01*
X242514571Y-59952000D01*
X242657428Y-59904380D01*
X242752666Y-59904380D01*
X242895523Y-59952000D01*
X242943142Y-59999619D01*
X243276476Y-59904380D02*
X243895523Y-59904380D01*
X243562190Y-60285333D01*
X243705047Y-60285333D01*
X243800285Y-60332952D01*
X243847904Y-60380571D01*
X243895523Y-60475809D01*
X243895523Y-60713904D01*
X243847904Y-60809142D01*
X243800285Y-60856761D01*
X243705047Y-60904380D01*
X243419333Y-60904380D01*
X243324095Y-60856761D01*
X243276476Y-60809142D01*
X244847904Y-60904380D02*
X244276476Y-60904380D01*
X244562190Y-60904380D02*
X244562190Y-59904380D01*
X244466952Y-60047238D01*
X244371714Y-60142476D01*
X244276476Y-60190095D01*
X199747142Y-85478857D02*
X199794761Y-85526476D01*
X199842380Y-85669333D01*
X199842380Y-85764571D01*
X199794761Y-85907428D01*
X199699523Y-86002666D01*
X199604285Y-86050285D01*
X199413809Y-86097904D01*
X199270952Y-86097904D01*
X199080476Y-86050285D01*
X198985238Y-86002666D01*
X198890000Y-85907428D01*
X198842380Y-85764571D01*
X198842380Y-85669333D01*
X198890000Y-85526476D01*
X198937619Y-85478857D01*
X198842380Y-85145523D02*
X198842380Y-84526476D01*
X199223333Y-84859809D01*
X199223333Y-84716952D01*
X199270952Y-84621714D01*
X199318571Y-84574095D01*
X199413809Y-84526476D01*
X199651904Y-84526476D01*
X199747142Y-84574095D01*
X199794761Y-84621714D01*
X199842380Y-84716952D01*
X199842380Y-85002666D01*
X199794761Y-85097904D01*
X199747142Y-85145523D01*
X198937619Y-84145523D02*
X198890000Y-84097904D01*
X198842380Y-84002666D01*
X198842380Y-83764571D01*
X198890000Y-83669333D01*
X198937619Y-83621714D01*
X199032857Y-83574095D01*
X199128095Y-83574095D01*
X199270952Y-83621714D01*
X199842380Y-84193142D01*
X199842380Y-83574095D01*
X180363904Y-67921380D02*
X180363904Y-66921380D01*
X180602000Y-66921380D01*
X180744857Y-66969000D01*
X180840095Y-67064238D01*
X180887714Y-67159476D01*
X180935333Y-67349952D01*
X180935333Y-67492809D01*
X180887714Y-67683285D01*
X180840095Y-67778523D01*
X180744857Y-67873761D01*
X180602000Y-67921380D01*
X180363904Y-67921380D01*
X181887714Y-67921380D02*
X181316285Y-67921380D01*
X181602000Y-67921380D02*
X181602000Y-66921380D01*
X181506761Y-67064238D01*
X181411523Y-67159476D01*
X181316285Y-67207095D01*
X178506380Y-96623095D02*
X177506380Y-96623095D01*
X177506380Y-96385000D01*
X177554000Y-96242142D01*
X177649238Y-96146904D01*
X177744476Y-96099285D01*
X177934952Y-96051666D01*
X178077809Y-96051666D01*
X178268285Y-96099285D01*
X178363523Y-96146904D01*
X178458761Y-96242142D01*
X178506380Y-96385000D01*
X178506380Y-96623095D01*
X177601619Y-95670714D02*
X177554000Y-95623095D01*
X177506380Y-95527857D01*
X177506380Y-95289761D01*
X177554000Y-95194523D01*
X177601619Y-95146904D01*
X177696857Y-95099285D01*
X177792095Y-95099285D01*
X177934952Y-95146904D01*
X178506380Y-95718333D01*
X178506380Y-95099285D01*
X181125904Y-126436380D02*
X181125904Y-125436380D01*
X181364000Y-125436380D01*
X181506857Y-125484000D01*
X181602095Y-125579238D01*
X181649714Y-125674476D01*
X181697333Y-125864952D01*
X181697333Y-126007809D01*
X181649714Y-126198285D01*
X181602095Y-126293523D01*
X181506857Y-126388761D01*
X181364000Y-126436380D01*
X181125904Y-126436380D01*
X182554476Y-125769714D02*
X182554476Y-126436380D01*
X182316380Y-125388761D02*
X182078285Y-126103047D01*
X182697333Y-126103047D01*
X191285904Y-126436380D02*
X191285904Y-125436380D01*
X191524000Y-125436380D01*
X191666857Y-125484000D01*
X191762095Y-125579238D01*
X191809714Y-125674476D01*
X191857333Y-125864952D01*
X191857333Y-126007809D01*
X191809714Y-126198285D01*
X191762095Y-126293523D01*
X191666857Y-126388761D01*
X191524000Y-126436380D01*
X191285904Y-126436380D01*
X192762095Y-125436380D02*
X192285904Y-125436380D01*
X192238285Y-125912571D01*
X192285904Y-125864952D01*
X192381142Y-125817333D01*
X192619238Y-125817333D01*
X192714476Y-125864952D01*
X192762095Y-125912571D01*
X192809714Y-126007809D01*
X192809714Y-126245904D01*
X192762095Y-126341142D01*
X192714476Y-126388761D01*
X192619238Y-126436380D01*
X192381142Y-126436380D01*
X192285904Y-126388761D01*
X192238285Y-126341142D01*
X201699904Y-126436380D02*
X201699904Y-125436380D01*
X201938000Y-125436380D01*
X202080857Y-125484000D01*
X202176095Y-125579238D01*
X202223714Y-125674476D01*
X202271333Y-125864952D01*
X202271333Y-126007809D01*
X202223714Y-126198285D01*
X202176095Y-126293523D01*
X202080857Y-126388761D01*
X201938000Y-126436380D01*
X201699904Y-126436380D01*
X203128476Y-125436380D02*
X202938000Y-125436380D01*
X202842761Y-125484000D01*
X202795142Y-125531619D01*
X202699904Y-125674476D01*
X202652285Y-125864952D01*
X202652285Y-126245904D01*
X202699904Y-126341142D01*
X202747523Y-126388761D01*
X202842761Y-126436380D01*
X203033238Y-126436380D01*
X203128476Y-126388761D01*
X203176095Y-126341142D01*
X203223714Y-126245904D01*
X203223714Y-126007809D01*
X203176095Y-125912571D01*
X203128476Y-125864952D01*
X203033238Y-125817333D01*
X202842761Y-125817333D01*
X202747523Y-125864952D01*
X202699904Y-125912571D01*
X202652285Y-126007809D01*
X211351904Y-126436380D02*
X211351904Y-125436380D01*
X211590000Y-125436380D01*
X211732857Y-125484000D01*
X211828095Y-125579238D01*
X211875714Y-125674476D01*
X211923333Y-125864952D01*
X211923333Y-126007809D01*
X211875714Y-126198285D01*
X211828095Y-126293523D01*
X211732857Y-126388761D01*
X211590000Y-126436380D01*
X211351904Y-126436380D01*
X212256666Y-125436380D02*
X212923333Y-125436380D01*
X212494761Y-126436380D01*
X221765904Y-126436380D02*
X221765904Y-125436380D01*
X222004000Y-125436380D01*
X222146857Y-125484000D01*
X222242095Y-125579238D01*
X222289714Y-125674476D01*
X222337333Y-125864952D01*
X222337333Y-126007809D01*
X222289714Y-126198285D01*
X222242095Y-126293523D01*
X222146857Y-126388761D01*
X222004000Y-126436380D01*
X221765904Y-126436380D01*
X222908761Y-125864952D02*
X222813523Y-125817333D01*
X222765904Y-125769714D01*
X222718285Y-125674476D01*
X222718285Y-125626857D01*
X222765904Y-125531619D01*
X222813523Y-125484000D01*
X222908761Y-125436380D01*
X223099238Y-125436380D01*
X223194476Y-125484000D01*
X223242095Y-125531619D01*
X223289714Y-125626857D01*
X223289714Y-125674476D01*
X223242095Y-125769714D01*
X223194476Y-125817333D01*
X223099238Y-125864952D01*
X222908761Y-125864952D01*
X222813523Y-125912571D01*
X222765904Y-125960190D01*
X222718285Y-126055428D01*
X222718285Y-126245904D01*
X222765904Y-126341142D01*
X222813523Y-126388761D01*
X222908761Y-126436380D01*
X223099238Y-126436380D01*
X223194476Y-126388761D01*
X223242095Y-126341142D01*
X223289714Y-126245904D01*
X223289714Y-126055428D01*
X223242095Y-125960190D01*
X223194476Y-125912571D01*
X223099238Y-125864952D01*
X231925904Y-126436380D02*
X231925904Y-125436380D01*
X232164000Y-125436380D01*
X232306857Y-125484000D01*
X232402095Y-125579238D01*
X232449714Y-125674476D01*
X232497333Y-125864952D01*
X232497333Y-126007809D01*
X232449714Y-126198285D01*
X232402095Y-126293523D01*
X232306857Y-126388761D01*
X232164000Y-126436380D01*
X231925904Y-126436380D01*
X232973523Y-126436380D02*
X233164000Y-126436380D01*
X233259238Y-126388761D01*
X233306857Y-126341142D01*
X233402095Y-126198285D01*
X233449714Y-126007809D01*
X233449714Y-125626857D01*
X233402095Y-125531619D01*
X233354476Y-125484000D01*
X233259238Y-125436380D01*
X233068761Y-125436380D01*
X232973523Y-125484000D01*
X232925904Y-125531619D01*
X232878285Y-125626857D01*
X232878285Y-125864952D01*
X232925904Y-125960190D01*
X232973523Y-126007809D01*
X233068761Y-126055428D01*
X233259238Y-126055428D01*
X233354476Y-126007809D01*
X233402095Y-125960190D01*
X233449714Y-125864952D01*
X242371714Y-126436380D02*
X242371714Y-125436380D01*
X242609809Y-125436380D01*
X242752666Y-125484000D01*
X242847904Y-125579238D01*
X242895523Y-125674476D01*
X242943142Y-125864952D01*
X242943142Y-126007809D01*
X242895523Y-126198285D01*
X242847904Y-126293523D01*
X242752666Y-126388761D01*
X242609809Y-126436380D01*
X242371714Y-126436380D01*
X243895523Y-126436380D02*
X243324095Y-126436380D01*
X243609809Y-126436380D02*
X243609809Y-125436380D01*
X243514571Y-125579238D01*
X243419333Y-125674476D01*
X243324095Y-125722095D01*
X244514571Y-125436380D02*
X244609809Y-125436380D01*
X244705047Y-125484000D01*
X244752666Y-125531619D01*
X244800285Y-125626857D01*
X244847904Y-125817333D01*
X244847904Y-126055428D01*
X244800285Y-126245904D01*
X244752666Y-126341142D01*
X244705047Y-126388761D01*
X244609809Y-126436380D01*
X244514571Y-126436380D01*
X244419333Y-126388761D01*
X244371714Y-126341142D01*
X244324095Y-126245904D01*
X244276476Y-126055428D01*
X244276476Y-125817333D01*
X244324095Y-125626857D01*
X244371714Y-125531619D01*
X244419333Y-125484000D01*
X244514571Y-125436380D01*
X252277714Y-126436380D02*
X252277714Y-125436380D01*
X252515809Y-125436380D01*
X252658666Y-125484000D01*
X252753904Y-125579238D01*
X252801523Y-125674476D01*
X252849142Y-125864952D01*
X252849142Y-126007809D01*
X252801523Y-126198285D01*
X252753904Y-126293523D01*
X252658666Y-126388761D01*
X252515809Y-126436380D01*
X252277714Y-126436380D01*
X253801523Y-126436380D02*
X253230095Y-126436380D01*
X253515809Y-126436380D02*
X253515809Y-125436380D01*
X253420571Y-125579238D01*
X253325333Y-125674476D01*
X253230095Y-125722095D01*
X254753904Y-126436380D02*
X254182476Y-126436380D01*
X254468190Y-126436380D02*
X254468190Y-125436380D01*
X254372952Y-125579238D01*
X254277714Y-125674476D01*
X254182476Y-125722095D01*
D10*
X185174000Y-61408571D02*
X185174000Y-62480000D01*
X185102571Y-62694285D01*
X184959714Y-62837142D01*
X184745428Y-62908571D01*
X184602571Y-62908571D01*
X186674000Y-62908571D02*
X185816857Y-62908571D01*
X186245428Y-62908571D02*
X186245428Y-61408571D01*
X186102571Y-61622857D01*
X185959714Y-61765714D01*
X185816857Y-61837142D01*
X179831942Y-54145571D02*
X179831942Y-52645571D01*
X180189085Y-52645571D01*
X180403371Y-52717000D01*
X180546228Y-52859857D01*
X180617657Y-53002714D01*
X180689085Y-53288428D01*
X180689085Y-53502714D01*
X180617657Y-53788428D01*
X180546228Y-53931285D01*
X180403371Y-54074142D01*
X180189085Y-54145571D01*
X179831942Y-54145571D01*
X181331942Y-54145571D02*
X181331942Y-52645571D01*
X182046228Y-54145571D02*
X182046228Y-52645571D01*
X182903371Y-54145571D01*
X182903371Y-52645571D01*
X183617657Y-53574142D02*
X184760514Y-53574142D01*
X186189085Y-52645571D02*
X185474800Y-52645571D01*
X185403371Y-53359857D01*
X185474800Y-53288428D01*
X185617657Y-53217000D01*
X185974800Y-53217000D01*
X186117657Y-53288428D01*
X186189085Y-53359857D01*
X186260514Y-53502714D01*
X186260514Y-53859857D01*
X186189085Y-54002714D01*
X186117657Y-54074142D01*
X185974800Y-54145571D01*
X185617657Y-54145571D01*
X185474800Y-54074142D01*
X185403371Y-54002714D01*
X186546228Y-54288428D02*
X187689085Y-54288428D01*
X188831942Y-54145571D02*
X187974800Y-54145571D01*
X188403371Y-54145571D02*
X188403371Y-52645571D01*
X188260514Y-52859857D01*
X188117657Y-53002714D01*
X187974800Y-53074142D01*
X189689085Y-53288428D02*
X189546228Y-53217000D01*
X189474800Y-53145571D01*
X189403371Y-53002714D01*
X189403371Y-52931285D01*
X189474800Y-52788428D01*
X189546228Y-52717000D01*
X189689085Y-52645571D01*
X189974800Y-52645571D01*
X190117657Y-52717000D01*
X190189085Y-52788428D01*
X190260514Y-52931285D01*
X190260514Y-53002714D01*
X190189085Y-53145571D01*
X190117657Y-53217000D01*
X189974800Y-53288428D01*
X189689085Y-53288428D01*
X189546228Y-53359857D01*
X189474800Y-53431285D01*
X189403371Y-53574142D01*
X189403371Y-53859857D01*
X189474800Y-54002714D01*
X189546228Y-54074142D01*
X189689085Y-54145571D01*
X189974800Y-54145571D01*
X190117657Y-54074142D01*
X190189085Y-54002714D01*
X190260514Y-53859857D01*
X190260514Y-53574142D01*
X190189085Y-53431285D01*
X190117657Y-53359857D01*
X189974800Y-53288428D01*
X191189085Y-52645571D02*
X191331942Y-52645571D01*
X191474800Y-52717000D01*
X191546228Y-52788428D01*
X191617657Y-52931285D01*
X191689085Y-53217000D01*
X191689085Y-53574142D01*
X191617657Y-53859857D01*
X191546228Y-54002714D01*
X191474800Y-54074142D01*
X191331942Y-54145571D01*
X191189085Y-54145571D01*
X191046228Y-54074142D01*
X190974800Y-54002714D01*
X190903371Y-53859857D01*
X190831942Y-53574142D01*
X190831942Y-53217000D01*
X190903371Y-52931285D01*
X190974800Y-52788428D01*
X191046228Y-52717000D01*
X191189085Y-52645571D01*
D11*
X174117095Y-53939000D02*
X174021857Y-53891380D01*
X173879000Y-53891380D01*
X173736142Y-53939000D01*
X173640904Y-54034238D01*
X173593285Y-54129476D01*
X173545666Y-54319952D01*
X173545666Y-54462809D01*
X173593285Y-54653285D01*
X173640904Y-54748523D01*
X173736142Y-54843761D01*
X173879000Y-54891380D01*
X173974238Y-54891380D01*
X174117095Y-54843761D01*
X174164714Y-54796142D01*
X174164714Y-54462809D01*
X173974238Y-54462809D01*
X174593285Y-54891380D02*
X174593285Y-53891380D01*
X175164714Y-54891380D01*
X175164714Y-53891380D01*
X175640904Y-54891380D02*
X175640904Y-53891380D01*
X175879000Y-53891380D01*
X176021857Y-53939000D01*
X176117095Y-54034238D01*
X176164714Y-54129476D01*
X176212333Y-54319952D01*
X176212333Y-54462809D01*
X176164714Y-54653285D01*
X176117095Y-54748523D01*
X176021857Y-54843761D01*
X175879000Y-54891380D01*
X175640904Y-54891380D01*
X209267466Y-48473380D02*
X209267466Y-49187666D01*
X209219847Y-49330523D01*
X209124609Y-49425761D01*
X208981752Y-49473380D01*
X208886514Y-49473380D01*
X209648419Y-48473380D02*
X210267466Y-48473380D01*
X209934133Y-48854333D01*
X210076990Y-48854333D01*
X210172228Y-48901952D01*
X210219847Y-48949571D01*
X210267466Y-49044809D01*
X210267466Y-49282904D01*
X210219847Y-49378142D01*
X210172228Y-49425761D01*
X210076990Y-49473380D01*
X209791276Y-49473380D01*
X209696038Y-49425761D01*
X209648419Y-49378142D01*
X224964666Y-46340780D02*
X224964666Y-47055066D01*
X224917047Y-47197923D01*
X224821809Y-47293161D01*
X224678952Y-47340780D01*
X224583714Y-47340780D01*
X225917047Y-46340780D02*
X225440857Y-46340780D01*
X225393238Y-46816971D01*
X225440857Y-46769352D01*
X225536095Y-46721733D01*
X225774190Y-46721733D01*
X225869428Y-46769352D01*
X225917047Y-46816971D01*
X225964666Y-46912209D01*
X225964666Y-47150304D01*
X225917047Y-47245542D01*
X225869428Y-47293161D01*
X225774190Y-47340780D01*
X225536095Y-47340780D01*
X225440857Y-47293161D01*
X225393238Y-47245542D01*
X244255966Y-57758080D02*
X244255966Y-58472366D01*
X244208347Y-58615223D01*
X244113109Y-58710461D01*
X243970252Y-58758080D01*
X243875014Y-58758080D01*
X244636919Y-57758080D02*
X245303585Y-57758080D01*
X244875014Y-58758080D01*
X177985680Y-87910966D02*
X177985680Y-88387157D01*
X176985680Y-88387157D01*
X177985680Y-87053823D02*
X177985680Y-87625252D01*
X177985680Y-87339538D02*
X176985680Y-87339538D01*
X177128538Y-87434776D01*
X177223776Y-87530014D01*
X177271395Y-87625252D01*
X218003380Y-52617666D02*
X217527190Y-52951000D01*
X218003380Y-53189095D02*
X217003380Y-53189095D01*
X217003380Y-52808142D01*
X217051000Y-52712904D01*
X217098619Y-52665285D01*
X217193857Y-52617666D01*
X217336714Y-52617666D01*
X217431952Y-52665285D01*
X217479571Y-52712904D01*
X217527190Y-52808142D01*
X217527190Y-53189095D01*
X218003380Y-51665285D02*
X218003380Y-52236714D01*
X218003380Y-51951000D02*
X217003380Y-51951000D01*
X217146238Y-52046238D01*
X217241476Y-52141476D01*
X217289095Y-52236714D01*
X175331380Y-75223666D02*
X174855190Y-75557000D01*
X175331380Y-75795095D02*
X174331380Y-75795095D01*
X174331380Y-75414142D01*
X174379000Y-75318904D01*
X174426619Y-75271285D01*
X174521857Y-75223666D01*
X174664714Y-75223666D01*
X174759952Y-75271285D01*
X174807571Y-75318904D01*
X174855190Y-75414142D01*
X174855190Y-75795095D01*
X174426619Y-74842714D02*
X174379000Y-74795095D01*
X174331380Y-74699857D01*
X174331380Y-74461761D01*
X174379000Y-74366523D01*
X174426619Y-74318904D01*
X174521857Y-74271285D01*
X174617095Y-74271285D01*
X174759952Y-74318904D01*
X175331380Y-74890333D01*
X175331380Y-74271285D01*
X227804993Y-111684304D02*
X227906008Y-111111884D01*
X227400932Y-111280243D02*
X228108038Y-110573136D01*
X228377413Y-110842510D01*
X228411084Y-110943525D01*
X228411084Y-111010869D01*
X228377413Y-111111884D01*
X228276397Y-111212899D01*
X228175382Y-111246571D01*
X228108038Y-111246571D01*
X228007023Y-111212899D01*
X227737649Y-110943525D01*
X228747802Y-111212899D02*
X229185535Y-111650632D01*
X228680458Y-111684304D01*
X228781474Y-111785319D01*
X228815145Y-111886335D01*
X228815145Y-111953678D01*
X228781474Y-112054693D01*
X228613115Y-112223052D01*
X228512100Y-112256724D01*
X228444756Y-112256724D01*
X228343741Y-112223052D01*
X228141710Y-112021022D01*
X228108038Y-111920006D01*
X228108038Y-111852663D01*
X207969267Y-91134031D02*
X208070282Y-90561611D01*
X207565206Y-90729970D02*
X208272312Y-90022863D01*
X208541687Y-90292237D01*
X208575358Y-90393252D01*
X208575358Y-90460596D01*
X208541687Y-90561611D01*
X208440671Y-90662626D01*
X208339656Y-90696298D01*
X208272312Y-90696298D01*
X208171297Y-90662626D01*
X207901923Y-90393252D01*
X209046763Y-91268718D02*
X208575358Y-91740123D01*
X209147778Y-90830985D02*
X208474343Y-91167703D01*
X208912076Y-91605436D01*
X209366267Y-89610030D02*
X209467282Y-89037610D01*
X208962206Y-89205969D02*
X209669312Y-88498862D01*
X209938687Y-88768236D01*
X209972358Y-88869251D01*
X209972358Y-88936595D01*
X209938687Y-89037610D01*
X209837671Y-89138625D01*
X209736656Y-89172297D01*
X209669312Y-89172297D01*
X209568297Y-89138625D01*
X209298923Y-88869251D01*
X210713137Y-89542687D02*
X210376419Y-89205969D01*
X210006030Y-89509015D01*
X210073374Y-89509015D01*
X210174389Y-89542687D01*
X210342748Y-89711045D01*
X210376419Y-89812061D01*
X210376419Y-89879404D01*
X210342748Y-89980419D01*
X210174389Y-90148778D01*
X210073374Y-90182450D01*
X210006030Y-90182450D01*
X209905015Y-90148778D01*
X209736656Y-89980419D01*
X209702984Y-89879404D01*
X209702984Y-89812061D01*
X217622380Y-59094666D02*
X217146190Y-59428000D01*
X217622380Y-59666095D02*
X216622380Y-59666095D01*
X216622380Y-59285142D01*
X216670000Y-59189904D01*
X216717619Y-59142285D01*
X216812857Y-59094666D01*
X216955714Y-59094666D01*
X217050952Y-59142285D01*
X217098571Y-59189904D01*
X217146190Y-59285142D01*
X217146190Y-59666095D01*
X216622380Y-58237523D02*
X216622380Y-58428000D01*
X216670000Y-58523238D01*
X216717619Y-58570857D01*
X216860476Y-58666095D01*
X217050952Y-58713714D01*
X217431904Y-58713714D01*
X217527142Y-58666095D01*
X217574761Y-58618476D01*
X217622380Y-58523238D01*
X217622380Y-58332761D01*
X217574761Y-58237523D01*
X217527142Y-58189904D01*
X217431904Y-58142285D01*
X217193809Y-58142285D01*
X217098571Y-58189904D01*
X217050952Y-58237523D01*
X217003333Y-58332761D01*
X217003333Y-58523238D01*
X217050952Y-58618476D01*
X217098571Y-58666095D01*
X217193809Y-58713714D01*
X189300380Y-77509666D02*
X188824190Y-77843000D01*
X189300380Y-78081095D02*
X188300380Y-78081095D01*
X188300380Y-77700142D01*
X188348000Y-77604904D01*
X188395619Y-77557285D01*
X188490857Y-77509666D01*
X188633714Y-77509666D01*
X188728952Y-77557285D01*
X188776571Y-77604904D01*
X188824190Y-77700142D01*
X188824190Y-78081095D01*
X188300380Y-77176333D02*
X188300380Y-76509666D01*
X189300380Y-76938238D01*
X183729333Y-85796380D02*
X183396000Y-85320190D01*
X183157904Y-85796380D02*
X183157904Y-84796380D01*
X183538857Y-84796380D01*
X183634095Y-84844000D01*
X183681714Y-84891619D01*
X183729333Y-84986857D01*
X183729333Y-85129714D01*
X183681714Y-85224952D01*
X183634095Y-85272571D01*
X183538857Y-85320190D01*
X183157904Y-85320190D01*
X184300761Y-85224952D02*
X184205523Y-85177333D01*
X184157904Y-85129714D01*
X184110285Y-85034476D01*
X184110285Y-84986857D01*
X184157904Y-84891619D01*
X184205523Y-84844000D01*
X184300761Y-84796380D01*
X184491238Y-84796380D01*
X184586476Y-84844000D01*
X184634095Y-84891619D01*
X184681714Y-84986857D01*
X184681714Y-85034476D01*
X184634095Y-85129714D01*
X184586476Y-85177333D01*
X184491238Y-85224952D01*
X184300761Y-85224952D01*
X184205523Y-85272571D01*
X184157904Y-85320190D01*
X184110285Y-85415428D01*
X184110285Y-85605904D01*
X184157904Y-85701142D01*
X184205523Y-85748761D01*
X184300761Y-85796380D01*
X184491238Y-85796380D01*
X184586476Y-85748761D01*
X184634095Y-85701142D01*
X184681714Y-85605904D01*
X184681714Y-85415428D01*
X184634095Y-85320190D01*
X184586476Y-85272571D01*
X184491238Y-85224952D01*
X198679304Y-107475006D02*
X198106884Y-107373991D01*
X198275243Y-107879067D02*
X197568136Y-107171961D01*
X197837510Y-106902586D01*
X197938525Y-106868915D01*
X198005869Y-106868915D01*
X198106884Y-106902586D01*
X198207899Y-107003602D01*
X198241571Y-107104617D01*
X198241571Y-107171961D01*
X198207899Y-107272976D01*
X197938525Y-107542350D01*
X199016022Y-107138289D02*
X199150709Y-107003602D01*
X199184380Y-106902586D01*
X199184380Y-106835243D01*
X199150709Y-106666884D01*
X199049693Y-106498525D01*
X198780319Y-106229151D01*
X198679304Y-106195480D01*
X198611961Y-106195480D01*
X198510945Y-106229151D01*
X198376258Y-106363838D01*
X198342586Y-106464854D01*
X198342586Y-106532197D01*
X198376258Y-106633212D01*
X198544617Y-106801571D01*
X198645632Y-106835243D01*
X198712976Y-106835243D01*
X198813991Y-106801571D01*
X198948678Y-106666884D01*
X198982350Y-106565869D01*
X198982350Y-106498525D01*
X198948678Y-106397510D01*
X181729142Y-124658380D02*
X181395809Y-124182190D01*
X181157714Y-124658380D02*
X181157714Y-123658380D01*
X181538666Y-123658380D01*
X181633904Y-123706000D01*
X181681523Y-123753619D01*
X181729142Y-123848857D01*
X181729142Y-123991714D01*
X181681523Y-124086952D01*
X181633904Y-124134571D01*
X181538666Y-124182190D01*
X181157714Y-124182190D01*
X182681523Y-124658380D02*
X182110095Y-124658380D01*
X182395809Y-124658380D02*
X182395809Y-123658380D01*
X182300571Y-123801238D01*
X182205333Y-123896476D01*
X182110095Y-123944095D01*
X183300571Y-123658380D02*
X183395809Y-123658380D01*
X183491047Y-123706000D01*
X183538666Y-123753619D01*
X183586285Y-123848857D01*
X183633904Y-124039333D01*
X183633904Y-124277428D01*
X183586285Y-124467904D01*
X183538666Y-124563142D01*
X183491047Y-124610761D01*
X183395809Y-124658380D01*
X183300571Y-124658380D01*
X183205333Y-124610761D01*
X183157714Y-124563142D01*
X183110095Y-124467904D01*
X183062476Y-124277428D01*
X183062476Y-124039333D01*
X183110095Y-123848857D01*
X183157714Y-123753619D01*
X183205333Y-123706000D01*
X183300571Y-123658380D01*
X191889142Y-124658380D02*
X191555809Y-124182190D01*
X191317714Y-124658380D02*
X191317714Y-123658380D01*
X191698666Y-123658380D01*
X191793904Y-123706000D01*
X191841523Y-123753619D01*
X191889142Y-123848857D01*
X191889142Y-123991714D01*
X191841523Y-124086952D01*
X191793904Y-124134571D01*
X191698666Y-124182190D01*
X191317714Y-124182190D01*
X192841523Y-124658380D02*
X192270095Y-124658380D01*
X192555809Y-124658380D02*
X192555809Y-123658380D01*
X192460571Y-123801238D01*
X192365333Y-123896476D01*
X192270095Y-123944095D01*
X193793904Y-124658380D02*
X193222476Y-124658380D01*
X193508190Y-124658380D02*
X193508190Y-123658380D01*
X193412952Y-123801238D01*
X193317714Y-123896476D01*
X193222476Y-123944095D01*
X202303142Y-124658380D02*
X201969809Y-124182190D01*
X201731714Y-124658380D02*
X201731714Y-123658380D01*
X202112666Y-123658380D01*
X202207904Y-123706000D01*
X202255523Y-123753619D01*
X202303142Y-123848857D01*
X202303142Y-123991714D01*
X202255523Y-124086952D01*
X202207904Y-124134571D01*
X202112666Y-124182190D01*
X201731714Y-124182190D01*
X203255523Y-124658380D02*
X202684095Y-124658380D01*
X202969809Y-124658380D02*
X202969809Y-123658380D01*
X202874571Y-123801238D01*
X202779333Y-123896476D01*
X202684095Y-123944095D01*
X203636476Y-123753619D02*
X203684095Y-123706000D01*
X203779333Y-123658380D01*
X204017428Y-123658380D01*
X204112666Y-123706000D01*
X204160285Y-123753619D01*
X204207904Y-123848857D01*
X204207904Y-123944095D01*
X204160285Y-124086952D01*
X203588857Y-124658380D01*
X204207904Y-124658380D01*
X211955142Y-124658380D02*
X211621809Y-124182190D01*
X211383714Y-124658380D02*
X211383714Y-123658380D01*
X211764666Y-123658380D01*
X211859904Y-123706000D01*
X211907523Y-123753619D01*
X211955142Y-123848857D01*
X211955142Y-123991714D01*
X211907523Y-124086952D01*
X211859904Y-124134571D01*
X211764666Y-124182190D01*
X211383714Y-124182190D01*
X212907523Y-124658380D02*
X212336095Y-124658380D01*
X212621809Y-124658380D02*
X212621809Y-123658380D01*
X212526571Y-123801238D01*
X212431333Y-123896476D01*
X212336095Y-123944095D01*
X213240857Y-123658380D02*
X213859904Y-123658380D01*
X213526571Y-124039333D01*
X213669428Y-124039333D01*
X213764666Y-124086952D01*
X213812285Y-124134571D01*
X213859904Y-124229809D01*
X213859904Y-124467904D01*
X213812285Y-124563142D01*
X213764666Y-124610761D01*
X213669428Y-124658380D01*
X213383714Y-124658380D01*
X213288476Y-124610761D01*
X213240857Y-124563142D01*
X222369142Y-124658380D02*
X222035809Y-124182190D01*
X221797714Y-124658380D02*
X221797714Y-123658380D01*
X222178666Y-123658380D01*
X222273904Y-123706000D01*
X222321523Y-123753619D01*
X222369142Y-123848857D01*
X222369142Y-123991714D01*
X222321523Y-124086952D01*
X222273904Y-124134571D01*
X222178666Y-124182190D01*
X221797714Y-124182190D01*
X223321523Y-124658380D02*
X222750095Y-124658380D01*
X223035809Y-124658380D02*
X223035809Y-123658380D01*
X222940571Y-123801238D01*
X222845333Y-123896476D01*
X222750095Y-123944095D01*
X224178666Y-123991714D02*
X224178666Y-124658380D01*
X223940571Y-123610761D02*
X223702476Y-124325047D01*
X224321523Y-124325047D01*
X232529142Y-124658380D02*
X232195809Y-124182190D01*
X231957714Y-124658380D02*
X231957714Y-123658380D01*
X232338666Y-123658380D01*
X232433904Y-123706000D01*
X232481523Y-123753619D01*
X232529142Y-123848857D01*
X232529142Y-123991714D01*
X232481523Y-124086952D01*
X232433904Y-124134571D01*
X232338666Y-124182190D01*
X231957714Y-124182190D01*
X233481523Y-124658380D02*
X232910095Y-124658380D01*
X233195809Y-124658380D02*
X233195809Y-123658380D01*
X233100571Y-123801238D01*
X233005333Y-123896476D01*
X232910095Y-123944095D01*
X234386285Y-123658380D02*
X233910095Y-123658380D01*
X233862476Y-124134571D01*
X233910095Y-124086952D01*
X234005333Y-124039333D01*
X234243428Y-124039333D01*
X234338666Y-124086952D01*
X234386285Y-124134571D01*
X234433904Y-124229809D01*
X234433904Y-124467904D01*
X234386285Y-124563142D01*
X234338666Y-124610761D01*
X234243428Y-124658380D01*
X234005333Y-124658380D01*
X233910095Y-124610761D01*
X233862476Y-124563142D01*
X242943142Y-124658380D02*
X242609809Y-124182190D01*
X242371714Y-124658380D02*
X242371714Y-123658380D01*
X242752666Y-123658380D01*
X242847904Y-123706000D01*
X242895523Y-123753619D01*
X242943142Y-123848857D01*
X242943142Y-123991714D01*
X242895523Y-124086952D01*
X242847904Y-124134571D01*
X242752666Y-124182190D01*
X242371714Y-124182190D01*
X243895523Y-124658380D02*
X243324095Y-124658380D01*
X243609809Y-124658380D02*
X243609809Y-123658380D01*
X243514571Y-123801238D01*
X243419333Y-123896476D01*
X243324095Y-123944095D01*
X244752666Y-123658380D02*
X244562190Y-123658380D01*
X244466952Y-123706000D01*
X244419333Y-123753619D01*
X244324095Y-123896476D01*
X244276476Y-124086952D01*
X244276476Y-124467904D01*
X244324095Y-124563142D01*
X244371714Y-124610761D01*
X244466952Y-124658380D01*
X244657428Y-124658380D01*
X244752666Y-124610761D01*
X244800285Y-124563142D01*
X244847904Y-124467904D01*
X244847904Y-124229809D01*
X244800285Y-124134571D01*
X244752666Y-124086952D01*
X244657428Y-124039333D01*
X244466952Y-124039333D01*
X244371714Y-124086952D01*
X244324095Y-124134571D01*
X244276476Y-124229809D01*
X252849142Y-124658380D02*
X252515809Y-124182190D01*
X252277714Y-124658380D02*
X252277714Y-123658380D01*
X252658666Y-123658380D01*
X252753904Y-123706000D01*
X252801523Y-123753619D01*
X252849142Y-123848857D01*
X252849142Y-123991714D01*
X252801523Y-124086952D01*
X252753904Y-124134571D01*
X252658666Y-124182190D01*
X252277714Y-124182190D01*
X253801523Y-124658380D02*
X253230095Y-124658380D01*
X253515809Y-124658380D02*
X253515809Y-123658380D01*
X253420571Y-123801238D01*
X253325333Y-123896476D01*
X253230095Y-123944095D01*
X254134857Y-123658380D02*
X254801523Y-123658380D01*
X254372952Y-124658380D01*
X264866380Y-73032857D02*
X264390190Y-73366190D01*
X264866380Y-73604285D02*
X263866380Y-73604285D01*
X263866380Y-73223333D01*
X263914000Y-73128095D01*
X263961619Y-73080476D01*
X264056857Y-73032857D01*
X264199714Y-73032857D01*
X264294952Y-73080476D01*
X264342571Y-73128095D01*
X264390190Y-73223333D01*
X264390190Y-73604285D01*
X264866380Y-72080476D02*
X264866380Y-72651904D01*
X264866380Y-72366190D02*
X263866380Y-72366190D01*
X264009238Y-72461428D01*
X264104476Y-72556666D01*
X264152095Y-72651904D01*
X264294952Y-71509047D02*
X264247333Y-71604285D01*
X264199714Y-71651904D01*
X264104476Y-71699523D01*
X264056857Y-71699523D01*
X263961619Y-71651904D01*
X263914000Y-71604285D01*
X263866380Y-71509047D01*
X263866380Y-71318571D01*
X263914000Y-71223333D01*
X263961619Y-71175714D01*
X264056857Y-71128095D01*
X264104476Y-71128095D01*
X264199714Y-71175714D01*
X264247333Y-71223333D01*
X264294952Y-71318571D01*
X264294952Y-71509047D01*
X264342571Y-71604285D01*
X264390190Y-71651904D01*
X264485428Y-71699523D01*
X264675904Y-71699523D01*
X264771142Y-71651904D01*
X264818761Y-71604285D01*
X264866380Y-71509047D01*
X264866380Y-71318571D01*
X264818761Y-71223333D01*
X264771142Y-71175714D01*
X264675904Y-71128095D01*
X264485428Y-71128095D01*
X264390190Y-71175714D01*
X264342571Y-71223333D01*
X264294952Y-71318571D01*
X263088380Y-73032857D02*
X262612190Y-73366190D01*
X263088380Y-73604285D02*
X262088380Y-73604285D01*
X262088380Y-73223333D01*
X262136000Y-73128095D01*
X262183619Y-73080476D01*
X262278857Y-73032857D01*
X262421714Y-73032857D01*
X262516952Y-73080476D01*
X262564571Y-73128095D01*
X262612190Y-73223333D01*
X262612190Y-73604285D01*
X263088380Y-72080476D02*
X263088380Y-72651904D01*
X263088380Y-72366190D02*
X262088380Y-72366190D01*
X262231238Y-72461428D01*
X262326476Y-72556666D01*
X262374095Y-72651904D01*
X263088380Y-71604285D02*
X263088380Y-71413809D01*
X263040761Y-71318571D01*
X262993142Y-71270952D01*
X262850285Y-71175714D01*
X262659809Y-71128095D01*
X262278857Y-71128095D01*
X262183619Y-71175714D01*
X262136000Y-71223333D01*
X262088380Y-71318571D01*
X262088380Y-71509047D01*
X262136000Y-71604285D01*
X262183619Y-71651904D01*
X262278857Y-71699523D01*
X262516952Y-71699523D01*
X262612190Y-71651904D01*
X262659809Y-71604285D01*
X262707428Y-71509047D01*
X262707428Y-71318571D01*
X262659809Y-71223333D01*
X262612190Y-71175714D01*
X262516952Y-71128095D01*
X261310380Y-72778857D02*
X260834190Y-73112190D01*
X261310380Y-73350285D02*
X260310380Y-73350285D01*
X260310380Y-72969333D01*
X260358000Y-72874095D01*
X260405619Y-72826476D01*
X260500857Y-72778857D01*
X260643714Y-72778857D01*
X260738952Y-72826476D01*
X260786571Y-72874095D01*
X260834190Y-72969333D01*
X260834190Y-73350285D01*
X260405619Y-72397904D02*
X260358000Y-72350285D01*
X260310380Y-72255047D01*
X260310380Y-72016952D01*
X260358000Y-71921714D01*
X260405619Y-71874095D01*
X260500857Y-71826476D01*
X260596095Y-71826476D01*
X260738952Y-71874095D01*
X261310380Y-72445523D01*
X261310380Y-71826476D01*
X260310380Y-71207428D02*
X260310380Y-71112190D01*
X260358000Y-71016952D01*
X260405619Y-70969333D01*
X260500857Y-70921714D01*
X260691333Y-70874095D01*
X260929428Y-70874095D01*
X261119904Y-70921714D01*
X261215142Y-70969333D01*
X261262761Y-71016952D01*
X261310380Y-71112190D01*
X261310380Y-71207428D01*
X261262761Y-71302666D01*
X261215142Y-71350285D01*
X261119904Y-71397904D01*
X260929428Y-71445523D01*
X260691333Y-71445523D01*
X260500857Y-71397904D01*
X260405619Y-71350285D01*
X260358000Y-71302666D01*
X260310380Y-71207428D01*
X259278380Y-109862857D02*
X258802190Y-110196190D01*
X259278380Y-110434285D02*
X258278380Y-110434285D01*
X258278380Y-110053333D01*
X258326000Y-109958095D01*
X258373619Y-109910476D01*
X258468857Y-109862857D01*
X258611714Y-109862857D01*
X258706952Y-109910476D01*
X258754571Y-109958095D01*
X258802190Y-110053333D01*
X258802190Y-110434285D01*
X258373619Y-109481904D02*
X258326000Y-109434285D01*
X258278380Y-109339047D01*
X258278380Y-109100952D01*
X258326000Y-109005714D01*
X258373619Y-108958095D01*
X258468857Y-108910476D01*
X258564095Y-108910476D01*
X258706952Y-108958095D01*
X259278380Y-109529523D01*
X259278380Y-108910476D01*
X259278380Y-107958095D02*
X259278380Y-108529523D01*
X259278380Y-108243809D02*
X258278380Y-108243809D01*
X258421238Y-108339047D01*
X258516476Y-108434285D01*
X258564095Y-108529523D01*
X259532380Y-72778857D02*
X259056190Y-73112190D01*
X259532380Y-73350285D02*
X258532380Y-73350285D01*
X258532380Y-72969333D01*
X258580000Y-72874095D01*
X258627619Y-72826476D01*
X258722857Y-72778857D01*
X258865714Y-72778857D01*
X258960952Y-72826476D01*
X259008571Y-72874095D01*
X259056190Y-72969333D01*
X259056190Y-73350285D01*
X258627619Y-72397904D02*
X258580000Y-72350285D01*
X258532380Y-72255047D01*
X258532380Y-72016952D01*
X258580000Y-71921714D01*
X258627619Y-71874095D01*
X258722857Y-71826476D01*
X258818095Y-71826476D01*
X258960952Y-71874095D01*
X259532380Y-72445523D01*
X259532380Y-71826476D01*
X258627619Y-71445523D02*
X258580000Y-71397904D01*
X258532380Y-71302666D01*
X258532380Y-71064571D01*
X258580000Y-70969333D01*
X258627619Y-70921714D01*
X258722857Y-70874095D01*
X258818095Y-70874095D01*
X258960952Y-70921714D01*
X259532380Y-71493142D01*
X259532380Y-70874095D01*
X261183380Y-89730857D02*
X260707190Y-90064190D01*
X261183380Y-90302285D02*
X260183380Y-90302285D01*
X260183380Y-89921333D01*
X260231000Y-89826095D01*
X260278619Y-89778476D01*
X260373857Y-89730857D01*
X260516714Y-89730857D01*
X260611952Y-89778476D01*
X260659571Y-89826095D01*
X260707190Y-89921333D01*
X260707190Y-90302285D01*
X260278619Y-89349904D02*
X260231000Y-89302285D01*
X260183380Y-89207047D01*
X260183380Y-88968952D01*
X260231000Y-88873714D01*
X260278619Y-88826095D01*
X260373857Y-88778476D01*
X260469095Y-88778476D01*
X260611952Y-88826095D01*
X261183380Y-89397523D01*
X261183380Y-88778476D01*
X260183380Y-88445142D02*
X260183380Y-87826095D01*
X260564333Y-88159428D01*
X260564333Y-88016571D01*
X260611952Y-87921333D01*
X260659571Y-87873714D01*
X260754809Y-87826095D01*
X260992904Y-87826095D01*
X261088142Y-87873714D01*
X261135761Y-87921333D01*
X261183380Y-88016571D01*
X261183380Y-88302285D01*
X261135761Y-88397523D01*
X261088142Y-88445142D01*
X263342380Y-92590857D02*
X262866190Y-92924190D01*
X263342380Y-93162285D02*
X262342380Y-93162285D01*
X262342380Y-92781333D01*
X262390000Y-92686095D01*
X262437619Y-92638476D01*
X262532857Y-92590857D01*
X262675714Y-92590857D01*
X262770952Y-92638476D01*
X262818571Y-92686095D01*
X262866190Y-92781333D01*
X262866190Y-93162285D01*
X262437619Y-92209904D02*
X262390000Y-92162285D01*
X262342380Y-92067047D01*
X262342380Y-91828952D01*
X262390000Y-91733714D01*
X262437619Y-91686095D01*
X262532857Y-91638476D01*
X262628095Y-91638476D01*
X262770952Y-91686095D01*
X263342380Y-92257523D01*
X263342380Y-91638476D01*
X262675714Y-90781333D02*
X263342380Y-90781333D01*
X262294761Y-91019428D02*
X263009047Y-91257523D01*
X263009047Y-90638476D01*
X261564380Y-92590857D02*
X261088190Y-92924190D01*
X261564380Y-93162285D02*
X260564380Y-93162285D01*
X260564380Y-92781333D01*
X260612000Y-92686095D01*
X260659619Y-92638476D01*
X260754857Y-92590857D01*
X260897714Y-92590857D01*
X260992952Y-92638476D01*
X261040571Y-92686095D01*
X261088190Y-92781333D01*
X261088190Y-93162285D01*
X260659619Y-92209904D02*
X260612000Y-92162285D01*
X260564380Y-92067047D01*
X260564380Y-91828952D01*
X260612000Y-91733714D01*
X260659619Y-91686095D01*
X260754857Y-91638476D01*
X260850095Y-91638476D01*
X260992952Y-91686095D01*
X261564380Y-92257523D01*
X261564380Y-91638476D01*
X260564380Y-90733714D02*
X260564380Y-91209904D01*
X261040571Y-91257523D01*
X260992952Y-91209904D01*
X260945333Y-91114666D01*
X260945333Y-90876571D01*
X260992952Y-90781333D01*
X261040571Y-90733714D01*
X261135809Y-90686095D01*
X261373904Y-90686095D01*
X261469142Y-90733714D01*
X261516761Y-90781333D01*
X261564380Y-90876571D01*
X261564380Y-91114666D01*
X261516761Y-91209904D01*
X261469142Y-91257523D01*
X259151380Y-89796857D02*
X258675190Y-90130190D01*
X259151380Y-90368285D02*
X258151380Y-90368285D01*
X258151380Y-89987333D01*
X258199000Y-89892095D01*
X258246619Y-89844476D01*
X258341857Y-89796857D01*
X258484714Y-89796857D01*
X258579952Y-89844476D01*
X258627571Y-89892095D01*
X258675190Y-89987333D01*
X258675190Y-90368285D01*
X258246619Y-89415904D02*
X258199000Y-89368285D01*
X258151380Y-89273047D01*
X258151380Y-89034952D01*
X258199000Y-88939714D01*
X258246619Y-88892095D01*
X258341857Y-88844476D01*
X258437095Y-88844476D01*
X258579952Y-88892095D01*
X259151380Y-89463523D01*
X259151380Y-88844476D01*
X258151380Y-87987333D02*
X258151380Y-88177809D01*
X258199000Y-88273047D01*
X258246619Y-88320666D01*
X258389476Y-88415904D01*
X258579952Y-88463523D01*
X258960904Y-88463523D01*
X259056142Y-88415904D01*
X259103761Y-88368285D01*
X259151380Y-88273047D01*
X259151380Y-88082571D01*
X259103761Y-87987333D01*
X259056142Y-87939714D01*
X258960904Y-87892095D01*
X258722809Y-87892095D01*
X258627571Y-87939714D01*
X258579952Y-87987333D01*
X258532333Y-88082571D01*
X258532333Y-88273047D01*
X258579952Y-88368285D01*
X258627571Y-88415904D01*
X258722809Y-88463523D01*
X263644142Y-86178380D02*
X263310809Y-85702190D01*
X263072714Y-86178380D02*
X263072714Y-85178380D01*
X263453666Y-85178380D01*
X263548904Y-85226000D01*
X263596523Y-85273619D01*
X263644142Y-85368857D01*
X263644142Y-85511714D01*
X263596523Y-85606952D01*
X263548904Y-85654571D01*
X263453666Y-85702190D01*
X263072714Y-85702190D01*
X264025095Y-85273619D02*
X264072714Y-85226000D01*
X264167952Y-85178380D01*
X264406047Y-85178380D01*
X264501285Y-85226000D01*
X264548904Y-85273619D01*
X264596523Y-85368857D01*
X264596523Y-85464095D01*
X264548904Y-85606952D01*
X263977476Y-86178380D01*
X264596523Y-86178380D01*
X264929857Y-85178380D02*
X265596523Y-85178380D01*
X265167952Y-86178380D01*
X267073142Y-86178380D02*
X266739809Y-85702190D01*
X266501714Y-86178380D02*
X266501714Y-85178380D01*
X266882666Y-85178380D01*
X266977904Y-85226000D01*
X267025523Y-85273619D01*
X267073142Y-85368857D01*
X267073142Y-85511714D01*
X267025523Y-85606952D01*
X266977904Y-85654571D01*
X266882666Y-85702190D01*
X266501714Y-85702190D01*
X267454095Y-85273619D02*
X267501714Y-85226000D01*
X267596952Y-85178380D01*
X267835047Y-85178380D01*
X267930285Y-85226000D01*
X267977904Y-85273619D01*
X268025523Y-85368857D01*
X268025523Y-85464095D01*
X267977904Y-85606952D01*
X267406476Y-86178380D01*
X268025523Y-86178380D01*
X268596952Y-85606952D02*
X268501714Y-85559333D01*
X268454095Y-85511714D01*
X268406476Y-85416476D01*
X268406476Y-85368857D01*
X268454095Y-85273619D01*
X268501714Y-85226000D01*
X268596952Y-85178380D01*
X268787428Y-85178380D01*
X268882666Y-85226000D01*
X268930285Y-85273619D01*
X268977904Y-85368857D01*
X268977904Y-85416476D01*
X268930285Y-85511714D01*
X268882666Y-85559333D01*
X268787428Y-85606952D01*
X268596952Y-85606952D01*
X268501714Y-85654571D01*
X268454095Y-85702190D01*
X268406476Y-85797428D01*
X268406476Y-85987904D01*
X268454095Y-86083142D01*
X268501714Y-86130761D01*
X268596952Y-86178380D01*
X268787428Y-86178380D01*
X268882666Y-86130761D01*
X268930285Y-86083142D01*
X268977904Y-85987904D01*
X268977904Y-85797428D01*
X268930285Y-85702190D01*
X268882666Y-85654571D01*
X268787428Y-85606952D01*
X186555142Y-85542380D02*
X186221809Y-85066190D01*
X185983714Y-85542380D02*
X185983714Y-84542380D01*
X186364666Y-84542380D01*
X186459904Y-84590000D01*
X186507523Y-84637619D01*
X186555142Y-84732857D01*
X186555142Y-84875714D01*
X186507523Y-84970952D01*
X186459904Y-85018571D01*
X186364666Y-85066190D01*
X185983714Y-85066190D01*
X186936095Y-84637619D02*
X186983714Y-84590000D01*
X187078952Y-84542380D01*
X187317047Y-84542380D01*
X187412285Y-84590000D01*
X187459904Y-84637619D01*
X187507523Y-84732857D01*
X187507523Y-84828095D01*
X187459904Y-84970952D01*
X186888476Y-85542380D01*
X187507523Y-85542380D01*
X187983714Y-85542380D02*
X188174190Y-85542380D01*
X188269428Y-85494761D01*
X188317047Y-85447142D01*
X188412285Y-85304285D01*
X188459904Y-85113809D01*
X188459904Y-84732857D01*
X188412285Y-84637619D01*
X188364666Y-84590000D01*
X188269428Y-84542380D01*
X188078952Y-84542380D01*
X187983714Y-84590000D01*
X187936095Y-84637619D01*
X187888476Y-84732857D01*
X187888476Y-84970952D01*
X187936095Y-85066190D01*
X187983714Y-85113809D01*
X188078952Y-85161428D01*
X188269428Y-85161428D01*
X188364666Y-85113809D01*
X188412285Y-85066190D01*
X188459904Y-84970952D01*
X190619142Y-91003380D02*
X190285809Y-90527190D01*
X190047714Y-91003380D02*
X190047714Y-90003380D01*
X190428666Y-90003380D01*
X190523904Y-90051000D01*
X190571523Y-90098619D01*
X190619142Y-90193857D01*
X190619142Y-90336714D01*
X190571523Y-90431952D01*
X190523904Y-90479571D01*
X190428666Y-90527190D01*
X190047714Y-90527190D01*
X190952476Y-90003380D02*
X191571523Y-90003380D01*
X191238190Y-90384333D01*
X191381047Y-90384333D01*
X191476285Y-90431952D01*
X191523904Y-90479571D01*
X191571523Y-90574809D01*
X191571523Y-90812904D01*
X191523904Y-90908142D01*
X191476285Y-90955761D01*
X191381047Y-91003380D01*
X191095333Y-91003380D01*
X191000095Y-90955761D01*
X190952476Y-90908142D01*
X192190571Y-90003380D02*
X192285809Y-90003380D01*
X192381047Y-90051000D01*
X192428666Y-90098619D01*
X192476285Y-90193857D01*
X192523904Y-90384333D01*
X192523904Y-90622428D01*
X192476285Y-90812904D01*
X192428666Y-90908142D01*
X192381047Y-90955761D01*
X192285809Y-91003380D01*
X192190571Y-91003380D01*
X192095333Y-90955761D01*
X192047714Y-90908142D01*
X192000095Y-90812904D01*
X191952476Y-90622428D01*
X191952476Y-90384333D01*
X192000095Y-90193857D01*
X192047714Y-90098619D01*
X192095333Y-90051000D01*
X192190571Y-90003380D01*
X254403761Y-138995333D02*
X254451380Y-138852476D01*
X254451380Y-138614380D01*
X254403761Y-138519142D01*
X254356142Y-138471523D01*
X254260904Y-138423904D01*
X254165666Y-138423904D01*
X254070428Y-138471523D01*
X254022809Y-138519142D01*
X253975190Y-138614380D01*
X253927571Y-138804857D01*
X253879952Y-138900095D01*
X253832333Y-138947714D01*
X253737095Y-138995333D01*
X253641857Y-138995333D01*
X253546619Y-138947714D01*
X253499000Y-138900095D01*
X253451380Y-138804857D01*
X253451380Y-138566761D01*
X253499000Y-138423904D01*
X253451380Y-138090571D02*
X254451380Y-137852476D01*
X253737095Y-137662000D01*
X254451380Y-137471523D01*
X253451380Y-137233428D01*
X254451380Y-136328666D02*
X254451380Y-136900095D01*
X254451380Y-136614380D02*
X253451380Y-136614380D01*
X253594238Y-136709619D01*
X253689476Y-136804857D01*
X253737095Y-136900095D01*
X174884761Y-132703333D02*
X174932380Y-132560476D01*
X174932380Y-132322380D01*
X174884761Y-132227142D01*
X174837142Y-132179523D01*
X174741904Y-132131904D01*
X174646666Y-132131904D01*
X174551428Y-132179523D01*
X174503809Y-132227142D01*
X174456190Y-132322380D01*
X174408571Y-132512857D01*
X174360952Y-132608095D01*
X174313333Y-132655714D01*
X174218095Y-132703333D01*
X174122857Y-132703333D01*
X174027619Y-132655714D01*
X173980000Y-132608095D01*
X173932380Y-132512857D01*
X173932380Y-132274761D01*
X173980000Y-132131904D01*
X173932380Y-131798571D02*
X174932380Y-131560476D01*
X174218095Y-131370000D01*
X174932380Y-131179523D01*
X173932380Y-130941428D01*
X174027619Y-130608095D02*
X173980000Y-130560476D01*
X173932380Y-130465238D01*
X173932380Y-130227142D01*
X173980000Y-130131904D01*
X174027619Y-130084285D01*
X174122857Y-130036666D01*
X174218095Y-130036666D01*
X174360952Y-130084285D01*
X174932380Y-130655714D01*
X174932380Y-130036666D01*
X215524761Y-132703333D02*
X215572380Y-132560476D01*
X215572380Y-132322380D01*
X215524761Y-132227142D01*
X215477142Y-132179523D01*
X215381904Y-132131904D01*
X215286666Y-132131904D01*
X215191428Y-132179523D01*
X215143809Y-132227142D01*
X215096190Y-132322380D01*
X215048571Y-132512857D01*
X215000952Y-132608095D01*
X214953333Y-132655714D01*
X214858095Y-132703333D01*
X214762857Y-132703333D01*
X214667619Y-132655714D01*
X214620000Y-132608095D01*
X214572380Y-132512857D01*
X214572380Y-132274761D01*
X214620000Y-132131904D01*
X214572380Y-131798571D02*
X215572380Y-131560476D01*
X214858095Y-131370000D01*
X215572380Y-131179523D01*
X214572380Y-130941428D01*
X214572380Y-130655714D02*
X214572380Y-130036666D01*
X214953333Y-130370000D01*
X214953333Y-130227142D01*
X215000952Y-130131904D01*
X215048571Y-130084285D01*
X215143809Y-130036666D01*
X215381904Y-130036666D01*
X215477142Y-130084285D01*
X215524761Y-130131904D01*
X215572380Y-130227142D01*
X215572380Y-130512857D01*
X215524761Y-130608095D01*
X215477142Y-130655714D01*
X185044761Y-132703333D02*
X185092380Y-132560476D01*
X185092380Y-132322380D01*
X185044761Y-132227142D01*
X184997142Y-132179523D01*
X184901904Y-132131904D01*
X184806666Y-132131904D01*
X184711428Y-132179523D01*
X184663809Y-132227142D01*
X184616190Y-132322380D01*
X184568571Y-132512857D01*
X184520952Y-132608095D01*
X184473333Y-132655714D01*
X184378095Y-132703333D01*
X184282857Y-132703333D01*
X184187619Y-132655714D01*
X184140000Y-132608095D01*
X184092380Y-132512857D01*
X184092380Y-132274761D01*
X184140000Y-132131904D01*
X184092380Y-131798571D02*
X185092380Y-131560476D01*
X184378095Y-131370000D01*
X185092380Y-131179523D01*
X184092380Y-130941428D01*
X184425714Y-130131904D02*
X185092380Y-130131904D01*
X184044761Y-130370000D02*
X184759047Y-130608095D01*
X184759047Y-129989047D01*
X225684761Y-132703333D02*
X225732380Y-132560476D01*
X225732380Y-132322380D01*
X225684761Y-132227142D01*
X225637142Y-132179523D01*
X225541904Y-132131904D01*
X225446666Y-132131904D01*
X225351428Y-132179523D01*
X225303809Y-132227142D01*
X225256190Y-132322380D01*
X225208571Y-132512857D01*
X225160952Y-132608095D01*
X225113333Y-132655714D01*
X225018095Y-132703333D01*
X224922857Y-132703333D01*
X224827619Y-132655714D01*
X224780000Y-132608095D01*
X224732380Y-132512857D01*
X224732380Y-132274761D01*
X224780000Y-132131904D01*
X224732380Y-131798571D02*
X225732380Y-131560476D01*
X225018095Y-131370000D01*
X225732380Y-131179523D01*
X224732380Y-130941428D01*
X224732380Y-130084285D02*
X224732380Y-130560476D01*
X225208571Y-130608095D01*
X225160952Y-130560476D01*
X225113333Y-130465238D01*
X225113333Y-130227142D01*
X225160952Y-130131904D01*
X225208571Y-130084285D01*
X225303809Y-130036666D01*
X225541904Y-130036666D01*
X225637142Y-130084285D01*
X225684761Y-130131904D01*
X225732380Y-130227142D01*
X225732380Y-130465238D01*
X225684761Y-130560476D01*
X225637142Y-130608095D01*
X195204761Y-132703333D02*
X195252380Y-132560476D01*
X195252380Y-132322380D01*
X195204761Y-132227142D01*
X195157142Y-132179523D01*
X195061904Y-132131904D01*
X194966666Y-132131904D01*
X194871428Y-132179523D01*
X194823809Y-132227142D01*
X194776190Y-132322380D01*
X194728571Y-132512857D01*
X194680952Y-132608095D01*
X194633333Y-132655714D01*
X194538095Y-132703333D01*
X194442857Y-132703333D01*
X194347619Y-132655714D01*
X194300000Y-132608095D01*
X194252380Y-132512857D01*
X194252380Y-132274761D01*
X194300000Y-132131904D01*
X194252380Y-131798571D02*
X195252380Y-131560476D01*
X194538095Y-131370000D01*
X195252380Y-131179523D01*
X194252380Y-130941428D01*
X194252380Y-130131904D02*
X194252380Y-130322380D01*
X194300000Y-130417619D01*
X194347619Y-130465238D01*
X194490476Y-130560476D01*
X194680952Y-130608095D01*
X195061904Y-130608095D01*
X195157142Y-130560476D01*
X195204761Y-130512857D01*
X195252380Y-130417619D01*
X195252380Y-130227142D01*
X195204761Y-130131904D01*
X195157142Y-130084285D01*
X195061904Y-130036666D01*
X194823809Y-130036666D01*
X194728571Y-130084285D01*
X194680952Y-130131904D01*
X194633333Y-130227142D01*
X194633333Y-130417619D01*
X194680952Y-130512857D01*
X194728571Y-130560476D01*
X194823809Y-130608095D01*
X235844761Y-132703333D02*
X235892380Y-132560476D01*
X235892380Y-132322380D01*
X235844761Y-132227142D01*
X235797142Y-132179523D01*
X235701904Y-132131904D01*
X235606666Y-132131904D01*
X235511428Y-132179523D01*
X235463809Y-132227142D01*
X235416190Y-132322380D01*
X235368571Y-132512857D01*
X235320952Y-132608095D01*
X235273333Y-132655714D01*
X235178095Y-132703333D01*
X235082857Y-132703333D01*
X234987619Y-132655714D01*
X234940000Y-132608095D01*
X234892380Y-132512857D01*
X234892380Y-132274761D01*
X234940000Y-132131904D01*
X234892380Y-131798571D02*
X235892380Y-131560476D01*
X235178095Y-131370000D01*
X235892380Y-131179523D01*
X234892380Y-130941428D01*
X234892380Y-130655714D02*
X234892380Y-129989047D01*
X235892380Y-130417619D01*
X186066666Y-113924761D02*
X186209523Y-113972380D01*
X186447619Y-113972380D01*
X186542857Y-113924761D01*
X186590476Y-113877142D01*
X186638095Y-113781904D01*
X186638095Y-113686666D01*
X186590476Y-113591428D01*
X186542857Y-113543809D01*
X186447619Y-113496190D01*
X186257142Y-113448571D01*
X186161904Y-113400952D01*
X186114285Y-113353333D01*
X186066666Y-113258095D01*
X186066666Y-113162857D01*
X186114285Y-113067619D01*
X186161904Y-113020000D01*
X186257142Y-112972380D01*
X186495238Y-112972380D01*
X186638095Y-113020000D01*
X186971428Y-112972380D02*
X187209523Y-113972380D01*
X187400000Y-113258095D01*
X187590476Y-113972380D01*
X187828571Y-112972380D01*
X188352380Y-113400952D02*
X188257142Y-113353333D01*
X188209523Y-113305714D01*
X188161904Y-113210476D01*
X188161904Y-113162857D01*
X188209523Y-113067619D01*
X188257142Y-113020000D01*
X188352380Y-112972380D01*
X188542857Y-112972380D01*
X188638095Y-113020000D01*
X188685714Y-113067619D01*
X188733333Y-113162857D01*
X188733333Y-113210476D01*
X188685714Y-113305714D01*
X188638095Y-113353333D01*
X188542857Y-113400952D01*
X188352380Y-113400952D01*
X188257142Y-113448571D01*
X188209523Y-113496190D01*
X188161904Y-113591428D01*
X188161904Y-113781904D01*
X188209523Y-113877142D01*
X188257142Y-113924761D01*
X188352380Y-113972380D01*
X188542857Y-113972380D01*
X188638095Y-113924761D01*
X188685714Y-113877142D01*
X188733333Y-113781904D01*
X188733333Y-113591428D01*
X188685714Y-113496190D01*
X188638095Y-113448571D01*
X188542857Y-113400952D01*
X205364761Y-132703333D02*
X205412380Y-132560476D01*
X205412380Y-132322380D01*
X205364761Y-132227142D01*
X205317142Y-132179523D01*
X205221904Y-132131904D01*
X205126666Y-132131904D01*
X205031428Y-132179523D01*
X204983809Y-132227142D01*
X204936190Y-132322380D01*
X204888571Y-132512857D01*
X204840952Y-132608095D01*
X204793333Y-132655714D01*
X204698095Y-132703333D01*
X204602857Y-132703333D01*
X204507619Y-132655714D01*
X204460000Y-132608095D01*
X204412380Y-132512857D01*
X204412380Y-132274761D01*
X204460000Y-132131904D01*
X204412380Y-131798571D02*
X205412380Y-131560476D01*
X204698095Y-131370000D01*
X205412380Y-131179523D01*
X204412380Y-130941428D01*
X205412380Y-130512857D02*
X205412380Y-130322380D01*
X205364761Y-130227142D01*
X205317142Y-130179523D01*
X205174285Y-130084285D01*
X204983809Y-130036666D01*
X204602857Y-130036666D01*
X204507619Y-130084285D01*
X204460000Y-130131904D01*
X204412380Y-130227142D01*
X204412380Y-130417619D01*
X204460000Y-130512857D01*
X204507619Y-130560476D01*
X204602857Y-130608095D01*
X204840952Y-130608095D01*
X204936190Y-130560476D01*
X204983809Y-130512857D01*
X205031428Y-130417619D01*
X205031428Y-130227142D01*
X204983809Y-130131904D01*
X204936190Y-130084285D01*
X204840952Y-130036666D01*
X246004761Y-133179523D02*
X246052380Y-133036666D01*
X246052380Y-132798571D01*
X246004761Y-132703333D01*
X245957142Y-132655714D01*
X245861904Y-132608095D01*
X245766666Y-132608095D01*
X245671428Y-132655714D01*
X245623809Y-132703333D01*
X245576190Y-132798571D01*
X245528571Y-132989047D01*
X245480952Y-133084285D01*
X245433333Y-133131904D01*
X245338095Y-133179523D01*
X245242857Y-133179523D01*
X245147619Y-133131904D01*
X245100000Y-133084285D01*
X245052380Y-132989047D01*
X245052380Y-132750952D01*
X245100000Y-132608095D01*
X245052380Y-132274761D02*
X246052380Y-132036666D01*
X245338095Y-131846190D01*
X246052380Y-131655714D01*
X245052380Y-131417619D01*
X246052380Y-130512857D02*
X246052380Y-131084285D01*
X246052380Y-130798571D02*
X245052380Y-130798571D01*
X245195238Y-130893809D01*
X245290476Y-130989047D01*
X245338095Y-131084285D01*
X245052380Y-129893809D02*
X245052380Y-129798571D01*
X245100000Y-129703333D01*
X245147619Y-129655714D01*
X245242857Y-129608095D01*
X245433333Y-129560476D01*
X245671428Y-129560476D01*
X245861904Y-129608095D01*
X245957142Y-129655714D01*
X246004761Y-129703333D01*
X246052380Y-129798571D01*
X246052380Y-129893809D01*
X246004761Y-129989047D01*
X245957142Y-130036666D01*
X245861904Y-130084285D01*
X245671428Y-130131904D01*
X245433333Y-130131904D01*
X245242857Y-130084285D01*
X245147619Y-130036666D01*
X245100000Y-129989047D01*
X245052380Y-129893809D01*
X180263895Y-79335380D02*
X180263895Y-80144904D01*
X180311514Y-80240142D01*
X180359133Y-80287761D01*
X180454371Y-80335380D01*
X180644847Y-80335380D01*
X180740085Y-80287761D01*
X180787704Y-80240142D01*
X180835323Y-80144904D01*
X180835323Y-79335380D01*
X181835323Y-80335380D02*
X181263895Y-80335380D01*
X181549609Y-80335380D02*
X181549609Y-79335380D01*
X181454371Y-79478238D01*
X181359133Y-79573476D01*
X181263895Y-79621095D01*
X223192636Y-97801867D02*
X222620216Y-98374287D01*
X222586544Y-98475302D01*
X222586544Y-98542646D01*
X222620216Y-98643661D01*
X222754903Y-98778348D01*
X222855918Y-98812020D01*
X222923262Y-98812020D01*
X223024277Y-98778348D01*
X223596697Y-98205928D01*
X223832399Y-98576318D02*
X223899742Y-98576318D01*
X224000758Y-98609989D01*
X224169116Y-98778348D01*
X224202788Y-98879363D01*
X224202788Y-98946707D01*
X224169116Y-99047722D01*
X224101773Y-99115066D01*
X223967086Y-99182409D01*
X223158964Y-99182409D01*
X223596697Y-99620142D01*
X257810095Y-66254380D02*
X257810095Y-67063904D01*
X257857714Y-67159142D01*
X257905333Y-67206761D01*
X258000571Y-67254380D01*
X258191047Y-67254380D01*
X258286285Y-67206761D01*
X258333904Y-67159142D01*
X258381523Y-67063904D01*
X258381523Y-66254380D01*
X258762476Y-66254380D02*
X259381523Y-66254380D01*
X259048190Y-66635333D01*
X259191047Y-66635333D01*
X259286285Y-66682952D01*
X259333904Y-66730571D01*
X259381523Y-66825809D01*
X259381523Y-67063904D01*
X259333904Y-67159142D01*
X259286285Y-67206761D01*
X259191047Y-67254380D01*
X258905333Y-67254380D01*
X258810095Y-67206761D01*
X258762476Y-67159142D01*
X245389495Y-119492780D02*
X245389495Y-120302304D01*
X245437114Y-120397542D01*
X245484733Y-120445161D01*
X245579971Y-120492780D01*
X245770447Y-120492780D01*
X245865685Y-120445161D01*
X245913304Y-120397542D01*
X245960923Y-120302304D01*
X245960923Y-119492780D01*
X246865685Y-119826114D02*
X246865685Y-120492780D01*
X246627590Y-119445161D02*
X246389495Y-120159447D01*
X247008542Y-120159447D01*
X217257380Y-74421904D02*
X218066904Y-74421904D01*
X218162142Y-74374285D01*
X218209761Y-74326666D01*
X218257380Y-74231428D01*
X218257380Y-74040952D01*
X218209761Y-73945714D01*
X218162142Y-73898095D01*
X218066904Y-73850476D01*
X217257380Y-73850476D01*
X217257380Y-72945714D02*
X217257380Y-73136190D01*
X217305000Y-73231428D01*
X217352619Y-73279047D01*
X217495476Y-73374285D01*
X217685952Y-73421904D01*
X218066904Y-73421904D01*
X218162142Y-73374285D01*
X218209761Y-73326666D01*
X218257380Y-73231428D01*
X218257380Y-73040952D01*
X218209761Y-72945714D01*
X218162142Y-72898095D01*
X218066904Y-72850476D01*
X217828809Y-72850476D01*
X217733571Y-72898095D01*
X217685952Y-72945714D01*
X217638333Y-73040952D01*
X217638333Y-73231428D01*
X217685952Y-73326666D01*
X217733571Y-73374285D01*
X217828809Y-73421904D01*
X226065580Y-65023904D02*
X226875104Y-65023904D01*
X226970342Y-64976285D01*
X227017961Y-64928666D01*
X227065580Y-64833428D01*
X227065580Y-64642952D01*
X227017961Y-64547714D01*
X226970342Y-64500095D01*
X226875104Y-64452476D01*
X226065580Y-64452476D01*
X226065580Y-64071523D02*
X226065580Y-63404857D01*
X227065580Y-63833428D01*
X265430095Y-77994380D02*
X265430095Y-78803904D01*
X265477714Y-78899142D01*
X265525333Y-78946761D01*
X265620571Y-78994380D01*
X265811047Y-78994380D01*
X265906285Y-78946761D01*
X265953904Y-78899142D01*
X266001523Y-78803904D01*
X266001523Y-77994380D01*
X266620571Y-78422952D02*
X266525333Y-78375333D01*
X266477714Y-78327714D01*
X266430095Y-78232476D01*
X266430095Y-78184857D01*
X266477714Y-78089619D01*
X266525333Y-78042000D01*
X266620571Y-77994380D01*
X266811047Y-77994380D01*
X266906285Y-78042000D01*
X266953904Y-78089619D01*
X267001523Y-78184857D01*
X267001523Y-78232476D01*
X266953904Y-78327714D01*
X266906285Y-78375333D01*
X266811047Y-78422952D01*
X266620571Y-78422952D01*
X266525333Y-78470571D01*
X266477714Y-78518190D01*
X266430095Y-78613428D01*
X266430095Y-78803904D01*
X266477714Y-78899142D01*
X266525333Y-78946761D01*
X266620571Y-78994380D01*
X266811047Y-78994380D01*
X266906285Y-78946761D01*
X266953904Y-78899142D01*
X267001523Y-78803904D01*
X267001523Y-78613428D01*
X266953904Y-78518190D01*
X266906285Y-78470571D01*
X266811047Y-78422952D01*
X253365095Y-57156980D02*
X253365095Y-57966504D01*
X253412714Y-58061742D01*
X253460333Y-58109361D01*
X253555571Y-58156980D01*
X253746047Y-58156980D01*
X253841285Y-58109361D01*
X253888904Y-58061742D01*
X253936523Y-57966504D01*
X253936523Y-57156980D01*
X254460333Y-58156980D02*
X254650809Y-58156980D01*
X254746047Y-58109361D01*
X254793666Y-58061742D01*
X254888904Y-57918885D01*
X254936523Y-57728409D01*
X254936523Y-57347457D01*
X254888904Y-57252219D01*
X254841285Y-57204600D01*
X254746047Y-57156980D01*
X254555571Y-57156980D01*
X254460333Y-57204600D01*
X254412714Y-57252219D01*
X254365095Y-57347457D01*
X254365095Y-57585552D01*
X254412714Y-57680790D01*
X254460333Y-57728409D01*
X254555571Y-57776028D01*
X254746047Y-57776028D01*
X254841285Y-57728409D01*
X254888904Y-57680790D01*
X254936523Y-57585552D01*
X194088380Y-75406095D02*
X194897904Y-75406095D01*
X194993142Y-75358476D01*
X195040761Y-75310857D01*
X195088380Y-75215619D01*
X195088380Y-75025142D01*
X195040761Y-74929904D01*
X194993142Y-74882285D01*
X194897904Y-74834666D01*
X194088380Y-74834666D01*
X195088380Y-73834666D02*
X195088380Y-74406095D01*
X195088380Y-74120380D02*
X194088380Y-74120380D01*
X194231238Y-74215619D01*
X194326476Y-74310857D01*
X194374095Y-74406095D01*
X194088380Y-73215619D02*
X194088380Y-73120380D01*
X194136000Y-73025142D01*
X194183619Y-72977523D01*
X194278857Y-72929904D01*
X194469333Y-72882285D01*
X194707428Y-72882285D01*
X194897904Y-72929904D01*
X194993142Y-72977523D01*
X195040761Y-73025142D01*
X195088380Y-73120380D01*
X195088380Y-73215619D01*
X195040761Y-73310857D01*
X194993142Y-73358476D01*
X194897904Y-73406095D01*
X194707428Y-73453714D01*
X194469333Y-73453714D01*
X194278857Y-73406095D01*
X194183619Y-73358476D01*
X194136000Y-73310857D01*
X194088380Y-73215619D01*
X208946347Y-111690217D02*
X208609629Y-112026935D01*
X209081034Y-111084126D02*
X208946347Y-111690217D01*
X209552438Y-111555530D01*
X209451423Y-112868728D02*
X209047362Y-112464667D01*
X209249393Y-112666698D02*
X209956499Y-111959591D01*
X209788141Y-111993263D01*
X209653454Y-111993263D01*
X209552438Y-111959591D01*
X187174142Y-95257857D02*
X187221761Y-95305476D01*
X187269380Y-95448333D01*
X187269380Y-95543571D01*
X187221761Y-95686428D01*
X187126523Y-95781666D01*
X187031285Y-95829285D01*
X186840809Y-95876904D01*
X186697952Y-95876904D01*
X186507476Y-95829285D01*
X186412238Y-95781666D01*
X186317000Y-95686428D01*
X186269380Y-95543571D01*
X186269380Y-95448333D01*
X186317000Y-95305476D01*
X186364619Y-95257857D01*
X186269380Y-94924523D02*
X186269380Y-94305476D01*
X186650333Y-94638809D01*
X186650333Y-94495952D01*
X186697952Y-94400714D01*
X186745571Y-94353095D01*
X186840809Y-94305476D01*
X187078904Y-94305476D01*
X187174142Y-94353095D01*
X187221761Y-94400714D01*
X187269380Y-94495952D01*
X187269380Y-94781666D01*
X187221761Y-94876904D01*
X187174142Y-94924523D01*
X186269380Y-93972142D02*
X186269380Y-93353095D01*
X186650333Y-93686428D01*
X186650333Y-93543571D01*
X186697952Y-93448333D01*
X186745571Y-93400714D01*
X186840809Y-93353095D01*
X187078904Y-93353095D01*
X187174142Y-93400714D01*
X187221761Y-93448333D01*
X187269380Y-93543571D01*
X187269380Y-93829285D01*
X187221761Y-93924523D01*
X187174142Y-93972142D01*
X190301904Y-96607380D02*
X190635238Y-97607380D01*
X190968571Y-96607380D01*
X191635238Y-97083571D02*
X191778095Y-97131190D01*
X191825714Y-97178809D01*
X191873333Y-97274047D01*
X191873333Y-97416904D01*
X191825714Y-97512142D01*
X191778095Y-97559761D01*
X191682857Y-97607380D01*
X191301904Y-97607380D01*
X191301904Y-96607380D01*
X191635238Y-96607380D01*
X191730476Y-96655000D01*
X191778095Y-96702619D01*
X191825714Y-96797857D01*
X191825714Y-96893095D01*
X191778095Y-96988333D01*
X191730476Y-97035952D01*
X191635238Y-97083571D01*
X191301904Y-97083571D01*
X192492380Y-96607380D02*
X192682857Y-96607380D01*
X192778095Y-96655000D01*
X192873333Y-96750238D01*
X192920952Y-96940714D01*
X192920952Y-97274047D01*
X192873333Y-97464523D01*
X192778095Y-97559761D01*
X192682857Y-97607380D01*
X192492380Y-97607380D01*
X192397142Y-97559761D01*
X192301904Y-97464523D01*
X192254285Y-97274047D01*
X192254285Y-96940714D01*
X192301904Y-96750238D01*
X192397142Y-96655000D01*
X192492380Y-96607380D01*
X193540000Y-96607380D02*
X193730476Y-96607380D01*
X193825714Y-96655000D01*
X193920952Y-96750238D01*
X193968571Y-96940714D01*
X193968571Y-97274047D01*
X193920952Y-97464523D01*
X193825714Y-97559761D01*
X193730476Y-97607380D01*
X193540000Y-97607380D01*
X193444761Y-97559761D01*
X193349523Y-97464523D01*
X193301904Y-97274047D01*
X193301904Y-96940714D01*
X193349523Y-96750238D01*
X193444761Y-96655000D01*
X193540000Y-96607380D01*
X194349523Y-97559761D02*
X194492380Y-97607380D01*
X194730476Y-97607380D01*
X194825714Y-97559761D01*
X194873333Y-97512142D01*
X194920952Y-97416904D01*
X194920952Y-97321666D01*
X194873333Y-97226428D01*
X194825714Y-97178809D01*
X194730476Y-97131190D01*
X194540000Y-97083571D01*
X194444761Y-97035952D01*
X194397142Y-96988333D01*
X194349523Y-96893095D01*
X194349523Y-96797857D01*
X194397142Y-96702619D01*
X194444761Y-96655000D01*
X194540000Y-96607380D01*
X194778095Y-96607380D01*
X194920952Y-96655000D01*
X195206666Y-96607380D02*
X195778095Y-96607380D01*
X195492380Y-97607380D02*
X195492380Y-96607380D01*
M02*
