%TF.GenerationSoftware,KiCad,Pcbnew,(5.0.2)-1*%
%TF.CreationDate,2019-04-20T18:00:10-07:00*%
%TF.ProjectId,YM2612_MIDI_SMD,594d3236-3132-45f4-9d49-44495f534d44,rev?*%
%TF.SameCoordinates,Original*%
%TF.FileFunction,Legend,Top*%
%TF.FilePolarity,Positive*%
%FSLAX46Y46*%
G04 Gerber Fmt 4.6, Leading zero omitted, Abs format (unit mm)*
G04 Created by KiCad (PCBNEW (5.0.2)-1) date 4/20/2019 6:00:10 PM*
%MOMM*%
%LPD*%
G01*
G04 APERTURE LIST*
%ADD10C,0.200000*%
%ADD11C,0.300000*%
%ADD12C,0.150000*%
%ADD13C,0.250000*%
%ADD14C,0.120000*%
%ADD15C,0.304800*%
%ADD16C,0.152400*%
%ADD17C,0.010000*%
%ADD18C,0.125000*%
G04 APERTURE END LIST*
D10*
X181152800Y-71221600D02*
X181152800Y-71374000D01*
X181152800Y-71323200D02*
X181152800Y-69494400D01*
X216662000Y-51562000D02*
X218186000Y-51562000D01*
X216662000Y-49022000D02*
X216662000Y-51562000D01*
X218440000Y-49022000D02*
X216662000Y-49022000D01*
D11*
X199953714Y-52240571D02*
X199953714Y-50740571D01*
X200453714Y-51812000D01*
X200953714Y-50740571D01*
X200953714Y-52240571D01*
X201525142Y-50740571D02*
X202453714Y-50740571D01*
X201953714Y-51312000D01*
X202168000Y-51312000D01*
X202310857Y-51383428D01*
X202382285Y-51454857D01*
X202453714Y-51597714D01*
X202453714Y-51954857D01*
X202382285Y-52097714D01*
X202310857Y-52169142D01*
X202168000Y-52240571D01*
X201739428Y-52240571D01*
X201596571Y-52169142D01*
X201525142Y-52097714D01*
X265485714Y-142688571D02*
X265985714Y-144188571D01*
X266485714Y-142688571D01*
X266842857Y-142688571D02*
X267771428Y-142688571D01*
X267271428Y-143260000D01*
X267485714Y-143260000D01*
X267628571Y-143331428D01*
X267700000Y-143402857D01*
X267771428Y-143545714D01*
X267771428Y-143902857D01*
X267700000Y-144045714D01*
X267628571Y-144117142D01*
X267485714Y-144188571D01*
X267057142Y-144188571D01*
X266914285Y-144117142D01*
X266842857Y-144045714D01*
X248976628Y-122750971D02*
X248476628Y-122036685D01*
X248119485Y-122750971D02*
X248119485Y-121250971D01*
X248690914Y-121250971D01*
X248833771Y-121322400D01*
X248905200Y-121393828D01*
X248976628Y-121536685D01*
X248976628Y-121750971D01*
X248905200Y-121893828D01*
X248833771Y-121965257D01*
X248690914Y-122036685D01*
X248119485Y-122036685D01*
X249619485Y-121965257D02*
X250119485Y-121965257D01*
X250333771Y-122750971D02*
X249619485Y-122750971D01*
X249619485Y-121250971D01*
X250333771Y-121250971D01*
X250905200Y-122679542D02*
X251119485Y-122750971D01*
X251476628Y-122750971D01*
X251619485Y-122679542D01*
X251690914Y-122608114D01*
X251762342Y-122465257D01*
X251762342Y-122322400D01*
X251690914Y-122179542D01*
X251619485Y-122108114D01*
X251476628Y-122036685D01*
X251190914Y-121965257D01*
X251048057Y-121893828D01*
X250976628Y-121822400D01*
X250905200Y-121679542D01*
X250905200Y-121536685D01*
X250976628Y-121393828D01*
X251048057Y-121322400D01*
X251190914Y-121250971D01*
X251548057Y-121250971D01*
X251762342Y-121322400D01*
X252405200Y-121965257D02*
X252905200Y-121965257D01*
X253119485Y-122750971D02*
X252405200Y-122750971D01*
X252405200Y-121250971D01*
X253119485Y-121250971D01*
X253548057Y-121250971D02*
X254405200Y-121250971D01*
X253976628Y-122750971D02*
X253976628Y-121250971D01*
D12*
X273000000Y-142000000D02*
X273000000Y-48000000D01*
X176000000Y-145000000D02*
X270000000Y-145000000D01*
X173000000Y-48000000D02*
X173000000Y-142000000D01*
X270000000Y-45000000D02*
X176000000Y-45000000D01*
X270000000Y-45000000D02*
G75*
G02X273000000Y-48000000I0J-3000000D01*
G01*
X273000000Y-142000000D02*
G75*
G02X270000000Y-145000000I-3000000J0D01*
G01*
X176000000Y-145000000D02*
G75*
G02X173000000Y-142000000I0J3000000D01*
G01*
X173000000Y-48000000D02*
G75*
G02X176000000Y-45000000I3000000J0D01*
G01*
D11*
X188893714Y-143823500D02*
X189608000Y-143823500D01*
X188750857Y-144252071D02*
X189250857Y-142752071D01*
X189750857Y-144252071D01*
X190250857Y-144252071D02*
X190250857Y-143252071D01*
X190250857Y-142752071D02*
X190179428Y-142823500D01*
X190250857Y-142894928D01*
X190322285Y-142823500D01*
X190250857Y-142752071D01*
X190250857Y-142894928D01*
X191608000Y-144252071D02*
X191608000Y-142752071D01*
X191608000Y-144180642D02*
X191465142Y-144252071D01*
X191179428Y-144252071D01*
X191036571Y-144180642D01*
X190965142Y-144109214D01*
X190893714Y-143966357D01*
X190893714Y-143537785D01*
X190965142Y-143394928D01*
X191036571Y-143323500D01*
X191179428Y-143252071D01*
X191465142Y-143252071D01*
X191608000Y-143323500D01*
X192965142Y-144252071D02*
X192965142Y-143466357D01*
X192893714Y-143323500D01*
X192750857Y-143252071D01*
X192465142Y-143252071D01*
X192322285Y-143323500D01*
X192965142Y-144180642D02*
X192822285Y-144252071D01*
X192465142Y-144252071D01*
X192322285Y-144180642D01*
X192250857Y-144037785D01*
X192250857Y-143894928D01*
X192322285Y-143752071D01*
X192465142Y-143680642D01*
X192822285Y-143680642D01*
X192965142Y-143609214D01*
X193679428Y-143252071D02*
X193679428Y-144252071D01*
X193679428Y-143394928D02*
X193750857Y-143323500D01*
X193893714Y-143252071D01*
X194108000Y-143252071D01*
X194250857Y-143323500D01*
X194322285Y-143466357D01*
X194322285Y-144252071D01*
X196893714Y-144252071D02*
X196179428Y-144252071D01*
X196179428Y-142752071D01*
X198036571Y-144252071D02*
X198036571Y-143466357D01*
X197965142Y-143323500D01*
X197822285Y-143252071D01*
X197536571Y-143252071D01*
X197393714Y-143323500D01*
X198036571Y-144180642D02*
X197893714Y-144252071D01*
X197536571Y-144252071D01*
X197393714Y-144180642D01*
X197322285Y-144037785D01*
X197322285Y-143894928D01*
X197393714Y-143752071D01*
X197536571Y-143680642D01*
X197893714Y-143680642D01*
X198036571Y-143609214D01*
X198608000Y-143252071D02*
X198893714Y-144252071D01*
X199179428Y-143537785D01*
X199465142Y-144252071D01*
X199750857Y-143252071D01*
X200322285Y-144252071D02*
X200322285Y-143252071D01*
X200322285Y-143537785D02*
X200393714Y-143394928D01*
X200465142Y-143323500D01*
X200608000Y-143252071D01*
X200750857Y-143252071D01*
X201822285Y-144180642D02*
X201679428Y-144252071D01*
X201393714Y-144252071D01*
X201250857Y-144180642D01*
X201179428Y-144037785D01*
X201179428Y-143466357D01*
X201250857Y-143323500D01*
X201393714Y-143252071D01*
X201679428Y-143252071D01*
X201822285Y-143323500D01*
X201893714Y-143466357D01*
X201893714Y-143609214D01*
X201179428Y-143752071D01*
X202536571Y-143252071D02*
X202536571Y-144252071D01*
X202536571Y-143394928D02*
X202608000Y-143323500D01*
X202750857Y-143252071D01*
X202965142Y-143252071D01*
X203108000Y-143323500D01*
X203179428Y-143466357D01*
X203179428Y-144252071D01*
X204536571Y-144180642D02*
X204393714Y-144252071D01*
X204108000Y-144252071D01*
X203965142Y-144180642D01*
X203893714Y-144109214D01*
X203822285Y-143966357D01*
X203822285Y-143537785D01*
X203893714Y-143394928D01*
X203965142Y-143323500D01*
X204108000Y-143252071D01*
X204393714Y-143252071D01*
X204536571Y-143323500D01*
X205750857Y-144180642D02*
X205608000Y-144252071D01*
X205322285Y-144252071D01*
X205179428Y-144180642D01*
X205108000Y-144037785D01*
X205108000Y-143466357D01*
X205179428Y-143323500D01*
X205322285Y-143252071D01*
X205608000Y-143252071D01*
X205750857Y-143323500D01*
X205822285Y-143466357D01*
X205822285Y-143609214D01*
X205108000Y-143752071D01*
X223057428Y-141707071D02*
X223057428Y-140207071D01*
X223557428Y-141278500D01*
X224057428Y-140207071D01*
X224057428Y-141707071D01*
X224771714Y-140921357D02*
X225271714Y-140921357D01*
X225486000Y-141707071D02*
X224771714Y-141707071D01*
X224771714Y-140207071D01*
X225486000Y-140207071D01*
X226914571Y-140278500D02*
X226771714Y-140207071D01*
X226557428Y-140207071D01*
X226343142Y-140278500D01*
X226200285Y-140421357D01*
X226128857Y-140564214D01*
X226057428Y-140849928D01*
X226057428Y-141064214D01*
X226128857Y-141349928D01*
X226200285Y-141492785D01*
X226343142Y-141635642D01*
X226557428Y-141707071D01*
X226700285Y-141707071D01*
X226914571Y-141635642D01*
X226986000Y-141564214D01*
X226986000Y-141064214D01*
X226700285Y-141064214D01*
X227557428Y-141278500D02*
X228271714Y-141278500D01*
X227414571Y-141707071D02*
X227914571Y-140207071D01*
X228414571Y-141707071D01*
X230057428Y-141707071D02*
X230057428Y-140207071D01*
X230557428Y-141278500D01*
X231057428Y-140207071D01*
X231057428Y-141707071D01*
X231771714Y-141707071D02*
X231771714Y-140207071D01*
X232486000Y-141707071D02*
X232486000Y-140207071D01*
X232843142Y-140207071D01*
X233057428Y-140278500D01*
X233200285Y-140421357D01*
X233271714Y-140564214D01*
X233343142Y-140849928D01*
X233343142Y-141064214D01*
X233271714Y-141349928D01*
X233200285Y-141492785D01*
X233057428Y-141635642D01*
X232843142Y-141707071D01*
X232486000Y-141707071D01*
X233986000Y-141707071D02*
X233986000Y-140207071D01*
X235771714Y-141635642D02*
X235986000Y-141707071D01*
X236343142Y-141707071D01*
X236486000Y-141635642D01*
X236557428Y-141564214D01*
X236628857Y-141421357D01*
X236628857Y-141278500D01*
X236557428Y-141135642D01*
X236486000Y-141064214D01*
X236343142Y-140992785D01*
X236057428Y-140921357D01*
X235914571Y-140849928D01*
X235843142Y-140778500D01*
X235771714Y-140635642D01*
X235771714Y-140492785D01*
X235843142Y-140349928D01*
X235914571Y-140278500D01*
X236057428Y-140207071D01*
X236414571Y-140207071D01*
X236628857Y-140278500D01*
X237843142Y-141635642D02*
X237700285Y-141707071D01*
X237414571Y-141707071D01*
X237271714Y-141635642D01*
X237200285Y-141492785D01*
X237200285Y-140921357D01*
X237271714Y-140778500D01*
X237414571Y-140707071D01*
X237700285Y-140707071D01*
X237843142Y-140778500D01*
X237914571Y-140921357D01*
X237914571Y-141064214D01*
X237200285Y-141207071D01*
X239200285Y-140707071D02*
X239200285Y-141921357D01*
X239128857Y-142064214D01*
X239057428Y-142135642D01*
X238914571Y-142207071D01*
X238700285Y-142207071D01*
X238557428Y-142135642D01*
X239200285Y-141635642D02*
X239057428Y-141707071D01*
X238771714Y-141707071D01*
X238628857Y-141635642D01*
X238557428Y-141564214D01*
X238486000Y-141421357D01*
X238486000Y-140992785D01*
X238557428Y-140849928D01*
X238628857Y-140778500D01*
X238771714Y-140707071D01*
X239057428Y-140707071D01*
X239200285Y-140778500D01*
X240557428Y-141707071D02*
X240557428Y-140921357D01*
X240486000Y-140778500D01*
X240343142Y-140707071D01*
X240057428Y-140707071D01*
X239914571Y-140778500D01*
X240557428Y-141635642D02*
X240414571Y-141707071D01*
X240057428Y-141707071D01*
X239914571Y-141635642D01*
X239843142Y-141492785D01*
X239843142Y-141349928D01*
X239914571Y-141207071D01*
X240057428Y-141135642D01*
X240414571Y-141135642D01*
X240557428Y-141064214D01*
X243200285Y-140278500D02*
X243057428Y-140207071D01*
X242843142Y-140207071D01*
X242628857Y-140278500D01*
X242486000Y-140421357D01*
X242414571Y-140564214D01*
X242343142Y-140849928D01*
X242343142Y-141064214D01*
X242414571Y-141349928D01*
X242486000Y-141492785D01*
X242628857Y-141635642D01*
X242843142Y-141707071D01*
X242986000Y-141707071D01*
X243200285Y-141635642D01*
X243271714Y-141564214D01*
X243271714Y-141064214D01*
X242986000Y-141064214D01*
X244486000Y-141635642D02*
X244343142Y-141707071D01*
X244057428Y-141707071D01*
X243914571Y-141635642D01*
X243843142Y-141492785D01*
X243843142Y-140921357D01*
X243914571Y-140778500D01*
X244057428Y-140707071D01*
X244343142Y-140707071D01*
X244486000Y-140778500D01*
X244557428Y-140921357D01*
X244557428Y-141064214D01*
X243843142Y-141207071D01*
X245200285Y-140707071D02*
X245200285Y-141707071D01*
X245200285Y-140849928D02*
X245271714Y-140778500D01*
X245414571Y-140707071D01*
X245628857Y-140707071D01*
X245771714Y-140778500D01*
X245843142Y-140921357D01*
X245843142Y-141707071D01*
X247128857Y-141635642D02*
X246986000Y-141707071D01*
X246700285Y-141707071D01*
X246557428Y-141635642D01*
X246486000Y-141492785D01*
X246486000Y-140921357D01*
X246557428Y-140778500D01*
X246700285Y-140707071D01*
X246986000Y-140707071D01*
X247128857Y-140778500D01*
X247200285Y-140921357D01*
X247200285Y-141064214D01*
X246486000Y-141207071D01*
X247771714Y-141635642D02*
X247914571Y-141707071D01*
X248200285Y-141707071D01*
X248343142Y-141635642D01*
X248414571Y-141492785D01*
X248414571Y-141421357D01*
X248343142Y-141278500D01*
X248200285Y-141207071D01*
X247986000Y-141207071D01*
X247843142Y-141135642D01*
X247771714Y-140992785D01*
X247771714Y-140921357D01*
X247843142Y-140778500D01*
X247986000Y-140707071D01*
X248200285Y-140707071D01*
X248343142Y-140778500D01*
X249057428Y-141707071D02*
X249057428Y-140707071D01*
X249057428Y-140207071D02*
X248986000Y-140278500D01*
X249057428Y-140349928D01*
X249128857Y-140278500D01*
X249057428Y-140207071D01*
X249057428Y-140349928D01*
X249700285Y-141635642D02*
X249843142Y-141707071D01*
X250128857Y-141707071D01*
X250271714Y-141635642D01*
X250343142Y-141492785D01*
X250343142Y-141421357D01*
X250271714Y-141278500D01*
X250128857Y-141207071D01*
X249914571Y-141207071D01*
X249771714Y-141135642D01*
X249700285Y-140992785D01*
X249700285Y-140921357D01*
X249771714Y-140778500D01*
X249914571Y-140707071D01*
X250128857Y-140707071D01*
X250271714Y-140778500D01*
X229628857Y-143471357D02*
X229128857Y-143471357D01*
X229128857Y-144257071D02*
X229128857Y-142757071D01*
X229843142Y-142757071D01*
X230414571Y-144257071D02*
X230414571Y-142757071D01*
X230914571Y-143828500D01*
X231414571Y-142757071D01*
X231414571Y-144257071D01*
X233200285Y-144185642D02*
X233414571Y-144257071D01*
X233771714Y-144257071D01*
X233914571Y-144185642D01*
X233986000Y-144114214D01*
X234057428Y-143971357D01*
X234057428Y-143828500D01*
X233986000Y-143685642D01*
X233914571Y-143614214D01*
X233771714Y-143542785D01*
X233486000Y-143471357D01*
X233343142Y-143399928D01*
X233271714Y-143328500D01*
X233200285Y-143185642D01*
X233200285Y-143042785D01*
X233271714Y-142899928D01*
X233343142Y-142828500D01*
X233486000Y-142757071D01*
X233843142Y-142757071D01*
X234057428Y-142828500D01*
X234557428Y-143257071D02*
X234914571Y-144257071D01*
X235271714Y-143257071D02*
X234914571Y-144257071D01*
X234771714Y-144614214D01*
X234700285Y-144685642D01*
X234557428Y-144757071D01*
X235843142Y-143257071D02*
X235843142Y-144257071D01*
X235843142Y-143399928D02*
X235914571Y-143328500D01*
X236057428Y-143257071D01*
X236271714Y-143257071D01*
X236414571Y-143328500D01*
X236486000Y-143471357D01*
X236486000Y-144257071D01*
X236986000Y-143257071D02*
X237557428Y-143257071D01*
X237200285Y-142757071D02*
X237200285Y-144042785D01*
X237271714Y-144185642D01*
X237414571Y-144257071D01*
X237557428Y-144257071D01*
X238057428Y-144257071D02*
X238057428Y-142757071D01*
X238700285Y-144257071D02*
X238700285Y-143471357D01*
X238628857Y-143328500D01*
X238486000Y-143257071D01*
X238271714Y-143257071D01*
X238128857Y-143328500D01*
X238057428Y-143399928D01*
X239986000Y-144185642D02*
X239843142Y-144257071D01*
X239557428Y-144257071D01*
X239414571Y-144185642D01*
X239343142Y-144042785D01*
X239343142Y-143471357D01*
X239414571Y-143328500D01*
X239557428Y-143257071D01*
X239843142Y-143257071D01*
X239986000Y-143328500D01*
X240057428Y-143471357D01*
X240057428Y-143614214D01*
X239343142Y-143757071D01*
X240628857Y-144185642D02*
X240771714Y-144257071D01*
X241057428Y-144257071D01*
X241200285Y-144185642D01*
X241271714Y-144042785D01*
X241271714Y-143971357D01*
X241200285Y-143828500D01*
X241057428Y-143757071D01*
X240843142Y-143757071D01*
X240700285Y-143685642D01*
X240628857Y-143542785D01*
X240628857Y-143471357D01*
X240700285Y-143328500D01*
X240843142Y-143257071D01*
X241057428Y-143257071D01*
X241200285Y-143328500D01*
X241914571Y-144257071D02*
X241914571Y-143257071D01*
X241914571Y-142757071D02*
X241843142Y-142828500D01*
X241914571Y-142899928D01*
X241986000Y-142828500D01*
X241914571Y-142757071D01*
X241914571Y-142899928D01*
X242486000Y-143257071D02*
X243271714Y-143257071D01*
X242486000Y-144257071D01*
X243271714Y-144257071D01*
X244414571Y-144185642D02*
X244271714Y-144257071D01*
X243986000Y-144257071D01*
X243843142Y-144185642D01*
X243771714Y-144042785D01*
X243771714Y-143471357D01*
X243843142Y-143328500D01*
X243986000Y-143257071D01*
X244271714Y-143257071D01*
X244414571Y-143328500D01*
X244486000Y-143471357D01*
X244486000Y-143614214D01*
X243771714Y-143757071D01*
X245128857Y-144257071D02*
X245128857Y-143257071D01*
X245128857Y-143542785D02*
X245200285Y-143399928D01*
X245271714Y-143328500D01*
X245414571Y-143257071D01*
X245557428Y-143257071D01*
X210598071Y-142894928D02*
X210669500Y-142823500D01*
X210812357Y-142752071D01*
X211169500Y-142752071D01*
X211312357Y-142823500D01*
X211383785Y-142894928D01*
X211455214Y-143037785D01*
X211455214Y-143180642D01*
X211383785Y-143394928D01*
X210526642Y-144252071D01*
X211455214Y-144252071D01*
X212383785Y-142752071D02*
X212526642Y-142752071D01*
X212669500Y-142823500D01*
X212740928Y-142894928D01*
X212812357Y-143037785D01*
X212883785Y-143323500D01*
X212883785Y-143680642D01*
X212812357Y-143966357D01*
X212740928Y-144109214D01*
X212669500Y-144180642D01*
X212526642Y-144252071D01*
X212383785Y-144252071D01*
X212240928Y-144180642D01*
X212169500Y-144109214D01*
X212098071Y-143966357D01*
X212026642Y-143680642D01*
X212026642Y-143323500D01*
X212098071Y-143037785D01*
X212169500Y-142894928D01*
X212240928Y-142823500D01*
X212383785Y-142752071D01*
X214312357Y-144252071D02*
X213455214Y-144252071D01*
X213883785Y-144252071D02*
X213883785Y-142752071D01*
X213740928Y-142966357D01*
X213598071Y-143109214D01*
X213455214Y-143180642D01*
X215026642Y-144252071D02*
X215312357Y-144252071D01*
X215455214Y-144180642D01*
X215526642Y-144109214D01*
X215669500Y-143894928D01*
X215740928Y-143609214D01*
X215740928Y-143037785D01*
X215669500Y-142894928D01*
X215598071Y-142823500D01*
X215455214Y-142752071D01*
X215169500Y-142752071D01*
X215026642Y-142823500D01*
X214955214Y-142894928D01*
X214883785Y-143037785D01*
X214883785Y-143394928D01*
X214955214Y-143537785D01*
X215026642Y-143609214D01*
X215169500Y-143680642D01*
X215455214Y-143680642D01*
X215598071Y-143609214D01*
X215669500Y-143537785D01*
X215740928Y-143394928D01*
X248809000Y-136533142D02*
X250809000Y-136533142D01*
X249523285Y-139533142D01*
X240220428Y-136533142D02*
X239649000Y-136533142D01*
X239363285Y-136676000D01*
X239220428Y-136818857D01*
X238934714Y-137247428D01*
X238791857Y-137818857D01*
X238791857Y-138961714D01*
X238934714Y-139247428D01*
X239077571Y-139390285D01*
X239363285Y-139533142D01*
X239934714Y-139533142D01*
X240220428Y-139390285D01*
X240363285Y-139247428D01*
X240506142Y-138961714D01*
X240506142Y-138247428D01*
X240363285Y-137961714D01*
X240220428Y-137818857D01*
X239934714Y-137676000D01*
X239363285Y-137676000D01*
X239077571Y-137818857D01*
X238934714Y-137961714D01*
X238791857Y-138247428D01*
X230203285Y-136533142D02*
X228774714Y-136533142D01*
X228631857Y-137961714D01*
X228774714Y-137818857D01*
X229060428Y-137676000D01*
X229774714Y-137676000D01*
X230060428Y-137818857D01*
X230203285Y-137961714D01*
X230346142Y-138247428D01*
X230346142Y-138961714D01*
X230203285Y-139247428D01*
X230060428Y-139390285D01*
X229774714Y-139533142D01*
X229060428Y-139533142D01*
X228774714Y-139390285D01*
X228631857Y-139247428D01*
X219900428Y-137533142D02*
X219900428Y-139533142D01*
X219186142Y-136390285D02*
X218471857Y-138533142D01*
X220329000Y-138533142D01*
X208169000Y-136533142D02*
X210026142Y-136533142D01*
X209026142Y-137676000D01*
X209454714Y-137676000D01*
X209740428Y-137818857D01*
X209883285Y-137961714D01*
X210026142Y-138247428D01*
X210026142Y-138961714D01*
X209883285Y-139247428D01*
X209740428Y-139390285D01*
X209454714Y-139533142D01*
X208597571Y-139533142D01*
X208311857Y-139390285D01*
X208169000Y-139247428D01*
X198151857Y-136818857D02*
X198294714Y-136676000D01*
X198580428Y-136533142D01*
X199294714Y-136533142D01*
X199580428Y-136676000D01*
X199723285Y-136818857D01*
X199866142Y-137104571D01*
X199866142Y-137390285D01*
X199723285Y-137818857D01*
X198009000Y-139533142D01*
X199866142Y-139533142D01*
X189706142Y-139533142D02*
X187991857Y-139533142D01*
X188849000Y-139533142D02*
X188849000Y-136533142D01*
X188563285Y-136961714D01*
X188277571Y-137247428D01*
X187991857Y-137390285D01*
X176506428Y-139533142D02*
X175077857Y-139533142D01*
X175077857Y-136533142D01*
X178506428Y-137961714D02*
X177506428Y-137961714D01*
X177506428Y-139533142D02*
X177506428Y-136533142D01*
X178935000Y-136533142D01*
X180649285Y-136533142D02*
X181220714Y-136533142D01*
X181506428Y-136676000D01*
X181792142Y-136961714D01*
X181935000Y-137533142D01*
X181935000Y-138533142D01*
X181792142Y-139104571D01*
X181506428Y-139390285D01*
X181220714Y-139533142D01*
X180649285Y-139533142D01*
X180363571Y-139390285D01*
X180077857Y-139104571D01*
X179935000Y-138533142D01*
X179935000Y-137533142D01*
X180077857Y-136961714D01*
X180363571Y-136676000D01*
X180649285Y-136533142D01*
D13*
X236745184Y-116630789D02*
X236173756Y-116630789D01*
X236459470Y-116630789D02*
X236459470Y-115630789D01*
X236364232Y-115773647D01*
X236268994Y-115868885D01*
X236173756Y-115916504D01*
X237602327Y-115630789D02*
X237411851Y-115630789D01*
X237316613Y-115678409D01*
X237268994Y-115726028D01*
X237173756Y-115868885D01*
X237126137Y-116059361D01*
X237126137Y-116440313D01*
X237173756Y-116535551D01*
X237221375Y-116583170D01*
X237316613Y-116630789D01*
X237507089Y-116630789D01*
X237602327Y-116583170D01*
X237649946Y-116535551D01*
X237697565Y-116440313D01*
X237697565Y-116202218D01*
X237649946Y-116106980D01*
X237602327Y-116059361D01*
X237507089Y-116011742D01*
X237316613Y-116011742D01*
X237221375Y-116059361D01*
X237173756Y-116106980D01*
X237126137Y-116202218D01*
X238126137Y-116630789D02*
X238126137Y-115630789D01*
X238459470Y-116345075D01*
X238792803Y-115630789D01*
X238792803Y-116630789D01*
X239268994Y-116630789D02*
X239268994Y-115630789D01*
X239268994Y-116106980D02*
X239840422Y-116106980D01*
X239840422Y-116630789D02*
X239840422Y-115630789D01*
X240221375Y-115964123D02*
X240745184Y-115964123D01*
X240221375Y-116630789D01*
X240745184Y-116630789D01*
D11*
X217678000Y-46930571D02*
X217678000Y-47287714D01*
X217320857Y-47144857D02*
X217678000Y-47287714D01*
X218035142Y-47144857D01*
X217463714Y-47573428D02*
X217678000Y-47287714D01*
X217892285Y-47573428D01*
D13*
X193441295Y-47596400D02*
X193346057Y-47548780D01*
X193203200Y-47548780D01*
X193060342Y-47596400D01*
X192965104Y-47691638D01*
X192917485Y-47786876D01*
X192869866Y-47977352D01*
X192869866Y-48120209D01*
X192917485Y-48310685D01*
X192965104Y-48405923D01*
X193060342Y-48501161D01*
X193203200Y-48548780D01*
X193298438Y-48548780D01*
X193441295Y-48501161D01*
X193488914Y-48453542D01*
X193488914Y-48120209D01*
X193298438Y-48120209D01*
X193917485Y-48548780D02*
X193917485Y-47548780D01*
X194488914Y-48548780D01*
X194488914Y-47548780D01*
X194965104Y-48548780D02*
X194965104Y-47548780D01*
X195203200Y-47548780D01*
X195346057Y-47596400D01*
X195441295Y-47691638D01*
X195488914Y-47786876D01*
X195536533Y-47977352D01*
X195536533Y-48120209D01*
X195488914Y-48310685D01*
X195441295Y-48405923D01*
X195346057Y-48501161D01*
X195203200Y-48548780D01*
X194965104Y-48548780D01*
D11*
X258207142Y-59192857D02*
X257521428Y-59192857D01*
X257864285Y-59192857D02*
X257864285Y-57992857D01*
X257750000Y-58164285D01*
X257635714Y-58278571D01*
X257521428Y-58335714D01*
X258664285Y-58107142D02*
X258721428Y-58050000D01*
X258835714Y-57992857D01*
X259121428Y-57992857D01*
X259235714Y-58050000D01*
X259292857Y-58107142D01*
X259350000Y-58221428D01*
X259350000Y-58335714D01*
X259292857Y-58507142D01*
X258607142Y-59192857D01*
X259350000Y-59192857D01*
X259692857Y-57992857D02*
X260092857Y-59192857D01*
X260492857Y-57992857D01*
X258035714Y-61292857D02*
X258035714Y-60092857D01*
X258321428Y-60092857D01*
X258492857Y-60150000D01*
X258607142Y-60264285D01*
X258664285Y-60378571D01*
X258721428Y-60607142D01*
X258721428Y-60778571D01*
X258664285Y-61007142D01*
X258607142Y-61121428D01*
X258492857Y-61235714D01*
X258321428Y-61292857D01*
X258035714Y-61292857D01*
X259921428Y-61178571D02*
X259864285Y-61235714D01*
X259692857Y-61292857D01*
X259578571Y-61292857D01*
X259407142Y-61235714D01*
X259292857Y-61121428D01*
X259235714Y-61007142D01*
X259178571Y-60778571D01*
X259178571Y-60607142D01*
X259235714Y-60378571D01*
X259292857Y-60264285D01*
X259407142Y-60150000D01*
X259578571Y-60092857D01*
X259692857Y-60092857D01*
X259864285Y-60150000D01*
X259921428Y-60207142D01*
X217816998Y-106255285D02*
X217459855Y-106255285D01*
X217602712Y-105898142D02*
X217459855Y-106255285D01*
X217602712Y-106612427D01*
X217174141Y-106040999D02*
X217459855Y-106255285D01*
X217174141Y-106469570D01*
D14*
X218598913Y-115225006D02*
X217891806Y-115932113D01*
X219093887Y-117134194D02*
X219800994Y-116427087D01*
X210100800Y-69914400D02*
X209100800Y-69914400D01*
X209100800Y-71614400D02*
X210100800Y-71614400D01*
X263936201Y-90081801D02*
X263936201Y-88661801D01*
X270536201Y-90841801D02*
X270536201Y-88661801D01*
X270536201Y-84241801D02*
X270536201Y-86421801D01*
X263936201Y-85001801D02*
X263936201Y-86421801D01*
X270536201Y-90841801D02*
X264696201Y-90841801D01*
X264696201Y-90841801D02*
X263936201Y-90081801D01*
X263936201Y-85001801D02*
X264696201Y-84241801D01*
X264696201Y-84241801D02*
X270536201Y-84241801D01*
X264696201Y-77391801D02*
X270536201Y-77391801D01*
X263936201Y-78151801D02*
X264696201Y-77391801D01*
X264696201Y-83991801D02*
X263936201Y-83231801D01*
X270536201Y-83991801D02*
X264696201Y-83991801D01*
X263936201Y-78151801D02*
X263936201Y-79571801D01*
X270536201Y-77391801D02*
X270536201Y-79571801D01*
X270536201Y-83991801D02*
X270536201Y-81811801D01*
X263936201Y-83231801D02*
X263936201Y-81811801D01*
X255375200Y-83592400D02*
X260775200Y-83592400D01*
X255375200Y-86892400D02*
X260775200Y-86892400D01*
X255375200Y-83592400D02*
X255375200Y-86892400D01*
X193081600Y-49114400D02*
X194411600Y-49114400D01*
X193081600Y-50444400D02*
X193081600Y-49114400D01*
X193081600Y-51714400D02*
X195741600Y-51714400D01*
X195741600Y-51714400D02*
X195741600Y-51774400D01*
X193081600Y-51714400D02*
X193081600Y-51774400D01*
X193081600Y-51774400D02*
X195741600Y-51774400D01*
X263025200Y-73155600D02*
X263025200Y-74255600D01*
X263975200Y-73155600D02*
X263025200Y-73155600D01*
X263975200Y-71655600D02*
X263975200Y-73155600D01*
X254525200Y-73155600D02*
X254525200Y-78280600D01*
X253575200Y-73155600D02*
X254525200Y-73155600D01*
X253575200Y-71655600D02*
X253575200Y-73155600D01*
D12*
X212322000Y-72702800D02*
X212322000Y-76702800D01*
X215922000Y-76702800D02*
X215922000Y-72702800D01*
X260700400Y-79022800D02*
X256700400Y-79022800D01*
X256700400Y-82622800D02*
X260700400Y-82622800D01*
D14*
X261808600Y-133131800D02*
X261808600Y-132131800D01*
X261308600Y-132631800D02*
X262308600Y-132631800D01*
X265308600Y-126531800D02*
X267708600Y-126531800D01*
X260508600Y-126531800D02*
X263108600Y-126531800D01*
X255908600Y-126531800D02*
X258308600Y-126531800D01*
X257708600Y-139831800D02*
X258008600Y-140131800D01*
X257708600Y-140431800D02*
X257708600Y-139831800D01*
X258008600Y-140131800D02*
X257708600Y-140431800D01*
X255908600Y-138731800D02*
X267708600Y-138731800D01*
X255908600Y-134631800D02*
X255908600Y-138731800D01*
X267708600Y-134631800D02*
X267708600Y-138731800D01*
X267708600Y-126531800D02*
X267708600Y-130631800D01*
X255908600Y-130631800D02*
X255908600Y-126531800D01*
X264808600Y-132631800D02*
G75*
G03X264808600Y-132631800I-3000000J0D01*
G01*
X254223200Y-116073600D02*
X254223200Y-118753600D01*
X247983200Y-118753600D02*
X247983200Y-116073600D01*
X248133200Y-114293600D02*
X254073200Y-114293600D01*
X248133200Y-120533600D02*
X254073200Y-120533600D01*
X252517414Y-117413600D02*
G75*
G03X252517414Y-117413600I-1414214J0D01*
G01*
X217294000Y-71432500D02*
X217294000Y-74322500D01*
X217294000Y-80332500D02*
X217294000Y-77442500D01*
X227714000Y-81092500D02*
X227714000Y-77442500D01*
X227714000Y-70672500D02*
X227714000Y-74322500D01*
X227714000Y-81092500D02*
X218054000Y-81092500D01*
X218054000Y-81092500D02*
X217294000Y-80332500D01*
X217294000Y-71432500D02*
X218054000Y-70672500D01*
X218054000Y-70672500D02*
X227714000Y-70672500D01*
X226311000Y-68648500D02*
X226311000Y-58988500D01*
X227071000Y-69408500D02*
X226311000Y-68648500D01*
X236731000Y-68648500D02*
X235971000Y-69408500D01*
X236731000Y-58988500D02*
X236731000Y-68648500D01*
X226311000Y-58988500D02*
X229961000Y-58988500D01*
X236731000Y-58988500D02*
X233081000Y-58988500D01*
X235971000Y-69408500D02*
X233081000Y-69408500D01*
X227071000Y-69408500D02*
X229961000Y-69408500D01*
X227071000Y-56708500D02*
X229961000Y-56708500D01*
X235971000Y-56708500D02*
X233081000Y-56708500D01*
X236731000Y-46288500D02*
X233081000Y-46288500D01*
X226311000Y-46288500D02*
X229961000Y-46288500D01*
X236731000Y-46288500D02*
X236731000Y-55948500D01*
X236731000Y-55948500D02*
X235971000Y-56708500D01*
X227071000Y-56708500D02*
X226311000Y-55948500D01*
X226311000Y-55948500D02*
X226311000Y-46288500D01*
X250441000Y-55758000D02*
X250441000Y-46098000D01*
X251201000Y-56518000D02*
X250441000Y-55758000D01*
X260861000Y-55758000D02*
X260101000Y-56518000D01*
X260861000Y-46098000D02*
X260861000Y-55758000D01*
X250441000Y-46098000D02*
X254091000Y-46098000D01*
X260861000Y-46098000D02*
X257211000Y-46098000D01*
X260101000Y-56518000D02*
X257211000Y-56518000D01*
X251201000Y-56518000D02*
X254091000Y-56518000D01*
X252222000Y-93470000D02*
X246382000Y-93470000D01*
X252982000Y-92710000D02*
X252222000Y-93470000D01*
X252222000Y-86870000D02*
X252982000Y-87630000D01*
X246382000Y-86870000D02*
X252222000Y-86870000D01*
X252982000Y-92710000D02*
X252982000Y-91290000D01*
X252982000Y-87630000D02*
X252982000Y-89050000D01*
X246382000Y-93470000D02*
X246382000Y-91290000D01*
X246382000Y-86870000D02*
X246382000Y-89050000D01*
X252040000Y-108300000D02*
X246200000Y-108300000D01*
X252800000Y-107540000D02*
X252040000Y-108300000D01*
X252040000Y-101700000D02*
X252800000Y-102460000D01*
X246200000Y-101700000D02*
X252040000Y-101700000D01*
X252800000Y-107540000D02*
X252800000Y-106120000D01*
X246200000Y-108300000D02*
X246200000Y-106120000D01*
X246200000Y-101700000D02*
X246200000Y-103880000D01*
X252800000Y-102460000D02*
X252800000Y-103880000D01*
X240801978Y-110338633D02*
X231892432Y-119248178D01*
X231892432Y-119248178D02*
X235498677Y-122854423D01*
X235498677Y-122854423D02*
X244408222Y-113944877D01*
X179932000Y-69421500D02*
X179932000Y-71421500D01*
X179932000Y-71421500D02*
X183832000Y-71421500D01*
X179932000Y-69421500D02*
X183832000Y-69421500D01*
X249454000Y-58101000D02*
X252254000Y-58101000D01*
X249454000Y-59501000D02*
X252254000Y-59501000D01*
X249454000Y-58101000D02*
X249454000Y-59501000D01*
X189322000Y-125340000D02*
X188122000Y-125340000D01*
X188122000Y-123580000D02*
X189322000Y-123580000D01*
X198282000Y-123580000D02*
X199482000Y-123580000D01*
X199482000Y-125340000D02*
X198282000Y-125340000D01*
X209642000Y-125340000D02*
X208442000Y-125340000D01*
X208442000Y-123580000D02*
X209642000Y-123580000D01*
X218602000Y-123580000D02*
X219802000Y-123580000D01*
X219802000Y-125340000D02*
X218602000Y-125340000D01*
X229896000Y-125340000D02*
X228696000Y-125340000D01*
X228696000Y-123580000D02*
X229896000Y-123580000D01*
X238922000Y-123580000D02*
X240122000Y-123580000D01*
X240122000Y-125340000D02*
X238922000Y-125340000D01*
X250282000Y-125340000D02*
X249082000Y-125340000D01*
X249082000Y-123580000D02*
X250282000Y-123580000D01*
X230768000Y-80422000D02*
X230768000Y-79222000D01*
X232528000Y-79222000D02*
X232528000Y-80422000D01*
X179162000Y-125340000D02*
X177962000Y-125340000D01*
X177962000Y-123580000D02*
X179162000Y-123580000D01*
X217885628Y-112650129D02*
X216471414Y-114064343D01*
X217913912Y-115506841D02*
X219328126Y-114092627D01*
X218253000Y-46358500D02*
X219583000Y-46358500D01*
X218253000Y-47688500D02*
X218253000Y-46358500D01*
X220853000Y-46358500D02*
X223453000Y-46358500D01*
X220853000Y-48958500D02*
X220853000Y-46358500D01*
X218253000Y-48958500D02*
X220853000Y-48958500D01*
X223453000Y-46358500D02*
X223453000Y-54098500D01*
X218253000Y-48958500D02*
X218253000Y-54098500D01*
X218253000Y-54098500D02*
X223453000Y-54098500D01*
X232936164Y-115913798D02*
X232229057Y-115206691D01*
X231026976Y-116408772D02*
X231734083Y-117115879D01*
X219669806Y-95853087D02*
X220376913Y-96560194D01*
X221578994Y-95358113D02*
X220871887Y-94651006D01*
X243930921Y-116490462D02*
X243435947Y-116985436D01*
X242587419Y-116136908D02*
X243082393Y-115641934D01*
X239104921Y-121316462D02*
X238609947Y-121811436D01*
X237761419Y-120962908D02*
X238256393Y-120467934D01*
X212178000Y-85082000D02*
X212178000Y-84082000D01*
X210478000Y-84082000D02*
X210478000Y-85082000D01*
X189318000Y-74985500D02*
X189318000Y-73985500D01*
X187618000Y-73985500D02*
X187618000Y-74985500D01*
X242404000Y-70112000D02*
X242404000Y-69112000D01*
X240704000Y-69112000D02*
X240704000Y-70112000D01*
X211924000Y-75176000D02*
X211924000Y-74176000D01*
X210224000Y-74176000D02*
X210224000Y-75176000D01*
X257480000Y-106090400D02*
X257480000Y-108090400D01*
X259520000Y-108090400D02*
X259520000Y-106090400D01*
X259520000Y-97590400D02*
X259520000Y-95590400D01*
X257480000Y-95590400D02*
X257480000Y-97590400D01*
X257480000Y-100590400D02*
X257480000Y-102590400D01*
X259520000Y-102590400D02*
X259520000Y-100590400D01*
X257480000Y-111090400D02*
X257480000Y-113090400D01*
X259520000Y-113090400D02*
X259520000Y-111090400D01*
X271614000Y-97172400D02*
X271614000Y-96172400D01*
X269914000Y-96172400D02*
X269914000Y-97172400D01*
X271614000Y-112412400D02*
X271614000Y-111412400D01*
X269914000Y-111412400D02*
X269914000Y-112412400D01*
X229270000Y-87853000D02*
X229270000Y-87153000D01*
X230470000Y-87153000D02*
X230470000Y-87853000D01*
X244650000Y-72000000D02*
X244650000Y-73000000D01*
X246350000Y-73000000D02*
X246350000Y-72000000D01*
X243752000Y-84793200D02*
X243752000Y-85793200D01*
X245452000Y-85793200D02*
X245452000Y-84793200D01*
X217281000Y-85213000D02*
X215281000Y-85213000D01*
X215281000Y-87253000D02*
X217281000Y-87253000D01*
X215281000Y-84967000D02*
X217281000Y-84967000D01*
X217281000Y-82927000D02*
X215281000Y-82927000D01*
X228858000Y-87614000D02*
X228858000Y-85614000D01*
X226818000Y-85614000D02*
X226818000Y-87614000D01*
X218282000Y-92548000D02*
X217582000Y-92548000D01*
X217582000Y-91348000D02*
X218282000Y-91348000D01*
X218282000Y-91151000D02*
X217582000Y-91151000D01*
X217582000Y-89951000D02*
X218282000Y-89951000D01*
X222854000Y-92548000D02*
X222154000Y-92548000D01*
X222154000Y-91348000D02*
X222854000Y-91348000D01*
X222854000Y-91151000D02*
X222154000Y-91151000D01*
X222154000Y-89951000D02*
X222854000Y-89951000D01*
X212178000Y-79748000D02*
X212178000Y-78748000D01*
X210478000Y-78748000D02*
X210478000Y-79748000D01*
X261221600Y-124598800D02*
X262221600Y-124598800D01*
X262221600Y-122898800D02*
X261221600Y-122898800D01*
X192516000Y-114804000D02*
X190516000Y-114804000D01*
X190516000Y-116844000D02*
X192516000Y-116844000D01*
X192516000Y-117344000D02*
X190516000Y-117344000D01*
X190516000Y-119384000D02*
X192516000Y-119384000D01*
X194984000Y-108974000D02*
X194984000Y-109974000D01*
X196684000Y-109974000D02*
X196684000Y-108974000D01*
X178046000Y-113450000D02*
X177046000Y-113450000D01*
X177046000Y-115150000D02*
X178046000Y-115150000D01*
X180235000Y-127121000D02*
X177435000Y-127121000D01*
X180235000Y-125721000D02*
X177435000Y-125721000D01*
X180235000Y-127121000D02*
X180235000Y-125721000D01*
X190395000Y-127121000D02*
X190395000Y-125721000D01*
X190395000Y-125721000D02*
X187595000Y-125721000D01*
X190395000Y-127121000D02*
X187595000Y-127121000D01*
X200555000Y-127121000D02*
X197755000Y-127121000D01*
X200555000Y-125721000D02*
X197755000Y-125721000D01*
X200555000Y-127121000D02*
X200555000Y-125721000D01*
X210715000Y-127121000D02*
X210715000Y-125721000D01*
X210715000Y-125721000D02*
X207915000Y-125721000D01*
X210715000Y-127121000D02*
X207915000Y-127121000D01*
X220875000Y-127121000D02*
X218075000Y-127121000D01*
X220875000Y-125721000D02*
X218075000Y-125721000D01*
X220875000Y-127121000D02*
X220875000Y-125721000D01*
X231035000Y-127121000D02*
X231035000Y-125721000D01*
X231035000Y-125721000D02*
X228235000Y-125721000D01*
X231035000Y-127121000D02*
X228235000Y-127121000D01*
X241195000Y-127121000D02*
X238395000Y-127121000D01*
X241195000Y-125721000D02*
X238395000Y-125721000D01*
X241195000Y-127121000D02*
X241195000Y-125721000D01*
X251355000Y-127121000D02*
X251355000Y-125721000D01*
X251355000Y-125721000D02*
X248555000Y-125721000D01*
X251355000Y-127121000D02*
X248555000Y-127121000D01*
X272062000Y-61098000D02*
X269462000Y-61098000D01*
X272062000Y-46398000D02*
X272062000Y-61098000D01*
X262862000Y-61098000D02*
X262862000Y-59198000D01*
X265562000Y-61098000D02*
X262862000Y-61098000D01*
X262862000Y-46398000D02*
X272062000Y-46398000D01*
X262862000Y-55198000D02*
X262862000Y-46398000D01*
X215523000Y-63053500D02*
X203323000Y-63053500D01*
X203323000Y-46033500D02*
X215523000Y-46033500D01*
X203323000Y-63053500D02*
X203323000Y-57973500D01*
X203323000Y-54673500D02*
X203323000Y-46033500D01*
X215523000Y-63053500D02*
X215523000Y-57973500D01*
X215523000Y-54673500D02*
X215523000Y-46033500D01*
D15*
X192260220Y-47383700D02*
X172760640Y-47383700D01*
X174261780Y-47134780D02*
X192260220Y-47134780D01*
X193761360Y-46883320D02*
X174261780Y-46883320D01*
X192260220Y-65133220D02*
X192260220Y-48133000D01*
X192260220Y-65133220D02*
X191759840Y-65633600D01*
X191759840Y-65633600D02*
X189260480Y-65633600D01*
X189260480Y-65633600D02*
X188760100Y-65133220D01*
X188760100Y-65133220D02*
X188760100Y-63134240D01*
X188760100Y-63134240D02*
X185259980Y-63134240D01*
X174261780Y-65133220D02*
X174261780Y-48133000D01*
X174261780Y-65133220D02*
X174762160Y-65633600D01*
X174762160Y-65633600D02*
X176761140Y-65633600D01*
X176761140Y-65633600D02*
X177261520Y-65633600D01*
X177261520Y-65633600D02*
X177761900Y-65133220D01*
X177761900Y-65133220D02*
X177761900Y-63134240D01*
X177761900Y-63134240D02*
X181262020Y-63134240D01*
X184762140Y-65633600D02*
X185259980Y-65133220D01*
X185259980Y-65133220D02*
X185259980Y-63134240D01*
X184762140Y-65633600D02*
X181759860Y-65633600D01*
X181759860Y-65633600D02*
X181262020Y-65133220D01*
X181262020Y-65133220D02*
X181262020Y-63134240D01*
X172760640Y-47134780D02*
X174261780Y-47134780D01*
X174261780Y-47134780D02*
X174261780Y-46634400D01*
X174261780Y-46634400D02*
X193761360Y-46634400D01*
X193761360Y-47134780D02*
X192260220Y-47134780D01*
X192260220Y-47134780D02*
X192260220Y-47635160D01*
X192260220Y-47635160D02*
X172760640Y-47635160D01*
X174261780Y-48133000D02*
X174762160Y-48133000D01*
X192260220Y-48133000D02*
X191759840Y-48133000D01*
X174762160Y-47635160D02*
X174762160Y-48133000D01*
X191759840Y-48133000D02*
X191759840Y-47635160D01*
X193761360Y-46634400D02*
X193761360Y-47134780D01*
X172760640Y-47635160D02*
X172760640Y-47134780D01*
D14*
X237804400Y-48136500D02*
X237804400Y-45336500D01*
X243604400Y-48136500D02*
X243604400Y-45336500D01*
X244804400Y-48136500D02*
X244804400Y-59536500D01*
X243604400Y-45336500D02*
X237804400Y-45336500D01*
X237504400Y-48136500D02*
X237804400Y-48136500D01*
X243604400Y-48136500D02*
X244804400Y-48136500D01*
X244804400Y-59536500D02*
X243704400Y-59536500D01*
X237504400Y-59536500D02*
X242104400Y-59536500D01*
X237504400Y-48136500D02*
X237504400Y-59536500D01*
X182923000Y-112607000D02*
X176623000Y-112607000D01*
X182223000Y-99737000D02*
X176623000Y-99737000D01*
X186633000Y-112607000D02*
X184823000Y-112607000D01*
X186633000Y-99737000D02*
X186633000Y-110997000D01*
X185473000Y-99737000D02*
X186633000Y-99737000D01*
X186633000Y-112497000D02*
X186633000Y-112607000D01*
X252440000Y-65500000D02*
G75*
G03X252440000Y-65500000I-4440000J0D01*
G01*
X252440000Y-79000000D02*
G75*
G03X252440000Y-79000000I-4440000J0D01*
G01*
X231443052Y-96913295D02*
X232291580Y-96064767D01*
X233536088Y-97309275D02*
X232687560Y-98157803D01*
X215644252Y-112102495D02*
X216492780Y-111253967D01*
X217737288Y-112498475D02*
X216888760Y-113347003D01*
X216467288Y-111228475D02*
X215618760Y-112077003D01*
X214374252Y-110832495D02*
X215222780Y-109983967D01*
X175142000Y-72926500D02*
X175142000Y-71726500D01*
X176902000Y-71726500D02*
X176902000Y-72926500D01*
X187588000Y-78641500D02*
X187588000Y-77441500D01*
X189348000Y-77441500D02*
X189348000Y-78641500D01*
X212208000Y-88554000D02*
X212208000Y-89754000D01*
X210448000Y-89754000D02*
X210448000Y-88554000D01*
X212208000Y-91856000D02*
X212208000Y-93056000D01*
X210448000Y-93056000D02*
X210448000Y-91856000D01*
X232528000Y-86776000D02*
X232528000Y-87976000D01*
X230768000Y-87976000D02*
X230768000Y-86776000D01*
X213674400Y-79333200D02*
X214874400Y-79333200D01*
X214874400Y-81093200D02*
X213674400Y-81093200D01*
X214874400Y-79315200D02*
X213674400Y-79315200D01*
X213674400Y-77555200D02*
X214874400Y-77555200D01*
X221707000Y-84827000D02*
X220507000Y-84827000D01*
X220507000Y-83067000D02*
X221707000Y-83067000D01*
X220507000Y-84845000D02*
X221707000Y-84845000D01*
X221707000Y-86605000D02*
X220507000Y-86605000D01*
X223936000Y-84972000D02*
X225136000Y-84972000D01*
X225136000Y-86732000D02*
X223936000Y-86732000D01*
X223936000Y-82940000D02*
X225136000Y-82940000D01*
X225136000Y-84700000D02*
X223936000Y-84700000D01*
X218532000Y-89780000D02*
X217332000Y-89780000D01*
X217332000Y-88020000D02*
X218532000Y-88020000D01*
X223104000Y-89780000D02*
X221904000Y-89780000D01*
X221904000Y-88020000D02*
X223104000Y-88020000D01*
X243450000Y-94650000D02*
X243450000Y-95850000D01*
X241690000Y-95850000D02*
X241690000Y-94650000D01*
X257166000Y-95920000D02*
X257166000Y-97120000D01*
X255406000Y-97120000D02*
X255406000Y-95920000D01*
X243722000Y-95850000D02*
X243722000Y-94650000D01*
X245482000Y-94650000D02*
X245482000Y-95850000D01*
X255134000Y-95920000D02*
X255134000Y-97120000D01*
X253374000Y-97120000D02*
X253374000Y-95920000D01*
X254464000Y-57921000D02*
X255664000Y-57921000D01*
X255664000Y-59681000D02*
X254464000Y-59681000D01*
X230513580Y-118477803D02*
X229665052Y-117629275D01*
X230909560Y-116384767D02*
X231758088Y-117233295D01*
X220314000Y-68462000D02*
X221514000Y-68462000D01*
X221514000Y-70222000D02*
X220314000Y-70222000D01*
D16*
X217424000Y-62699900D02*
X224282000Y-62699900D01*
X224282000Y-62699900D02*
X224282000Y-59512824D01*
X224282000Y-55460900D02*
X217424000Y-55460900D01*
X217424000Y-55460900D02*
X217424000Y-58116014D01*
X217424000Y-59968586D02*
X217424000Y-62699900D01*
X224282000Y-58571776D02*
X224282000Y-55460900D01*
X218440000Y-63842900D02*
G75*
G03X218440000Y-63842900I-127000J0D01*
G01*
D14*
X179758214Y-131830000D02*
G75*
G03X179758214Y-131830000I-1414214J0D01*
G01*
X175224000Y-128860000D02*
X175224000Y-134800000D01*
X181464000Y-128860000D02*
X181464000Y-134800000D01*
X177004000Y-128710000D02*
X179684000Y-128710000D01*
X179684000Y-134950000D02*
X177004000Y-134950000D01*
X189844000Y-134950000D02*
X187164000Y-134950000D01*
X187164000Y-128710000D02*
X189844000Y-128710000D01*
X191624000Y-128860000D02*
X191624000Y-134800000D01*
X185384000Y-128860000D02*
X185384000Y-134800000D01*
X189918214Y-131830000D02*
G75*
G03X189918214Y-131830000I-1414214J0D01*
G01*
X200078214Y-131830000D02*
G75*
G03X200078214Y-131830000I-1414214J0D01*
G01*
X195544000Y-128860000D02*
X195544000Y-134800000D01*
X201784000Y-128860000D02*
X201784000Y-134800000D01*
X197324000Y-128710000D02*
X200004000Y-128710000D01*
X200004000Y-134950000D02*
X197324000Y-134950000D01*
X210164000Y-134950000D02*
X207484000Y-134950000D01*
X207484000Y-128710000D02*
X210164000Y-128710000D01*
X211944000Y-128860000D02*
X211944000Y-134800000D01*
X205704000Y-128860000D02*
X205704000Y-134800000D01*
X210238214Y-131830000D02*
G75*
G03X210238214Y-131830000I-1414214J0D01*
G01*
X220398214Y-131830000D02*
G75*
G03X220398214Y-131830000I-1414214J0D01*
G01*
X215864000Y-128860000D02*
X215864000Y-134800000D01*
X222104000Y-128860000D02*
X222104000Y-134800000D01*
X217644000Y-128710000D02*
X220324000Y-128710000D01*
X220324000Y-134950000D02*
X217644000Y-134950000D01*
X230484000Y-134950000D02*
X227804000Y-134950000D01*
X227804000Y-128710000D02*
X230484000Y-128710000D01*
X232264000Y-128860000D02*
X232264000Y-134800000D01*
X226024000Y-128860000D02*
X226024000Y-134800000D01*
X230558214Y-131830000D02*
G75*
G03X230558214Y-131830000I-1414214J0D01*
G01*
X240718214Y-131830000D02*
G75*
G03X240718214Y-131830000I-1414214J0D01*
G01*
X236184000Y-128860000D02*
X236184000Y-134800000D01*
X242424000Y-128860000D02*
X242424000Y-134800000D01*
X237964000Y-128710000D02*
X240644000Y-128710000D01*
X240644000Y-134950000D02*
X237964000Y-134950000D01*
X250804000Y-134950000D02*
X248124000Y-134950000D01*
X248124000Y-128710000D02*
X250804000Y-128710000D01*
X252584000Y-128860000D02*
X252584000Y-134800000D01*
X246344000Y-128860000D02*
X246344000Y-134800000D01*
X250878214Y-131830000D02*
G75*
G03X250878214Y-131830000I-1414214J0D01*
G01*
D12*
X216399174Y-106661871D02*
X215497613Y-107563433D01*
X226139570Y-96108303D02*
X225662273Y-96585600D01*
X236286552Y-106255285D02*
X235809255Y-106732582D01*
X226139570Y-116402267D02*
X226616867Y-115924970D01*
X215992588Y-106255285D02*
X216469885Y-105777988D01*
X226139570Y-116402267D02*
X225662273Y-115924970D01*
X236286552Y-106255285D02*
X235809255Y-105777988D01*
X226139570Y-96108303D02*
X226616867Y-96585600D01*
X215992588Y-106255285D02*
X216399174Y-106661871D01*
D14*
X207374000Y-71822000D02*
X201914000Y-71822000D01*
X207374000Y-102422000D02*
X207374000Y-71822000D01*
X194454000Y-102422000D02*
X207374000Y-102422000D01*
X194454000Y-71822000D02*
X194454000Y-102422000D01*
X199914000Y-71822000D02*
X194454000Y-71822000D01*
X201914000Y-71822000D02*
G75*
G02X199914000Y-71822000I-1000000J0D01*
G01*
X240267000Y-71822000D02*
X238617000Y-71822000D01*
X240267000Y-92262000D02*
X240267000Y-71822000D01*
X234967000Y-92262000D02*
X240267000Y-92262000D01*
X234967000Y-71822000D02*
X234967000Y-92262000D01*
X236617000Y-71822000D02*
X234967000Y-71822000D01*
X238617000Y-71822000D02*
G75*
G02X236617000Y-71822000I-1000000J0D01*
G01*
X184704000Y-72012500D02*
X183054000Y-72012500D01*
X184704000Y-79752500D02*
X184704000Y-72012500D01*
X179404000Y-79752500D02*
X184704000Y-79752500D01*
X179404000Y-72012500D02*
X179404000Y-79752500D01*
X181054000Y-72012500D02*
X179404000Y-72012500D01*
X183054000Y-72012500D02*
G75*
G02X181054000Y-72012500I-1000000J0D01*
G01*
X267318000Y-91532400D02*
X265668000Y-91532400D01*
X267318000Y-117052400D02*
X267318000Y-91532400D01*
X262018000Y-117052400D02*
X267318000Y-117052400D01*
X262018000Y-91532400D02*
X262018000Y-117052400D01*
X263668000Y-91532400D02*
X262018000Y-91532400D01*
X265668000Y-91532400D02*
G75*
G02X263668000Y-91532400I-1000000J0D01*
G01*
D12*
X247353000Y-93868000D02*
X245953000Y-93868000D01*
X247353000Y-98968000D02*
X251503000Y-98968000D01*
X247353000Y-93818000D02*
X251503000Y-93818000D01*
X247353000Y-98968000D02*
X247353000Y-98823000D01*
X251503000Y-98968000D02*
X251503000Y-98823000D01*
X251503000Y-93818000D02*
X251503000Y-93963000D01*
X247353000Y-93818000D02*
X247353000Y-93868000D01*
D14*
X188504000Y-121774000D02*
X182494000Y-121774000D01*
X186254000Y-114954000D02*
X182494000Y-114954000D01*
X182494000Y-121774000D02*
X182494000Y-120514000D01*
X182494000Y-114954000D02*
X182494000Y-116214000D01*
D12*
X198585000Y-109758000D02*
X197210000Y-109758000D01*
X198585000Y-119883000D02*
X202735000Y-119883000D01*
X198585000Y-109733000D02*
X202735000Y-109733000D01*
X198585000Y-119883000D02*
X198585000Y-119778000D01*
X202735000Y-119883000D02*
X202735000Y-119778000D01*
X202735000Y-109733000D02*
X202735000Y-109838000D01*
X198585000Y-109733000D02*
X198585000Y-109758000D01*
D17*
G36*
X197402450Y-50763796D02*
X197470197Y-50769726D01*
X197571460Y-50777389D01*
X197689040Y-50785514D01*
X197745350Y-50789150D01*
X197868277Y-50800327D01*
X197951480Y-50815234D01*
X197992117Y-50832718D01*
X197987346Y-50851631D01*
X197942200Y-50868840D01*
X197916890Y-50880502D01*
X197901662Y-50906387D01*
X197894007Y-50957309D01*
X197891422Y-51044082D01*
X197891247Y-51088712D01*
X197888871Y-51223649D01*
X197882804Y-51375317D01*
X197874783Y-51504850D01*
X197858470Y-51714400D01*
X199263000Y-51714400D01*
X199263000Y-52273200D01*
X198640700Y-52273200D01*
X198418149Y-52274265D01*
X198244072Y-52277445D01*
X198119040Y-52282715D01*
X198043626Y-52290052D01*
X198018400Y-52299419D01*
X198027048Y-52333833D01*
X198050084Y-52402679D01*
X198083148Y-52493172D01*
X198096040Y-52526966D01*
X198180724Y-52712260D01*
X198292297Y-52907034D01*
X198417993Y-53090711D01*
X198530433Y-53227133D01*
X198631388Y-53321117D01*
X198764163Y-53422916D01*
X198913147Y-53522158D01*
X199062728Y-53608470D01*
X199197294Y-53671477D01*
X199201783Y-53673226D01*
X199356467Y-53732997D01*
X199234540Y-53879507D01*
X199162453Y-53970904D01*
X199093746Y-54065938D01*
X199046434Y-54138943D01*
X199013622Y-54192954D01*
X198984750Y-54224646D01*
X198949608Y-54233985D01*
X198897986Y-54220935D01*
X198819677Y-54185460D01*
X198724836Y-54137815D01*
X198498087Y-54005881D01*
X198293072Y-53847611D01*
X198127850Y-53687735D01*
X198016692Y-53559261D01*
X197906598Y-53411895D01*
X197806916Y-53259735D01*
X197726992Y-53116879D01*
X197682601Y-53016150D01*
X197653908Y-52952817D01*
X197629058Y-52939589D01*
X197603512Y-52976464D01*
X197588199Y-53016150D01*
X197500264Y-53207109D01*
X197370550Y-53404145D01*
X197206270Y-53599906D01*
X197014638Y-53787040D01*
X196802869Y-53958197D01*
X196578175Y-54106023D01*
X196451042Y-54175048D01*
X196293384Y-54254028D01*
X196210796Y-54133564D01*
X196143986Y-54043652D01*
X196064179Y-53946505D01*
X196020389Y-53897433D01*
X195912570Y-53781766D01*
X196108235Y-53685234D01*
X196398992Y-53517079D01*
X196647903Y-53320132D01*
X196855005Y-53094351D01*
X197020334Y-52839694D01*
X197143927Y-52556119D01*
X197178862Y-52444650D01*
X197227414Y-52273200D01*
X195986400Y-52273200D01*
X195986400Y-51714400D01*
X197275450Y-51714400D01*
X197291325Y-51635025D01*
X197296834Y-51582433D01*
X197301514Y-51490015D01*
X197305000Y-51368742D01*
X197306931Y-51229586D01*
X197307200Y-51154841D01*
X197307200Y-50754033D01*
X197402450Y-50763796D01*
X197402450Y-50763796D01*
G37*
X197402450Y-50763796D02*
X197470197Y-50769726D01*
X197571460Y-50777389D01*
X197689040Y-50785514D01*
X197745350Y-50789150D01*
X197868277Y-50800327D01*
X197951480Y-50815234D01*
X197992117Y-50832718D01*
X197987346Y-50851631D01*
X197942200Y-50868840D01*
X197916890Y-50880502D01*
X197901662Y-50906387D01*
X197894007Y-50957309D01*
X197891422Y-51044082D01*
X197891247Y-51088712D01*
X197888871Y-51223649D01*
X197882804Y-51375317D01*
X197874783Y-51504850D01*
X197858470Y-51714400D01*
X199263000Y-51714400D01*
X199263000Y-52273200D01*
X198640700Y-52273200D01*
X198418149Y-52274265D01*
X198244072Y-52277445D01*
X198119040Y-52282715D01*
X198043626Y-52290052D01*
X198018400Y-52299419D01*
X198027048Y-52333833D01*
X198050084Y-52402679D01*
X198083148Y-52493172D01*
X198096040Y-52526966D01*
X198180724Y-52712260D01*
X198292297Y-52907034D01*
X198417993Y-53090711D01*
X198530433Y-53227133D01*
X198631388Y-53321117D01*
X198764163Y-53422916D01*
X198913147Y-53522158D01*
X199062728Y-53608470D01*
X199197294Y-53671477D01*
X199201783Y-53673226D01*
X199356467Y-53732997D01*
X199234540Y-53879507D01*
X199162453Y-53970904D01*
X199093746Y-54065938D01*
X199046434Y-54138943D01*
X199013622Y-54192954D01*
X198984750Y-54224646D01*
X198949608Y-54233985D01*
X198897986Y-54220935D01*
X198819677Y-54185460D01*
X198724836Y-54137815D01*
X198498087Y-54005881D01*
X198293072Y-53847611D01*
X198127850Y-53687735D01*
X198016692Y-53559261D01*
X197906598Y-53411895D01*
X197806916Y-53259735D01*
X197726992Y-53116879D01*
X197682601Y-53016150D01*
X197653908Y-52952817D01*
X197629058Y-52939589D01*
X197603512Y-52976464D01*
X197588199Y-53016150D01*
X197500264Y-53207109D01*
X197370550Y-53404145D01*
X197206270Y-53599906D01*
X197014638Y-53787040D01*
X196802869Y-53958197D01*
X196578175Y-54106023D01*
X196451042Y-54175048D01*
X196293384Y-54254028D01*
X196210796Y-54133564D01*
X196143986Y-54043652D01*
X196064179Y-53946505D01*
X196020389Y-53897433D01*
X195912570Y-53781766D01*
X196108235Y-53685234D01*
X196398992Y-53517079D01*
X196647903Y-53320132D01*
X196855005Y-53094351D01*
X197020334Y-52839694D01*
X197143927Y-52556119D01*
X197178862Y-52444650D01*
X197227414Y-52273200D01*
X195986400Y-52273200D01*
X195986400Y-51714400D01*
X197275450Y-51714400D01*
X197291325Y-51635025D01*
X197296834Y-51582433D01*
X197301514Y-51490015D01*
X197305000Y-51368742D01*
X197306931Y-51229586D01*
X197307200Y-51154841D01*
X197307200Y-50754033D01*
X197402450Y-50763796D01*
G36*
X199123300Y-55445624D02*
X199225365Y-55504510D01*
X199288974Y-55544554D01*
X199319916Y-55571868D01*
X199323980Y-55592568D01*
X199306956Y-55612767D01*
X199292588Y-55624400D01*
X199258210Y-55659743D01*
X199201890Y-55726707D01*
X199131410Y-55815717D01*
X199054551Y-55917198D01*
X199053884Y-55918100D01*
X198965879Y-56034506D01*
X198873325Y-56152949D01*
X198788441Y-56257989D01*
X198734172Y-56322101D01*
X198667777Y-56399967D01*
X198628562Y-56456557D01*
X198609390Y-56508053D01*
X198603128Y-56570641D01*
X198602600Y-56620551D01*
X198602600Y-56769000D01*
X199364600Y-56769000D01*
X199364600Y-57277000D01*
X198607039Y-57277000D01*
X198598222Y-57804050D01*
X198594207Y-57997745D01*
X198588513Y-58147928D01*
X198579724Y-58261885D01*
X198566427Y-58346904D01*
X198547208Y-58410272D01*
X198520653Y-58459275D01*
X198485349Y-58501201D01*
X198457889Y-58527341D01*
X198367060Y-58582889D01*
X198233642Y-58626672D01*
X198064921Y-58656587D01*
X197981168Y-58664832D01*
X197773228Y-58680815D01*
X197691374Y-58455157D01*
X197653791Y-58350982D01*
X197621672Y-58260917D01*
X197599817Y-58198469D01*
X197594319Y-58182075D01*
X197590194Y-58158883D01*
X197602652Y-58146274D01*
X197641082Y-58142772D01*
X197714870Y-58146904D01*
X197781964Y-58152606D01*
X197880482Y-58160585D01*
X197953429Y-58160393D01*
X198004645Y-58145729D01*
X198037973Y-58110296D01*
X198057253Y-58047793D01*
X198066327Y-57951922D01*
X198069035Y-57816384D01*
X198069200Y-57681585D01*
X198069200Y-57277000D01*
X197332600Y-57277000D01*
X197332600Y-56769000D01*
X198069200Y-56769000D01*
X198069200Y-56238818D01*
X198151606Y-56230859D01*
X198197297Y-56220740D01*
X198238683Y-56194376D01*
X198285456Y-56142958D01*
X198347307Y-56057677D01*
X198355963Y-56045100D01*
X198477913Y-55867300D01*
X197968756Y-55860424D01*
X197459600Y-55853548D01*
X197459600Y-55375441D01*
X198970900Y-55358623D01*
X199123300Y-55445624D01*
X199123300Y-55445624D01*
G37*
X199123300Y-55445624D02*
X199225365Y-55504510D01*
X199288974Y-55544554D01*
X199319916Y-55571868D01*
X199323980Y-55592568D01*
X199306956Y-55612767D01*
X199292588Y-55624400D01*
X199258210Y-55659743D01*
X199201890Y-55726707D01*
X199131410Y-55815717D01*
X199054551Y-55917198D01*
X199053884Y-55918100D01*
X198965879Y-56034506D01*
X198873325Y-56152949D01*
X198788441Y-56257989D01*
X198734172Y-56322101D01*
X198667777Y-56399967D01*
X198628562Y-56456557D01*
X198609390Y-56508053D01*
X198603128Y-56570641D01*
X198602600Y-56620551D01*
X198602600Y-56769000D01*
X199364600Y-56769000D01*
X199364600Y-57277000D01*
X198607039Y-57277000D01*
X198598222Y-57804050D01*
X198594207Y-57997745D01*
X198588513Y-58147928D01*
X198579724Y-58261885D01*
X198566427Y-58346904D01*
X198547208Y-58410272D01*
X198520653Y-58459275D01*
X198485349Y-58501201D01*
X198457889Y-58527341D01*
X198367060Y-58582889D01*
X198233642Y-58626672D01*
X198064921Y-58656587D01*
X197981168Y-58664832D01*
X197773228Y-58680815D01*
X197691374Y-58455157D01*
X197653791Y-58350982D01*
X197621672Y-58260917D01*
X197599817Y-58198469D01*
X197594319Y-58182075D01*
X197590194Y-58158883D01*
X197602652Y-58146274D01*
X197641082Y-58142772D01*
X197714870Y-58146904D01*
X197781964Y-58152606D01*
X197880482Y-58160585D01*
X197953429Y-58160393D01*
X198004645Y-58145729D01*
X198037973Y-58110296D01*
X198057253Y-58047793D01*
X198066327Y-57951922D01*
X198069035Y-57816384D01*
X198069200Y-57681585D01*
X198069200Y-57277000D01*
X197332600Y-57277000D01*
X197332600Y-56769000D01*
X198069200Y-56769000D01*
X198069200Y-56238818D01*
X198151606Y-56230859D01*
X198197297Y-56220740D01*
X198238683Y-56194376D01*
X198285456Y-56142958D01*
X198347307Y-56057677D01*
X198355963Y-56045100D01*
X198477913Y-55867300D01*
X197968756Y-55860424D01*
X197459600Y-55853548D01*
X197459600Y-55375441D01*
X198970900Y-55358623D01*
X199123300Y-55445624D01*
G36*
X196469152Y-55186060D02*
X196561321Y-55194834D01*
X196665278Y-55206643D01*
X196768210Y-55219947D01*
X196857307Y-55233208D01*
X196919758Y-55244886D01*
X196942263Y-55252357D01*
X196937578Y-55272902D01*
X196906666Y-55286906D01*
X196861719Y-55317488D01*
X196836471Y-55386237D01*
X196835069Y-55393848D01*
X196821387Y-55467827D01*
X196801918Y-55568146D01*
X196783643Y-55659410D01*
X196765990Y-55749334D01*
X196753346Y-55819872D01*
X196748401Y-55856003D01*
X196748400Y-55856260D01*
X196771778Y-55867331D01*
X196833865Y-55875647D01*
X196922586Y-55879784D01*
X196949662Y-55880000D01*
X197067703Y-55884038D01*
X197185788Y-55894640D01*
X197278865Y-55909537D01*
X197280871Y-55909995D01*
X197356338Y-55929618D01*
X197393036Y-55949017D01*
X197402142Y-55977245D01*
X197398440Y-56005245D01*
X197390225Y-56062614D01*
X197380295Y-56151947D01*
X197370714Y-56254549D01*
X197370172Y-56261000D01*
X197342257Y-56521944D01*
X197302781Y-56785672D01*
X197254318Y-57038692D01*
X197199444Y-57267512D01*
X197142499Y-57453667D01*
X197102812Y-57566153D01*
X197268870Y-57716027D01*
X197367246Y-57805813D01*
X197430139Y-57872245D01*
X197459105Y-57926733D01*
X197455699Y-57980689D01*
X197421477Y-58045526D01*
X197357995Y-58132655D01*
X197330574Y-58168660D01*
X197174157Y-58374139D01*
X197025975Y-58212919D01*
X196877794Y-58051700D01*
X196807318Y-58140600D01*
X196724454Y-58238754D01*
X196629274Y-58341381D01*
X196529382Y-58441406D01*
X196432381Y-58531753D01*
X196345876Y-58605348D01*
X196277471Y-58655117D01*
X196234768Y-58673985D01*
X196234022Y-58674000D01*
X196213927Y-58654834D01*
X196177376Y-58606411D01*
X196158467Y-58578750D01*
X196103572Y-58501660D01*
X196035756Y-58413646D01*
X196002691Y-58373145D01*
X195910197Y-58262790D01*
X196005448Y-58199220D01*
X196165240Y-58072244D01*
X196318119Y-57912863D01*
X196385154Y-57828169D01*
X196434149Y-57759717D01*
X196455550Y-57719182D01*
X196452712Y-57694193D01*
X196428987Y-57672381D01*
X196427653Y-57671401D01*
X196388274Y-57649685D01*
X196364946Y-57664241D01*
X196359325Y-57673509D01*
X196341546Y-57687597D01*
X196307370Y-57683676D01*
X196248133Y-57658969D01*
X196155177Y-57610702D01*
X196143425Y-57604327D01*
X196053652Y-57554835D01*
X195981423Y-57513773D01*
X195938087Y-57487645D01*
X195931406Y-57482850D01*
X195929371Y-57452808D01*
X195938768Y-57386327D01*
X195957648Y-57295975D01*
X195965317Y-57264300D01*
X195990847Y-57158114D01*
X196004498Y-57098737D01*
X196494400Y-57098737D01*
X196513640Y-57123057D01*
X196559623Y-57159855D01*
X196614740Y-57196838D01*
X196661383Y-57221709D01*
X196676334Y-57225772D01*
X196688595Y-57202833D01*
X196708981Y-57140302D01*
X196734496Y-57048155D01*
X196758181Y-56953150D01*
X196787364Y-56823449D01*
X196813460Y-56694641D01*
X196832881Y-56585088D01*
X196840093Y-56534050D01*
X196856994Y-56388000D01*
X196753608Y-56388000D01*
X196679363Y-56394963D01*
X196642867Y-56418769D01*
X196636711Y-56432450D01*
X196625612Y-56476095D01*
X196607598Y-56554431D01*
X196585174Y-56655731D01*
X196560846Y-56768264D01*
X196537117Y-56880302D01*
X196516494Y-56980116D01*
X196501482Y-57055976D01*
X196494586Y-57096155D01*
X196494400Y-57098737D01*
X196004498Y-57098737D01*
X196022556Y-57020200D01*
X196056365Y-56868583D01*
X196087501Y-56724550D01*
X196158880Y-56388000D01*
X195910200Y-56388000D01*
X195910200Y-55880000D01*
X196256389Y-55880000D01*
X196309564Y-55535197D01*
X196329487Y-55409420D01*
X196347313Y-55303199D01*
X196361401Y-55225847D01*
X196370114Y-55186675D01*
X196371419Y-55183773D01*
X196401581Y-55181860D01*
X196469152Y-55186060D01*
X196469152Y-55186060D01*
G37*
X196469152Y-55186060D02*
X196561321Y-55194834D01*
X196665278Y-55206643D01*
X196768210Y-55219947D01*
X196857307Y-55233208D01*
X196919758Y-55244886D01*
X196942263Y-55252357D01*
X196937578Y-55272902D01*
X196906666Y-55286906D01*
X196861719Y-55317488D01*
X196836471Y-55386237D01*
X196835069Y-55393848D01*
X196821387Y-55467827D01*
X196801918Y-55568146D01*
X196783643Y-55659410D01*
X196765990Y-55749334D01*
X196753346Y-55819872D01*
X196748401Y-55856003D01*
X196748400Y-55856260D01*
X196771778Y-55867331D01*
X196833865Y-55875647D01*
X196922586Y-55879784D01*
X196949662Y-55880000D01*
X197067703Y-55884038D01*
X197185788Y-55894640D01*
X197278865Y-55909537D01*
X197280871Y-55909995D01*
X197356338Y-55929618D01*
X197393036Y-55949017D01*
X197402142Y-55977245D01*
X197398440Y-56005245D01*
X197390225Y-56062614D01*
X197380295Y-56151947D01*
X197370714Y-56254549D01*
X197370172Y-56261000D01*
X197342257Y-56521944D01*
X197302781Y-56785672D01*
X197254318Y-57038692D01*
X197199444Y-57267512D01*
X197142499Y-57453667D01*
X197102812Y-57566153D01*
X197268870Y-57716027D01*
X197367246Y-57805813D01*
X197430139Y-57872245D01*
X197459105Y-57926733D01*
X197455699Y-57980689D01*
X197421477Y-58045526D01*
X197357995Y-58132655D01*
X197330574Y-58168660D01*
X197174157Y-58374139D01*
X197025975Y-58212919D01*
X196877794Y-58051700D01*
X196807318Y-58140600D01*
X196724454Y-58238754D01*
X196629274Y-58341381D01*
X196529382Y-58441406D01*
X196432381Y-58531753D01*
X196345876Y-58605348D01*
X196277471Y-58655117D01*
X196234768Y-58673985D01*
X196234022Y-58674000D01*
X196213927Y-58654834D01*
X196177376Y-58606411D01*
X196158467Y-58578750D01*
X196103572Y-58501660D01*
X196035756Y-58413646D01*
X196002691Y-58373145D01*
X195910197Y-58262790D01*
X196005448Y-58199220D01*
X196165240Y-58072244D01*
X196318119Y-57912863D01*
X196385154Y-57828169D01*
X196434149Y-57759717D01*
X196455550Y-57719182D01*
X196452712Y-57694193D01*
X196428987Y-57672381D01*
X196427653Y-57671401D01*
X196388274Y-57649685D01*
X196364946Y-57664241D01*
X196359325Y-57673509D01*
X196341546Y-57687597D01*
X196307370Y-57683676D01*
X196248133Y-57658969D01*
X196155177Y-57610702D01*
X196143425Y-57604327D01*
X196053652Y-57554835D01*
X195981423Y-57513773D01*
X195938087Y-57487645D01*
X195931406Y-57482850D01*
X195929371Y-57452808D01*
X195938768Y-57386327D01*
X195957648Y-57295975D01*
X195965317Y-57264300D01*
X195990847Y-57158114D01*
X196004498Y-57098737D01*
X196494400Y-57098737D01*
X196513640Y-57123057D01*
X196559623Y-57159855D01*
X196614740Y-57196838D01*
X196661383Y-57221709D01*
X196676334Y-57225772D01*
X196688595Y-57202833D01*
X196708981Y-57140302D01*
X196734496Y-57048155D01*
X196758181Y-56953150D01*
X196787364Y-56823449D01*
X196813460Y-56694641D01*
X196832881Y-56585088D01*
X196840093Y-56534050D01*
X196856994Y-56388000D01*
X196753608Y-56388000D01*
X196679363Y-56394963D01*
X196642867Y-56418769D01*
X196636711Y-56432450D01*
X196625612Y-56476095D01*
X196607598Y-56554431D01*
X196585174Y-56655731D01*
X196560846Y-56768264D01*
X196537117Y-56880302D01*
X196516494Y-56980116D01*
X196501482Y-57055976D01*
X196494586Y-57096155D01*
X196494400Y-57098737D01*
X196004498Y-57098737D01*
X196022556Y-57020200D01*
X196056365Y-56868583D01*
X196087501Y-56724550D01*
X196158880Y-56388000D01*
X195910200Y-56388000D01*
X195910200Y-55880000D01*
X196256389Y-55880000D01*
X196309564Y-55535197D01*
X196329487Y-55409420D01*
X196347313Y-55303199D01*
X196361401Y-55225847D01*
X196370114Y-55186675D01*
X196371419Y-55183773D01*
X196401581Y-55181860D01*
X196469152Y-55186060D01*
G36*
X197701654Y-59666218D02*
X197806224Y-59671754D01*
X197867537Y-59682230D01*
X197889322Y-59698668D01*
X197875309Y-59722088D01*
X197843403Y-59744943D01*
X197816843Y-59769083D01*
X197804748Y-59807539D01*
X197804458Y-59874338D01*
X197808457Y-59929308D01*
X197817798Y-60013620D01*
X197828838Y-60076182D01*
X197837403Y-60100304D01*
X197869691Y-60104974D01*
X197941283Y-60100874D01*
X198041740Y-60089522D01*
X198160620Y-60072437D01*
X198287482Y-60051137D01*
X198411883Y-60027140D01*
X198523382Y-60001965D01*
X198536714Y-59998601D01*
X198629060Y-59974440D01*
X198688333Y-59964220D01*
X198724040Y-59975227D01*
X198745690Y-60014745D01*
X198762789Y-60090057D01*
X198780400Y-60185300D01*
X198797851Y-60274035D01*
X198813239Y-60346659D01*
X198821242Y-60379888D01*
X198818288Y-60404804D01*
X198787515Y-60425582D01*
X198720222Y-60446604D01*
X198660743Y-60460700D01*
X198547820Y-60483411D01*
X198412276Y-60506977D01*
X198281974Y-60526577D01*
X198272400Y-60527857D01*
X198132127Y-60546585D01*
X198035476Y-60562808D01*
X197975852Y-60581719D01*
X197946663Y-60608509D01*
X197941317Y-60648372D01*
X197953220Y-60706500D01*
X197969777Y-60766200D01*
X197997072Y-60864500D01*
X198153786Y-60847114D01*
X198293869Y-60827029D01*
X198460240Y-60796274D01*
X198633575Y-60758998D01*
X198794550Y-60719348D01*
X198920832Y-60682469D01*
X198995559Y-60658319D01*
X199046314Y-60642876D01*
X199060567Y-60639561D01*
X199065429Y-60664012D01*
X199077869Y-60727315D01*
X199095725Y-60818469D01*
X199107659Y-60879488D01*
X199153984Y-61116476D01*
X199093354Y-61139528D01*
X199027485Y-61158996D01*
X198924670Y-61183037D01*
X198798260Y-61209092D01*
X198661606Y-61234599D01*
X198528058Y-61257000D01*
X198410967Y-61273734D01*
X198367650Y-61278687D01*
X198281871Y-61290094D01*
X198220381Y-61303397D01*
X198196213Y-61315759D01*
X198196200Y-61316010D01*
X198214934Y-61346232D01*
X198264199Y-61397568D01*
X198333585Y-61461054D01*
X198412680Y-61527730D01*
X198491077Y-61588631D01*
X198558364Y-61634795D01*
X198582216Y-61648359D01*
X198640723Y-61682795D01*
X198672227Y-61710450D01*
X198674111Y-61717871D01*
X198652953Y-61753720D01*
X198611627Y-61814959D01*
X198558001Y-61890824D01*
X198499937Y-61970553D01*
X198445300Y-62043383D01*
X198401956Y-62098549D01*
X198377768Y-62125290D01*
X198375687Y-62126282D01*
X198346900Y-62114890D01*
X198286613Y-62087421D01*
X198221600Y-62056432D01*
X198144807Y-62022707D01*
X198073704Y-62002296D01*
X197990836Y-61992041D01*
X197878747Y-61988789D01*
X197846907Y-61988700D01*
X197611915Y-61988700D01*
X197557441Y-61823600D01*
X197528154Y-61735356D01*
X197504278Y-61664347D01*
X197491265Y-61626750D01*
X197500324Y-61606717D01*
X197550140Y-61596776D01*
X197609282Y-61595000D01*
X197682636Y-61592663D01*
X197729662Y-61586676D01*
X197739000Y-61581755D01*
X197726158Y-61554654D01*
X197693465Y-61500474D01*
X197670494Y-61464991D01*
X197601988Y-61361471D01*
X197075551Y-61379803D01*
X196902291Y-61384605D01*
X196732677Y-61387083D01*
X196578273Y-61387231D01*
X196450644Y-61385045D01*
X196361353Y-61380521D01*
X196356657Y-61380100D01*
X196164200Y-61362065D01*
X196164200Y-60903647D01*
X196446155Y-60922066D01*
X196584350Y-60927792D01*
X196752014Y-60929753D01*
X196927954Y-60927941D01*
X197090515Y-60922369D01*
X197452920Y-60904252D01*
X197370472Y-60626520D01*
X196896430Y-60621810D01*
X196746510Y-60619677D01*
X196614749Y-60616580D01*
X196509299Y-60612811D01*
X196438309Y-60608660D01*
X196409930Y-60604420D01*
X196409909Y-60604400D01*
X196405774Y-60574977D01*
X196405442Y-60507328D01*
X196408843Y-60413876D01*
X196411219Y-60372272D01*
X196425008Y-60152844D01*
X196838292Y-60156372D01*
X196977904Y-60156815D01*
X197098927Y-60155779D01*
X197192589Y-60153452D01*
X197250119Y-60150024D01*
X197264087Y-60147200D01*
X197267302Y-60117294D01*
X197263009Y-60052438D01*
X197254269Y-59982100D01*
X197239916Y-59883528D01*
X197226767Y-59792233D01*
X197220367Y-59747150D01*
X197208793Y-59664600D01*
X197550096Y-59664600D01*
X197701654Y-59666218D01*
X197701654Y-59666218D01*
G37*
X197701654Y-59666218D02*
X197806224Y-59671754D01*
X197867537Y-59682230D01*
X197889322Y-59698668D01*
X197875309Y-59722088D01*
X197843403Y-59744943D01*
X197816843Y-59769083D01*
X197804748Y-59807539D01*
X197804458Y-59874338D01*
X197808457Y-59929308D01*
X197817798Y-60013620D01*
X197828838Y-60076182D01*
X197837403Y-60100304D01*
X197869691Y-60104974D01*
X197941283Y-60100874D01*
X198041740Y-60089522D01*
X198160620Y-60072437D01*
X198287482Y-60051137D01*
X198411883Y-60027140D01*
X198523382Y-60001965D01*
X198536714Y-59998601D01*
X198629060Y-59974440D01*
X198688333Y-59964220D01*
X198724040Y-59975227D01*
X198745690Y-60014745D01*
X198762789Y-60090057D01*
X198780400Y-60185300D01*
X198797851Y-60274035D01*
X198813239Y-60346659D01*
X198821242Y-60379888D01*
X198818288Y-60404804D01*
X198787515Y-60425582D01*
X198720222Y-60446604D01*
X198660743Y-60460700D01*
X198547820Y-60483411D01*
X198412276Y-60506977D01*
X198281974Y-60526577D01*
X198272400Y-60527857D01*
X198132127Y-60546585D01*
X198035476Y-60562808D01*
X197975852Y-60581719D01*
X197946663Y-60608509D01*
X197941317Y-60648372D01*
X197953220Y-60706500D01*
X197969777Y-60766200D01*
X197997072Y-60864500D01*
X198153786Y-60847114D01*
X198293869Y-60827029D01*
X198460240Y-60796274D01*
X198633575Y-60758998D01*
X198794550Y-60719348D01*
X198920832Y-60682469D01*
X198995559Y-60658319D01*
X199046314Y-60642876D01*
X199060567Y-60639561D01*
X199065429Y-60664012D01*
X199077869Y-60727315D01*
X199095725Y-60818469D01*
X199107659Y-60879488D01*
X199153984Y-61116476D01*
X199093354Y-61139528D01*
X199027485Y-61158996D01*
X198924670Y-61183037D01*
X198798260Y-61209092D01*
X198661606Y-61234599D01*
X198528058Y-61257000D01*
X198410967Y-61273734D01*
X198367650Y-61278687D01*
X198281871Y-61290094D01*
X198220381Y-61303397D01*
X198196213Y-61315759D01*
X198196200Y-61316010D01*
X198214934Y-61346232D01*
X198264199Y-61397568D01*
X198333585Y-61461054D01*
X198412680Y-61527730D01*
X198491077Y-61588631D01*
X198558364Y-61634795D01*
X198582216Y-61648359D01*
X198640723Y-61682795D01*
X198672227Y-61710450D01*
X198674111Y-61717871D01*
X198652953Y-61753720D01*
X198611627Y-61814959D01*
X198558001Y-61890824D01*
X198499937Y-61970553D01*
X198445300Y-62043383D01*
X198401956Y-62098549D01*
X198377768Y-62125290D01*
X198375687Y-62126282D01*
X198346900Y-62114890D01*
X198286613Y-62087421D01*
X198221600Y-62056432D01*
X198144807Y-62022707D01*
X198073704Y-62002296D01*
X197990836Y-61992041D01*
X197878747Y-61988789D01*
X197846907Y-61988700D01*
X197611915Y-61988700D01*
X197557441Y-61823600D01*
X197528154Y-61735356D01*
X197504278Y-61664347D01*
X197491265Y-61626750D01*
X197500324Y-61606717D01*
X197550140Y-61596776D01*
X197609282Y-61595000D01*
X197682636Y-61592663D01*
X197729662Y-61586676D01*
X197739000Y-61581755D01*
X197726158Y-61554654D01*
X197693465Y-61500474D01*
X197670494Y-61464991D01*
X197601988Y-61361471D01*
X197075551Y-61379803D01*
X196902291Y-61384605D01*
X196732677Y-61387083D01*
X196578273Y-61387231D01*
X196450644Y-61385045D01*
X196361353Y-61380521D01*
X196356657Y-61380100D01*
X196164200Y-61362065D01*
X196164200Y-60903647D01*
X196446155Y-60922066D01*
X196584350Y-60927792D01*
X196752014Y-60929753D01*
X196927954Y-60927941D01*
X197090515Y-60922369D01*
X197452920Y-60904252D01*
X197370472Y-60626520D01*
X196896430Y-60621810D01*
X196746510Y-60619677D01*
X196614749Y-60616580D01*
X196509299Y-60612811D01*
X196438309Y-60608660D01*
X196409930Y-60604420D01*
X196409909Y-60604400D01*
X196405774Y-60574977D01*
X196405442Y-60507328D01*
X196408843Y-60413876D01*
X196411219Y-60372272D01*
X196425008Y-60152844D01*
X196838292Y-60156372D01*
X196977904Y-60156815D01*
X197098927Y-60155779D01*
X197192589Y-60153452D01*
X197250119Y-60150024D01*
X197264087Y-60147200D01*
X197267302Y-60117294D01*
X197263009Y-60052438D01*
X197254269Y-59982100D01*
X197239916Y-59883528D01*
X197226767Y-59792233D01*
X197220367Y-59747150D01*
X197208793Y-59664600D01*
X197550096Y-59664600D01*
X197701654Y-59666218D01*
G36*
X196924063Y-61738038D02*
X196982811Y-61781011D01*
X197058380Y-61843206D01*
X197098819Y-61878676D01*
X197273825Y-62035353D01*
X197191864Y-62107316D01*
X197118239Y-62193024D01*
X197093969Y-62274804D01*
X197118675Y-62348905D01*
X197191980Y-62411576D01*
X197224248Y-62427978D01*
X197266055Y-62443468D01*
X197318360Y-62454824D01*
X197389018Y-62462604D01*
X197485887Y-62467367D01*
X197616823Y-62469673D01*
X197789683Y-62470080D01*
X197815200Y-62470023D01*
X197976958Y-62468671D01*
X198128643Y-62465679D01*
X198260077Y-62461379D01*
X198361081Y-62456105D01*
X198421478Y-62450189D01*
X198421529Y-62450181D01*
X198532559Y-62431614D01*
X198514177Y-62680057D01*
X198505183Y-62787079D01*
X198495878Y-62873735D01*
X198487617Y-62928436D01*
X198483632Y-62941200D01*
X198455570Y-62945301D01*
X198385526Y-62948934D01*
X198282317Y-62952035D01*
X198154759Y-62954537D01*
X198011669Y-62956376D01*
X197861862Y-62957488D01*
X197714157Y-62957807D01*
X197577368Y-62957269D01*
X197460312Y-62955809D01*
X197371807Y-62953362D01*
X197320668Y-62949863D01*
X197319900Y-62949755D01*
X197184313Y-62921322D01*
X197033707Y-62876084D01*
X196895567Y-62822724D01*
X196851084Y-62801628D01*
X196705347Y-62703184D01*
X196600218Y-62580609D01*
X196538042Y-62440000D01*
X196521167Y-62287455D01*
X196551937Y-62129070D01*
X196572478Y-62077600D01*
X196613060Y-62006802D01*
X196672109Y-61926200D01*
X196739856Y-61846654D01*
X196806531Y-61779027D01*
X196862366Y-61734180D01*
X196892302Y-61722000D01*
X196924063Y-61738038D01*
X196924063Y-61738038D01*
G37*
X196924063Y-61738038D02*
X196982811Y-61781011D01*
X197058380Y-61843206D01*
X197098819Y-61878676D01*
X197273825Y-62035353D01*
X197191864Y-62107316D01*
X197118239Y-62193024D01*
X197093969Y-62274804D01*
X197118675Y-62348905D01*
X197191980Y-62411576D01*
X197224248Y-62427978D01*
X197266055Y-62443468D01*
X197318360Y-62454824D01*
X197389018Y-62462604D01*
X197485887Y-62467367D01*
X197616823Y-62469673D01*
X197789683Y-62470080D01*
X197815200Y-62470023D01*
X197976958Y-62468671D01*
X198128643Y-62465679D01*
X198260077Y-62461379D01*
X198361081Y-62456105D01*
X198421478Y-62450189D01*
X198421529Y-62450181D01*
X198532559Y-62431614D01*
X198514177Y-62680057D01*
X198505183Y-62787079D01*
X198495878Y-62873735D01*
X198487617Y-62928436D01*
X198483632Y-62941200D01*
X198455570Y-62945301D01*
X198385526Y-62948934D01*
X198282317Y-62952035D01*
X198154759Y-62954537D01*
X198011669Y-62956376D01*
X197861862Y-62957488D01*
X197714157Y-62957807D01*
X197577368Y-62957269D01*
X197460312Y-62955809D01*
X197371807Y-62953362D01*
X197320668Y-62949863D01*
X197319900Y-62949755D01*
X197184313Y-62921322D01*
X197033707Y-62876084D01*
X196895567Y-62822724D01*
X196851084Y-62801628D01*
X196705347Y-62703184D01*
X196600218Y-62580609D01*
X196538042Y-62440000D01*
X196521167Y-62287455D01*
X196551937Y-62129070D01*
X196572478Y-62077600D01*
X196613060Y-62006802D01*
X196672109Y-61926200D01*
X196739856Y-61846654D01*
X196806531Y-61779027D01*
X196862366Y-61734180D01*
X196892302Y-61722000D01*
X196924063Y-61738038D01*
G36*
X175913552Y-85496904D02*
X176176182Y-85385873D01*
X176441809Y-85306946D01*
X176732982Y-85252405D01*
X176821152Y-85240577D01*
X177269658Y-85215281D01*
X177735114Y-85247380D01*
X178211685Y-85335000D01*
X178693539Y-85476261D01*
X179174840Y-85669289D01*
X179649758Y-85912206D01*
X180112457Y-86203136D01*
X180350506Y-86375977D01*
X180470178Y-86465271D01*
X180571250Y-86537145D01*
X180643392Y-86584506D01*
X180676280Y-86600257D01*
X180676694Y-86600096D01*
X180682163Y-86565756D01*
X180670100Y-86503084D01*
X180653660Y-86417247D01*
X180637321Y-86282004D01*
X180621990Y-86111445D01*
X180608571Y-85919660D01*
X180597974Y-85720739D01*
X180591103Y-85528771D01*
X180588865Y-85357846D01*
X180590358Y-85263672D01*
X180635614Y-84701174D01*
X180733482Y-84173262D01*
X180883784Y-83680363D01*
X181086348Y-83222903D01*
X181340997Y-82801309D01*
X181647556Y-82416008D01*
X181842033Y-82216062D01*
X182022266Y-82064428D01*
X182244538Y-81909810D01*
X182489091Y-81763841D01*
X182736166Y-81638153D01*
X182966007Y-81544376D01*
X183004853Y-81531519D01*
X183431557Y-81429217D01*
X183874888Y-81385838D01*
X184329491Y-81400735D01*
X184790014Y-81473256D01*
X185251105Y-81602750D01*
X185707411Y-81788569D01*
X185894995Y-81882539D01*
X186259352Y-82101575D01*
X186631346Y-82374863D01*
X187002907Y-82695129D01*
X187365966Y-83055096D01*
X187712455Y-83447491D01*
X187915473Y-83703947D01*
X188030847Y-83865955D01*
X188160869Y-84064901D01*
X188298794Y-84288887D01*
X188437879Y-84526011D01*
X188571383Y-84764374D01*
X188692562Y-84992077D01*
X188794673Y-85197221D01*
X188870974Y-85367903D01*
X188897475Y-85436990D01*
X189056173Y-85965938D01*
X189155335Y-86487889D01*
X189196252Y-87014057D01*
X189180218Y-87555658D01*
X189162910Y-87737328D01*
X189136670Y-87906605D01*
X189091694Y-88122367D01*
X189031612Y-88371671D01*
X188960060Y-88641572D01*
X188880671Y-88919125D01*
X188797076Y-89191388D01*
X188712910Y-89445417D01*
X188631805Y-89668266D01*
X188595271Y-89759774D01*
X188530332Y-89913966D01*
X188445152Y-90112389D01*
X188345674Y-90341423D01*
X188237833Y-90587446D01*
X188127569Y-90836841D01*
X188040529Y-91032031D01*
X187880346Y-91393299D01*
X187744220Y-91709546D01*
X187627859Y-91992569D01*
X187526966Y-92254166D01*
X187437247Y-92506132D01*
X187354405Y-92760265D01*
X187274144Y-93028362D01*
X187192171Y-93322221D01*
X187151705Y-93473059D01*
X187031581Y-93956053D01*
X186928398Y-94434194D01*
X186843030Y-94900273D01*
X186776355Y-95347079D01*
X186729251Y-95767400D01*
X186702595Y-96154027D01*
X186697264Y-96499750D01*
X186714135Y-96797357D01*
X186731451Y-96927559D01*
X186765592Y-97133855D01*
X186608927Y-97009632D01*
X186348299Y-96824105D01*
X186033528Y-96635675D01*
X185673618Y-96448126D01*
X185277571Y-96265247D01*
X184854392Y-96090825D01*
X184413083Y-95928647D01*
X183962648Y-95782501D01*
X183512091Y-95656173D01*
X183228139Y-95587543D01*
X183025678Y-95542656D01*
X182838988Y-95503385D01*
X182660341Y-95468707D01*
X182482014Y-95437599D01*
X182296282Y-95409034D01*
X182095419Y-95381992D01*
X181871700Y-95355447D01*
X181617399Y-95328374D01*
X181324793Y-95299750D01*
X180986156Y-95268552D01*
X180593761Y-95233754D01*
X180492003Y-95224864D01*
X180033923Y-95180982D01*
X179627497Y-95133153D01*
X179260913Y-95079530D01*
X178922361Y-95018264D01*
X178600027Y-94947506D01*
X178401640Y-94897662D01*
X177847629Y-94729914D01*
X177344032Y-94529908D01*
X176884459Y-94293768D01*
X176462519Y-94017617D01*
X176071822Y-93697580D01*
X175705978Y-93329782D01*
X175580468Y-93186515D01*
X175475475Y-93050644D01*
X175350568Y-92869429D01*
X175212880Y-92654971D01*
X175069547Y-92419379D01*
X174927702Y-92174756D01*
X174794480Y-91933209D01*
X174677016Y-91706840D01*
X174582443Y-91507758D01*
X174558401Y-91452318D01*
X174410185Y-91061288D01*
X176474113Y-89869678D01*
X179141113Y-94489058D01*
X180543425Y-93679433D01*
X179606800Y-92057151D01*
X180954119Y-91279276D01*
X180319119Y-90179424D01*
X178971800Y-90957299D01*
X178511425Y-90159906D01*
X179996225Y-89302656D01*
X179361225Y-88202803D01*
X180021137Y-87821803D01*
X182688137Y-92441183D01*
X183933569Y-91722132D01*
X182998457Y-90144803D01*
X182823611Y-89850439D01*
X182655236Y-89568049D01*
X182496675Y-89303169D01*
X182351269Y-89061329D01*
X182222363Y-88848067D01*
X182113297Y-88668915D01*
X182027412Y-88529407D01*
X181968054Y-88435077D01*
X181943646Y-88398282D01*
X181876923Y-88299921D01*
X181849487Y-88249518D01*
X181860117Y-88246130D01*
X181907588Y-88288819D01*
X181990678Y-88376640D01*
X182108164Y-88508652D01*
X182150844Y-88557787D01*
X182227708Y-88643498D01*
X182343692Y-88768486D01*
X182493214Y-88926931D01*
X182670693Y-89113006D01*
X182870549Y-89320889D01*
X183087202Y-89544754D01*
X183315070Y-89778782D01*
X183548573Y-90017145D01*
X183579181Y-90048279D01*
X183801655Y-90274587D01*
X184010343Y-90487080D01*
X184201065Y-90681486D01*
X184369643Y-90853537D01*
X184511894Y-90998960D01*
X184623642Y-91113486D01*
X184700704Y-91192844D01*
X184738902Y-91232764D01*
X184742335Y-91236659D01*
X184770815Y-91225384D01*
X184846528Y-91186286D01*
X184961859Y-91123546D01*
X185109199Y-91041348D01*
X185280935Y-90943876D01*
X185409211Y-90870170D01*
X186068062Y-90489782D01*
X186036277Y-90370651D01*
X186007248Y-90265319D01*
X185962792Y-90108558D01*
X185905191Y-89908119D01*
X185836729Y-89671753D01*
X185759690Y-89407208D01*
X185676356Y-89122235D01*
X185589010Y-88824584D01*
X185499936Y-88522004D01*
X185411417Y-88222245D01*
X185325736Y-87933058D01*
X185245177Y-87662193D01*
X185172022Y-87417397D01*
X185108555Y-87206423D01*
X185057060Y-87037020D01*
X185019818Y-86916937D01*
X185007147Y-86877483D01*
X184878166Y-86484962D01*
X186888707Y-90015982D01*
X188269887Y-89218558D01*
X185602887Y-84599178D01*
X184578681Y-85190577D01*
X183554475Y-85781975D01*
X183988431Y-87226963D01*
X184079892Y-87529855D01*
X184169615Y-87823889D01*
X184255211Y-88101441D01*
X184334286Y-88354886D01*
X184404450Y-88576599D01*
X184463310Y-88758956D01*
X184508475Y-88894332D01*
X184533679Y-88965109D01*
X184579283Y-89089811D01*
X184612645Y-89190010D01*
X184629603Y-89252647D01*
X184629872Y-89267023D01*
X184604997Y-89247774D01*
X184551223Y-89188876D01*
X184478175Y-89101156D01*
X184441482Y-89055040D01*
X184384502Y-88988072D01*
X184287204Y-88880327D01*
X184153840Y-88736253D01*
X183988662Y-88560302D01*
X183795925Y-88356923D01*
X183579880Y-88130567D01*
X183344780Y-87885686D01*
X183094878Y-87626728D01*
X182834428Y-87358145D01*
X182567682Y-87084387D01*
X182298892Y-86809904D01*
X182195002Y-86704203D01*
X182108736Y-86616527D01*
X180021137Y-87821803D01*
X179361225Y-88202803D01*
X176474113Y-89869678D01*
X174410185Y-91061288D01*
X174335259Y-90863614D01*
X174165835Y-90286708D01*
X174050097Y-89724227D01*
X173988007Y-89178798D01*
X173979530Y-88653050D01*
X174024630Y-88149609D01*
X174123272Y-87671103D01*
X174275420Y-87220159D01*
X174481040Y-86799404D01*
X174624589Y-86570521D01*
X174806134Y-86324157D01*
X174990360Y-86118354D01*
X175193219Y-85938489D01*
X175430660Y-85769946D01*
X175631370Y-85647754D01*
X175913552Y-85496904D01*
X175913552Y-85496904D01*
G37*
X175913552Y-85496904D02*
X176176182Y-85385873D01*
X176441809Y-85306946D01*
X176732982Y-85252405D01*
X176821152Y-85240577D01*
X177269658Y-85215281D01*
X177735114Y-85247380D01*
X178211685Y-85335000D01*
X178693539Y-85476261D01*
X179174840Y-85669289D01*
X179649758Y-85912206D01*
X180112457Y-86203136D01*
X180350506Y-86375977D01*
X180470178Y-86465271D01*
X180571250Y-86537145D01*
X180643392Y-86584506D01*
X180676280Y-86600257D01*
X180676694Y-86600096D01*
X180682163Y-86565756D01*
X180670100Y-86503084D01*
X180653660Y-86417247D01*
X180637321Y-86282004D01*
X180621990Y-86111445D01*
X180608571Y-85919660D01*
X180597974Y-85720739D01*
X180591103Y-85528771D01*
X180588865Y-85357846D01*
X180590358Y-85263672D01*
X180635614Y-84701174D01*
X180733482Y-84173262D01*
X180883784Y-83680363D01*
X181086348Y-83222903D01*
X181340997Y-82801309D01*
X181647556Y-82416008D01*
X181842033Y-82216062D01*
X182022266Y-82064428D01*
X182244538Y-81909810D01*
X182489091Y-81763841D01*
X182736166Y-81638153D01*
X182966007Y-81544376D01*
X183004853Y-81531519D01*
X183431557Y-81429217D01*
X183874888Y-81385838D01*
X184329491Y-81400735D01*
X184790014Y-81473256D01*
X185251105Y-81602750D01*
X185707411Y-81788569D01*
X185894995Y-81882539D01*
X186259352Y-82101575D01*
X186631346Y-82374863D01*
X187002907Y-82695129D01*
X187365966Y-83055096D01*
X187712455Y-83447491D01*
X187915473Y-83703947D01*
X188030847Y-83865955D01*
X188160869Y-84064901D01*
X188298794Y-84288887D01*
X188437879Y-84526011D01*
X188571383Y-84764374D01*
X188692562Y-84992077D01*
X188794673Y-85197221D01*
X188870974Y-85367903D01*
X188897475Y-85436990D01*
X189056173Y-85965938D01*
X189155335Y-86487889D01*
X189196252Y-87014057D01*
X189180218Y-87555658D01*
X189162910Y-87737328D01*
X189136670Y-87906605D01*
X189091694Y-88122367D01*
X189031612Y-88371671D01*
X188960060Y-88641572D01*
X188880671Y-88919125D01*
X188797076Y-89191388D01*
X188712910Y-89445417D01*
X188631805Y-89668266D01*
X188595271Y-89759774D01*
X188530332Y-89913966D01*
X188445152Y-90112389D01*
X188345674Y-90341423D01*
X188237833Y-90587446D01*
X188127569Y-90836841D01*
X188040529Y-91032031D01*
X187880346Y-91393299D01*
X187744220Y-91709546D01*
X187627859Y-91992569D01*
X187526966Y-92254166D01*
X187437247Y-92506132D01*
X187354405Y-92760265D01*
X187274144Y-93028362D01*
X187192171Y-93322221D01*
X187151705Y-93473059D01*
X187031581Y-93956053D01*
X186928398Y-94434194D01*
X186843030Y-94900273D01*
X186776355Y-95347079D01*
X186729251Y-95767400D01*
X186702595Y-96154027D01*
X186697264Y-96499750D01*
X186714135Y-96797357D01*
X186731451Y-96927559D01*
X186765592Y-97133855D01*
X186608927Y-97009632D01*
X186348299Y-96824105D01*
X186033528Y-96635675D01*
X185673618Y-96448126D01*
X185277571Y-96265247D01*
X184854392Y-96090825D01*
X184413083Y-95928647D01*
X183962648Y-95782501D01*
X183512091Y-95656173D01*
X183228139Y-95587543D01*
X183025678Y-95542656D01*
X182838988Y-95503385D01*
X182660341Y-95468707D01*
X182482014Y-95437599D01*
X182296282Y-95409034D01*
X182095419Y-95381992D01*
X181871700Y-95355447D01*
X181617399Y-95328374D01*
X181324793Y-95299750D01*
X180986156Y-95268552D01*
X180593761Y-95233754D01*
X180492003Y-95224864D01*
X180033923Y-95180982D01*
X179627497Y-95133153D01*
X179260913Y-95079530D01*
X178922361Y-95018264D01*
X178600027Y-94947506D01*
X178401640Y-94897662D01*
X177847629Y-94729914D01*
X177344032Y-94529908D01*
X176884459Y-94293768D01*
X176462519Y-94017617D01*
X176071822Y-93697580D01*
X175705978Y-93329782D01*
X175580468Y-93186515D01*
X175475475Y-93050644D01*
X175350568Y-92869429D01*
X175212880Y-92654971D01*
X175069547Y-92419379D01*
X174927702Y-92174756D01*
X174794480Y-91933209D01*
X174677016Y-91706840D01*
X174582443Y-91507758D01*
X174558401Y-91452318D01*
X174410185Y-91061288D01*
X176474113Y-89869678D01*
X179141113Y-94489058D01*
X180543425Y-93679433D01*
X179606800Y-92057151D01*
X180954119Y-91279276D01*
X180319119Y-90179424D01*
X178971800Y-90957299D01*
X178511425Y-90159906D01*
X179996225Y-89302656D01*
X179361225Y-88202803D01*
X180021137Y-87821803D01*
X182688137Y-92441183D01*
X183933569Y-91722132D01*
X182998457Y-90144803D01*
X182823611Y-89850439D01*
X182655236Y-89568049D01*
X182496675Y-89303169D01*
X182351269Y-89061329D01*
X182222363Y-88848067D01*
X182113297Y-88668915D01*
X182027412Y-88529407D01*
X181968054Y-88435077D01*
X181943646Y-88398282D01*
X181876923Y-88299921D01*
X181849487Y-88249518D01*
X181860117Y-88246130D01*
X181907588Y-88288819D01*
X181990678Y-88376640D01*
X182108164Y-88508652D01*
X182150844Y-88557787D01*
X182227708Y-88643498D01*
X182343692Y-88768486D01*
X182493214Y-88926931D01*
X182670693Y-89113006D01*
X182870549Y-89320889D01*
X183087202Y-89544754D01*
X183315070Y-89778782D01*
X183548573Y-90017145D01*
X183579181Y-90048279D01*
X183801655Y-90274587D01*
X184010343Y-90487080D01*
X184201065Y-90681486D01*
X184369643Y-90853537D01*
X184511894Y-90998960D01*
X184623642Y-91113486D01*
X184700704Y-91192844D01*
X184738902Y-91232764D01*
X184742335Y-91236659D01*
X184770815Y-91225384D01*
X184846528Y-91186286D01*
X184961859Y-91123546D01*
X185109199Y-91041348D01*
X185280935Y-90943876D01*
X185409211Y-90870170D01*
X186068062Y-90489782D01*
X186036277Y-90370651D01*
X186007248Y-90265319D01*
X185962792Y-90108558D01*
X185905191Y-89908119D01*
X185836729Y-89671753D01*
X185759690Y-89407208D01*
X185676356Y-89122235D01*
X185589010Y-88824584D01*
X185499936Y-88522004D01*
X185411417Y-88222245D01*
X185325736Y-87933058D01*
X185245177Y-87662193D01*
X185172022Y-87417397D01*
X185108555Y-87206423D01*
X185057060Y-87037020D01*
X185019818Y-86916937D01*
X185007147Y-86877483D01*
X184878166Y-86484962D01*
X186888707Y-90015982D01*
X188269887Y-89218558D01*
X185602887Y-84599178D01*
X184578681Y-85190577D01*
X183554475Y-85781975D01*
X183988431Y-87226963D01*
X184079892Y-87529855D01*
X184169615Y-87823889D01*
X184255211Y-88101441D01*
X184334286Y-88354886D01*
X184404450Y-88576599D01*
X184463310Y-88758956D01*
X184508475Y-88894332D01*
X184533679Y-88965109D01*
X184579283Y-89089811D01*
X184612645Y-89190010D01*
X184629603Y-89252647D01*
X184629872Y-89267023D01*
X184604997Y-89247774D01*
X184551223Y-89188876D01*
X184478175Y-89101156D01*
X184441482Y-89055040D01*
X184384502Y-88988072D01*
X184287204Y-88880327D01*
X184153840Y-88736253D01*
X183988662Y-88560302D01*
X183795925Y-88356923D01*
X183579880Y-88130567D01*
X183344780Y-87885686D01*
X183094878Y-87626728D01*
X182834428Y-87358145D01*
X182567682Y-87084387D01*
X182298892Y-86809904D01*
X182195002Y-86704203D01*
X182108736Y-86616527D01*
X180021137Y-87821803D01*
X179361225Y-88202803D01*
X176474113Y-89869678D01*
X174410185Y-91061288D01*
X174335259Y-90863614D01*
X174165835Y-90286708D01*
X174050097Y-89724227D01*
X173988007Y-89178798D01*
X173979530Y-88653050D01*
X174024630Y-88149609D01*
X174123272Y-87671103D01*
X174275420Y-87220159D01*
X174481040Y-86799404D01*
X174624589Y-86570521D01*
X174806134Y-86324157D01*
X174990360Y-86118354D01*
X175193219Y-85938489D01*
X175430660Y-85769946D01*
X175631370Y-85647754D01*
X175913552Y-85496904D01*
D12*
X216949087Y-118581989D02*
X216949087Y-118649332D01*
X216881743Y-118784019D01*
X216814400Y-118851363D01*
X216679712Y-118918706D01*
X216545025Y-118918706D01*
X216444010Y-118885035D01*
X216275651Y-118784019D01*
X216174636Y-118683004D01*
X216073621Y-118514645D01*
X216039949Y-118413630D01*
X216039949Y-118278943D01*
X216107293Y-118144256D01*
X216174636Y-118076912D01*
X216309323Y-118009569D01*
X216376667Y-118009569D01*
X217689865Y-117975897D02*
X217285804Y-118379958D01*
X217487835Y-118177928D02*
X216780728Y-117470821D01*
X216814400Y-117639180D01*
X216814400Y-117773867D01*
X216780728Y-117874882D01*
X205605142Y-71131942D02*
X205557523Y-71179561D01*
X205414666Y-71227180D01*
X205319428Y-71227180D01*
X205176571Y-71179561D01*
X205081333Y-71084323D01*
X205033714Y-70989085D01*
X204986095Y-70798609D01*
X204986095Y-70655752D01*
X205033714Y-70465276D01*
X205081333Y-70370038D01*
X205176571Y-70274800D01*
X205319428Y-70227180D01*
X205414666Y-70227180D01*
X205557523Y-70274800D01*
X205605142Y-70322419D01*
X206462285Y-70560514D02*
X206462285Y-71227180D01*
X206224190Y-70179561D02*
X205986095Y-70893847D01*
X206605142Y-70893847D01*
X207128952Y-70655752D02*
X207033714Y-70608133D01*
X206986095Y-70560514D01*
X206938476Y-70465276D01*
X206938476Y-70417657D01*
X206986095Y-70322419D01*
X207033714Y-70274800D01*
X207128952Y-70227180D01*
X207319428Y-70227180D01*
X207414666Y-70274800D01*
X207462285Y-70322419D01*
X207509904Y-70417657D01*
X207509904Y-70465276D01*
X207462285Y-70560514D01*
X207414666Y-70608133D01*
X207319428Y-70655752D01*
X207128952Y-70655752D01*
X207033714Y-70703371D01*
X206986095Y-70750990D01*
X206938476Y-70846228D01*
X206938476Y-71036704D01*
X206986095Y-71131942D01*
X207033714Y-71179561D01*
X207128952Y-71227180D01*
X207319428Y-71227180D01*
X207414666Y-71179561D01*
X207462285Y-71131942D01*
X207509904Y-71036704D01*
X207509904Y-70846228D01*
X207462285Y-70750990D01*
X207414666Y-70703371D01*
X207319428Y-70655752D01*
X262570933Y-89765142D02*
X262523314Y-89812761D01*
X262380457Y-89860380D01*
X262285219Y-89860380D01*
X262142361Y-89812761D01*
X262047123Y-89717523D01*
X261999504Y-89622285D01*
X261951885Y-89431809D01*
X261951885Y-89288952D01*
X261999504Y-89098476D01*
X262047123Y-89003238D01*
X262142361Y-88908000D01*
X262285219Y-88860380D01*
X262380457Y-88860380D01*
X262523314Y-88908000D01*
X262570933Y-88955619D01*
X263142361Y-89288952D02*
X263047123Y-89241333D01*
X262999504Y-89193714D01*
X262951885Y-89098476D01*
X262951885Y-89050857D01*
X262999504Y-88955619D01*
X263047123Y-88908000D01*
X263142361Y-88860380D01*
X263332838Y-88860380D01*
X263428076Y-88908000D01*
X263475695Y-88955619D01*
X263523314Y-89050857D01*
X263523314Y-89098476D01*
X263475695Y-89193714D01*
X263428076Y-89241333D01*
X263332838Y-89288952D01*
X263142361Y-89288952D01*
X263047123Y-89336571D01*
X262999504Y-89384190D01*
X262951885Y-89479428D01*
X262951885Y-89669904D01*
X262999504Y-89765142D01*
X263047123Y-89812761D01*
X263142361Y-89860380D01*
X263332838Y-89860380D01*
X263428076Y-89812761D01*
X263475695Y-89765142D01*
X263523314Y-89669904D01*
X263523314Y-89479428D01*
X263475695Y-89384190D01*
X263428076Y-89336571D01*
X263332838Y-89288952D01*
X262575248Y-90523229D02*
X263337153Y-90523229D01*
X262956201Y-90904181D02*
X262956201Y-90142277D01*
X270241733Y-76912742D02*
X270194114Y-76960361D01*
X270051257Y-77007980D01*
X269956019Y-77007980D01*
X269813161Y-76960361D01*
X269717923Y-76865123D01*
X269670304Y-76769885D01*
X269622685Y-76579409D01*
X269622685Y-76436552D01*
X269670304Y-76246076D01*
X269717923Y-76150838D01*
X269813161Y-76055600D01*
X269956019Y-76007980D01*
X270051257Y-76007980D01*
X270194114Y-76055600D01*
X270241733Y-76103219D01*
X270575066Y-76007980D02*
X271194114Y-76007980D01*
X270860780Y-76388933D01*
X271003638Y-76388933D01*
X271098876Y-76436552D01*
X271146495Y-76484171D01*
X271194114Y-76579409D01*
X271194114Y-76817504D01*
X271146495Y-76912742D01*
X271098876Y-76960361D01*
X271003638Y-77007980D01*
X270717923Y-77007980D01*
X270622685Y-76960361D01*
X270575066Y-76912742D01*
X262575248Y-83673229D02*
X263337153Y-83673229D01*
X262956201Y-84054181D02*
X262956201Y-83292277D01*
X257560914Y-88285580D02*
X257560914Y-87285580D01*
X257799009Y-87285580D01*
X257941866Y-87333200D01*
X258037104Y-87428438D01*
X258084723Y-87523676D01*
X258132342Y-87714152D01*
X258132342Y-87857009D01*
X258084723Y-88047485D01*
X258037104Y-88142723D01*
X257941866Y-88237961D01*
X257799009Y-88285580D01*
X257560914Y-88285580D01*
X259084723Y-88285580D02*
X258513295Y-88285580D01*
X258799009Y-88285580D02*
X258799009Y-87285580D01*
X258703771Y-87428438D01*
X258608533Y-87523676D01*
X258513295Y-87571295D01*
X260037104Y-88285580D02*
X259465676Y-88285580D01*
X259751390Y-88285580D02*
X259751390Y-87285580D01*
X259656152Y-87428438D01*
X259560914Y-87523676D01*
X259465676Y-87571295D01*
X193149695Y-52284380D02*
X193721123Y-52284380D01*
X193435409Y-53284380D02*
X193435409Y-52284380D01*
X194054457Y-53284380D02*
X194054457Y-52284380D01*
X194435409Y-52284380D01*
X194530647Y-52332000D01*
X194578266Y-52379619D01*
X194625885Y-52474857D01*
X194625885Y-52617714D01*
X194578266Y-52712952D01*
X194530647Y-52760571D01*
X194435409Y-52808190D01*
X194054457Y-52808190D01*
X194959219Y-52284380D02*
X195625885Y-52284380D01*
X195197314Y-53284380D01*
X251577580Y-70967504D02*
X252387104Y-70967504D01*
X252482342Y-70919885D01*
X252529961Y-70872266D01*
X252577580Y-70777028D01*
X252577580Y-70586552D01*
X252529961Y-70491314D01*
X252482342Y-70443695D01*
X252387104Y-70396076D01*
X251577580Y-70396076D01*
X252577580Y-69396076D02*
X252577580Y-69967504D01*
X252577580Y-69681790D02*
X251577580Y-69681790D01*
X251720438Y-69777028D01*
X251815676Y-69872266D01*
X251863295Y-69967504D01*
X213955333Y-72029580D02*
X213479142Y-72029580D01*
X213479142Y-71029580D01*
X214812476Y-72029580D02*
X214241047Y-72029580D01*
X214526761Y-72029580D02*
X214526761Y-71029580D01*
X214431523Y-71172438D01*
X214336285Y-71267676D01*
X214241047Y-71315295D01*
X255357333Y-80716380D02*
X254881142Y-80716380D01*
X254881142Y-79716380D01*
X255643047Y-79811619D02*
X255690666Y-79764000D01*
X255785904Y-79716380D01*
X256024000Y-79716380D01*
X256119238Y-79764000D01*
X256166857Y-79811619D01*
X256214476Y-79906857D01*
X256214476Y-80002095D01*
X256166857Y-80144952D01*
X255595428Y-80716380D01*
X256214476Y-80716380D01*
X255013361Y-138665133D02*
X255060980Y-138522276D01*
X255060980Y-138284180D01*
X255013361Y-138188942D01*
X254965742Y-138141323D01*
X254870504Y-138093704D01*
X254775266Y-138093704D01*
X254680028Y-138141323D01*
X254632409Y-138188942D01*
X254584790Y-138284180D01*
X254537171Y-138474657D01*
X254489552Y-138569895D01*
X254441933Y-138617514D01*
X254346695Y-138665133D01*
X254251457Y-138665133D01*
X254156219Y-138617514D01*
X254108600Y-138569895D01*
X254060980Y-138474657D01*
X254060980Y-138236561D01*
X254108600Y-138093704D01*
X254060980Y-137760371D02*
X255060980Y-137522276D01*
X254346695Y-137331800D01*
X255060980Y-137141323D01*
X254060980Y-136903228D01*
X255060980Y-136474657D02*
X255060980Y-136284180D01*
X255013361Y-136188942D01*
X254965742Y-136141323D01*
X254822885Y-136046085D01*
X254632409Y-135998466D01*
X254251457Y-135998466D01*
X254156219Y-136046085D01*
X254108600Y-136093704D01*
X254060980Y-136188942D01*
X254060980Y-136379419D01*
X254108600Y-136474657D01*
X254156219Y-136522276D01*
X254251457Y-136569895D01*
X254489552Y-136569895D01*
X254584790Y-136522276D01*
X254632409Y-136474657D01*
X254680028Y-136379419D01*
X254680028Y-136188942D01*
X254632409Y-136093704D01*
X254584790Y-136046085D01*
X254489552Y-135998466D01*
X228465142Y-80303642D02*
X228417523Y-80351261D01*
X228274666Y-80398880D01*
X228179428Y-80398880D01*
X228036571Y-80351261D01*
X227941333Y-80256023D01*
X227893714Y-80160785D01*
X227846095Y-79970309D01*
X227846095Y-79827452D01*
X227893714Y-79636976D01*
X227941333Y-79541738D01*
X228036571Y-79446500D01*
X228179428Y-79398880D01*
X228274666Y-79398880D01*
X228417523Y-79446500D01*
X228465142Y-79494119D01*
X229417523Y-80398880D02*
X228846095Y-80398880D01*
X229131809Y-80398880D02*
X229131809Y-79398880D01*
X229036571Y-79541738D01*
X228941333Y-79636976D01*
X228846095Y-79684595D01*
X229893714Y-80398880D02*
X230084190Y-80398880D01*
X230179428Y-80351261D01*
X230227047Y-80303642D01*
X230322285Y-80160785D01*
X230369904Y-79970309D01*
X230369904Y-79589357D01*
X230322285Y-79494119D01*
X230274666Y-79446500D01*
X230179428Y-79398880D01*
X229988952Y-79398880D01*
X229893714Y-79446500D01*
X229846095Y-79494119D01*
X229798476Y-79589357D01*
X229798476Y-79827452D01*
X229846095Y-79922690D01*
X229893714Y-79970309D01*
X229988952Y-80017928D01*
X230179428Y-80017928D01*
X230274666Y-79970309D01*
X230322285Y-79922690D01*
X230369904Y-79827452D01*
X216343047Y-80923928D02*
X217104952Y-80923928D01*
X216724000Y-81304880D02*
X216724000Y-80542976D01*
X238338142Y-64841357D02*
X238385761Y-64888976D01*
X238433380Y-65031833D01*
X238433380Y-65127071D01*
X238385761Y-65269928D01*
X238290523Y-65365166D01*
X238195285Y-65412785D01*
X238004809Y-65460404D01*
X237861952Y-65460404D01*
X237671476Y-65412785D01*
X237576238Y-65365166D01*
X237481000Y-65269928D01*
X237433380Y-65127071D01*
X237433380Y-65031833D01*
X237481000Y-64888976D01*
X237528619Y-64841357D01*
X237433380Y-64508023D02*
X237433380Y-63888976D01*
X237814333Y-64222309D01*
X237814333Y-64079452D01*
X237861952Y-63984214D01*
X237909571Y-63936595D01*
X238004809Y-63888976D01*
X238242904Y-63888976D01*
X238338142Y-63936595D01*
X238385761Y-63984214D01*
X238433380Y-64079452D01*
X238433380Y-64365166D01*
X238385761Y-64460404D01*
X238338142Y-64508023D01*
X237433380Y-63031833D02*
X237433380Y-63222309D01*
X237481000Y-63317547D01*
X237528619Y-63365166D01*
X237671476Y-63460404D01*
X237861952Y-63508023D01*
X238242904Y-63508023D01*
X238338142Y-63460404D01*
X238385761Y-63412785D01*
X238433380Y-63317547D01*
X238433380Y-63127071D01*
X238385761Y-63031833D01*
X238338142Y-62984214D01*
X238242904Y-62936595D01*
X238004809Y-62936595D01*
X237909571Y-62984214D01*
X237861952Y-63031833D01*
X237814333Y-63127071D01*
X237814333Y-63317547D01*
X237861952Y-63412785D01*
X237909571Y-63460404D01*
X238004809Y-63508023D01*
X236562428Y-70359452D02*
X236562428Y-69597547D01*
X236943380Y-69978500D02*
X236181476Y-69978500D01*
X225913142Y-52129357D02*
X225960761Y-52176976D01*
X226008380Y-52319833D01*
X226008380Y-52415071D01*
X225960761Y-52557928D01*
X225865523Y-52653166D01*
X225770285Y-52700785D01*
X225579809Y-52748404D01*
X225436952Y-52748404D01*
X225246476Y-52700785D01*
X225151238Y-52653166D01*
X225056000Y-52557928D01*
X225008380Y-52415071D01*
X225008380Y-52319833D01*
X225056000Y-52176976D01*
X225103619Y-52129357D01*
X225008380Y-51796023D02*
X225008380Y-51176976D01*
X225389333Y-51510309D01*
X225389333Y-51367452D01*
X225436952Y-51272214D01*
X225484571Y-51224595D01*
X225579809Y-51176976D01*
X225817904Y-51176976D01*
X225913142Y-51224595D01*
X225960761Y-51272214D01*
X226008380Y-51367452D01*
X226008380Y-51653166D01*
X225960761Y-51748404D01*
X225913142Y-51796023D01*
X225008380Y-50843642D02*
X225008380Y-50176976D01*
X226008380Y-50605547D01*
X236562428Y-57659452D02*
X236562428Y-56897547D01*
X236943380Y-57278500D02*
X236181476Y-57278500D01*
X250181142Y-55553857D02*
X250228761Y-55601476D01*
X250276380Y-55744333D01*
X250276380Y-55839571D01*
X250228761Y-55982428D01*
X250133523Y-56077666D01*
X250038285Y-56125285D01*
X249847809Y-56172904D01*
X249704952Y-56172904D01*
X249514476Y-56125285D01*
X249419238Y-56077666D01*
X249324000Y-55982428D01*
X249276380Y-55839571D01*
X249276380Y-55744333D01*
X249324000Y-55601476D01*
X249371619Y-55553857D01*
X250276380Y-54601476D02*
X250276380Y-55172904D01*
X250276380Y-54887190D02*
X249276380Y-54887190D01*
X249419238Y-54982428D01*
X249514476Y-55077666D01*
X249562095Y-55172904D01*
X249371619Y-54220523D02*
X249324000Y-54172904D01*
X249276380Y-54077666D01*
X249276380Y-53839571D01*
X249324000Y-53744333D01*
X249371619Y-53696714D01*
X249466857Y-53649095D01*
X249562095Y-53649095D01*
X249704952Y-53696714D01*
X250276380Y-54268142D01*
X250276380Y-53649095D01*
X260692428Y-57468952D02*
X260692428Y-56707047D01*
X261073380Y-57088000D02*
X260311476Y-57088000D01*
X249039142Y-85967142D02*
X248991523Y-86014761D01*
X248848666Y-86062380D01*
X248753428Y-86062380D01*
X248610571Y-86014761D01*
X248515333Y-85919523D01*
X248467714Y-85824285D01*
X248420095Y-85633809D01*
X248420095Y-85490952D01*
X248467714Y-85300476D01*
X248515333Y-85205238D01*
X248610571Y-85110000D01*
X248753428Y-85062380D01*
X248848666Y-85062380D01*
X248991523Y-85110000D01*
X249039142Y-85157619D01*
X249420095Y-85157619D02*
X249467714Y-85110000D01*
X249562952Y-85062380D01*
X249801047Y-85062380D01*
X249896285Y-85110000D01*
X249943904Y-85157619D01*
X249991523Y-85252857D01*
X249991523Y-85348095D01*
X249943904Y-85490952D01*
X249372476Y-86062380D01*
X249991523Y-86062380D01*
X250848666Y-85062380D02*
X250658190Y-85062380D01*
X250562952Y-85110000D01*
X250515333Y-85157619D01*
X250420095Y-85300476D01*
X250372476Y-85490952D01*
X250372476Y-85871904D01*
X250420095Y-85967142D01*
X250467714Y-86014761D01*
X250562952Y-86062380D01*
X250753428Y-86062380D01*
X250848666Y-86014761D01*
X250896285Y-85967142D01*
X250943904Y-85871904D01*
X250943904Y-85633809D01*
X250896285Y-85538571D01*
X250848666Y-85490952D01*
X250753428Y-85443333D01*
X250562952Y-85443333D01*
X250467714Y-85490952D01*
X250420095Y-85538571D01*
X250372476Y-85633809D01*
X253581047Y-87231428D02*
X254342952Y-87231428D01*
X253962000Y-87612380D02*
X253962000Y-86850476D01*
X245857142Y-109357142D02*
X245809523Y-109404761D01*
X245666666Y-109452380D01*
X245571428Y-109452380D01*
X245428571Y-109404761D01*
X245333333Y-109309523D01*
X245285714Y-109214285D01*
X245238095Y-109023809D01*
X245238095Y-108880952D01*
X245285714Y-108690476D01*
X245333333Y-108595238D01*
X245428571Y-108500000D01*
X245571428Y-108452380D01*
X245666666Y-108452380D01*
X245809523Y-108500000D01*
X245857142Y-108547619D01*
X246238095Y-108547619D02*
X246285714Y-108500000D01*
X246380952Y-108452380D01*
X246619047Y-108452380D01*
X246714285Y-108500000D01*
X246761904Y-108547619D01*
X246809523Y-108642857D01*
X246809523Y-108738095D01*
X246761904Y-108880952D01*
X246190476Y-109452380D01*
X246809523Y-109452380D01*
X247142857Y-108452380D02*
X247809523Y-108452380D01*
X247380952Y-109452380D01*
X253399047Y-102161428D02*
X254160952Y-102161428D01*
X253780000Y-102542380D02*
X253780000Y-101780476D01*
X236301616Y-123237566D02*
X236638334Y-123574284D01*
X235695525Y-123102879D02*
X236301616Y-123237566D01*
X236166929Y-122631475D01*
X237480127Y-122732490D02*
X237076066Y-123136551D01*
X237278097Y-122934520D02*
X236570990Y-122227414D01*
X236604662Y-122395772D01*
X236604662Y-122530459D01*
X236570990Y-122631475D01*
X181443904Y-68873880D02*
X181443904Y-67873880D01*
X181682000Y-67873880D01*
X181824857Y-67921500D01*
X181920095Y-68016738D01*
X181967714Y-68111976D01*
X182015333Y-68302452D01*
X182015333Y-68445309D01*
X181967714Y-68635785D01*
X181920095Y-68731023D01*
X181824857Y-68826261D01*
X181682000Y-68873880D01*
X181443904Y-68873880D01*
X182967714Y-68873880D02*
X182396285Y-68873880D01*
X182682000Y-68873880D02*
X182682000Y-67873880D01*
X182586761Y-68016738D01*
X182491523Y-68111976D01*
X182396285Y-68159595D01*
X250515904Y-57602380D02*
X250515904Y-56602380D01*
X250754000Y-56602380D01*
X250896857Y-56650000D01*
X250992095Y-56745238D01*
X251039714Y-56840476D01*
X251087333Y-57030952D01*
X251087333Y-57173809D01*
X251039714Y-57364285D01*
X250992095Y-57459523D01*
X250896857Y-57554761D01*
X250754000Y-57602380D01*
X250515904Y-57602380D01*
X251468285Y-56697619D02*
X251515904Y-56650000D01*
X251611142Y-56602380D01*
X251849238Y-56602380D01*
X251944476Y-56650000D01*
X251992095Y-56697619D01*
X252039714Y-56792857D01*
X252039714Y-56888095D01*
X251992095Y-57030952D01*
X251420666Y-57602380D01*
X252039714Y-57602380D01*
X185031142Y-124912380D02*
X184697809Y-124436190D01*
X184459714Y-124912380D02*
X184459714Y-123912380D01*
X184840666Y-123912380D01*
X184935904Y-123960000D01*
X184983523Y-124007619D01*
X185031142Y-124102857D01*
X185031142Y-124245714D01*
X184983523Y-124340952D01*
X184935904Y-124388571D01*
X184840666Y-124436190D01*
X184459714Y-124436190D01*
X185412095Y-124007619D02*
X185459714Y-123960000D01*
X185554952Y-123912380D01*
X185793047Y-123912380D01*
X185888285Y-123960000D01*
X185935904Y-124007619D01*
X185983523Y-124102857D01*
X185983523Y-124198095D01*
X185935904Y-124340952D01*
X185364476Y-124912380D01*
X185983523Y-124912380D01*
X186459714Y-124912380D02*
X186650190Y-124912380D01*
X186745428Y-124864761D01*
X186793047Y-124817142D01*
X186888285Y-124674285D01*
X186935904Y-124483809D01*
X186935904Y-124102857D01*
X186888285Y-124007619D01*
X186840666Y-123960000D01*
X186745428Y-123912380D01*
X186554952Y-123912380D01*
X186459714Y-123960000D01*
X186412095Y-124007619D01*
X186364476Y-124102857D01*
X186364476Y-124340952D01*
X186412095Y-124436190D01*
X186459714Y-124483809D01*
X186554952Y-124531428D01*
X186745428Y-124531428D01*
X186840666Y-124483809D01*
X186888285Y-124436190D01*
X186935904Y-124340952D01*
X195191142Y-124912380D02*
X194857809Y-124436190D01*
X194619714Y-124912380D02*
X194619714Y-123912380D01*
X195000666Y-123912380D01*
X195095904Y-123960000D01*
X195143523Y-124007619D01*
X195191142Y-124102857D01*
X195191142Y-124245714D01*
X195143523Y-124340952D01*
X195095904Y-124388571D01*
X195000666Y-124436190D01*
X194619714Y-124436190D01*
X195524476Y-123912380D02*
X196143523Y-123912380D01*
X195810190Y-124293333D01*
X195953047Y-124293333D01*
X196048285Y-124340952D01*
X196095904Y-124388571D01*
X196143523Y-124483809D01*
X196143523Y-124721904D01*
X196095904Y-124817142D01*
X196048285Y-124864761D01*
X195953047Y-124912380D01*
X195667333Y-124912380D01*
X195572095Y-124864761D01*
X195524476Y-124817142D01*
X196762571Y-123912380D02*
X196857809Y-123912380D01*
X196953047Y-123960000D01*
X197000666Y-124007619D01*
X197048285Y-124102857D01*
X197095904Y-124293333D01*
X197095904Y-124531428D01*
X197048285Y-124721904D01*
X197000666Y-124817142D01*
X196953047Y-124864761D01*
X196857809Y-124912380D01*
X196762571Y-124912380D01*
X196667333Y-124864761D01*
X196619714Y-124817142D01*
X196572095Y-124721904D01*
X196524476Y-124531428D01*
X196524476Y-124293333D01*
X196572095Y-124102857D01*
X196619714Y-124007619D01*
X196667333Y-123960000D01*
X196762571Y-123912380D01*
X205351142Y-124912380D02*
X205017809Y-124436190D01*
X204779714Y-124912380D02*
X204779714Y-123912380D01*
X205160666Y-123912380D01*
X205255904Y-123960000D01*
X205303523Y-124007619D01*
X205351142Y-124102857D01*
X205351142Y-124245714D01*
X205303523Y-124340952D01*
X205255904Y-124388571D01*
X205160666Y-124436190D01*
X204779714Y-124436190D01*
X205684476Y-123912380D02*
X206303523Y-123912380D01*
X205970190Y-124293333D01*
X206113047Y-124293333D01*
X206208285Y-124340952D01*
X206255904Y-124388571D01*
X206303523Y-124483809D01*
X206303523Y-124721904D01*
X206255904Y-124817142D01*
X206208285Y-124864761D01*
X206113047Y-124912380D01*
X205827333Y-124912380D01*
X205732095Y-124864761D01*
X205684476Y-124817142D01*
X207255904Y-124912380D02*
X206684476Y-124912380D01*
X206970190Y-124912380D02*
X206970190Y-123912380D01*
X206874952Y-124055238D01*
X206779714Y-124150476D01*
X206684476Y-124198095D01*
X215511142Y-124912380D02*
X215177809Y-124436190D01*
X214939714Y-124912380D02*
X214939714Y-123912380D01*
X215320666Y-123912380D01*
X215415904Y-123960000D01*
X215463523Y-124007619D01*
X215511142Y-124102857D01*
X215511142Y-124245714D01*
X215463523Y-124340952D01*
X215415904Y-124388571D01*
X215320666Y-124436190D01*
X214939714Y-124436190D01*
X215844476Y-123912380D02*
X216463523Y-123912380D01*
X216130190Y-124293333D01*
X216273047Y-124293333D01*
X216368285Y-124340952D01*
X216415904Y-124388571D01*
X216463523Y-124483809D01*
X216463523Y-124721904D01*
X216415904Y-124817142D01*
X216368285Y-124864761D01*
X216273047Y-124912380D01*
X215987333Y-124912380D01*
X215892095Y-124864761D01*
X215844476Y-124817142D01*
X216844476Y-124007619D02*
X216892095Y-123960000D01*
X216987333Y-123912380D01*
X217225428Y-123912380D01*
X217320666Y-123960000D01*
X217368285Y-124007619D01*
X217415904Y-124102857D01*
X217415904Y-124198095D01*
X217368285Y-124340952D01*
X216796857Y-124912380D01*
X217415904Y-124912380D01*
X225671142Y-124912380D02*
X225337809Y-124436190D01*
X225099714Y-124912380D02*
X225099714Y-123912380D01*
X225480666Y-123912380D01*
X225575904Y-123960000D01*
X225623523Y-124007619D01*
X225671142Y-124102857D01*
X225671142Y-124245714D01*
X225623523Y-124340952D01*
X225575904Y-124388571D01*
X225480666Y-124436190D01*
X225099714Y-124436190D01*
X226004476Y-123912380D02*
X226623523Y-123912380D01*
X226290190Y-124293333D01*
X226433047Y-124293333D01*
X226528285Y-124340952D01*
X226575904Y-124388571D01*
X226623523Y-124483809D01*
X226623523Y-124721904D01*
X226575904Y-124817142D01*
X226528285Y-124864761D01*
X226433047Y-124912380D01*
X226147333Y-124912380D01*
X226052095Y-124864761D01*
X226004476Y-124817142D01*
X226956857Y-123912380D02*
X227575904Y-123912380D01*
X227242571Y-124293333D01*
X227385428Y-124293333D01*
X227480666Y-124340952D01*
X227528285Y-124388571D01*
X227575904Y-124483809D01*
X227575904Y-124721904D01*
X227528285Y-124817142D01*
X227480666Y-124864761D01*
X227385428Y-124912380D01*
X227099714Y-124912380D01*
X227004476Y-124864761D01*
X226956857Y-124817142D01*
X235831142Y-124912380D02*
X235497809Y-124436190D01*
X235259714Y-124912380D02*
X235259714Y-123912380D01*
X235640666Y-123912380D01*
X235735904Y-123960000D01*
X235783523Y-124007619D01*
X235831142Y-124102857D01*
X235831142Y-124245714D01*
X235783523Y-124340952D01*
X235735904Y-124388571D01*
X235640666Y-124436190D01*
X235259714Y-124436190D01*
X236164476Y-123912380D02*
X236783523Y-123912380D01*
X236450190Y-124293333D01*
X236593047Y-124293333D01*
X236688285Y-124340952D01*
X236735904Y-124388571D01*
X236783523Y-124483809D01*
X236783523Y-124721904D01*
X236735904Y-124817142D01*
X236688285Y-124864761D01*
X236593047Y-124912380D01*
X236307333Y-124912380D01*
X236212095Y-124864761D01*
X236164476Y-124817142D01*
X237640666Y-124245714D02*
X237640666Y-124912380D01*
X237402571Y-123864761D02*
X237164476Y-124579047D01*
X237783523Y-124579047D01*
X245991142Y-124912380D02*
X245657809Y-124436190D01*
X245419714Y-124912380D02*
X245419714Y-123912380D01*
X245800666Y-123912380D01*
X245895904Y-123960000D01*
X245943523Y-124007619D01*
X245991142Y-124102857D01*
X245991142Y-124245714D01*
X245943523Y-124340952D01*
X245895904Y-124388571D01*
X245800666Y-124436190D01*
X245419714Y-124436190D01*
X246324476Y-123912380D02*
X246943523Y-123912380D01*
X246610190Y-124293333D01*
X246753047Y-124293333D01*
X246848285Y-124340952D01*
X246895904Y-124388571D01*
X246943523Y-124483809D01*
X246943523Y-124721904D01*
X246895904Y-124817142D01*
X246848285Y-124864761D01*
X246753047Y-124912380D01*
X246467333Y-124912380D01*
X246372095Y-124864761D01*
X246324476Y-124817142D01*
X247848285Y-123912380D02*
X247372095Y-123912380D01*
X247324476Y-124388571D01*
X247372095Y-124340952D01*
X247467333Y-124293333D01*
X247705428Y-124293333D01*
X247800666Y-124340952D01*
X247848285Y-124388571D01*
X247895904Y-124483809D01*
X247895904Y-124721904D01*
X247848285Y-124817142D01*
X247800666Y-124864761D01*
X247705428Y-124912380D01*
X247467333Y-124912380D01*
X247372095Y-124864761D01*
X247324476Y-124817142D01*
X232100380Y-77604857D02*
X231624190Y-77938190D01*
X232100380Y-78176285D02*
X231100380Y-78176285D01*
X231100380Y-77795333D01*
X231148000Y-77700095D01*
X231195619Y-77652476D01*
X231290857Y-77604857D01*
X231433714Y-77604857D01*
X231528952Y-77652476D01*
X231576571Y-77700095D01*
X231624190Y-77795333D01*
X231624190Y-78176285D01*
X231100380Y-77271523D02*
X231100380Y-76652476D01*
X231481333Y-76985809D01*
X231481333Y-76842952D01*
X231528952Y-76747714D01*
X231576571Y-76700095D01*
X231671809Y-76652476D01*
X231909904Y-76652476D01*
X232005142Y-76700095D01*
X232052761Y-76747714D01*
X232100380Y-76842952D01*
X232100380Y-77128666D01*
X232052761Y-77223904D01*
X232005142Y-77271523D01*
X231100380Y-75795333D02*
X231100380Y-75985809D01*
X231148000Y-76081047D01*
X231195619Y-76128666D01*
X231338476Y-76223904D01*
X231528952Y-76271523D01*
X231909904Y-76271523D01*
X232005142Y-76223904D01*
X232052761Y-76176285D01*
X232100380Y-76081047D01*
X232100380Y-75890571D01*
X232052761Y-75795333D01*
X232005142Y-75747714D01*
X231909904Y-75700095D01*
X231671809Y-75700095D01*
X231576571Y-75747714D01*
X231528952Y-75795333D01*
X231481333Y-75890571D01*
X231481333Y-76081047D01*
X231528952Y-76176285D01*
X231576571Y-76223904D01*
X231671809Y-76271523D01*
X174871142Y-124912380D02*
X174537809Y-124436190D01*
X174299714Y-124912380D02*
X174299714Y-123912380D01*
X174680666Y-123912380D01*
X174775904Y-123960000D01*
X174823523Y-124007619D01*
X174871142Y-124102857D01*
X174871142Y-124245714D01*
X174823523Y-124340952D01*
X174775904Y-124388571D01*
X174680666Y-124436190D01*
X174299714Y-124436190D01*
X175252095Y-124007619D02*
X175299714Y-123960000D01*
X175394952Y-123912380D01*
X175633047Y-123912380D01*
X175728285Y-123960000D01*
X175775904Y-124007619D01*
X175823523Y-124102857D01*
X175823523Y-124198095D01*
X175775904Y-124340952D01*
X175204476Y-124912380D01*
X175823523Y-124912380D01*
X176394952Y-124340952D02*
X176299714Y-124293333D01*
X176252095Y-124245714D01*
X176204476Y-124150476D01*
X176204476Y-124102857D01*
X176252095Y-124007619D01*
X176299714Y-123960000D01*
X176394952Y-123912380D01*
X176585428Y-123912380D01*
X176680666Y-123960000D01*
X176728285Y-124007619D01*
X176775904Y-124102857D01*
X176775904Y-124150476D01*
X176728285Y-124245714D01*
X176680666Y-124293333D01*
X176585428Y-124340952D01*
X176394952Y-124340952D01*
X176299714Y-124388571D01*
X176252095Y-124436190D01*
X176204476Y-124531428D01*
X176204476Y-124721904D01*
X176252095Y-124817142D01*
X176299714Y-124864761D01*
X176394952Y-124912380D01*
X176585428Y-124912380D01*
X176680666Y-124864761D01*
X176728285Y-124817142D01*
X176775904Y-124721904D01*
X176775904Y-124531428D01*
X176728285Y-124436190D01*
X176680666Y-124388571D01*
X176585428Y-124340952D01*
X215494457Y-116734874D02*
X215494457Y-116802217D01*
X215427113Y-116936904D01*
X215359770Y-117004248D01*
X215225082Y-117071591D01*
X215090395Y-117071591D01*
X214989380Y-117037920D01*
X214821021Y-116936904D01*
X214720006Y-116835889D01*
X214618991Y-116667530D01*
X214585319Y-116566515D01*
X214585319Y-116431828D01*
X214652663Y-116297141D01*
X214720006Y-116229797D01*
X214854693Y-116162454D01*
X214922037Y-116162454D01*
X215090395Y-115859408D02*
X215561800Y-115388004D01*
X215965861Y-116398156D01*
X217090666Y-49680880D02*
X217090666Y-50395166D01*
X217043047Y-50538023D01*
X216947809Y-50633261D01*
X216804952Y-50680880D01*
X216709714Y-50680880D01*
X217995428Y-49680880D02*
X217804952Y-49680880D01*
X217709714Y-49728500D01*
X217662095Y-49776119D01*
X217566857Y-49918976D01*
X217519238Y-50109452D01*
X217519238Y-50490404D01*
X217566857Y-50585642D01*
X217614476Y-50633261D01*
X217709714Y-50680880D01*
X217900190Y-50680880D01*
X217995428Y-50633261D01*
X218043047Y-50585642D01*
X218090666Y-50490404D01*
X218090666Y-50252309D01*
X218043047Y-50157071D01*
X217995428Y-50109452D01*
X217900190Y-50061833D01*
X217709714Y-50061833D01*
X217614476Y-50109452D01*
X217566857Y-50157071D01*
X217519238Y-50252309D01*
X232627180Y-115279972D02*
X232559837Y-115279972D01*
X232425150Y-115212628D01*
X232357806Y-115145285D01*
X232290463Y-115010597D01*
X232290463Y-114875910D01*
X232324134Y-114774895D01*
X232425150Y-114606536D01*
X232526165Y-114505521D01*
X232694524Y-114404506D01*
X232795539Y-114370834D01*
X232930226Y-114370834D01*
X233064913Y-114438178D01*
X233132257Y-114505521D01*
X233199600Y-114640208D01*
X233199600Y-114707552D01*
X233468974Y-114976926D02*
X233536318Y-114976926D01*
X233637333Y-115010597D01*
X233805692Y-115178956D01*
X233839363Y-115279972D01*
X233839363Y-115347315D01*
X233805692Y-115448330D01*
X233738348Y-115515674D01*
X233603661Y-115583017D01*
X232795539Y-115583017D01*
X233233272Y-116020750D01*
X219193350Y-96800947D02*
X219126007Y-96800947D01*
X218991320Y-96733603D01*
X218923976Y-96666260D01*
X218856633Y-96531572D01*
X218856633Y-96396885D01*
X218890304Y-96295870D01*
X218991320Y-96127511D01*
X219092335Y-96026496D01*
X219260694Y-95925481D01*
X219361709Y-95891809D01*
X219496396Y-95891809D01*
X219631083Y-95959153D01*
X219698427Y-96026496D01*
X219765770Y-96161183D01*
X219765770Y-96228527D01*
X220203503Y-97002977D02*
X219732098Y-97474382D01*
X220304518Y-96565244D02*
X219631083Y-96901962D01*
X220068816Y-97339695D01*
X244454517Y-117744734D02*
X244454517Y-117812077D01*
X244387173Y-117946764D01*
X244319830Y-118014108D01*
X244185142Y-118081451D01*
X244050455Y-118081451D01*
X243949440Y-118047780D01*
X243781081Y-117946764D01*
X243680066Y-117845749D01*
X243579051Y-117677390D01*
X243545379Y-117576375D01*
X243545379Y-117441688D01*
X243612723Y-117307001D01*
X243680066Y-117239657D01*
X243814753Y-117172314D01*
X243882097Y-117172314D01*
X244454517Y-116465207D02*
X244117799Y-116801925D01*
X244420845Y-117172314D01*
X244420845Y-117104970D01*
X244454517Y-117003955D01*
X244622875Y-116835596D01*
X244723891Y-116801925D01*
X244791234Y-116801925D01*
X244892249Y-116835596D01*
X245060608Y-117003955D01*
X245094280Y-117104970D01*
X245094280Y-117172314D01*
X245060608Y-117273329D01*
X244892249Y-117441688D01*
X244791234Y-117475360D01*
X244723891Y-117475360D01*
X239329857Y-122526074D02*
X239329857Y-122593417D01*
X239262513Y-122728104D01*
X239195170Y-122795448D01*
X239060482Y-122862791D01*
X238925795Y-122862791D01*
X238824780Y-122829120D01*
X238656421Y-122728104D01*
X238555406Y-122627089D01*
X238454391Y-122458730D01*
X238420719Y-122357715D01*
X238420719Y-122223028D01*
X238488063Y-122088341D01*
X238555406Y-122020997D01*
X238690093Y-121953654D01*
X238757437Y-121953654D01*
X239296185Y-121280219D02*
X239161498Y-121414906D01*
X239127826Y-121515921D01*
X239127826Y-121583265D01*
X239161498Y-121751623D01*
X239262513Y-121919982D01*
X239531887Y-122189356D01*
X239632902Y-122223028D01*
X239700246Y-122223028D01*
X239801261Y-122189356D01*
X239935948Y-122054669D01*
X239969620Y-121953654D01*
X239969620Y-121886310D01*
X239935948Y-121785295D01*
X239767589Y-121616936D01*
X239666574Y-121583265D01*
X239599231Y-121583265D01*
X239498215Y-121616936D01*
X239363528Y-121751623D01*
X239329857Y-121852639D01*
X239329857Y-121919982D01*
X239363528Y-122020997D01*
X213209142Y-85478857D02*
X213256761Y-85526476D01*
X213304380Y-85669333D01*
X213304380Y-85764571D01*
X213256761Y-85907428D01*
X213161523Y-86002666D01*
X213066285Y-86050285D01*
X212875809Y-86097904D01*
X212732952Y-86097904D01*
X212542476Y-86050285D01*
X212447238Y-86002666D01*
X212352000Y-85907428D01*
X212304380Y-85764571D01*
X212304380Y-85669333D01*
X212352000Y-85526476D01*
X212399619Y-85478857D01*
X213304380Y-84526476D02*
X213304380Y-85097904D01*
X213304380Y-84812190D02*
X212304380Y-84812190D01*
X212447238Y-84907428D01*
X212542476Y-85002666D01*
X212590095Y-85097904D01*
X212637714Y-83669333D02*
X213304380Y-83669333D01*
X212256761Y-83907428D02*
X212971047Y-84145523D01*
X212971047Y-83526476D01*
X188825142Y-71826357D02*
X188872761Y-71873976D01*
X188920380Y-72016833D01*
X188920380Y-72112071D01*
X188872761Y-72254928D01*
X188777523Y-72350166D01*
X188682285Y-72397785D01*
X188491809Y-72445404D01*
X188348952Y-72445404D01*
X188158476Y-72397785D01*
X188063238Y-72350166D01*
X187968000Y-72254928D01*
X187920380Y-72112071D01*
X187920380Y-72016833D01*
X187968000Y-71873976D01*
X188015619Y-71826357D01*
X188920380Y-70873976D02*
X188920380Y-71445404D01*
X188920380Y-71159690D02*
X187920380Y-71159690D01*
X188063238Y-71254928D01*
X188158476Y-71350166D01*
X188206095Y-71445404D01*
X187920380Y-70016833D02*
X187920380Y-70207309D01*
X187968000Y-70302547D01*
X188015619Y-70350166D01*
X188158476Y-70445404D01*
X188348952Y-70493023D01*
X188729904Y-70493023D01*
X188825142Y-70445404D01*
X188872761Y-70397785D01*
X188920380Y-70302547D01*
X188920380Y-70112071D01*
X188872761Y-70016833D01*
X188825142Y-69969214D01*
X188729904Y-69921595D01*
X188491809Y-69921595D01*
X188396571Y-69969214D01*
X188348952Y-70016833D01*
X188301333Y-70112071D01*
X188301333Y-70302547D01*
X188348952Y-70397785D01*
X188396571Y-70445404D01*
X188491809Y-70493023D01*
X243435142Y-70254857D02*
X243482761Y-70302476D01*
X243530380Y-70445333D01*
X243530380Y-70540571D01*
X243482761Y-70683428D01*
X243387523Y-70778666D01*
X243292285Y-70826285D01*
X243101809Y-70873904D01*
X242958952Y-70873904D01*
X242768476Y-70826285D01*
X242673238Y-70778666D01*
X242578000Y-70683428D01*
X242530380Y-70540571D01*
X242530380Y-70445333D01*
X242578000Y-70302476D01*
X242625619Y-70254857D01*
X243530380Y-69302476D02*
X243530380Y-69873904D01*
X243530380Y-69588190D02*
X242530380Y-69588190D01*
X242673238Y-69683428D01*
X242768476Y-69778666D01*
X242816095Y-69873904D01*
X242958952Y-68731047D02*
X242911333Y-68826285D01*
X242863714Y-68873904D01*
X242768476Y-68921523D01*
X242720857Y-68921523D01*
X242625619Y-68873904D01*
X242578000Y-68826285D01*
X242530380Y-68731047D01*
X242530380Y-68540571D01*
X242578000Y-68445333D01*
X242625619Y-68397714D01*
X242720857Y-68350095D01*
X242768476Y-68350095D01*
X242863714Y-68397714D01*
X242911333Y-68445333D01*
X242958952Y-68540571D01*
X242958952Y-68731047D01*
X243006571Y-68826285D01*
X243054190Y-68873904D01*
X243149428Y-68921523D01*
X243339904Y-68921523D01*
X243435142Y-68873904D01*
X243482761Y-68826285D01*
X243530380Y-68731047D01*
X243530380Y-68540571D01*
X243482761Y-68445333D01*
X243435142Y-68397714D01*
X243339904Y-68350095D01*
X243149428Y-68350095D01*
X243054190Y-68397714D01*
X243006571Y-68445333D01*
X242958952Y-68540571D01*
X212193142Y-72016857D02*
X212240761Y-72064476D01*
X212288380Y-72207333D01*
X212288380Y-72302571D01*
X212240761Y-72445428D01*
X212145523Y-72540666D01*
X212050285Y-72588285D01*
X211859809Y-72635904D01*
X211716952Y-72635904D01*
X211526476Y-72588285D01*
X211431238Y-72540666D01*
X211336000Y-72445428D01*
X211288380Y-72302571D01*
X211288380Y-72207333D01*
X211336000Y-72064476D01*
X211383619Y-72016857D01*
X211383619Y-71635904D02*
X211336000Y-71588285D01*
X211288380Y-71493047D01*
X211288380Y-71254952D01*
X211336000Y-71159714D01*
X211383619Y-71112095D01*
X211478857Y-71064476D01*
X211574095Y-71064476D01*
X211716952Y-71112095D01*
X212288380Y-71683523D01*
X212288380Y-71064476D01*
X211288380Y-70445428D02*
X211288380Y-70350190D01*
X211336000Y-70254952D01*
X211383619Y-70207333D01*
X211478857Y-70159714D01*
X211669333Y-70112095D01*
X211907428Y-70112095D01*
X212097904Y-70159714D01*
X212193142Y-70207333D01*
X212240761Y-70254952D01*
X212288380Y-70350190D01*
X212288380Y-70445428D01*
X212240761Y-70540666D01*
X212193142Y-70588285D01*
X212097904Y-70635904D01*
X211907428Y-70683523D01*
X211669333Y-70683523D01*
X211478857Y-70635904D01*
X211383619Y-70588285D01*
X211336000Y-70540666D01*
X211288380Y-70445428D01*
X257039142Y-106205257D02*
X257086761Y-106252876D01*
X257134380Y-106395733D01*
X257134380Y-106490971D01*
X257086761Y-106633828D01*
X256991523Y-106729066D01*
X256896285Y-106776685D01*
X256705809Y-106824304D01*
X256562952Y-106824304D01*
X256372476Y-106776685D01*
X256277238Y-106729066D01*
X256182000Y-106633828D01*
X256134380Y-106490971D01*
X256134380Y-106395733D01*
X256182000Y-106252876D01*
X256229619Y-106205257D01*
X256229619Y-105824304D02*
X256182000Y-105776685D01*
X256134380Y-105681447D01*
X256134380Y-105443352D01*
X256182000Y-105348114D01*
X256229619Y-105300495D01*
X256324857Y-105252876D01*
X256420095Y-105252876D01*
X256562952Y-105300495D01*
X257134380Y-105871923D01*
X257134380Y-105252876D01*
X256229619Y-104871923D02*
X256182000Y-104824304D01*
X256134380Y-104729066D01*
X256134380Y-104490971D01*
X256182000Y-104395733D01*
X256229619Y-104348114D01*
X256324857Y-104300495D01*
X256420095Y-104300495D01*
X256562952Y-104348114D01*
X257134380Y-104919542D01*
X257134380Y-104300495D01*
X258857142Y-93233257D02*
X258904761Y-93280876D01*
X258952380Y-93423733D01*
X258952380Y-93518971D01*
X258904761Y-93661828D01*
X258809523Y-93757066D01*
X258714285Y-93804685D01*
X258523809Y-93852304D01*
X258380952Y-93852304D01*
X258190476Y-93804685D01*
X258095238Y-93757066D01*
X258000000Y-93661828D01*
X257952380Y-93518971D01*
X257952380Y-93423733D01*
X258000000Y-93280876D01*
X258047619Y-93233257D01*
X258047619Y-92852304D02*
X258000000Y-92804685D01*
X257952380Y-92709447D01*
X257952380Y-92471352D01*
X258000000Y-92376114D01*
X258047619Y-92328495D01*
X258142857Y-92280876D01*
X258238095Y-92280876D01*
X258380952Y-92328495D01*
X258952380Y-92899923D01*
X258952380Y-92280876D01*
X257952380Y-91947542D02*
X257952380Y-91328495D01*
X258333333Y-91661828D01*
X258333333Y-91518971D01*
X258380952Y-91423733D01*
X258428571Y-91376114D01*
X258523809Y-91328495D01*
X258761904Y-91328495D01*
X258857142Y-91376114D01*
X258904761Y-91423733D01*
X258952380Y-91518971D01*
X258952380Y-91804685D01*
X258904761Y-91899923D01*
X258857142Y-91947542D01*
X257079142Y-103249257D02*
X257126761Y-103296876D01*
X257174380Y-103439733D01*
X257174380Y-103534971D01*
X257126761Y-103677828D01*
X257031523Y-103773066D01*
X256936285Y-103820685D01*
X256745809Y-103868304D01*
X256602952Y-103868304D01*
X256412476Y-103820685D01*
X256317238Y-103773066D01*
X256222000Y-103677828D01*
X256174380Y-103534971D01*
X256174380Y-103439733D01*
X256222000Y-103296876D01*
X256269619Y-103249257D01*
X256269619Y-102868304D02*
X256222000Y-102820685D01*
X256174380Y-102725447D01*
X256174380Y-102487352D01*
X256222000Y-102392114D01*
X256269619Y-102344495D01*
X256364857Y-102296876D01*
X256460095Y-102296876D01*
X256602952Y-102344495D01*
X257174380Y-102915923D01*
X257174380Y-102296876D01*
X256507714Y-101439733D02*
X257174380Y-101439733D01*
X256126761Y-101677828D02*
X256841047Y-101915923D01*
X256841047Y-101296876D01*
X258929142Y-116619257D02*
X258976761Y-116666876D01*
X259024380Y-116809733D01*
X259024380Y-116904971D01*
X258976761Y-117047828D01*
X258881523Y-117143066D01*
X258786285Y-117190685D01*
X258595809Y-117238304D01*
X258452952Y-117238304D01*
X258262476Y-117190685D01*
X258167238Y-117143066D01*
X258072000Y-117047828D01*
X258024380Y-116904971D01*
X258024380Y-116809733D01*
X258072000Y-116666876D01*
X258119619Y-116619257D01*
X258119619Y-116238304D02*
X258072000Y-116190685D01*
X258024380Y-116095447D01*
X258024380Y-115857352D01*
X258072000Y-115762114D01*
X258119619Y-115714495D01*
X258214857Y-115666876D01*
X258310095Y-115666876D01*
X258452952Y-115714495D01*
X259024380Y-116285923D01*
X259024380Y-115666876D01*
X258024380Y-114762114D02*
X258024380Y-115238304D01*
X258500571Y-115285923D01*
X258452952Y-115238304D01*
X258405333Y-115143066D01*
X258405333Y-114904971D01*
X258452952Y-114809733D01*
X258500571Y-114762114D01*
X258595809Y-114714495D01*
X258833904Y-114714495D01*
X258929142Y-114762114D01*
X258976761Y-114809733D01*
X259024380Y-114904971D01*
X259024380Y-115143066D01*
X258976761Y-115238304D01*
X258929142Y-115285923D01*
X271121142Y-100617257D02*
X271168761Y-100664876D01*
X271216380Y-100807733D01*
X271216380Y-100902971D01*
X271168761Y-101045828D01*
X271073523Y-101141066D01*
X270978285Y-101188685D01*
X270787809Y-101236304D01*
X270644952Y-101236304D01*
X270454476Y-101188685D01*
X270359238Y-101141066D01*
X270264000Y-101045828D01*
X270216380Y-100902971D01*
X270216380Y-100807733D01*
X270264000Y-100664876D01*
X270311619Y-100617257D01*
X270311619Y-100236304D02*
X270264000Y-100188685D01*
X270216380Y-100093447D01*
X270216380Y-99855352D01*
X270264000Y-99760114D01*
X270311619Y-99712495D01*
X270406857Y-99664876D01*
X270502095Y-99664876D01*
X270644952Y-99712495D01*
X271216380Y-100283923D01*
X271216380Y-99664876D01*
X270644952Y-99093447D02*
X270597333Y-99188685D01*
X270549714Y-99236304D01*
X270454476Y-99283923D01*
X270406857Y-99283923D01*
X270311619Y-99236304D01*
X270264000Y-99188685D01*
X270216380Y-99093447D01*
X270216380Y-98902971D01*
X270264000Y-98807733D01*
X270311619Y-98760114D01*
X270406857Y-98712495D01*
X270454476Y-98712495D01*
X270549714Y-98760114D01*
X270597333Y-98807733D01*
X270644952Y-98902971D01*
X270644952Y-99093447D01*
X270692571Y-99188685D01*
X270740190Y-99236304D01*
X270835428Y-99283923D01*
X271025904Y-99283923D01*
X271121142Y-99236304D01*
X271168761Y-99188685D01*
X271216380Y-99093447D01*
X271216380Y-98902971D01*
X271168761Y-98807733D01*
X271121142Y-98760114D01*
X271025904Y-98712495D01*
X270835428Y-98712495D01*
X270740190Y-98760114D01*
X270692571Y-98807733D01*
X270644952Y-98902971D01*
X271121142Y-115857257D02*
X271168761Y-115904876D01*
X271216380Y-116047733D01*
X271216380Y-116142971D01*
X271168761Y-116285828D01*
X271073523Y-116381066D01*
X270978285Y-116428685D01*
X270787809Y-116476304D01*
X270644952Y-116476304D01*
X270454476Y-116428685D01*
X270359238Y-116381066D01*
X270264000Y-116285828D01*
X270216380Y-116142971D01*
X270216380Y-116047733D01*
X270264000Y-115904876D01*
X270311619Y-115857257D01*
X270311619Y-115476304D02*
X270264000Y-115428685D01*
X270216380Y-115333447D01*
X270216380Y-115095352D01*
X270264000Y-115000114D01*
X270311619Y-114952495D01*
X270406857Y-114904876D01*
X270502095Y-114904876D01*
X270644952Y-114952495D01*
X271216380Y-115523923D01*
X271216380Y-114904876D01*
X271216380Y-114428685D02*
X271216380Y-114238209D01*
X271168761Y-114142971D01*
X271121142Y-114095352D01*
X270978285Y-114000114D01*
X270787809Y-113952495D01*
X270406857Y-113952495D01*
X270311619Y-114000114D01*
X270264000Y-114047733D01*
X270216380Y-114142971D01*
X270216380Y-114333447D01*
X270264000Y-114428685D01*
X270311619Y-114476304D01*
X270406857Y-114523923D01*
X270644952Y-114523923D01*
X270740190Y-114476304D01*
X270787809Y-114428685D01*
X270835428Y-114333447D01*
X270835428Y-114142971D01*
X270787809Y-114047733D01*
X270740190Y-114000114D01*
X270644952Y-113952495D01*
X229512857Y-84066142D02*
X229465238Y-84018523D01*
X229417619Y-83875666D01*
X229417619Y-83780428D01*
X229465238Y-83637571D01*
X229560476Y-83542333D01*
X229655714Y-83494714D01*
X229846190Y-83447095D01*
X229989047Y-83447095D01*
X230179523Y-83494714D01*
X230274761Y-83542333D01*
X230370000Y-83637571D01*
X230417619Y-83780428D01*
X230417619Y-83875666D01*
X230370000Y-84018523D01*
X230322380Y-84066142D01*
X230417619Y-84399476D02*
X230417619Y-85018523D01*
X230036666Y-84685190D01*
X230036666Y-84828047D01*
X229989047Y-84923285D01*
X229941428Y-84970904D01*
X229846190Y-85018523D01*
X229608095Y-85018523D01*
X229512857Y-84970904D01*
X229465238Y-84923285D01*
X229417619Y-84828047D01*
X229417619Y-84542333D01*
X229465238Y-84447095D01*
X229512857Y-84399476D01*
X230417619Y-85637571D02*
X230417619Y-85732809D01*
X230370000Y-85828047D01*
X230322380Y-85875666D01*
X230227142Y-85923285D01*
X230036666Y-85970904D01*
X229798571Y-85970904D01*
X229608095Y-85923285D01*
X229512857Y-85875666D01*
X229465238Y-85828047D01*
X229417619Y-85732809D01*
X229417619Y-85637571D01*
X229465238Y-85542333D01*
X229512857Y-85494714D01*
X229608095Y-85447095D01*
X229798571Y-85399476D01*
X230036666Y-85399476D01*
X230227142Y-85447095D01*
X230322380Y-85494714D01*
X230370000Y-85542333D01*
X230417619Y-85637571D01*
X244357142Y-73142857D02*
X244404761Y-73190476D01*
X244452380Y-73333333D01*
X244452380Y-73428571D01*
X244404761Y-73571428D01*
X244309523Y-73666666D01*
X244214285Y-73714285D01*
X244023809Y-73761904D01*
X243880952Y-73761904D01*
X243690476Y-73714285D01*
X243595238Y-73666666D01*
X243500000Y-73571428D01*
X243452380Y-73428571D01*
X243452380Y-73333333D01*
X243500000Y-73190476D01*
X243547619Y-73142857D01*
X243452380Y-72809523D02*
X243452380Y-72190476D01*
X243833333Y-72523809D01*
X243833333Y-72380952D01*
X243880952Y-72285714D01*
X243928571Y-72238095D01*
X244023809Y-72190476D01*
X244261904Y-72190476D01*
X244357142Y-72238095D01*
X244404761Y-72285714D01*
X244452380Y-72380952D01*
X244452380Y-72666666D01*
X244404761Y-72761904D01*
X244357142Y-72809523D01*
X244452380Y-71238095D02*
X244452380Y-71809523D01*
X244452380Y-71523809D02*
X243452380Y-71523809D01*
X243595238Y-71619047D01*
X243690476Y-71714285D01*
X243738095Y-71809523D01*
X246459142Y-85936057D02*
X246506761Y-85983676D01*
X246554380Y-86126533D01*
X246554380Y-86221771D01*
X246506761Y-86364628D01*
X246411523Y-86459866D01*
X246316285Y-86507485D01*
X246125809Y-86555104D01*
X245982952Y-86555104D01*
X245792476Y-86507485D01*
X245697238Y-86459866D01*
X245602000Y-86364628D01*
X245554380Y-86221771D01*
X245554380Y-86126533D01*
X245602000Y-85983676D01*
X245649619Y-85936057D01*
X245554380Y-85602723D02*
X245554380Y-84983676D01*
X245935333Y-85317009D01*
X245935333Y-85174152D01*
X245982952Y-85078914D01*
X246030571Y-85031295D01*
X246125809Y-84983676D01*
X246363904Y-84983676D01*
X246459142Y-85031295D01*
X246506761Y-85078914D01*
X246554380Y-85174152D01*
X246554380Y-85459866D01*
X246506761Y-85555104D01*
X246459142Y-85602723D01*
X245649619Y-84602723D02*
X245602000Y-84555104D01*
X245554380Y-84459866D01*
X245554380Y-84221771D01*
X245602000Y-84126533D01*
X245649619Y-84078914D01*
X245744857Y-84031295D01*
X245840095Y-84031295D01*
X245982952Y-84078914D01*
X246554380Y-84650342D01*
X246554380Y-84031295D01*
X219305142Y-87002857D02*
X219352761Y-87050476D01*
X219400380Y-87193333D01*
X219400380Y-87288571D01*
X219352761Y-87431428D01*
X219257523Y-87526666D01*
X219162285Y-87574285D01*
X218971809Y-87621904D01*
X218828952Y-87621904D01*
X218638476Y-87574285D01*
X218543238Y-87526666D01*
X218448000Y-87431428D01*
X218400380Y-87288571D01*
X218400380Y-87193333D01*
X218448000Y-87050476D01*
X218495619Y-87002857D01*
X218400380Y-86669523D02*
X218400380Y-86050476D01*
X218781333Y-86383809D01*
X218781333Y-86240952D01*
X218828952Y-86145714D01*
X218876571Y-86098095D01*
X218971809Y-86050476D01*
X219209904Y-86050476D01*
X219305142Y-86098095D01*
X219352761Y-86145714D01*
X219400380Y-86240952D01*
X219400380Y-86526666D01*
X219352761Y-86621904D01*
X219305142Y-86669523D01*
X218400380Y-85717142D02*
X218400380Y-85098095D01*
X218781333Y-85431428D01*
X218781333Y-85288571D01*
X218828952Y-85193333D01*
X218876571Y-85145714D01*
X218971809Y-85098095D01*
X219209904Y-85098095D01*
X219305142Y-85145714D01*
X219352761Y-85193333D01*
X219400380Y-85288571D01*
X219400380Y-85574285D01*
X219352761Y-85669523D01*
X219305142Y-85717142D01*
X216273142Y-82653142D02*
X216225523Y-82700761D01*
X216082666Y-82748380D01*
X215987428Y-82748380D01*
X215844571Y-82700761D01*
X215749333Y-82605523D01*
X215701714Y-82510285D01*
X215654095Y-82319809D01*
X215654095Y-82176952D01*
X215701714Y-81986476D01*
X215749333Y-81891238D01*
X215844571Y-81796000D01*
X215987428Y-81748380D01*
X216082666Y-81748380D01*
X216225523Y-81796000D01*
X216273142Y-81843619D01*
X216606476Y-81748380D02*
X217225523Y-81748380D01*
X216892190Y-82129333D01*
X217035047Y-82129333D01*
X217130285Y-82176952D01*
X217177904Y-82224571D01*
X217225523Y-82319809D01*
X217225523Y-82557904D01*
X217177904Y-82653142D01*
X217130285Y-82700761D01*
X217035047Y-82748380D01*
X216749333Y-82748380D01*
X216654095Y-82700761D01*
X216606476Y-82653142D01*
X218082666Y-82081714D02*
X218082666Y-82748380D01*
X217844571Y-81700761D02*
X217606476Y-82415047D01*
X218225523Y-82415047D01*
X228195142Y-83700857D02*
X228242761Y-83748476D01*
X228290380Y-83891333D01*
X228290380Y-83986571D01*
X228242761Y-84129428D01*
X228147523Y-84224666D01*
X228052285Y-84272285D01*
X227861809Y-84319904D01*
X227718952Y-84319904D01*
X227528476Y-84272285D01*
X227433238Y-84224666D01*
X227338000Y-84129428D01*
X227290380Y-83986571D01*
X227290380Y-83891333D01*
X227338000Y-83748476D01*
X227385619Y-83700857D01*
X227290380Y-83367523D02*
X227290380Y-82748476D01*
X227671333Y-83081809D01*
X227671333Y-82938952D01*
X227718952Y-82843714D01*
X227766571Y-82796095D01*
X227861809Y-82748476D01*
X228099904Y-82748476D01*
X228195142Y-82796095D01*
X228242761Y-82843714D01*
X228290380Y-82938952D01*
X228290380Y-83224666D01*
X228242761Y-83319904D01*
X228195142Y-83367523D01*
X227290380Y-81843714D02*
X227290380Y-82319904D01*
X227766571Y-82367523D01*
X227718952Y-82319904D01*
X227671333Y-82224666D01*
X227671333Y-81986571D01*
X227718952Y-81891333D01*
X227766571Y-81843714D01*
X227861809Y-81796095D01*
X228099904Y-81796095D01*
X228195142Y-81843714D01*
X228242761Y-81891333D01*
X228290380Y-81986571D01*
X228290380Y-82224666D01*
X228242761Y-82319904D01*
X228195142Y-82367523D01*
X224655142Y-92559142D02*
X224607523Y-92606761D01*
X224464666Y-92654380D01*
X224369428Y-92654380D01*
X224226571Y-92606761D01*
X224131333Y-92511523D01*
X224083714Y-92416285D01*
X224036095Y-92225809D01*
X224036095Y-92082952D01*
X224083714Y-91892476D01*
X224131333Y-91797238D01*
X224226571Y-91702000D01*
X224369428Y-91654380D01*
X224464666Y-91654380D01*
X224607523Y-91702000D01*
X224655142Y-91749619D01*
X224988476Y-91654380D02*
X225607523Y-91654380D01*
X225274190Y-92035333D01*
X225417047Y-92035333D01*
X225512285Y-92082952D01*
X225559904Y-92130571D01*
X225607523Y-92225809D01*
X225607523Y-92463904D01*
X225559904Y-92559142D01*
X225512285Y-92606761D01*
X225417047Y-92654380D01*
X225131333Y-92654380D01*
X225036095Y-92606761D01*
X224988476Y-92559142D01*
X226178952Y-92082952D02*
X226083714Y-92035333D01*
X226036095Y-91987714D01*
X225988476Y-91892476D01*
X225988476Y-91844857D01*
X226036095Y-91749619D01*
X226083714Y-91702000D01*
X226178952Y-91654380D01*
X226369428Y-91654380D01*
X226464666Y-91702000D01*
X226512285Y-91749619D01*
X226559904Y-91844857D01*
X226559904Y-91892476D01*
X226512285Y-91987714D01*
X226464666Y-92035333D01*
X226369428Y-92082952D01*
X226178952Y-92082952D01*
X226083714Y-92130571D01*
X226036095Y-92178190D01*
X225988476Y-92273428D01*
X225988476Y-92463904D01*
X226036095Y-92559142D01*
X226083714Y-92606761D01*
X226178952Y-92654380D01*
X226369428Y-92654380D01*
X226464666Y-92606761D01*
X226512285Y-92559142D01*
X226559904Y-92463904D01*
X226559904Y-92273428D01*
X226512285Y-92178190D01*
X226464666Y-92130571D01*
X226369428Y-92082952D01*
X214495142Y-90908142D02*
X214447523Y-90955761D01*
X214304666Y-91003380D01*
X214209428Y-91003380D01*
X214066571Y-90955761D01*
X213971333Y-90860523D01*
X213923714Y-90765285D01*
X213876095Y-90574809D01*
X213876095Y-90431952D01*
X213923714Y-90241476D01*
X213971333Y-90146238D01*
X214066571Y-90051000D01*
X214209428Y-90003380D01*
X214304666Y-90003380D01*
X214447523Y-90051000D01*
X214495142Y-90098619D01*
X214828476Y-90003380D02*
X215447523Y-90003380D01*
X215114190Y-90384333D01*
X215257047Y-90384333D01*
X215352285Y-90431952D01*
X215399904Y-90479571D01*
X215447523Y-90574809D01*
X215447523Y-90812904D01*
X215399904Y-90908142D01*
X215352285Y-90955761D01*
X215257047Y-91003380D01*
X214971333Y-91003380D01*
X214876095Y-90955761D01*
X214828476Y-90908142D01*
X215923714Y-91003380D02*
X216114190Y-91003380D01*
X216209428Y-90955761D01*
X216257047Y-90908142D01*
X216352285Y-90765285D01*
X216399904Y-90574809D01*
X216399904Y-90193857D01*
X216352285Y-90098619D01*
X216304666Y-90051000D01*
X216209428Y-90003380D01*
X216018952Y-90003380D01*
X215923714Y-90051000D01*
X215876095Y-90098619D01*
X215828476Y-90193857D01*
X215828476Y-90431952D01*
X215876095Y-90527190D01*
X215923714Y-90574809D01*
X216018952Y-90622428D01*
X216209428Y-90622428D01*
X216304666Y-90574809D01*
X216352285Y-90527190D01*
X216399904Y-90431952D01*
X214495142Y-92305142D02*
X214447523Y-92352761D01*
X214304666Y-92400380D01*
X214209428Y-92400380D01*
X214066571Y-92352761D01*
X213971333Y-92257523D01*
X213923714Y-92162285D01*
X213876095Y-91971809D01*
X213876095Y-91828952D01*
X213923714Y-91638476D01*
X213971333Y-91543238D01*
X214066571Y-91448000D01*
X214209428Y-91400380D01*
X214304666Y-91400380D01*
X214447523Y-91448000D01*
X214495142Y-91495619D01*
X215352285Y-91733714D02*
X215352285Y-92400380D01*
X215114190Y-91352761D02*
X214876095Y-92067047D01*
X215495142Y-92067047D01*
X216066571Y-91400380D02*
X216161809Y-91400380D01*
X216257047Y-91448000D01*
X216304666Y-91495619D01*
X216352285Y-91590857D01*
X216399904Y-91781333D01*
X216399904Y-92019428D01*
X216352285Y-92209904D01*
X216304666Y-92305142D01*
X216257047Y-92352761D01*
X216161809Y-92400380D01*
X216066571Y-92400380D01*
X215971333Y-92352761D01*
X215923714Y-92305142D01*
X215876095Y-92209904D01*
X215828476Y-92019428D01*
X215828476Y-91781333D01*
X215876095Y-91590857D01*
X215923714Y-91495619D01*
X215971333Y-91448000D01*
X216066571Y-91400380D01*
X224655142Y-90908142D02*
X224607523Y-90955761D01*
X224464666Y-91003380D01*
X224369428Y-91003380D01*
X224226571Y-90955761D01*
X224131333Y-90860523D01*
X224083714Y-90765285D01*
X224036095Y-90574809D01*
X224036095Y-90431952D01*
X224083714Y-90241476D01*
X224131333Y-90146238D01*
X224226571Y-90051000D01*
X224369428Y-90003380D01*
X224464666Y-90003380D01*
X224607523Y-90051000D01*
X224655142Y-90098619D01*
X225512285Y-90336714D02*
X225512285Y-91003380D01*
X225274190Y-89955761D02*
X225036095Y-90670047D01*
X225655142Y-90670047D01*
X226559904Y-91003380D02*
X225988476Y-91003380D01*
X226274190Y-91003380D02*
X226274190Y-90003380D01*
X226178952Y-90146238D01*
X226083714Y-90241476D01*
X225988476Y-90289095D01*
X210185142Y-79890857D02*
X210232761Y-79938476D01*
X210280380Y-80081333D01*
X210280380Y-80176571D01*
X210232761Y-80319428D01*
X210137523Y-80414666D01*
X210042285Y-80462285D01*
X209851809Y-80509904D01*
X209708952Y-80509904D01*
X209518476Y-80462285D01*
X209423238Y-80414666D01*
X209328000Y-80319428D01*
X209280380Y-80176571D01*
X209280380Y-80081333D01*
X209328000Y-79938476D01*
X209375619Y-79890857D01*
X209613714Y-79033714D02*
X210280380Y-79033714D01*
X209232761Y-79271809D02*
X209947047Y-79509904D01*
X209947047Y-78890857D01*
X209375619Y-78557523D02*
X209328000Y-78509904D01*
X209280380Y-78414666D01*
X209280380Y-78176571D01*
X209328000Y-78081333D01*
X209375619Y-78033714D01*
X209470857Y-77986095D01*
X209566095Y-77986095D01*
X209708952Y-78033714D01*
X210280380Y-78605142D01*
X210280380Y-77986095D01*
X261078742Y-122581942D02*
X261031123Y-122629561D01*
X260888266Y-122677180D01*
X260793028Y-122677180D01*
X260650171Y-122629561D01*
X260554933Y-122534323D01*
X260507314Y-122439085D01*
X260459695Y-122248609D01*
X260459695Y-122105752D01*
X260507314Y-121915276D01*
X260554933Y-121820038D01*
X260650171Y-121724800D01*
X260793028Y-121677180D01*
X260888266Y-121677180D01*
X261031123Y-121724800D01*
X261078742Y-121772419D01*
X261935885Y-122010514D02*
X261935885Y-122677180D01*
X261697790Y-121629561D02*
X261459695Y-122343847D01*
X262078742Y-122343847D01*
X262364457Y-121677180D02*
X262983504Y-121677180D01*
X262650171Y-122058133D01*
X262793028Y-122058133D01*
X262888266Y-122105752D01*
X262935885Y-122153371D01*
X262983504Y-122248609D01*
X262983504Y-122486704D01*
X262935885Y-122581942D01*
X262888266Y-122629561D01*
X262793028Y-122677180D01*
X262507314Y-122677180D01*
X262412076Y-122629561D01*
X262364457Y-122581942D01*
X190873142Y-114403142D02*
X190825523Y-114450761D01*
X190682666Y-114498380D01*
X190587428Y-114498380D01*
X190444571Y-114450761D01*
X190349333Y-114355523D01*
X190301714Y-114260285D01*
X190254095Y-114069809D01*
X190254095Y-113926952D01*
X190301714Y-113736476D01*
X190349333Y-113641238D01*
X190444571Y-113546000D01*
X190587428Y-113498380D01*
X190682666Y-113498380D01*
X190825523Y-113546000D01*
X190873142Y-113593619D01*
X191730285Y-113831714D02*
X191730285Y-114498380D01*
X191492190Y-113450761D02*
X191254095Y-114165047D01*
X191873142Y-114165047D01*
X192682666Y-113831714D02*
X192682666Y-114498380D01*
X192444571Y-113450761D02*
X192206476Y-114165047D01*
X192825523Y-114165047D01*
X190873142Y-120753142D02*
X190825523Y-120800761D01*
X190682666Y-120848380D01*
X190587428Y-120848380D01*
X190444571Y-120800761D01*
X190349333Y-120705523D01*
X190301714Y-120610285D01*
X190254095Y-120419809D01*
X190254095Y-120276952D01*
X190301714Y-120086476D01*
X190349333Y-119991238D01*
X190444571Y-119896000D01*
X190587428Y-119848380D01*
X190682666Y-119848380D01*
X190825523Y-119896000D01*
X190873142Y-119943619D01*
X191730285Y-120181714D02*
X191730285Y-120848380D01*
X191492190Y-119800761D02*
X191254095Y-120515047D01*
X191873142Y-120515047D01*
X192730285Y-119848380D02*
X192254095Y-119848380D01*
X192206476Y-120324571D01*
X192254095Y-120276952D01*
X192349333Y-120229333D01*
X192587428Y-120229333D01*
X192682666Y-120276952D01*
X192730285Y-120324571D01*
X192777904Y-120419809D01*
X192777904Y-120657904D01*
X192730285Y-120753142D01*
X192682666Y-120800761D01*
X192587428Y-120848380D01*
X192349333Y-120848380D01*
X192254095Y-120800761D01*
X192206476Y-120753142D01*
X194691142Y-110116857D02*
X194738761Y-110164476D01*
X194786380Y-110307333D01*
X194786380Y-110402571D01*
X194738761Y-110545428D01*
X194643523Y-110640666D01*
X194548285Y-110688285D01*
X194357809Y-110735904D01*
X194214952Y-110735904D01*
X194024476Y-110688285D01*
X193929238Y-110640666D01*
X193834000Y-110545428D01*
X193786380Y-110402571D01*
X193786380Y-110307333D01*
X193834000Y-110164476D01*
X193881619Y-110116857D01*
X194119714Y-109259714D02*
X194786380Y-109259714D01*
X193738761Y-109497809D02*
X194453047Y-109735904D01*
X194453047Y-109116857D01*
X193786380Y-108307333D02*
X193786380Y-108497809D01*
X193834000Y-108593047D01*
X193881619Y-108640666D01*
X194024476Y-108735904D01*
X194214952Y-108783523D01*
X194595904Y-108783523D01*
X194691142Y-108735904D01*
X194738761Y-108688285D01*
X194786380Y-108593047D01*
X194786380Y-108402571D01*
X194738761Y-108307333D01*
X194691142Y-108259714D01*
X194595904Y-108212095D01*
X194357809Y-108212095D01*
X194262571Y-108259714D01*
X194214952Y-108307333D01*
X194167333Y-108402571D01*
X194167333Y-108593047D01*
X194214952Y-108688285D01*
X194262571Y-108735904D01*
X194357809Y-108783523D01*
X176903142Y-116157142D02*
X176855523Y-116204761D01*
X176712666Y-116252380D01*
X176617428Y-116252380D01*
X176474571Y-116204761D01*
X176379333Y-116109523D01*
X176331714Y-116014285D01*
X176284095Y-115823809D01*
X176284095Y-115680952D01*
X176331714Y-115490476D01*
X176379333Y-115395238D01*
X176474571Y-115300000D01*
X176617428Y-115252380D01*
X176712666Y-115252380D01*
X176855523Y-115300000D01*
X176903142Y-115347619D01*
X177760285Y-115585714D02*
X177760285Y-116252380D01*
X177522190Y-115204761D02*
X177284095Y-115919047D01*
X177903142Y-115919047D01*
X178188857Y-115252380D02*
X178855523Y-115252380D01*
X178426952Y-116252380D01*
X177696904Y-128323380D02*
X177696904Y-127323380D01*
X177935000Y-127323380D01*
X178077857Y-127371000D01*
X178173095Y-127466238D01*
X178220714Y-127561476D01*
X178268333Y-127751952D01*
X178268333Y-127894809D01*
X178220714Y-128085285D01*
X178173095Y-128180523D01*
X178077857Y-128275761D01*
X177935000Y-128323380D01*
X177696904Y-128323380D01*
X178601666Y-127323380D02*
X179220714Y-127323380D01*
X178887380Y-127704333D01*
X179030238Y-127704333D01*
X179125476Y-127751952D01*
X179173095Y-127799571D01*
X179220714Y-127894809D01*
X179220714Y-128132904D01*
X179173095Y-128228142D01*
X179125476Y-128275761D01*
X179030238Y-128323380D01*
X178744523Y-128323380D01*
X178649285Y-128275761D01*
X178601666Y-128228142D01*
X187856904Y-128323380D02*
X187856904Y-127323380D01*
X188095000Y-127323380D01*
X188237857Y-127371000D01*
X188333095Y-127466238D01*
X188380714Y-127561476D01*
X188428333Y-127751952D01*
X188428333Y-127894809D01*
X188380714Y-128085285D01*
X188333095Y-128180523D01*
X188237857Y-128275761D01*
X188095000Y-128323380D01*
X187856904Y-128323380D01*
X189285476Y-127656714D02*
X189285476Y-128323380D01*
X189047380Y-127275761D02*
X188809285Y-127990047D01*
X189428333Y-127990047D01*
X198016904Y-128323380D02*
X198016904Y-127323380D01*
X198255000Y-127323380D01*
X198397857Y-127371000D01*
X198493095Y-127466238D01*
X198540714Y-127561476D01*
X198588333Y-127751952D01*
X198588333Y-127894809D01*
X198540714Y-128085285D01*
X198493095Y-128180523D01*
X198397857Y-128275761D01*
X198255000Y-128323380D01*
X198016904Y-128323380D01*
X199493095Y-127323380D02*
X199016904Y-127323380D01*
X198969285Y-127799571D01*
X199016904Y-127751952D01*
X199112142Y-127704333D01*
X199350238Y-127704333D01*
X199445476Y-127751952D01*
X199493095Y-127799571D01*
X199540714Y-127894809D01*
X199540714Y-128132904D01*
X199493095Y-128228142D01*
X199445476Y-128275761D01*
X199350238Y-128323380D01*
X199112142Y-128323380D01*
X199016904Y-128275761D01*
X198969285Y-128228142D01*
X208176904Y-128323380D02*
X208176904Y-127323380D01*
X208415000Y-127323380D01*
X208557857Y-127371000D01*
X208653095Y-127466238D01*
X208700714Y-127561476D01*
X208748333Y-127751952D01*
X208748333Y-127894809D01*
X208700714Y-128085285D01*
X208653095Y-128180523D01*
X208557857Y-128275761D01*
X208415000Y-128323380D01*
X208176904Y-128323380D01*
X209605476Y-127323380D02*
X209415000Y-127323380D01*
X209319761Y-127371000D01*
X209272142Y-127418619D01*
X209176904Y-127561476D01*
X209129285Y-127751952D01*
X209129285Y-128132904D01*
X209176904Y-128228142D01*
X209224523Y-128275761D01*
X209319761Y-128323380D01*
X209510238Y-128323380D01*
X209605476Y-128275761D01*
X209653095Y-128228142D01*
X209700714Y-128132904D01*
X209700714Y-127894809D01*
X209653095Y-127799571D01*
X209605476Y-127751952D01*
X209510238Y-127704333D01*
X209319761Y-127704333D01*
X209224523Y-127751952D01*
X209176904Y-127799571D01*
X209129285Y-127894809D01*
X218336904Y-128323380D02*
X218336904Y-127323380D01*
X218575000Y-127323380D01*
X218717857Y-127371000D01*
X218813095Y-127466238D01*
X218860714Y-127561476D01*
X218908333Y-127751952D01*
X218908333Y-127894809D01*
X218860714Y-128085285D01*
X218813095Y-128180523D01*
X218717857Y-128275761D01*
X218575000Y-128323380D01*
X218336904Y-128323380D01*
X219241666Y-127323380D02*
X219908333Y-127323380D01*
X219479761Y-128323380D01*
X228496904Y-128323380D02*
X228496904Y-127323380D01*
X228735000Y-127323380D01*
X228877857Y-127371000D01*
X228973095Y-127466238D01*
X229020714Y-127561476D01*
X229068333Y-127751952D01*
X229068333Y-127894809D01*
X229020714Y-128085285D01*
X228973095Y-128180523D01*
X228877857Y-128275761D01*
X228735000Y-128323380D01*
X228496904Y-128323380D01*
X229639761Y-127751952D02*
X229544523Y-127704333D01*
X229496904Y-127656714D01*
X229449285Y-127561476D01*
X229449285Y-127513857D01*
X229496904Y-127418619D01*
X229544523Y-127371000D01*
X229639761Y-127323380D01*
X229830238Y-127323380D01*
X229925476Y-127371000D01*
X229973095Y-127418619D01*
X230020714Y-127513857D01*
X230020714Y-127561476D01*
X229973095Y-127656714D01*
X229925476Y-127704333D01*
X229830238Y-127751952D01*
X229639761Y-127751952D01*
X229544523Y-127799571D01*
X229496904Y-127847190D01*
X229449285Y-127942428D01*
X229449285Y-128132904D01*
X229496904Y-128228142D01*
X229544523Y-128275761D01*
X229639761Y-128323380D01*
X229830238Y-128323380D01*
X229925476Y-128275761D01*
X229973095Y-128228142D01*
X230020714Y-128132904D01*
X230020714Y-127942428D01*
X229973095Y-127847190D01*
X229925476Y-127799571D01*
X229830238Y-127751952D01*
X238656904Y-128323380D02*
X238656904Y-127323380D01*
X238895000Y-127323380D01*
X239037857Y-127371000D01*
X239133095Y-127466238D01*
X239180714Y-127561476D01*
X239228333Y-127751952D01*
X239228333Y-127894809D01*
X239180714Y-128085285D01*
X239133095Y-128180523D01*
X239037857Y-128275761D01*
X238895000Y-128323380D01*
X238656904Y-128323380D01*
X239704523Y-128323380D02*
X239895000Y-128323380D01*
X239990238Y-128275761D01*
X240037857Y-128228142D01*
X240133095Y-128085285D01*
X240180714Y-127894809D01*
X240180714Y-127513857D01*
X240133095Y-127418619D01*
X240085476Y-127371000D01*
X239990238Y-127323380D01*
X239799761Y-127323380D01*
X239704523Y-127371000D01*
X239656904Y-127418619D01*
X239609285Y-127513857D01*
X239609285Y-127751952D01*
X239656904Y-127847190D01*
X239704523Y-127894809D01*
X239799761Y-127942428D01*
X239990238Y-127942428D01*
X240085476Y-127894809D01*
X240133095Y-127847190D01*
X240180714Y-127751952D01*
X248340714Y-128323380D02*
X248340714Y-127323380D01*
X248578809Y-127323380D01*
X248721666Y-127371000D01*
X248816904Y-127466238D01*
X248864523Y-127561476D01*
X248912142Y-127751952D01*
X248912142Y-127894809D01*
X248864523Y-128085285D01*
X248816904Y-128180523D01*
X248721666Y-128275761D01*
X248578809Y-128323380D01*
X248340714Y-128323380D01*
X249864523Y-128323380D02*
X249293095Y-128323380D01*
X249578809Y-128323380D02*
X249578809Y-127323380D01*
X249483571Y-127466238D01*
X249388333Y-127561476D01*
X249293095Y-127609095D01*
X250483571Y-127323380D02*
X250578809Y-127323380D01*
X250674047Y-127371000D01*
X250721666Y-127418619D01*
X250769285Y-127513857D01*
X250816904Y-127704333D01*
X250816904Y-127942428D01*
X250769285Y-128132904D01*
X250721666Y-128228142D01*
X250674047Y-128275761D01*
X250578809Y-128323380D01*
X250483571Y-128323380D01*
X250388333Y-128275761D01*
X250340714Y-128228142D01*
X250293095Y-128132904D01*
X250245476Y-127942428D01*
X250245476Y-127704333D01*
X250293095Y-127513857D01*
X250340714Y-127418619D01*
X250388333Y-127371000D01*
X250483571Y-127323380D01*
X267166666Y-46952380D02*
X267166666Y-47666666D01*
X267119047Y-47809523D01*
X267023809Y-47904761D01*
X266880952Y-47952380D01*
X266785714Y-47952380D01*
X268166666Y-47952380D02*
X267595238Y-47952380D01*
X267880952Y-47952380D02*
X267880952Y-46952380D01*
X267785714Y-47095238D01*
X267690476Y-47190476D01*
X267595238Y-47238095D01*
X209089666Y-49425880D02*
X209089666Y-50140166D01*
X209042047Y-50283023D01*
X208946809Y-50378261D01*
X208803952Y-50425880D01*
X208708714Y-50425880D01*
X209518238Y-49521119D02*
X209565857Y-49473500D01*
X209661095Y-49425880D01*
X209899190Y-49425880D01*
X209994428Y-49473500D01*
X210042047Y-49521119D01*
X210089666Y-49616357D01*
X210089666Y-49711595D01*
X210042047Y-49854452D01*
X209470619Y-50425880D01*
X210089666Y-50425880D01*
D11*
X182761000Y-50232571D02*
X182761000Y-51304000D01*
X182689571Y-51518285D01*
X182546714Y-51661142D01*
X182332428Y-51732571D01*
X182189571Y-51732571D01*
X183332428Y-50232571D02*
X184261000Y-50232571D01*
X183761000Y-50804000D01*
X183975285Y-50804000D01*
X184118142Y-50875428D01*
X184189571Y-50946857D01*
X184261000Y-51089714D01*
X184261000Y-51446857D01*
X184189571Y-51589714D01*
X184118142Y-51661142D01*
X183975285Y-51732571D01*
X183546714Y-51732571D01*
X183403857Y-51661142D01*
X183332428Y-51589714D01*
X177368142Y-54526571D02*
X177368142Y-53026571D01*
X177725285Y-53026571D01*
X177939571Y-53098000D01*
X178082428Y-53240857D01*
X178153857Y-53383714D01*
X178225285Y-53669428D01*
X178225285Y-53883714D01*
X178153857Y-54169428D01*
X178082428Y-54312285D01*
X177939571Y-54455142D01*
X177725285Y-54526571D01*
X177368142Y-54526571D01*
X178868142Y-54526571D02*
X178868142Y-53026571D01*
X179582428Y-54526571D02*
X179582428Y-53026571D01*
X180439571Y-54526571D01*
X180439571Y-53026571D01*
X181153857Y-53955142D02*
X182296714Y-53955142D01*
X183725285Y-53026571D02*
X183011000Y-53026571D01*
X182939571Y-53740857D01*
X183011000Y-53669428D01*
X183153857Y-53598000D01*
X183511000Y-53598000D01*
X183653857Y-53669428D01*
X183725285Y-53740857D01*
X183796714Y-53883714D01*
X183796714Y-54240857D01*
X183725285Y-54383714D01*
X183653857Y-54455142D01*
X183511000Y-54526571D01*
X183153857Y-54526571D01*
X183011000Y-54455142D01*
X182939571Y-54383714D01*
X184082428Y-54669428D02*
X185225285Y-54669428D01*
X186368142Y-54526571D02*
X185511000Y-54526571D01*
X185939571Y-54526571D02*
X185939571Y-53026571D01*
X185796714Y-53240857D01*
X185653857Y-53383714D01*
X185511000Y-53455142D01*
X187225285Y-53669428D02*
X187082428Y-53598000D01*
X187011000Y-53526571D01*
X186939571Y-53383714D01*
X186939571Y-53312285D01*
X187011000Y-53169428D01*
X187082428Y-53098000D01*
X187225285Y-53026571D01*
X187511000Y-53026571D01*
X187653857Y-53098000D01*
X187725285Y-53169428D01*
X187796714Y-53312285D01*
X187796714Y-53383714D01*
X187725285Y-53526571D01*
X187653857Y-53598000D01*
X187511000Y-53669428D01*
X187225285Y-53669428D01*
X187082428Y-53740857D01*
X187011000Y-53812285D01*
X186939571Y-53955142D01*
X186939571Y-54240857D01*
X187011000Y-54383714D01*
X187082428Y-54455142D01*
X187225285Y-54526571D01*
X187511000Y-54526571D01*
X187653857Y-54455142D01*
X187725285Y-54383714D01*
X187796714Y-54240857D01*
X187796714Y-53955142D01*
X187725285Y-53812285D01*
X187653857Y-53740857D01*
X187511000Y-53669428D01*
X188725285Y-53026571D02*
X188868142Y-53026571D01*
X189011000Y-53098000D01*
X189082428Y-53169428D01*
X189153857Y-53312285D01*
X189225285Y-53598000D01*
X189225285Y-53955142D01*
X189153857Y-54240857D01*
X189082428Y-54383714D01*
X189011000Y-54455142D01*
X188868142Y-54526571D01*
X188725285Y-54526571D01*
X188582428Y-54455142D01*
X188511000Y-54383714D01*
X188439571Y-54240857D01*
X188368142Y-53955142D01*
X188368142Y-53598000D01*
X188439571Y-53312285D01*
X188511000Y-53169428D01*
X188582428Y-53098000D01*
X188725285Y-53026571D01*
D12*
X240611066Y-59936880D02*
X240611066Y-60651166D01*
X240563447Y-60794023D01*
X240468209Y-60889261D01*
X240325352Y-60936880D01*
X240230114Y-60936880D01*
X241515828Y-60270214D02*
X241515828Y-60936880D01*
X241277733Y-59889261D02*
X241039638Y-60603547D01*
X241658685Y-60603547D01*
X178776380Y-106480333D02*
X179490666Y-106480333D01*
X179633523Y-106527952D01*
X179728761Y-106623190D01*
X179776380Y-106766047D01*
X179776380Y-106861285D01*
X178776380Y-105527952D02*
X178776380Y-106004142D01*
X179252571Y-106051761D01*
X179204952Y-106004142D01*
X179157333Y-105908904D01*
X179157333Y-105670809D01*
X179204952Y-105575571D01*
X179252571Y-105527952D01*
X179347809Y-105480333D01*
X179585904Y-105480333D01*
X179681142Y-105527952D01*
X179728761Y-105575571D01*
X179776380Y-105670809D01*
X179776380Y-105908904D01*
X179728761Y-106004142D01*
X179681142Y-106051761D01*
X247833333Y-71362380D02*
X247357142Y-71362380D01*
X247357142Y-70362380D01*
X248071428Y-70362380D02*
X248690476Y-70362380D01*
X248357142Y-70743333D01*
X248500000Y-70743333D01*
X248595238Y-70790952D01*
X248642857Y-70838571D01*
X248690476Y-70933809D01*
X248690476Y-71171904D01*
X248642857Y-71267142D01*
X248595238Y-71314761D01*
X248500000Y-71362380D01*
X248214285Y-71362380D01*
X248119047Y-71314761D01*
X248071428Y-71267142D01*
X243833333Y-75315380D02*
X243357142Y-75315380D01*
X243357142Y-74315380D01*
X244595238Y-74648714D02*
X244595238Y-75315380D01*
X244357142Y-74267761D02*
X244119047Y-74982047D01*
X244738095Y-74982047D01*
X231524874Y-96382291D02*
X230952454Y-96281276D01*
X231120813Y-96786352D02*
X230413706Y-96079246D01*
X230683080Y-95809871D01*
X230784095Y-95776200D01*
X230851439Y-95776200D01*
X230952454Y-95809871D01*
X231053469Y-95910887D01*
X231087141Y-96011902D01*
X231087141Y-96079246D01*
X231053469Y-96180261D01*
X230784095Y-96449635D01*
X232198309Y-95708856D02*
X231794248Y-96112917D01*
X231996279Y-95910887D02*
X231289172Y-95203780D01*
X231322844Y-95372139D01*
X231322844Y-95506826D01*
X231289172Y-95607841D01*
X214860800Y-114516217D02*
X214288380Y-114415202D01*
X214456739Y-114920278D02*
X213749632Y-114213172D01*
X214019006Y-113943797D01*
X214120021Y-113910126D01*
X214187365Y-113910126D01*
X214288380Y-113943797D01*
X214389395Y-114044813D01*
X214423067Y-114145828D01*
X214423067Y-114213172D01*
X214389395Y-114314187D01*
X214120021Y-114583561D01*
X214490411Y-113607080D02*
X214490411Y-113539736D01*
X214524082Y-113438721D01*
X214692441Y-113270362D01*
X214793457Y-113236691D01*
X214860800Y-113236691D01*
X214961815Y-113270362D01*
X215029159Y-113337706D01*
X215096502Y-113472393D01*
X215096502Y-114280515D01*
X215534235Y-113842782D01*
X214352800Y-110198217D02*
X213780380Y-110097202D01*
X213948739Y-110602278D02*
X213241632Y-109895172D01*
X213511006Y-109625797D01*
X213612021Y-109592126D01*
X213679365Y-109592126D01*
X213780380Y-109625797D01*
X213881395Y-109726813D01*
X213915067Y-109827828D01*
X213915067Y-109895172D01*
X213881395Y-109996187D01*
X213612021Y-110265561D01*
X213881395Y-109255408D02*
X214319128Y-108817675D01*
X214352800Y-109322752D01*
X214453815Y-109221736D01*
X214554831Y-109188065D01*
X214622174Y-109188065D01*
X214723189Y-109221736D01*
X214891548Y-109390095D01*
X214925220Y-109491110D01*
X214925220Y-109558454D01*
X214891548Y-109659469D01*
X214689518Y-109861500D01*
X214588502Y-109895172D01*
X214521159Y-109895172D01*
X176537880Y-75033166D02*
X176061690Y-75366500D01*
X176537880Y-75604595D02*
X175537880Y-75604595D01*
X175537880Y-75223642D01*
X175585500Y-75128404D01*
X175633119Y-75080785D01*
X175728357Y-75033166D01*
X175871214Y-75033166D01*
X175966452Y-75080785D01*
X176014071Y-75128404D01*
X176061690Y-75223642D01*
X176061690Y-75604595D01*
X175966452Y-74461738D02*
X175918833Y-74556976D01*
X175871214Y-74604595D01*
X175775976Y-74652214D01*
X175728357Y-74652214D01*
X175633119Y-74604595D01*
X175585500Y-74556976D01*
X175537880Y-74461738D01*
X175537880Y-74271261D01*
X175585500Y-74176023D01*
X175633119Y-74128404D01*
X175728357Y-74080785D01*
X175775976Y-74080785D01*
X175871214Y-74128404D01*
X175918833Y-74176023D01*
X175966452Y-74271261D01*
X175966452Y-74461738D01*
X176014071Y-74556976D01*
X176061690Y-74604595D01*
X176156928Y-74652214D01*
X176347404Y-74652214D01*
X176442642Y-74604595D01*
X176490261Y-74556976D01*
X176537880Y-74461738D01*
X176537880Y-74271261D01*
X176490261Y-74176023D01*
X176442642Y-74128404D01*
X176347404Y-74080785D01*
X176156928Y-74080785D01*
X176061690Y-74128404D01*
X176014071Y-74176023D01*
X175966452Y-74271261D01*
X190570380Y-78208166D02*
X190094190Y-78541500D01*
X190570380Y-78779595D02*
X189570380Y-78779595D01*
X189570380Y-78398642D01*
X189618000Y-78303404D01*
X189665619Y-78255785D01*
X189760857Y-78208166D01*
X189903714Y-78208166D01*
X189998952Y-78255785D01*
X190046571Y-78303404D01*
X190094190Y-78398642D01*
X190094190Y-78779595D01*
X190570380Y-77731976D02*
X190570380Y-77541500D01*
X190522761Y-77446261D01*
X190475142Y-77398642D01*
X190332285Y-77303404D01*
X190141809Y-77255785D01*
X189760857Y-77255785D01*
X189665619Y-77303404D01*
X189618000Y-77351023D01*
X189570380Y-77446261D01*
X189570380Y-77636738D01*
X189618000Y-77731976D01*
X189665619Y-77779595D01*
X189760857Y-77827214D01*
X189998952Y-77827214D01*
X190094190Y-77779595D01*
X190141809Y-77731976D01*
X190189428Y-77636738D01*
X190189428Y-77446261D01*
X190141809Y-77351023D01*
X190094190Y-77303404D01*
X189998952Y-77255785D01*
X213430380Y-89796857D02*
X212954190Y-90130190D01*
X213430380Y-90368285D02*
X212430380Y-90368285D01*
X212430380Y-89987333D01*
X212478000Y-89892095D01*
X212525619Y-89844476D01*
X212620857Y-89796857D01*
X212763714Y-89796857D01*
X212858952Y-89844476D01*
X212906571Y-89892095D01*
X212954190Y-89987333D01*
X212954190Y-90368285D01*
X213430380Y-88844476D02*
X213430380Y-89415904D01*
X213430380Y-89130190D02*
X212430380Y-89130190D01*
X212573238Y-89225428D01*
X212668476Y-89320666D01*
X212716095Y-89415904D01*
X212430380Y-88225428D02*
X212430380Y-88130190D01*
X212478000Y-88034952D01*
X212525619Y-87987333D01*
X212620857Y-87939714D01*
X212811333Y-87892095D01*
X213049428Y-87892095D01*
X213239904Y-87939714D01*
X213335142Y-87987333D01*
X213382761Y-88034952D01*
X213430380Y-88130190D01*
X213430380Y-88225428D01*
X213382761Y-88320666D01*
X213335142Y-88368285D01*
X213239904Y-88415904D01*
X213049428Y-88463523D01*
X212811333Y-88463523D01*
X212620857Y-88415904D01*
X212525619Y-88368285D01*
X212478000Y-88320666D01*
X212430380Y-88225428D01*
X213430380Y-93098857D02*
X212954190Y-93432190D01*
X213430380Y-93670285D02*
X212430380Y-93670285D01*
X212430380Y-93289333D01*
X212478000Y-93194095D01*
X212525619Y-93146476D01*
X212620857Y-93098857D01*
X212763714Y-93098857D01*
X212858952Y-93146476D01*
X212906571Y-93194095D01*
X212954190Y-93289333D01*
X212954190Y-93670285D01*
X213430380Y-92146476D02*
X213430380Y-92717904D01*
X213430380Y-92432190D02*
X212430380Y-92432190D01*
X212573238Y-92527428D01*
X212668476Y-92622666D01*
X212716095Y-92717904D01*
X213430380Y-91194095D02*
X213430380Y-91765523D01*
X213430380Y-91479809D02*
X212430380Y-91479809D01*
X212573238Y-91575047D01*
X212668476Y-91670285D01*
X212716095Y-91765523D01*
X232100380Y-84970857D02*
X231624190Y-85304190D01*
X232100380Y-85542285D02*
X231100380Y-85542285D01*
X231100380Y-85161333D01*
X231148000Y-85066095D01*
X231195619Y-85018476D01*
X231290857Y-84970857D01*
X231433714Y-84970857D01*
X231528952Y-85018476D01*
X231576571Y-85066095D01*
X231624190Y-85161333D01*
X231624190Y-85542285D01*
X232100380Y-84018476D02*
X232100380Y-84589904D01*
X232100380Y-84304190D02*
X231100380Y-84304190D01*
X231243238Y-84399428D01*
X231338476Y-84494666D01*
X231386095Y-84589904D01*
X231195619Y-83637523D02*
X231148000Y-83589904D01*
X231100380Y-83494666D01*
X231100380Y-83256571D01*
X231148000Y-83161333D01*
X231195619Y-83113714D01*
X231290857Y-83066095D01*
X231386095Y-83066095D01*
X231528952Y-83113714D01*
X232100380Y-83685142D01*
X232100380Y-83066095D01*
D18*
X214500590Y-80534628D02*
X214262495Y-80701295D01*
X214500590Y-80820342D02*
X214000590Y-80820342D01*
X214000590Y-80629866D01*
X214024400Y-80582247D01*
X214048209Y-80558438D01*
X214095828Y-80534628D01*
X214167257Y-80534628D01*
X214214876Y-80558438D01*
X214238685Y-80582247D01*
X214262495Y-80629866D01*
X214262495Y-80820342D01*
X214500590Y-80058438D02*
X214500590Y-80344152D01*
X214500590Y-80201295D02*
X214000590Y-80201295D01*
X214072019Y-80248914D01*
X214119638Y-80296533D01*
X214143447Y-80344152D01*
X214000590Y-79891771D02*
X214000590Y-79582247D01*
X214191066Y-79748914D01*
X214191066Y-79677485D01*
X214214876Y-79629866D01*
X214238685Y-79606057D01*
X214286304Y-79582247D01*
X214405352Y-79582247D01*
X214452971Y-79606057D01*
X214476780Y-79629866D01*
X214500590Y-79677485D01*
X214500590Y-79820342D01*
X214476780Y-79867961D01*
X214452971Y-79891771D01*
X214500590Y-78756628D02*
X214262495Y-78923295D01*
X214500590Y-79042342D02*
X214000590Y-79042342D01*
X214000590Y-78851866D01*
X214024400Y-78804247D01*
X214048209Y-78780438D01*
X214095828Y-78756628D01*
X214167257Y-78756628D01*
X214214876Y-78780438D01*
X214238685Y-78804247D01*
X214262495Y-78851866D01*
X214262495Y-79042342D01*
X214500590Y-78280438D02*
X214500590Y-78566152D01*
X214500590Y-78423295D02*
X214000590Y-78423295D01*
X214072019Y-78470914D01*
X214119638Y-78518533D01*
X214143447Y-78566152D01*
X214167257Y-77851866D02*
X214500590Y-77851866D01*
X213976780Y-77970914D02*
X214333923Y-78089961D01*
X214333923Y-77780438D01*
D12*
X220464142Y-82748380D02*
X220130809Y-82272190D01*
X219892714Y-82748380D02*
X219892714Y-81748380D01*
X220273666Y-81748380D01*
X220368904Y-81796000D01*
X220416523Y-81843619D01*
X220464142Y-81938857D01*
X220464142Y-82081714D01*
X220416523Y-82176952D01*
X220368904Y-82224571D01*
X220273666Y-82272190D01*
X219892714Y-82272190D01*
X221416523Y-82748380D02*
X220845095Y-82748380D01*
X221130809Y-82748380D02*
X221130809Y-81748380D01*
X221035571Y-81891238D01*
X220940333Y-81986476D01*
X220845095Y-82034095D01*
X222321285Y-81748380D02*
X221845095Y-81748380D01*
X221797476Y-82224571D01*
X221845095Y-82176952D01*
X221940333Y-82129333D01*
X222178428Y-82129333D01*
X222273666Y-82176952D01*
X222321285Y-82224571D01*
X222368904Y-82319809D01*
X222368904Y-82557904D01*
X222321285Y-82653142D01*
X222273666Y-82700761D01*
X222178428Y-82748380D01*
X221940333Y-82748380D01*
X221845095Y-82700761D01*
X221797476Y-82653142D01*
X220464142Y-87827380D02*
X220130809Y-87351190D01*
X219892714Y-87827380D02*
X219892714Y-86827380D01*
X220273666Y-86827380D01*
X220368904Y-86875000D01*
X220416523Y-86922619D01*
X220464142Y-87017857D01*
X220464142Y-87160714D01*
X220416523Y-87255952D01*
X220368904Y-87303571D01*
X220273666Y-87351190D01*
X219892714Y-87351190D01*
X221416523Y-87827380D02*
X220845095Y-87827380D01*
X221130809Y-87827380D02*
X221130809Y-86827380D01*
X221035571Y-86970238D01*
X220940333Y-87065476D01*
X220845095Y-87113095D01*
X222273666Y-86827380D02*
X222083190Y-86827380D01*
X221987952Y-86875000D01*
X221940333Y-86922619D01*
X221845095Y-87065476D01*
X221797476Y-87255952D01*
X221797476Y-87636904D01*
X221845095Y-87732142D01*
X221892714Y-87779761D01*
X221987952Y-87827380D01*
X222178428Y-87827380D01*
X222273666Y-87779761D01*
X222321285Y-87732142D01*
X222368904Y-87636904D01*
X222368904Y-87398809D01*
X222321285Y-87303571D01*
X222273666Y-87255952D01*
X222178428Y-87208333D01*
X221987952Y-87208333D01*
X221892714Y-87255952D01*
X221845095Y-87303571D01*
X221797476Y-87398809D01*
X223893142Y-87828380D02*
X223559809Y-87352190D01*
X223321714Y-87828380D02*
X223321714Y-86828380D01*
X223702666Y-86828380D01*
X223797904Y-86876000D01*
X223845523Y-86923619D01*
X223893142Y-87018857D01*
X223893142Y-87161714D01*
X223845523Y-87256952D01*
X223797904Y-87304571D01*
X223702666Y-87352190D01*
X223321714Y-87352190D01*
X224845523Y-87828380D02*
X224274095Y-87828380D01*
X224559809Y-87828380D02*
X224559809Y-86828380D01*
X224464571Y-86971238D01*
X224369333Y-87066476D01*
X224274095Y-87114095D01*
X225178857Y-86828380D02*
X225845523Y-86828380D01*
X225416952Y-87828380D01*
X223893142Y-82748380D02*
X223559809Y-82272190D01*
X223321714Y-82748380D02*
X223321714Y-81748380D01*
X223702666Y-81748380D01*
X223797904Y-81796000D01*
X223845523Y-81843619D01*
X223893142Y-81938857D01*
X223893142Y-82081714D01*
X223845523Y-82176952D01*
X223797904Y-82224571D01*
X223702666Y-82272190D01*
X223321714Y-82272190D01*
X224845523Y-82748380D02*
X224274095Y-82748380D01*
X224559809Y-82748380D02*
X224559809Y-81748380D01*
X224464571Y-81891238D01*
X224369333Y-81986476D01*
X224274095Y-82034095D01*
X225416952Y-82176952D02*
X225321714Y-82129333D01*
X225274095Y-82081714D01*
X225226476Y-81986476D01*
X225226476Y-81938857D01*
X225274095Y-81843619D01*
X225321714Y-81796000D01*
X225416952Y-81748380D01*
X225607428Y-81748380D01*
X225702666Y-81796000D01*
X225750285Y-81843619D01*
X225797904Y-81938857D01*
X225797904Y-81986476D01*
X225750285Y-82081714D01*
X225702666Y-82129333D01*
X225607428Y-82176952D01*
X225416952Y-82176952D01*
X225321714Y-82224571D01*
X225274095Y-82272190D01*
X225226476Y-82367428D01*
X225226476Y-82557904D01*
X225274095Y-82653142D01*
X225321714Y-82700761D01*
X225416952Y-82748380D01*
X225607428Y-82748380D01*
X225702666Y-82700761D01*
X225750285Y-82653142D01*
X225797904Y-82557904D01*
X225797904Y-82367428D01*
X225750285Y-82272190D01*
X225702666Y-82224571D01*
X225607428Y-82176952D01*
X214495142Y-89352380D02*
X214161809Y-88876190D01*
X213923714Y-89352380D02*
X213923714Y-88352380D01*
X214304666Y-88352380D01*
X214399904Y-88400000D01*
X214447523Y-88447619D01*
X214495142Y-88542857D01*
X214495142Y-88685714D01*
X214447523Y-88780952D01*
X214399904Y-88828571D01*
X214304666Y-88876190D01*
X213923714Y-88876190D01*
X215447523Y-89352380D02*
X214876095Y-89352380D01*
X215161809Y-89352380D02*
X215161809Y-88352380D01*
X215066571Y-88495238D01*
X214971333Y-88590476D01*
X214876095Y-88638095D01*
X215923714Y-89352380D02*
X216114190Y-89352380D01*
X216209428Y-89304761D01*
X216257047Y-89257142D01*
X216352285Y-89114285D01*
X216399904Y-88923809D01*
X216399904Y-88542857D01*
X216352285Y-88447619D01*
X216304666Y-88400000D01*
X216209428Y-88352380D01*
X216018952Y-88352380D01*
X215923714Y-88400000D01*
X215876095Y-88447619D01*
X215828476Y-88542857D01*
X215828476Y-88780952D01*
X215876095Y-88876190D01*
X215923714Y-88923809D01*
X216018952Y-88971428D01*
X216209428Y-88971428D01*
X216304666Y-88923809D01*
X216352285Y-88876190D01*
X216399904Y-88780952D01*
X224909142Y-89352380D02*
X224575809Y-88876190D01*
X224337714Y-89352380D02*
X224337714Y-88352380D01*
X224718666Y-88352380D01*
X224813904Y-88400000D01*
X224861523Y-88447619D01*
X224909142Y-88542857D01*
X224909142Y-88685714D01*
X224861523Y-88780952D01*
X224813904Y-88828571D01*
X224718666Y-88876190D01*
X224337714Y-88876190D01*
X225290095Y-88447619D02*
X225337714Y-88400000D01*
X225432952Y-88352380D01*
X225671047Y-88352380D01*
X225766285Y-88400000D01*
X225813904Y-88447619D01*
X225861523Y-88542857D01*
X225861523Y-88638095D01*
X225813904Y-88780952D01*
X225242476Y-89352380D01*
X225861523Y-89352380D01*
X226480571Y-88352380D02*
X226575809Y-88352380D01*
X226671047Y-88400000D01*
X226718666Y-88447619D01*
X226766285Y-88542857D01*
X226813904Y-88733333D01*
X226813904Y-88971428D01*
X226766285Y-89161904D01*
X226718666Y-89257142D01*
X226671047Y-89304761D01*
X226575809Y-89352380D01*
X226480571Y-89352380D01*
X226385333Y-89304761D01*
X226337714Y-89257142D01*
X226290095Y-89161904D01*
X226242476Y-88971428D01*
X226242476Y-88733333D01*
X226290095Y-88542857D01*
X226337714Y-88447619D01*
X226385333Y-88400000D01*
X226480571Y-88352380D01*
X243022380Y-98940857D02*
X242546190Y-99274190D01*
X243022380Y-99512285D02*
X242022380Y-99512285D01*
X242022380Y-99131333D01*
X242070000Y-99036095D01*
X242117619Y-98988476D01*
X242212857Y-98940857D01*
X242355714Y-98940857D01*
X242450952Y-98988476D01*
X242498571Y-99036095D01*
X242546190Y-99131333D01*
X242546190Y-99512285D01*
X242117619Y-98559904D02*
X242070000Y-98512285D01*
X242022380Y-98417047D01*
X242022380Y-98178952D01*
X242070000Y-98083714D01*
X242117619Y-98036095D01*
X242212857Y-97988476D01*
X242308095Y-97988476D01*
X242450952Y-98036095D01*
X243022380Y-98607523D01*
X243022380Y-97988476D01*
X243022380Y-97036095D02*
X243022380Y-97607523D01*
X243022380Y-97321809D02*
X242022380Y-97321809D01*
X242165238Y-97417047D01*
X242260476Y-97512285D01*
X242308095Y-97607523D01*
X256738380Y-100210857D02*
X256262190Y-100544190D01*
X256738380Y-100782285D02*
X255738380Y-100782285D01*
X255738380Y-100401333D01*
X255786000Y-100306095D01*
X255833619Y-100258476D01*
X255928857Y-100210857D01*
X256071714Y-100210857D01*
X256166952Y-100258476D01*
X256214571Y-100306095D01*
X256262190Y-100401333D01*
X256262190Y-100782285D01*
X255833619Y-99829904D02*
X255786000Y-99782285D01*
X255738380Y-99687047D01*
X255738380Y-99448952D01*
X255786000Y-99353714D01*
X255833619Y-99306095D01*
X255928857Y-99258476D01*
X256024095Y-99258476D01*
X256166952Y-99306095D01*
X256738380Y-99877523D01*
X256738380Y-99258476D01*
X255833619Y-98877523D02*
X255786000Y-98829904D01*
X255738380Y-98734666D01*
X255738380Y-98496571D01*
X255786000Y-98401333D01*
X255833619Y-98353714D01*
X255928857Y-98306095D01*
X256024095Y-98306095D01*
X256166952Y-98353714D01*
X256738380Y-98925142D01*
X256738380Y-98306095D01*
X245054380Y-98940857D02*
X244578190Y-99274190D01*
X245054380Y-99512285D02*
X244054380Y-99512285D01*
X244054380Y-99131333D01*
X244102000Y-99036095D01*
X244149619Y-98988476D01*
X244244857Y-98940857D01*
X244387714Y-98940857D01*
X244482952Y-98988476D01*
X244530571Y-99036095D01*
X244578190Y-99131333D01*
X244578190Y-99512285D01*
X244149619Y-98559904D02*
X244102000Y-98512285D01*
X244054380Y-98417047D01*
X244054380Y-98178952D01*
X244102000Y-98083714D01*
X244149619Y-98036095D01*
X244244857Y-97988476D01*
X244340095Y-97988476D01*
X244482952Y-98036095D01*
X245054380Y-98607523D01*
X245054380Y-97988476D01*
X244054380Y-97655142D02*
X244054380Y-97036095D01*
X244435333Y-97369428D01*
X244435333Y-97226571D01*
X244482952Y-97131333D01*
X244530571Y-97083714D01*
X244625809Y-97036095D01*
X244863904Y-97036095D01*
X244959142Y-97083714D01*
X245006761Y-97131333D01*
X245054380Y-97226571D01*
X245054380Y-97512285D01*
X245006761Y-97607523D01*
X244959142Y-97655142D01*
X254960380Y-100210857D02*
X254484190Y-100544190D01*
X254960380Y-100782285D02*
X253960380Y-100782285D01*
X253960380Y-100401333D01*
X254008000Y-100306095D01*
X254055619Y-100258476D01*
X254150857Y-100210857D01*
X254293714Y-100210857D01*
X254388952Y-100258476D01*
X254436571Y-100306095D01*
X254484190Y-100401333D01*
X254484190Y-100782285D01*
X254055619Y-99829904D02*
X254008000Y-99782285D01*
X253960380Y-99687047D01*
X253960380Y-99448952D01*
X254008000Y-99353714D01*
X254055619Y-99306095D01*
X254150857Y-99258476D01*
X254246095Y-99258476D01*
X254388952Y-99306095D01*
X254960380Y-99877523D01*
X254960380Y-99258476D01*
X254293714Y-98401333D02*
X254960380Y-98401333D01*
X253912761Y-98639428D02*
X254627047Y-98877523D01*
X254627047Y-98258476D01*
X254357142Y-60952380D02*
X254023809Y-60476190D01*
X253785714Y-60952380D02*
X253785714Y-59952380D01*
X254166666Y-59952380D01*
X254261904Y-60000000D01*
X254309523Y-60047619D01*
X254357142Y-60142857D01*
X254357142Y-60285714D01*
X254309523Y-60380952D01*
X254261904Y-60428571D01*
X254166666Y-60476190D01*
X253785714Y-60476190D01*
X254738095Y-60047619D02*
X254785714Y-60000000D01*
X254880952Y-59952380D01*
X255119047Y-59952380D01*
X255214285Y-60000000D01*
X255261904Y-60047619D01*
X255309523Y-60142857D01*
X255309523Y-60238095D01*
X255261904Y-60380952D01*
X254690476Y-60952380D01*
X255309523Y-60952380D01*
X256214285Y-59952380D02*
X255738095Y-59952380D01*
X255690476Y-60428571D01*
X255738095Y-60380952D01*
X255833333Y-60333333D01*
X256071428Y-60333333D01*
X256166666Y-60380952D01*
X256214285Y-60428571D01*
X256261904Y-60523809D01*
X256261904Y-60761904D01*
X256214285Y-60857142D01*
X256166666Y-60904761D01*
X256071428Y-60952380D01*
X255833333Y-60952380D01*
X255738095Y-60904761D01*
X255690476Y-60857142D01*
X228794119Y-118566598D02*
X228895134Y-117994179D01*
X228390058Y-118162537D02*
X229097165Y-117455431D01*
X229366539Y-117724805D01*
X229400211Y-117825820D01*
X229400211Y-117893163D01*
X229366539Y-117994179D01*
X229265524Y-118095194D01*
X229164508Y-118128866D01*
X229097165Y-118128866D01*
X228996150Y-118095194D01*
X228726776Y-117825820D01*
X229703257Y-118196209D02*
X229770600Y-118196209D01*
X229871615Y-118229881D01*
X230039974Y-118398240D01*
X230073646Y-118499255D01*
X230073646Y-118566598D01*
X230039974Y-118667614D01*
X229972631Y-118734957D01*
X229837944Y-118802301D01*
X229029821Y-118802301D01*
X229467554Y-119240034D01*
X230780753Y-119139018D02*
X230646066Y-119004331D01*
X230545050Y-118970660D01*
X230477707Y-118970660D01*
X230309348Y-119004331D01*
X230140989Y-119105347D01*
X229871615Y-119374721D01*
X229837944Y-119475736D01*
X229837944Y-119543079D01*
X229871615Y-119644095D01*
X230006302Y-119778782D01*
X230107318Y-119812453D01*
X230174661Y-119812453D01*
X230275676Y-119778782D01*
X230444035Y-119610423D01*
X230477707Y-119509408D01*
X230477707Y-119442064D01*
X230444035Y-119341049D01*
X230309348Y-119206362D01*
X230208333Y-119172690D01*
X230140989Y-119172690D01*
X230039974Y-119206362D01*
X216781142Y-69794380D02*
X216447809Y-69318190D01*
X216209714Y-69794380D02*
X216209714Y-68794380D01*
X216590666Y-68794380D01*
X216685904Y-68842000D01*
X216733523Y-68889619D01*
X216781142Y-68984857D01*
X216781142Y-69127714D01*
X216733523Y-69222952D01*
X216685904Y-69270571D01*
X216590666Y-69318190D01*
X216209714Y-69318190D01*
X217162095Y-68889619D02*
X217209714Y-68842000D01*
X217304952Y-68794380D01*
X217543047Y-68794380D01*
X217638285Y-68842000D01*
X217685904Y-68889619D01*
X217733523Y-68984857D01*
X217733523Y-69080095D01*
X217685904Y-69222952D01*
X217114476Y-69794380D01*
X217733523Y-69794380D01*
X218066857Y-68794380D02*
X218733523Y-68794380D01*
X218304952Y-69794380D01*
X225337761Y-62745880D02*
X225004428Y-62269690D01*
X224766333Y-62745880D02*
X224766333Y-61745880D01*
X225147285Y-61745880D01*
X225242523Y-61793500D01*
X225290142Y-61841119D01*
X225337761Y-61936357D01*
X225337761Y-62079214D01*
X225290142Y-62174452D01*
X225242523Y-62222071D01*
X225147285Y-62269690D01*
X224766333Y-62269690D01*
X225623476Y-61745880D02*
X225956809Y-62745880D01*
X226290142Y-61745880D01*
X227147285Y-62745880D02*
X226575857Y-62745880D01*
X226861571Y-62745880D02*
X226861571Y-61745880D01*
X226766333Y-61888738D01*
X226671095Y-61983976D01*
X226575857Y-62031595D01*
X219376809Y-61475880D02*
X219043476Y-60999690D01*
X218805380Y-61475880D02*
X218805380Y-60475880D01*
X219186333Y-60475880D01*
X219281571Y-60523500D01*
X219329190Y-60571119D01*
X219376809Y-60666357D01*
X219376809Y-60809214D01*
X219329190Y-60904452D01*
X219281571Y-60952071D01*
X219186333Y-60999690D01*
X218805380Y-60999690D01*
X219567285Y-61571119D02*
X220329190Y-61571119D01*
X220567285Y-61475880D02*
X220567285Y-60475880D01*
X220948238Y-60475880D01*
X221043476Y-60523500D01*
X221091095Y-60571119D01*
X221138714Y-60666357D01*
X221138714Y-60809214D01*
X221091095Y-60904452D01*
X221043476Y-60952071D01*
X220948238Y-60999690D01*
X220567285Y-60999690D01*
X221757761Y-60475880D02*
X221948238Y-60475880D01*
X222043476Y-60523500D01*
X222138714Y-60618738D01*
X222186333Y-60809214D01*
X222186333Y-61142547D01*
X222138714Y-61333023D01*
X222043476Y-61428261D01*
X221948238Y-61475880D01*
X221757761Y-61475880D01*
X221662523Y-61428261D01*
X221567285Y-61333023D01*
X221519666Y-61142547D01*
X221519666Y-60809214D01*
X221567285Y-60618738D01*
X221662523Y-60523500D01*
X221757761Y-60475880D01*
X222472047Y-60475880D02*
X223043476Y-60475880D01*
X222757761Y-61475880D02*
X222757761Y-60475880D01*
X223393000Y-58570880D02*
X223393000Y-58808976D01*
X223154904Y-58713738D02*
X223393000Y-58808976D01*
X223631095Y-58713738D01*
X223250142Y-58999452D02*
X223393000Y-58808976D01*
X223535857Y-58999452D01*
X183048761Y-133163333D02*
X183096380Y-133020476D01*
X183096380Y-132782380D01*
X183048761Y-132687142D01*
X183001142Y-132639523D01*
X182905904Y-132591904D01*
X182810666Y-132591904D01*
X182715428Y-132639523D01*
X182667809Y-132687142D01*
X182620190Y-132782380D01*
X182572571Y-132972857D01*
X182524952Y-133068095D01*
X182477333Y-133115714D01*
X182382095Y-133163333D01*
X182286857Y-133163333D01*
X182191619Y-133115714D01*
X182144000Y-133068095D01*
X182096380Y-132972857D01*
X182096380Y-132734761D01*
X182144000Y-132591904D01*
X182096380Y-132258571D02*
X183096380Y-132020476D01*
X182382095Y-131830000D01*
X183096380Y-131639523D01*
X182096380Y-131401428D01*
X183096380Y-130496666D02*
X183096380Y-131068095D01*
X183096380Y-130782380D02*
X182096380Y-130782380D01*
X182239238Y-130877619D01*
X182334476Y-130972857D01*
X182382095Y-131068095D01*
X193208761Y-133163333D02*
X193256380Y-133020476D01*
X193256380Y-132782380D01*
X193208761Y-132687142D01*
X193161142Y-132639523D01*
X193065904Y-132591904D01*
X192970666Y-132591904D01*
X192875428Y-132639523D01*
X192827809Y-132687142D01*
X192780190Y-132782380D01*
X192732571Y-132972857D01*
X192684952Y-133068095D01*
X192637333Y-133115714D01*
X192542095Y-133163333D01*
X192446857Y-133163333D01*
X192351619Y-133115714D01*
X192304000Y-133068095D01*
X192256380Y-132972857D01*
X192256380Y-132734761D01*
X192304000Y-132591904D01*
X192256380Y-132258571D02*
X193256380Y-132020476D01*
X192542095Y-131830000D01*
X193256380Y-131639523D01*
X192256380Y-131401428D01*
X192351619Y-131068095D02*
X192304000Y-131020476D01*
X192256380Y-130925238D01*
X192256380Y-130687142D01*
X192304000Y-130591904D01*
X192351619Y-130544285D01*
X192446857Y-130496666D01*
X192542095Y-130496666D01*
X192684952Y-130544285D01*
X193256380Y-131115714D01*
X193256380Y-130496666D01*
X203368761Y-133163333D02*
X203416380Y-133020476D01*
X203416380Y-132782380D01*
X203368761Y-132687142D01*
X203321142Y-132639523D01*
X203225904Y-132591904D01*
X203130666Y-132591904D01*
X203035428Y-132639523D01*
X202987809Y-132687142D01*
X202940190Y-132782380D01*
X202892571Y-132972857D01*
X202844952Y-133068095D01*
X202797333Y-133115714D01*
X202702095Y-133163333D01*
X202606857Y-133163333D01*
X202511619Y-133115714D01*
X202464000Y-133068095D01*
X202416380Y-132972857D01*
X202416380Y-132734761D01*
X202464000Y-132591904D01*
X202416380Y-132258571D02*
X203416380Y-132020476D01*
X202702095Y-131830000D01*
X203416380Y-131639523D01*
X202416380Y-131401428D01*
X202416380Y-131115714D02*
X202416380Y-130496666D01*
X202797333Y-130830000D01*
X202797333Y-130687142D01*
X202844952Y-130591904D01*
X202892571Y-130544285D01*
X202987809Y-130496666D01*
X203225904Y-130496666D01*
X203321142Y-130544285D01*
X203368761Y-130591904D01*
X203416380Y-130687142D01*
X203416380Y-130972857D01*
X203368761Y-131068095D01*
X203321142Y-131115714D01*
X213528761Y-133163333D02*
X213576380Y-133020476D01*
X213576380Y-132782380D01*
X213528761Y-132687142D01*
X213481142Y-132639523D01*
X213385904Y-132591904D01*
X213290666Y-132591904D01*
X213195428Y-132639523D01*
X213147809Y-132687142D01*
X213100190Y-132782380D01*
X213052571Y-132972857D01*
X213004952Y-133068095D01*
X212957333Y-133115714D01*
X212862095Y-133163333D01*
X212766857Y-133163333D01*
X212671619Y-133115714D01*
X212624000Y-133068095D01*
X212576380Y-132972857D01*
X212576380Y-132734761D01*
X212624000Y-132591904D01*
X212576380Y-132258571D02*
X213576380Y-132020476D01*
X212862095Y-131830000D01*
X213576380Y-131639523D01*
X212576380Y-131401428D01*
X212909714Y-130591904D02*
X213576380Y-130591904D01*
X212528761Y-130830000D02*
X213243047Y-131068095D01*
X213243047Y-130449047D01*
X223688761Y-133163333D02*
X223736380Y-133020476D01*
X223736380Y-132782380D01*
X223688761Y-132687142D01*
X223641142Y-132639523D01*
X223545904Y-132591904D01*
X223450666Y-132591904D01*
X223355428Y-132639523D01*
X223307809Y-132687142D01*
X223260190Y-132782380D01*
X223212571Y-132972857D01*
X223164952Y-133068095D01*
X223117333Y-133115714D01*
X223022095Y-133163333D01*
X222926857Y-133163333D01*
X222831619Y-133115714D01*
X222784000Y-133068095D01*
X222736380Y-132972857D01*
X222736380Y-132734761D01*
X222784000Y-132591904D01*
X222736380Y-132258571D02*
X223736380Y-132020476D01*
X223022095Y-131830000D01*
X223736380Y-131639523D01*
X222736380Y-131401428D01*
X222736380Y-130544285D02*
X222736380Y-131020476D01*
X223212571Y-131068095D01*
X223164952Y-131020476D01*
X223117333Y-130925238D01*
X223117333Y-130687142D01*
X223164952Y-130591904D01*
X223212571Y-130544285D01*
X223307809Y-130496666D01*
X223545904Y-130496666D01*
X223641142Y-130544285D01*
X223688761Y-130591904D01*
X223736380Y-130687142D01*
X223736380Y-130925238D01*
X223688761Y-131020476D01*
X223641142Y-131068095D01*
X233848761Y-133163333D02*
X233896380Y-133020476D01*
X233896380Y-132782380D01*
X233848761Y-132687142D01*
X233801142Y-132639523D01*
X233705904Y-132591904D01*
X233610666Y-132591904D01*
X233515428Y-132639523D01*
X233467809Y-132687142D01*
X233420190Y-132782380D01*
X233372571Y-132972857D01*
X233324952Y-133068095D01*
X233277333Y-133115714D01*
X233182095Y-133163333D01*
X233086857Y-133163333D01*
X232991619Y-133115714D01*
X232944000Y-133068095D01*
X232896380Y-132972857D01*
X232896380Y-132734761D01*
X232944000Y-132591904D01*
X232896380Y-132258571D02*
X233896380Y-132020476D01*
X233182095Y-131830000D01*
X233896380Y-131639523D01*
X232896380Y-131401428D01*
X232896380Y-130591904D02*
X232896380Y-130782380D01*
X232944000Y-130877619D01*
X232991619Y-130925238D01*
X233134476Y-131020476D01*
X233324952Y-131068095D01*
X233705904Y-131068095D01*
X233801142Y-131020476D01*
X233848761Y-130972857D01*
X233896380Y-130877619D01*
X233896380Y-130687142D01*
X233848761Y-130591904D01*
X233801142Y-130544285D01*
X233705904Y-130496666D01*
X233467809Y-130496666D01*
X233372571Y-130544285D01*
X233324952Y-130591904D01*
X233277333Y-130687142D01*
X233277333Y-130877619D01*
X233324952Y-130972857D01*
X233372571Y-131020476D01*
X233467809Y-131068095D01*
X244008761Y-133163333D02*
X244056380Y-133020476D01*
X244056380Y-132782380D01*
X244008761Y-132687142D01*
X243961142Y-132639523D01*
X243865904Y-132591904D01*
X243770666Y-132591904D01*
X243675428Y-132639523D01*
X243627809Y-132687142D01*
X243580190Y-132782380D01*
X243532571Y-132972857D01*
X243484952Y-133068095D01*
X243437333Y-133115714D01*
X243342095Y-133163333D01*
X243246857Y-133163333D01*
X243151619Y-133115714D01*
X243104000Y-133068095D01*
X243056380Y-132972857D01*
X243056380Y-132734761D01*
X243104000Y-132591904D01*
X243056380Y-132258571D02*
X244056380Y-132020476D01*
X243342095Y-131830000D01*
X244056380Y-131639523D01*
X243056380Y-131401428D01*
X243056380Y-131115714D02*
X243056380Y-130449047D01*
X244056380Y-130877619D01*
X254168761Y-133163333D02*
X254216380Y-133020476D01*
X254216380Y-132782380D01*
X254168761Y-132687142D01*
X254121142Y-132639523D01*
X254025904Y-132591904D01*
X253930666Y-132591904D01*
X253835428Y-132639523D01*
X253787809Y-132687142D01*
X253740190Y-132782380D01*
X253692571Y-132972857D01*
X253644952Y-133068095D01*
X253597333Y-133115714D01*
X253502095Y-133163333D01*
X253406857Y-133163333D01*
X253311619Y-133115714D01*
X253264000Y-133068095D01*
X253216380Y-132972857D01*
X253216380Y-132734761D01*
X253264000Y-132591904D01*
X253216380Y-132258571D02*
X254216380Y-132020476D01*
X253502095Y-131830000D01*
X254216380Y-131639523D01*
X253216380Y-131401428D01*
X253644952Y-130877619D02*
X253597333Y-130972857D01*
X253549714Y-131020476D01*
X253454476Y-131068095D01*
X253406857Y-131068095D01*
X253311619Y-131020476D01*
X253264000Y-130972857D01*
X253216380Y-130877619D01*
X253216380Y-130687142D01*
X253264000Y-130591904D01*
X253311619Y-130544285D01*
X253406857Y-130496666D01*
X253454476Y-130496666D01*
X253549714Y-130544285D01*
X253597333Y-130591904D01*
X253644952Y-130687142D01*
X253644952Y-130877619D01*
X253692571Y-130972857D01*
X253740190Y-131020476D01*
X253835428Y-131068095D01*
X254025904Y-131068095D01*
X254121142Y-131020476D01*
X254168761Y-130972857D01*
X254216380Y-130877619D01*
X254216380Y-130687142D01*
X254168761Y-130591904D01*
X254121142Y-130544285D01*
X254025904Y-130496666D01*
X253835428Y-130496666D01*
X253740190Y-130544285D01*
X253692571Y-130591904D01*
X253644952Y-130687142D01*
X218531437Y-99724648D02*
X219103857Y-100297068D01*
X219204872Y-100330740D01*
X219272216Y-100330740D01*
X219373231Y-100297068D01*
X219507918Y-100162381D01*
X219541590Y-100061366D01*
X219541590Y-99994022D01*
X219507918Y-99893007D01*
X218935498Y-99320587D01*
X219305888Y-99084885D02*
X219305888Y-99017542D01*
X219339559Y-98916526D01*
X219507918Y-98748168D01*
X219608933Y-98714496D01*
X219676277Y-98714496D01*
X219777292Y-98748168D01*
X219844636Y-98815511D01*
X219911979Y-98950198D01*
X219911979Y-99758320D01*
X220349712Y-99320587D01*
X200152095Y-70274380D02*
X200152095Y-71083904D01*
X200199714Y-71179142D01*
X200247333Y-71226761D01*
X200342571Y-71274380D01*
X200533047Y-71274380D01*
X200628285Y-71226761D01*
X200675904Y-71179142D01*
X200723523Y-71083904D01*
X200723523Y-70274380D01*
X201104476Y-70274380D02*
X201723523Y-70274380D01*
X201390190Y-70655333D01*
X201533047Y-70655333D01*
X201628285Y-70702952D01*
X201675904Y-70750571D01*
X201723523Y-70845809D01*
X201723523Y-71083904D01*
X201675904Y-71179142D01*
X201628285Y-71226761D01*
X201533047Y-71274380D01*
X201247333Y-71274380D01*
X201152095Y-71226761D01*
X201104476Y-71179142D01*
X236855095Y-70274380D02*
X236855095Y-71083904D01*
X236902714Y-71179142D01*
X236950333Y-71226761D01*
X237045571Y-71274380D01*
X237236047Y-71274380D01*
X237331285Y-71226761D01*
X237378904Y-71179142D01*
X237426523Y-71083904D01*
X237426523Y-70274380D01*
X238331285Y-70607714D02*
X238331285Y-71274380D01*
X238093190Y-70226761D02*
X237855095Y-70941047D01*
X238474142Y-70941047D01*
X177482095Y-71270880D02*
X177482095Y-72080404D01*
X177529714Y-72175642D01*
X177577333Y-72223261D01*
X177672571Y-72270880D01*
X177863047Y-72270880D01*
X177958285Y-72223261D01*
X178005904Y-72175642D01*
X178053523Y-72080404D01*
X178053523Y-71270880D01*
X178958285Y-71270880D02*
X178767809Y-71270880D01*
X178672571Y-71318500D01*
X178624952Y-71366119D01*
X178529714Y-71508976D01*
X178482095Y-71699452D01*
X178482095Y-72080404D01*
X178529714Y-72175642D01*
X178577333Y-72223261D01*
X178672571Y-72270880D01*
X178863047Y-72270880D01*
X178958285Y-72223261D01*
X179005904Y-72175642D01*
X179053523Y-72080404D01*
X179053523Y-71842309D01*
X179005904Y-71747071D01*
X178958285Y-71699452D01*
X178863047Y-71651833D01*
X178672571Y-71651833D01*
X178577333Y-71699452D01*
X178529714Y-71747071D01*
X178482095Y-71842309D01*
X269748095Y-91298780D02*
X269748095Y-92108304D01*
X269795714Y-92203542D01*
X269843333Y-92251161D01*
X269938571Y-92298780D01*
X270129047Y-92298780D01*
X270224285Y-92251161D01*
X270271904Y-92203542D01*
X270319523Y-92108304D01*
X270319523Y-91298780D01*
X270938571Y-91727352D02*
X270843333Y-91679733D01*
X270795714Y-91632114D01*
X270748095Y-91536876D01*
X270748095Y-91489257D01*
X270795714Y-91394019D01*
X270843333Y-91346400D01*
X270938571Y-91298780D01*
X271129047Y-91298780D01*
X271224285Y-91346400D01*
X271271904Y-91394019D01*
X271319523Y-91489257D01*
X271319523Y-91536876D01*
X271271904Y-91632114D01*
X271224285Y-91679733D01*
X271129047Y-91727352D01*
X270938571Y-91727352D01*
X270843333Y-91774971D01*
X270795714Y-91822590D01*
X270748095Y-91917828D01*
X270748095Y-92108304D01*
X270795714Y-92203542D01*
X270843333Y-92251161D01*
X270938571Y-92298780D01*
X271129047Y-92298780D01*
X271224285Y-92251161D01*
X271271904Y-92203542D01*
X271319523Y-92108304D01*
X271319523Y-91917828D01*
X271271904Y-91822590D01*
X271224285Y-91774971D01*
X271129047Y-91727352D01*
X248666095Y-99401380D02*
X248666095Y-100210904D01*
X248713714Y-100306142D01*
X248761333Y-100353761D01*
X248856571Y-100401380D01*
X249047047Y-100401380D01*
X249142285Y-100353761D01*
X249189904Y-100306142D01*
X249237523Y-100210904D01*
X249237523Y-99401380D01*
X249761333Y-100401380D02*
X249951809Y-100401380D01*
X250047047Y-100353761D01*
X250094666Y-100306142D01*
X250189904Y-100163285D01*
X250237523Y-99972809D01*
X250237523Y-99591857D01*
X250189904Y-99496619D01*
X250142285Y-99449000D01*
X250047047Y-99401380D01*
X249856571Y-99401380D01*
X249761333Y-99449000D01*
X249713714Y-99496619D01*
X249666095Y-99591857D01*
X249666095Y-99829952D01*
X249713714Y-99925190D01*
X249761333Y-99972809D01*
X249856571Y-100020428D01*
X250047047Y-100020428D01*
X250142285Y-99972809D01*
X250189904Y-99925190D01*
X250237523Y-99829952D01*
X183165904Y-122316380D02*
X183165904Y-123125904D01*
X183213523Y-123221142D01*
X183261142Y-123268761D01*
X183356380Y-123316380D01*
X183546857Y-123316380D01*
X183642095Y-123268761D01*
X183689714Y-123221142D01*
X183737333Y-123125904D01*
X183737333Y-122316380D01*
X184737333Y-123316380D02*
X184165904Y-123316380D01*
X184451619Y-123316380D02*
X184451619Y-122316380D01*
X184356380Y-122459238D01*
X184261142Y-122554476D01*
X184165904Y-122602095D01*
X185356380Y-122316380D02*
X185451619Y-122316380D01*
X185546857Y-122364000D01*
X185594476Y-122411619D01*
X185642095Y-122506857D01*
X185689714Y-122697333D01*
X185689714Y-122935428D01*
X185642095Y-123125904D01*
X185594476Y-123221142D01*
X185546857Y-123268761D01*
X185451619Y-123316380D01*
X185356380Y-123316380D01*
X185261142Y-123268761D01*
X185213523Y-123221142D01*
X185165904Y-123125904D01*
X185118285Y-122935428D01*
X185118285Y-122697333D01*
X185165904Y-122506857D01*
X185213523Y-122411619D01*
X185261142Y-122364000D01*
X185356380Y-122316380D01*
X199421904Y-120610380D02*
X199421904Y-121419904D01*
X199469523Y-121515142D01*
X199517142Y-121562761D01*
X199612380Y-121610380D01*
X199802857Y-121610380D01*
X199898095Y-121562761D01*
X199945714Y-121515142D01*
X199993333Y-121419904D01*
X199993333Y-120610380D01*
X200993333Y-121610380D02*
X200421904Y-121610380D01*
X200707619Y-121610380D02*
X200707619Y-120610380D01*
X200612380Y-120753238D01*
X200517142Y-120848476D01*
X200421904Y-120896095D01*
X201945714Y-121610380D02*
X201374285Y-121610380D01*
X201660000Y-121610380D02*
X201660000Y-120610380D01*
X201564761Y-120753238D01*
X201469523Y-120848476D01*
X201374285Y-120896095D01*
M02*
